%TF.GenerationSoftware,KiCad,Pcbnew,(6.0.0)*%
%TF.CreationDate,2022-08-29T11:56:51+07:00*%
%TF.ProjectId,FlightBit,466c6967-6874-4426-9974-2e6b69636164,rev?*%
%TF.SameCoordinates,Original*%
%TF.FileFunction,Paste,Top*%
%TF.FilePolarity,Positive*%
%FSLAX46Y46*%
G04 Gerber Fmt 4.6, Leading zero omitted, Abs format (unit mm)*
G04 Created by KiCad (PCBNEW (6.0.0)) date 2022-08-29 11:56:51*
%MOMM*%
%LPD*%
G01*
G04 APERTURE LIST*
G04 Aperture macros list*
%AMRoundRect*
0 Rectangle with rounded corners*
0 $1 Rounding radius*
0 $2 $3 $4 $5 $6 $7 $8 $9 X,Y pos of 4 corners*
0 Add a 4 corners polygon primitive as box body*
4,1,4,$2,$3,$4,$5,$6,$7,$8,$9,$2,$3,0*
0 Add four circle primitives for the rounded corners*
1,1,$1+$1,$2,$3*
1,1,$1+$1,$4,$5*
1,1,$1+$1,$6,$7*
1,1,$1+$1,$8,$9*
0 Add four rect primitives between the rounded corners*
20,1,$1+$1,$2,$3,$4,$5,0*
20,1,$1+$1,$4,$5,$6,$7,0*
20,1,$1+$1,$6,$7,$8,$9,0*
20,1,$1+$1,$8,$9,$2,$3,0*%
%AMFreePoly0*
4,1,9,3.862500,-0.866500,0.737500,-0.866500,0.737500,-0.450000,-0.737500,-0.450000,-0.737500,0.450000,0.737500,0.450000,0.737500,0.866500,3.862500,0.866500,3.862500,-0.866500,3.862500,-0.866500,$1*%
G04 Aperture macros list end*
%ADD10R,1.700000X0.900000*%
%ADD11RoundRect,0.140000X0.140000X0.170000X-0.140000X0.170000X-0.140000X-0.170000X0.140000X-0.170000X0*%
%ADD12RoundRect,0.218750X-0.256250X0.218750X-0.256250X-0.218750X0.256250X-0.218750X0.256250X0.218750X0*%
%ADD13RoundRect,0.140000X-0.170000X0.140000X-0.170000X-0.140000X0.170000X-0.140000X0.170000X0.140000X0*%
%ADD14RoundRect,0.135000X-0.185000X0.135000X-0.185000X-0.135000X0.185000X-0.135000X0.185000X0.135000X0*%
%ADD15R,1.160000X0.600000*%
%ADD16R,1.160000X0.300000*%
%ADD17RoundRect,0.250000X0.475000X-0.250000X0.475000X0.250000X-0.475000X0.250000X-0.475000X-0.250000X0*%
%ADD18RoundRect,0.150000X0.587500X0.150000X-0.587500X0.150000X-0.587500X-0.150000X0.587500X-0.150000X0*%
%ADD19RoundRect,0.135000X0.135000X0.185000X-0.135000X0.185000X-0.135000X-0.185000X0.135000X-0.185000X0*%
%ADD20RoundRect,0.135000X-0.135000X-0.185000X0.135000X-0.185000X0.135000X0.185000X-0.135000X0.185000X0*%
%ADD21RoundRect,0.135000X0.185000X-0.135000X0.185000X0.135000X-0.185000X0.135000X-0.185000X-0.135000X0*%
%ADD22RoundRect,0.250000X0.325000X0.650000X-0.325000X0.650000X-0.325000X-0.650000X0.325000X-0.650000X0*%
%ADD23RoundRect,0.140000X0.170000X-0.140000X0.170000X0.140000X-0.170000X0.140000X-0.170000X-0.140000X0*%
%ADD24RoundRect,0.140000X-0.140000X-0.170000X0.140000X-0.170000X0.140000X0.170000X-0.140000X0.170000X0*%
%ADD25R,0.900000X1.200000*%
%ADD26R,1.200000X1.400000*%
%ADD27R,0.900000X1.300000*%
%ADD28FreePoly0,270.000000*%
%ADD29RoundRect,0.250000X-0.250000X-0.475000X0.250000X-0.475000X0.250000X0.475000X-0.250000X0.475000X0*%
%ADD30R,2.500000X1.800000*%
%ADD31R,1.800000X2.500000*%
%ADD32RoundRect,0.240000X0.240000X0.385000X-0.240000X0.385000X-0.240000X-0.385000X0.240000X-0.385000X0*%
%ADD33RoundRect,0.150000X0.825000X0.150000X-0.825000X0.150000X-0.825000X-0.150000X0.825000X-0.150000X0*%
%ADD34RoundRect,0.075000X-0.662500X-0.075000X0.662500X-0.075000X0.662500X0.075000X-0.662500X0.075000X0*%
%ADD35RoundRect,0.075000X-0.075000X-0.662500X0.075000X-0.662500X0.075000X0.662500X-0.075000X0.662500X0*%
%ADD36RoundRect,0.075000X0.350000X0.075000X-0.350000X0.075000X-0.350000X-0.075000X0.350000X-0.075000X0*%
%ADD37RoundRect,0.075000X-0.075000X0.350000X-0.075000X-0.350000X0.075000X-0.350000X0.075000X0.350000X0*%
%ADD38R,3.500000X2.350000*%
G04 APERTURE END LIST*
D10*
%TO.C,SW1*%
X121500000Y-95500000D03*
X121500000Y-98900000D03*
%TD*%
D11*
%TO.C,C3*%
X140900000Y-101000000D03*
X139940000Y-101000000D03*
%TD*%
D12*
%TO.C,D3*%
X145400000Y-78212500D03*
X145400000Y-79787500D03*
%TD*%
D13*
%TO.C,C4*%
X143700000Y-91720000D03*
X143700000Y-92680000D03*
%TD*%
D14*
%TO.C,R16*%
X147070000Y-81190000D03*
X147070000Y-82210000D03*
%TD*%
D15*
%TO.C,J2*%
X151815000Y-100400000D03*
X151815000Y-99600000D03*
D16*
X151815000Y-98450000D03*
X151815000Y-97450000D03*
X151815000Y-96950000D03*
X151815000Y-95950000D03*
D15*
X151815000Y-94800000D03*
X151815000Y-94000000D03*
X151815000Y-94000000D03*
X151815000Y-94800000D03*
D16*
X151815000Y-95450000D03*
X151815000Y-96450000D03*
X151815000Y-97950000D03*
X151815000Y-98950000D03*
D15*
X151815000Y-99600000D03*
X151815000Y-100400000D03*
%TD*%
D17*
%TO.C,C17*%
X155150000Y-107600000D03*
X155150000Y-105700000D03*
%TD*%
D18*
%TO.C,Q1*%
X153377500Y-88830000D03*
X153377500Y-86930000D03*
X151502500Y-87880000D03*
%TD*%
D12*
%TO.C,D5*%
X148800000Y-78200000D03*
X148800000Y-79775000D03*
%TD*%
D19*
%TO.C,R6*%
X153390000Y-85600000D03*
X152370000Y-85600000D03*
%TD*%
D20*
%TO.C,R14*%
X130140000Y-104100000D03*
X131160000Y-104100000D03*
%TD*%
%TO.C,R9*%
X136240000Y-107600000D03*
X137260000Y-107600000D03*
%TD*%
D19*
%TO.C,R10*%
X137260000Y-108600000D03*
X136240000Y-108600000D03*
%TD*%
D21*
%TO.C,R2*%
X121500000Y-101310000D03*
X121500000Y-100290000D03*
%TD*%
D13*
%TO.C,C8*%
X138100000Y-78220000D03*
X138100000Y-79180000D03*
%TD*%
%TO.C,C11*%
X136450000Y-85950000D03*
X136450000Y-86910000D03*
%TD*%
D11*
%TO.C,C14*%
X137230000Y-109700000D03*
X136270000Y-109700000D03*
%TD*%
D12*
%TO.C,D4*%
X147100000Y-78200000D03*
X147100000Y-79775000D03*
%TD*%
D20*
%TO.C,R11*%
X125440000Y-106200000D03*
X126460000Y-106200000D03*
%TD*%
D21*
%TO.C,R4*%
X139050000Y-86950000D03*
X139050000Y-85930000D03*
%TD*%
D20*
%TO.C,R19*%
X125290000Y-101600000D03*
X126310000Y-101600000D03*
%TD*%
D19*
%TO.C,R18*%
X126300000Y-102700000D03*
X125280000Y-102700000D03*
%TD*%
D13*
%TO.C,C10*%
X133800000Y-82220000D03*
X133800000Y-83180000D03*
%TD*%
D22*
%TO.C,C12*%
X126525000Y-108000000D03*
X123575000Y-108000000D03*
%TD*%
D23*
%TO.C,C9*%
X136800000Y-79180000D03*
X136800000Y-78220000D03*
%TD*%
D20*
%TO.C,R5*%
X152380000Y-90200000D03*
X153400000Y-90200000D03*
%TD*%
D24*
%TO.C,C7*%
X125240000Y-99800000D03*
X126200000Y-99800000D03*
%TD*%
D19*
%TO.C,R8*%
X149410000Y-97800000D03*
X148390000Y-97800000D03*
%TD*%
D25*
%TO.C,D6*%
X146050000Y-99800000D03*
X149350000Y-99800000D03*
%TD*%
D26*
%TO.C,Y1*%
X124970000Y-96000000D03*
X124970000Y-98200000D03*
X126670000Y-98200000D03*
X126670000Y-96000000D03*
%TD*%
D11*
%TO.C,C13*%
X137220000Y-106500000D03*
X136260000Y-106500000D03*
%TD*%
D19*
%TO.C,R7*%
X149410000Y-96700000D03*
X148390000Y-96700000D03*
%TD*%
D27*
%TO.C,U4*%
X153050000Y-105850000D03*
D28*
X151550000Y-105937500D03*
D27*
X150050000Y-105850000D03*
%TD*%
D29*
%TO.C,C16*%
X150100000Y-103800000D03*
X152000000Y-103800000D03*
%TD*%
D21*
%TO.C,R3*%
X140150000Y-86960000D03*
X140150000Y-85940000D03*
%TD*%
D14*
%TO.C,R15*%
X145400000Y-81190000D03*
X145400000Y-82210000D03*
%TD*%
D23*
%TO.C,C5*%
X131400000Y-92100000D03*
X131400000Y-91140000D03*
%TD*%
D14*
%TO.C,R17*%
X148800000Y-81190000D03*
X148800000Y-82210000D03*
%TD*%
D11*
%TO.C,C6*%
X126280000Y-94400000D03*
X125320000Y-94400000D03*
%TD*%
D30*
%TO.C,D1*%
X129750000Y-112000000D03*
X133750000Y-112000000D03*
%TD*%
D22*
%TO.C,C15*%
X146225000Y-103100000D03*
X143275000Y-103100000D03*
%TD*%
D24*
%TO.C,C2*%
X134240000Y-89200000D03*
X135200000Y-89200000D03*
%TD*%
D31*
%TO.C,D2*%
X139650000Y-110900000D03*
X139650000Y-106900000D03*
%TD*%
D32*
%TO.C,U3*%
X132320000Y-106650000D03*
X131180000Y-108150000D03*
X131180000Y-106650000D03*
X132320000Y-108150000D03*
D33*
X134225000Y-109305000D03*
X134225000Y-108035000D03*
X134225000Y-106765000D03*
X134225000Y-105495000D03*
X129275000Y-105495000D03*
X129275000Y-106765000D03*
X129275000Y-108035000D03*
X129275000Y-109305000D03*
%TD*%
D14*
%TO.C,R1*%
X121500000Y-92990000D03*
X121500000Y-94010000D03*
%TD*%
D34*
%TO.C,U1*%
X133437500Y-92450000D03*
X133437500Y-92950000D03*
X133437500Y-93450000D03*
X133437500Y-93950000D03*
X133437500Y-94450000D03*
X133437500Y-94950000D03*
X133437500Y-95450000D03*
X133437500Y-95950000D03*
X133437500Y-96450000D03*
X133437500Y-96950000D03*
X133437500Y-97450000D03*
X133437500Y-97950000D03*
D35*
X134850000Y-99362500D03*
X135350000Y-99362500D03*
X135850000Y-99362500D03*
X136350000Y-99362500D03*
X136850000Y-99362500D03*
X137350000Y-99362500D03*
X137850000Y-99362500D03*
X138350000Y-99362500D03*
X138850000Y-99362500D03*
X139350000Y-99362500D03*
X139850000Y-99362500D03*
X140350000Y-99362500D03*
D34*
X141762500Y-97950000D03*
X141762500Y-97450000D03*
X141762500Y-96950000D03*
X141762500Y-96450000D03*
X141762500Y-95950000D03*
X141762500Y-95450000D03*
X141762500Y-94950000D03*
X141762500Y-94450000D03*
X141762500Y-93950000D03*
X141762500Y-93450000D03*
X141762500Y-92950000D03*
X141762500Y-92450000D03*
D35*
X140350000Y-91037500D03*
X139850000Y-91037500D03*
X139350000Y-91037500D03*
X138850000Y-91037500D03*
X138350000Y-91037500D03*
X137850000Y-91037500D03*
X137350000Y-91037500D03*
X136850000Y-91037500D03*
X136350000Y-91037500D03*
X135850000Y-91037500D03*
X135350000Y-91037500D03*
X134850000Y-91037500D03*
%TD*%
D36*
%TO.C,U2*%
X139150000Y-83850000D03*
X139150000Y-83350000D03*
X139150000Y-82850000D03*
X139150000Y-82350000D03*
X139150000Y-81850000D03*
X139150000Y-81350000D03*
D37*
X138450000Y-80650000D03*
X137950000Y-80650000D03*
X137450000Y-80650000D03*
X136950000Y-80650000D03*
X136450000Y-80650000D03*
X135950000Y-80650000D03*
D36*
X135250000Y-81350000D03*
X135250000Y-81850000D03*
X135250000Y-82350000D03*
X135250000Y-82850000D03*
X135250000Y-83350000D03*
X135250000Y-83850000D03*
D37*
X135950000Y-84550000D03*
X136450000Y-84550000D03*
X136950000Y-84550000D03*
X137450000Y-84550000D03*
X137950000Y-84550000D03*
X138450000Y-84550000D03*
%TD*%
D20*
%TO.C,R12*%
X136240000Y-105500000D03*
X137260000Y-105500000D03*
%TD*%
%TO.C,R13*%
X132950000Y-104100000D03*
X133970000Y-104100000D03*
%TD*%
D38*
%TO.C,L1*%
X145050000Y-111930000D03*
X145050000Y-105870000D03*
%TD*%
D23*
%TO.C,C1*%
X131000000Y-97380000D03*
X131000000Y-96420000D03*
%TD*%
M02*
