%TF.GenerationSoftware,KiCad,Pcbnew,(6.0.0)*%
%TF.CreationDate,2022-08-29T11:56:51+07:00*%
%TF.ProjectId,FlightBit,466c6967-6874-4426-9974-2e6b69636164,rev?*%
%TF.SameCoordinates,Original*%
%TF.FileFunction,Legend,Top*%
%TF.FilePolarity,Positive*%
%FSLAX46Y46*%
G04 Gerber Fmt 4.6, Leading zero omitted, Abs format (unit mm)*
G04 Created by KiCad (PCBNEW (6.0.0)) date 2022-08-29 11:56:51*
%MOMM*%
%LPD*%
G01*
G04 APERTURE LIST*
%ADD10C,0.100000*%
%ADD11C,0.120000*%
%ADD12C,0.150000*%
G04 APERTURE END LIST*
D10*
X157116666Y-105133333D02*
X156416666Y-105133333D01*
X156416666Y-104866666D01*
X156450000Y-104800000D01*
X156483333Y-104766666D01*
X156550000Y-104733333D01*
X156650000Y-104733333D01*
X156716666Y-104766666D01*
X156750000Y-104800000D01*
X156783333Y-104866666D01*
X156783333Y-105133333D01*
X157116666Y-104433333D02*
X156416666Y-104433333D01*
X156416666Y-104166666D01*
X156450000Y-104100000D01*
X156483333Y-104066666D01*
X156550000Y-104033333D01*
X156650000Y-104033333D01*
X156716666Y-104066666D01*
X156750000Y-104100000D01*
X156783333Y-104166666D01*
X156783333Y-104433333D01*
X157116666Y-103733333D02*
X156416666Y-103733333D01*
X156916666Y-103500000D01*
X156416666Y-103266666D01*
X157116666Y-103266666D01*
X134283333Y-113750000D02*
X134216666Y-113716666D01*
X134116666Y-113716666D01*
X134016666Y-113750000D01*
X133950000Y-113816666D01*
X133916666Y-113883333D01*
X133883333Y-114016666D01*
X133883333Y-114116666D01*
X133916666Y-114250000D01*
X133950000Y-114316666D01*
X134016666Y-114383333D01*
X134116666Y-114416666D01*
X134183333Y-114416666D01*
X134283333Y-114383333D01*
X134316666Y-114350000D01*
X134316666Y-114116666D01*
X134183333Y-114116666D01*
X121350000Y-90983333D02*
X121383333Y-90916666D01*
X121383333Y-90816666D01*
X121350000Y-90716666D01*
X121283333Y-90650000D01*
X121216666Y-90616666D01*
X121083333Y-90583333D01*
X120983333Y-90583333D01*
X120850000Y-90616666D01*
X120783333Y-90650000D01*
X120716666Y-90716666D01*
X120683333Y-90816666D01*
X120683333Y-90883333D01*
X120716666Y-90983333D01*
X120750000Y-91016666D01*
X120983333Y-91016666D01*
X120983333Y-90883333D01*
X145066666Y-114383333D02*
X145166666Y-114416666D01*
X145333333Y-114416666D01*
X145400000Y-114383333D01*
X145433333Y-114350000D01*
X145466666Y-114283333D01*
X145466666Y-114216666D01*
X145433333Y-114150000D01*
X145400000Y-114116666D01*
X145333333Y-114083333D01*
X145200000Y-114050000D01*
X145133333Y-114016666D01*
X145100000Y-113983333D01*
X145066666Y-113916666D01*
X145066666Y-113850000D01*
X145100000Y-113783333D01*
X145133333Y-113750000D01*
X145200000Y-113716666D01*
X145366666Y-113716666D01*
X145466666Y-113750000D01*
X146066666Y-113950000D02*
X146066666Y-114416666D01*
X145900000Y-113683333D02*
X145733333Y-114183333D01*
X146166666Y-114183333D01*
X156216666Y-88033333D02*
X156216666Y-88366666D01*
X156550000Y-88400000D01*
X156516666Y-88366666D01*
X156483333Y-88300000D01*
X156483333Y-88133333D01*
X156516666Y-88066666D01*
X156550000Y-88033333D01*
X156616666Y-88000000D01*
X156783333Y-88000000D01*
X156850000Y-88033333D01*
X156883333Y-88066666D01*
X156916666Y-88133333D01*
X156916666Y-88300000D01*
X156883333Y-88366666D01*
X156850000Y-88400000D01*
X156216666Y-87800000D02*
X156916666Y-87566666D01*
X156216666Y-87333333D01*
X156450000Y-108616666D02*
X156416666Y-108683333D01*
X156416666Y-108783333D01*
X156450000Y-108883333D01*
X156516666Y-108950000D01*
X156583333Y-108983333D01*
X156716666Y-109016666D01*
X156816666Y-109016666D01*
X156950000Y-108983333D01*
X157016666Y-108950000D01*
X157083333Y-108883333D01*
X157116666Y-108783333D01*
X157116666Y-108716666D01*
X157083333Y-108616666D01*
X157050000Y-108583333D01*
X156816666Y-108583333D01*
X156816666Y-108716666D01*
X142766666Y-114383333D02*
X142866666Y-114416666D01*
X143033333Y-114416666D01*
X143100000Y-114383333D01*
X143133333Y-114350000D01*
X143166666Y-114283333D01*
X143166666Y-114216666D01*
X143133333Y-114150000D01*
X143100000Y-114116666D01*
X143033333Y-114083333D01*
X142900000Y-114050000D01*
X142833333Y-114016666D01*
X142800000Y-113983333D01*
X142766666Y-113916666D01*
X142766666Y-113850000D01*
X142800000Y-113783333D01*
X142833333Y-113750000D01*
X142900000Y-113716666D01*
X143066666Y-113716666D01*
X143166666Y-113750000D01*
X143400000Y-113716666D02*
X143833333Y-113716666D01*
X143600000Y-113983333D01*
X143700000Y-113983333D01*
X143766666Y-114016666D01*
X143800000Y-114050000D01*
X143833333Y-114116666D01*
X143833333Y-114283333D01*
X143800000Y-114350000D01*
X143766666Y-114383333D01*
X143700000Y-114416666D01*
X143500000Y-114416666D01*
X143433333Y-114383333D01*
X143400000Y-114350000D01*
X136166666Y-113716666D02*
X136400000Y-114416666D01*
X136633333Y-113716666D01*
X140366666Y-114383333D02*
X140466666Y-114416666D01*
X140633333Y-114416666D01*
X140700000Y-114383333D01*
X140733333Y-114350000D01*
X140766666Y-114283333D01*
X140766666Y-114216666D01*
X140733333Y-114150000D01*
X140700000Y-114116666D01*
X140633333Y-114083333D01*
X140500000Y-114050000D01*
X140433333Y-114016666D01*
X140400000Y-113983333D01*
X140366666Y-113916666D01*
X140366666Y-113850000D01*
X140400000Y-113783333D01*
X140433333Y-113750000D01*
X140500000Y-113716666D01*
X140666666Y-113716666D01*
X140766666Y-113750000D01*
X141033333Y-113783333D02*
X141066666Y-113750000D01*
X141133333Y-113716666D01*
X141300000Y-113716666D01*
X141366666Y-113750000D01*
X141400000Y-113783333D01*
X141433333Y-113850000D01*
X141433333Y-113916666D01*
X141400000Y-114016666D01*
X141000000Y-114416666D01*
X141433333Y-114416666D01*
X138166666Y-114383333D02*
X138266666Y-114416666D01*
X138433333Y-114416666D01*
X138500000Y-114383333D01*
X138533333Y-114350000D01*
X138566666Y-114283333D01*
X138566666Y-114216666D01*
X138533333Y-114150000D01*
X138500000Y-114116666D01*
X138433333Y-114083333D01*
X138300000Y-114050000D01*
X138233333Y-114016666D01*
X138200000Y-113983333D01*
X138166666Y-113916666D01*
X138166666Y-113850000D01*
X138200000Y-113783333D01*
X138233333Y-113750000D01*
X138300000Y-113716666D01*
X138466666Y-113716666D01*
X138566666Y-113750000D01*
X139233333Y-114416666D02*
X138833333Y-114416666D01*
X139033333Y-114416666D02*
X139033333Y-113716666D01*
X138966666Y-113816666D01*
X138900000Y-113883333D01*
X138833333Y-113916666D01*
X156416666Y-106633333D02*
X156416666Y-106966666D01*
X156750000Y-107000000D01*
X156716666Y-106966666D01*
X156683333Y-106900000D01*
X156683333Y-106733333D01*
X156716666Y-106666666D01*
X156750000Y-106633333D01*
X156816666Y-106600000D01*
X156983333Y-106600000D01*
X157050000Y-106633333D01*
X157083333Y-106666666D01*
X157116666Y-106733333D01*
X157116666Y-106900000D01*
X157083333Y-106966666D01*
X157050000Y-107000000D01*
X156416666Y-106400000D02*
X157116666Y-106166666D01*
X156416666Y-105933333D01*
X156883333Y-91450000D02*
X156916666Y-91350000D01*
X156916666Y-91183333D01*
X156883333Y-91116666D01*
X156850000Y-91083333D01*
X156783333Y-91050000D01*
X156716666Y-91050000D01*
X156650000Y-91083333D01*
X156616666Y-91116666D01*
X156583333Y-91183333D01*
X156550000Y-91316666D01*
X156516666Y-91383333D01*
X156483333Y-91416666D01*
X156416666Y-91450000D01*
X156350000Y-91450000D01*
X156283333Y-91416666D01*
X156250000Y-91383333D01*
X156216666Y-91316666D01*
X156216666Y-91150000D01*
X156250000Y-91050000D01*
X156550000Y-90516666D02*
X156583333Y-90416666D01*
X156616666Y-90383333D01*
X156683333Y-90350000D01*
X156783333Y-90350000D01*
X156850000Y-90383333D01*
X156883333Y-90416666D01*
X156916666Y-90483333D01*
X156916666Y-90750000D01*
X156216666Y-90750000D01*
X156216666Y-90516666D01*
X156250000Y-90450000D01*
X156283333Y-90416666D01*
X156350000Y-90383333D01*
X156416666Y-90383333D01*
X156483333Y-90416666D01*
X156516666Y-90450000D01*
X156550000Y-90516666D01*
X156550000Y-90750000D01*
X156216666Y-90050000D02*
X156783333Y-90050000D01*
X156850000Y-90016666D01*
X156883333Y-89983333D01*
X156916666Y-89916666D01*
X156916666Y-89783333D01*
X156883333Y-89716666D01*
X156850000Y-89683333D01*
X156783333Y-89650000D01*
X156216666Y-89650000D01*
X156883333Y-89350000D02*
X156916666Y-89250000D01*
X156916666Y-89083333D01*
X156883333Y-89016666D01*
X156850000Y-88983333D01*
X156783333Y-88950000D01*
X156716666Y-88950000D01*
X156650000Y-88983333D01*
X156616666Y-89016666D01*
X156583333Y-89083333D01*
X156550000Y-89216666D01*
X156516666Y-89283333D01*
X156483333Y-89316666D01*
X156416666Y-89350000D01*
X156350000Y-89350000D01*
X156283333Y-89316666D01*
X156250000Y-89283333D01*
X156216666Y-89216666D01*
X156216666Y-89050000D01*
X156250000Y-88950000D01*
X156250000Y-85416666D02*
X156216666Y-85483333D01*
X156216666Y-85583333D01*
X156250000Y-85683333D01*
X156316666Y-85750000D01*
X156383333Y-85783333D01*
X156516666Y-85816666D01*
X156616666Y-85816666D01*
X156750000Y-85783333D01*
X156816666Y-85750000D01*
X156883333Y-85683333D01*
X156916666Y-85583333D01*
X156916666Y-85516666D01*
X156883333Y-85416666D01*
X156850000Y-85383333D01*
X156616666Y-85383333D01*
X156616666Y-85516666D01*
X121383333Y-84866666D02*
X121383333Y-84533333D01*
X121050000Y-84500000D01*
X121083333Y-84533333D01*
X121116666Y-84600000D01*
X121116666Y-84766666D01*
X121083333Y-84833333D01*
X121050000Y-84866666D01*
X120983333Y-84900000D01*
X120816666Y-84900000D01*
X120750000Y-84866666D01*
X120716666Y-84833333D01*
X120683333Y-84766666D01*
X120683333Y-84600000D01*
X120716666Y-84533333D01*
X120750000Y-84500000D01*
X121383333Y-85100000D02*
X120683333Y-85333333D01*
X121383333Y-85566666D01*
X121383333Y-108866666D02*
X121383333Y-109300000D01*
X121116666Y-109066666D01*
X121116666Y-109166666D01*
X121083333Y-109233333D01*
X121050000Y-109266666D01*
X120983333Y-109300000D01*
X120816666Y-109300000D01*
X120750000Y-109266666D01*
X120716666Y-109233333D01*
X120683333Y-109166666D01*
X120683333Y-108966666D01*
X120716666Y-108900000D01*
X120750000Y-108866666D01*
X121383333Y-109500000D02*
X120683333Y-109733333D01*
X121383333Y-109966666D01*
X121350000Y-103683333D02*
X121383333Y-103616666D01*
X121383333Y-103516666D01*
X121350000Y-103416666D01*
X121283333Y-103350000D01*
X121216666Y-103316666D01*
X121083333Y-103283333D01*
X120983333Y-103283333D01*
X120850000Y-103316666D01*
X120783333Y-103350000D01*
X120716666Y-103416666D01*
X120683333Y-103516666D01*
X120683333Y-103583333D01*
X120716666Y-103683333D01*
X120750000Y-103716666D01*
X120983333Y-103716666D01*
X120983333Y-103583333D01*
D11*
%TO.C,SW1*%
X122900000Y-98850000D02*
X122600000Y-98850000D01*
X122600000Y-95550000D02*
X122900000Y-95550000D01*
X122900000Y-95550000D02*
X122900000Y-98850000D01*
X120100000Y-98850000D02*
X120400000Y-98850000D01*
X120400000Y-95550000D02*
X120100000Y-95550000D01*
X120100000Y-95550000D02*
X120100000Y-98850000D01*
%TO.C,C3*%
X140527836Y-100640000D02*
X140312164Y-100640000D01*
X140527836Y-101360000D02*
X140312164Y-101360000D01*
%TO.C,D3*%
X146135000Y-79800000D02*
X146135000Y-77515000D01*
X146135000Y-77515000D02*
X144665000Y-77515000D01*
X144665000Y-77515000D02*
X144665000Y-79800000D01*
%TO.C,C4*%
X143340000Y-92092164D02*
X143340000Y-92307836D01*
X144060000Y-92092164D02*
X144060000Y-92307836D01*
%TO.C,R16*%
X146690000Y-81546359D02*
X146690000Y-81853641D01*
X147450000Y-81546359D02*
X147450000Y-81853641D01*
%TO.C,J2*%
X159165000Y-101670000D02*
X157705000Y-101670000D01*
X159165000Y-92730000D02*
X159165000Y-101670000D01*
X153655000Y-92730000D02*
X155455000Y-92730000D01*
X153655000Y-101670000D02*
X155455000Y-101670000D01*
X159165000Y-92730000D02*
X157705000Y-92730000D01*
%TO.C,G\u002A\u002A\u002A*%
G36*
X146286264Y-88620775D02*
G01*
X146283432Y-88626703D01*
X146280510Y-88632671D01*
X146273946Y-88646197D01*
X146263958Y-88666833D01*
X146250760Y-88694129D01*
X146234572Y-88727636D01*
X146215608Y-88766906D01*
X146194087Y-88811489D01*
X146170224Y-88860937D01*
X146144237Y-88914799D01*
X146116341Y-88972627D01*
X146086755Y-89033972D01*
X146055695Y-89098385D01*
X146023377Y-89165417D01*
X145990018Y-89234618D01*
X145977784Y-89260000D01*
X145944224Y-89329608D01*
X145911694Y-89397043D01*
X145880404Y-89461870D01*
X145850565Y-89523653D01*
X145822390Y-89581956D01*
X145796087Y-89636344D01*
X145771869Y-89686381D01*
X145749947Y-89731631D01*
X145730531Y-89771659D01*
X145713833Y-89806029D01*
X145700063Y-89834305D01*
X145689432Y-89856052D01*
X145682152Y-89870834D01*
X145678433Y-89878216D01*
X145677991Y-89878998D01*
X145675751Y-89875452D01*
X145669869Y-89864319D01*
X145660553Y-89846022D01*
X145648011Y-89820987D01*
X145632452Y-89789638D01*
X145614083Y-89752400D01*
X145593112Y-89709696D01*
X145569747Y-89661953D01*
X145544196Y-89609593D01*
X145516667Y-89553042D01*
X145487367Y-89492725D01*
X145456505Y-89429065D01*
X145424288Y-89362488D01*
X145390924Y-89293417D01*
X145371106Y-89252331D01*
X145337152Y-89181905D01*
X145304242Y-89113648D01*
X145272585Y-89047990D01*
X145242387Y-88985362D01*
X145213857Y-88926195D01*
X145187201Y-88870917D01*
X145162627Y-88819961D01*
X145140344Y-88773755D01*
X145120557Y-88732730D01*
X145103475Y-88697316D01*
X145089306Y-88667945D01*
X145078256Y-88645045D01*
X145070533Y-88629047D01*
X145066345Y-88620381D01*
X145065620Y-88618888D01*
X145065940Y-88615594D01*
X145066278Y-88615555D01*
X145070027Y-88618262D01*
X145080216Y-88626115D01*
X145096338Y-88638715D01*
X145117886Y-88655660D01*
X145144355Y-88676551D01*
X145175237Y-88700986D01*
X145210027Y-88728565D01*
X145248218Y-88758887D01*
X145289304Y-88791553D01*
X145332778Y-88826161D01*
X145367651Y-88853951D01*
X145412708Y-88889873D01*
X145455816Y-88924239D01*
X145496463Y-88956641D01*
X145534136Y-88986671D01*
X145568323Y-89013920D01*
X145598511Y-89037980D01*
X145624188Y-89058442D01*
X145644841Y-89074898D01*
X145659957Y-89086939D01*
X145669025Y-89094156D01*
X145671554Y-89096164D01*
X145675944Y-89094131D01*
X145687060Y-89086591D01*
X145704749Y-89073664D01*
X145728855Y-89055468D01*
X145759225Y-89032123D01*
X145795702Y-89003748D01*
X145838134Y-88970462D01*
X145886365Y-88932386D01*
X145940240Y-88889638D01*
X145978221Y-88859396D01*
X146023525Y-88823279D01*
X146066909Y-88788693D01*
X146107857Y-88756049D01*
X146145859Y-88725755D01*
X146180399Y-88698219D01*
X146210967Y-88673852D01*
X146237047Y-88653061D01*
X146258129Y-88636257D01*
X146273697Y-88623847D01*
X146283240Y-88616241D01*
X146286194Y-88613888D01*
X146288541Y-88613829D01*
X146286264Y-88620775D01*
G37*
%TO.C,C17*%
X155885000Y-106911252D02*
X155885000Y-106388748D01*
X154415000Y-106911252D02*
X154415000Y-106388748D01*
%TO.C,Q1*%
X152440000Y-89440000D02*
X151790000Y-89440000D01*
X152440000Y-89440000D02*
X154115000Y-89440000D01*
X152440000Y-86320000D02*
X153090000Y-86320000D01*
X152440000Y-86320000D02*
X151790000Y-86320000D01*
%TO.C,D5*%
X149535000Y-77502500D02*
X148065000Y-77502500D01*
X148065000Y-77502500D02*
X148065000Y-79787500D01*
X149535000Y-79787500D02*
X149535000Y-77502500D01*
%TO.C,R6*%
X153033641Y-85980000D02*
X152726359Y-85980000D01*
X153033641Y-85220000D02*
X152726359Y-85220000D01*
%TO.C,R14*%
X130496359Y-103720000D02*
X130803641Y-103720000D01*
X130496359Y-104480000D02*
X130803641Y-104480000D01*
%TO.C,R9*%
X136596359Y-107980000D02*
X136903641Y-107980000D01*
X136596359Y-107220000D02*
X136903641Y-107220000D01*
%TO.C,G\u002A\u002A\u002A*%
G36*
X140699596Y-86691101D02*
G01*
X141716241Y-86691101D01*
X142083538Y-86691101D01*
X142705117Y-86691101D01*
X143072414Y-86691101D01*
X143326697Y-86691101D01*
X143693994Y-86691101D01*
X143693994Y-85645717D01*
X143326697Y-85645717D01*
X143326697Y-86691101D01*
X143072414Y-86691101D01*
X143072414Y-85413310D01*
X143315311Y-85413310D01*
X143348142Y-85488638D01*
X143412949Y-85539963D01*
X143497805Y-85559640D01*
X143590784Y-85540025D01*
X143631200Y-85516974D01*
X143684506Y-85447318D01*
X143693994Y-85391435D01*
X143670618Y-85310359D01*
X143610963Y-85253580D01*
X143530739Y-85224081D01*
X143445655Y-85224845D01*
X143371422Y-85258855D01*
X143326385Y-85321622D01*
X143315311Y-85413310D01*
X143072414Y-85413310D01*
X143072414Y-85250166D01*
X142705117Y-85250166D01*
X142705117Y-86691101D01*
X142083538Y-86691101D01*
X142083538Y-86182536D01*
X142479088Y-86182536D01*
X142479088Y-85900000D01*
X142083538Y-85900000D01*
X142083538Y-85645717D01*
X142507342Y-85645717D01*
X142507342Y-85334927D01*
X141716241Y-85334927D01*
X141716241Y-86691101D01*
X140699596Y-86691101D01*
X140699263Y-86410773D01*
X140699113Y-85998604D01*
X140699111Y-85930986D01*
X140699330Y-85487472D01*
X140700016Y-85097769D01*
X140701205Y-84759179D01*
X140702937Y-84469007D01*
X140705250Y-84224556D01*
X140708182Y-84023132D01*
X140711773Y-83862037D01*
X140716060Y-83738576D01*
X140721082Y-83650053D01*
X140726878Y-83593773D01*
X140732865Y-83568287D01*
X140740651Y-83548739D01*
X140747062Y-83530906D01*
X140754606Y-83514711D01*
X140765791Y-83500074D01*
X140783123Y-83486917D01*
X140809111Y-83475162D01*
X140846262Y-83464730D01*
X140897083Y-83455542D01*
X140964084Y-83447520D01*
X141049770Y-83440585D01*
X141156650Y-83434659D01*
X141287231Y-83429664D01*
X141444021Y-83425520D01*
X141629528Y-83422149D01*
X141846258Y-83419473D01*
X142096721Y-83417412D01*
X142383423Y-83415890D01*
X142708872Y-83414826D01*
X143075576Y-83414142D01*
X143486042Y-83413761D01*
X143942777Y-83413603D01*
X144448291Y-83413590D01*
X145005089Y-83413642D01*
X145615680Y-83413682D01*
X145668504Y-83413682D01*
X146366940Y-83413843D01*
X147009270Y-83414330D01*
X147595897Y-83415143D01*
X148127220Y-83416287D01*
X148603643Y-83417763D01*
X149025564Y-83419573D01*
X149393387Y-83421721D01*
X149707512Y-83424208D01*
X149968340Y-83427036D01*
X150176272Y-83430210D01*
X150331710Y-83433730D01*
X150435055Y-83437600D01*
X150486708Y-83441821D01*
X150491910Y-83443046D01*
X150518347Y-83452433D01*
X150541502Y-83461577D01*
X150561594Y-83474062D01*
X150578841Y-83493473D01*
X150593461Y-83523394D01*
X150605672Y-83567408D01*
X150615694Y-83629101D01*
X150623744Y-83712056D01*
X150630041Y-83819857D01*
X150634803Y-83956089D01*
X150638249Y-84124336D01*
X150640598Y-84328182D01*
X150642066Y-84571211D01*
X150642874Y-84857008D01*
X150643240Y-85189156D01*
X150643381Y-85571240D01*
X150643484Y-85930392D01*
X150644383Y-88291707D01*
X150578991Y-88353139D01*
X150513600Y-88414571D01*
X145684053Y-88412341D01*
X145165610Y-88412018D01*
X144662246Y-88411542D01*
X144176882Y-88410923D01*
X143712442Y-88410170D01*
X143271847Y-88409293D01*
X142858018Y-88408303D01*
X142473879Y-88407210D01*
X142122349Y-88406023D01*
X141806353Y-88404753D01*
X141528811Y-88403409D01*
X141292645Y-88402002D01*
X141100778Y-88400542D01*
X140956131Y-88399038D01*
X140861626Y-88397502D01*
X140820186Y-88395941D01*
X140818594Y-88395661D01*
X140781188Y-88362004D01*
X140741275Y-88301137D01*
X140740896Y-88300407D01*
X140733224Y-88279372D01*
X140726526Y-88245512D01*
X140720741Y-88195233D01*
X140715805Y-88124941D01*
X140711654Y-88031041D01*
X140708225Y-87909938D01*
X140705454Y-87758038D01*
X140703279Y-87571747D01*
X140701636Y-87347469D01*
X140700461Y-87081611D01*
X140699965Y-86881157D01*
X143833285Y-86881157D01*
X143868918Y-86977988D01*
X143945982Y-87062604D01*
X144033052Y-87113072D01*
X144121669Y-87132870D01*
X144245935Y-87138689D01*
X144387123Y-87131922D01*
X144526507Y-87113962D01*
X144645358Y-87086204D01*
X144703478Y-87063181D01*
X144820747Y-86975427D01*
X144889325Y-86859206D01*
X144908899Y-86733027D01*
X144904746Y-86691101D01*
X145078421Y-86691101D01*
X145445718Y-86691101D01*
X145445718Y-86372471D01*
X145449630Y-86199029D01*
X145462970Y-86074808D01*
X145488142Y-85992960D01*
X145527553Y-85946637D01*
X145583605Y-85928990D01*
X145601721Y-85928253D01*
X145651019Y-85937503D01*
X145686125Y-85970189D01*
X145709187Y-86033713D01*
X145722353Y-86135481D01*
X145727771Y-86282895D01*
X145728254Y-86364327D01*
X145728254Y-86691101D01*
X146095551Y-86691101D01*
X146095551Y-86308770D01*
X146092502Y-86113242D01*
X146081893Y-85965210D01*
X146061528Y-85855919D01*
X146050869Y-85829760D01*
X146262949Y-85829760D01*
X146266376Y-85888433D01*
X146298749Y-85924196D01*
X146321580Y-85928253D01*
X146347574Y-85932235D01*
X146364124Y-85951082D01*
X146373368Y-85995145D01*
X146377447Y-86074776D01*
X146378498Y-86200326D01*
X146378504Y-86203726D01*
X146382767Y-86365914D01*
X146397587Y-86482713D01*
X146426864Y-86564850D01*
X146474498Y-86623051D01*
X146544389Y-86668040D01*
X146548002Y-86669867D01*
X146677689Y-86712389D01*
X146820082Y-86711608D01*
X146915085Y-86691101D01*
X147225696Y-86691101D01*
X147571802Y-86690480D01*
X147732720Y-86688377D01*
X147850117Y-86681733D01*
X147936898Y-86669043D01*
X148005969Y-86648801D01*
X148035784Y-86636341D01*
X148153359Y-86561932D01*
X148223761Y-86462746D01*
X148252412Y-86330108D01*
X148253693Y-86287577D01*
X148249236Y-86196977D01*
X148227998Y-86136613D01*
X148178178Y-86080432D01*
X148147539Y-86053240D01*
X148086972Y-85998230D01*
X148065723Y-85967603D01*
X148078835Y-85950631D01*
X148096999Y-85943827D01*
X148145900Y-85905769D01*
X148194841Y-85834589D01*
X148231212Y-85752237D01*
X148242826Y-85689984D01*
X148232307Y-85633379D01*
X148206706Y-85557573D01*
X148203921Y-85550791D01*
X148162104Y-85479744D01*
X148099023Y-85426366D01*
X148067673Y-85413310D01*
X148457469Y-85413310D01*
X148490300Y-85488638D01*
X148555107Y-85539963D01*
X148639963Y-85559640D01*
X148732942Y-85540025D01*
X148773358Y-85516974D01*
X148826664Y-85447318D01*
X148836152Y-85391435D01*
X148812776Y-85310359D01*
X148753121Y-85253580D01*
X148672897Y-85224081D01*
X148587813Y-85224845D01*
X148513580Y-85258855D01*
X148468542Y-85321622D01*
X148457469Y-85413310D01*
X148067673Y-85413310D01*
X148007020Y-85388050D01*
X147878438Y-85362190D01*
X147705616Y-85346181D01*
X147585929Y-85340521D01*
X147225696Y-85327427D01*
X147225696Y-86691101D01*
X148468855Y-86691101D01*
X148836152Y-86691101D01*
X148836152Y-85833881D01*
X149004545Y-85833881D01*
X149006417Y-85891319D01*
X149039885Y-85924902D01*
X149062181Y-85928253D01*
X149089373Y-85932693D01*
X149106244Y-85953274D01*
X149115354Y-86000889D01*
X149119264Y-86086430D01*
X149120283Y-86175472D01*
X149126930Y-86351609D01*
X149146314Y-86481132D01*
X149181512Y-86573105D01*
X149235603Y-86636591D01*
X149288209Y-86669867D01*
X149418225Y-86712388D01*
X149560686Y-86711607D01*
X149662570Y-86689615D01*
X149726684Y-86668558D01*
X149757728Y-86640107D01*
X149767683Y-86585823D01*
X149768521Y-86526568D01*
X149768521Y-86392945D01*
X149652143Y-86404043D01*
X149577380Y-86406016D01*
X149529136Y-86388557D01*
X149501700Y-86342331D01*
X149489360Y-86258001D01*
X149486417Y-86133092D01*
X149485985Y-85928253D01*
X149740267Y-85928253D01*
X149740267Y-85645717D01*
X149613126Y-85645717D01*
X149535005Y-85643606D01*
X149498012Y-85629299D01*
X149486769Y-85590835D01*
X149485985Y-85546829D01*
X149483009Y-85485085D01*
X149463597Y-85456537D01*
X149412018Y-85448378D01*
X149364519Y-85447942D01*
X149286427Y-85451971D01*
X149243849Y-85472859D01*
X149215910Y-85523805D01*
X149207046Y-85547520D01*
X149158835Y-85633751D01*
X149091568Y-85705800D01*
X149088356Y-85708229D01*
X149032460Y-85767786D01*
X149004545Y-85833881D01*
X148836152Y-85833881D01*
X148836152Y-85645717D01*
X148468855Y-85645717D01*
X148468855Y-86691101D01*
X147225696Y-86691101D01*
X146915085Y-86691101D01*
X146921969Y-86689615D01*
X146985898Y-86668663D01*
X147016974Y-86640408D01*
X147027038Y-86586514D01*
X147027920Y-86525539D01*
X147027920Y-86390887D01*
X146893716Y-86392662D01*
X146759511Y-86394438D01*
X146751305Y-86161346D01*
X146743099Y-85928253D01*
X146999667Y-85928253D01*
X146999667Y-85645717D01*
X146872525Y-85645717D01*
X146794404Y-85643606D01*
X146757411Y-85629299D01*
X146746168Y-85590835D01*
X146745384Y-85546829D01*
X146742532Y-85485544D01*
X146723599Y-85456888D01*
X146673020Y-85448455D01*
X146621311Y-85447942D01*
X146542218Y-85451756D01*
X146498028Y-85472489D01*
X146467214Y-85524077D01*
X146453861Y-85556349D01*
X146407621Y-85638999D01*
X146349095Y-85704089D01*
X146337779Y-85712395D01*
X146287180Y-85765355D01*
X146262949Y-85829760D01*
X146050869Y-85829760D01*
X146029214Y-85776613D01*
X145982756Y-85718536D01*
X145939183Y-85684862D01*
X145836783Y-85645030D01*
X145712950Y-85634658D01*
X145592266Y-85653310D01*
X145509451Y-85692446D01*
X145431591Y-85750042D01*
X145441466Y-85500104D01*
X145448288Y-85327427D01*
X145451340Y-85250166D01*
X145078421Y-85250166D01*
X145078421Y-86691101D01*
X144904746Y-86691101D01*
X144898287Y-86625902D01*
X144861702Y-86548089D01*
X144792021Y-86494602D01*
X144682121Y-86460457D01*
X144524878Y-86440668D01*
X144487332Y-86438008D01*
X144353561Y-86425213D01*
X144269000Y-86407561D01*
X144237759Y-86387374D01*
X144249248Y-86365090D01*
X144306515Y-86354008D01*
X144372519Y-86352057D01*
X144540573Y-86332747D01*
X144669844Y-86276322D01*
X144757563Y-86185041D01*
X144800959Y-86061164D01*
X144805303Y-85999049D01*
X144811063Y-85916430D01*
X144833881Y-85870418D01*
X144871228Y-85846488D01*
X144924365Y-85799741D01*
X144937153Y-85735025D01*
X144937153Y-85653599D01*
X144607703Y-85639060D01*
X144423625Y-85634094D01*
X144284467Y-85638916D01*
X144179216Y-85655283D01*
X144096860Y-85684948D01*
X144026385Y-85729666D01*
X144023153Y-85732188D01*
X143949416Y-85823154D01*
X143913050Y-85939134D01*
X143915161Y-86061981D01*
X143956850Y-86173550D01*
X143993476Y-86220030D01*
X144037259Y-86267290D01*
X144043006Y-86296811D01*
X144012779Y-86330672D01*
X144004507Y-86338181D01*
X143955386Y-86415703D01*
X143958929Y-86506265D01*
X143992259Y-86571800D01*
X144017911Y-86619159D01*
X144003549Y-86634536D01*
X144001143Y-86634594D01*
X143957306Y-86652542D01*
X143900969Y-86695729D01*
X143900653Y-86696026D01*
X143842668Y-86783404D01*
X143833285Y-86881157D01*
X140699965Y-86881157D01*
X140699691Y-86770577D01*
X140699596Y-86691101D01*
G37*
G36*
X144426122Y-85868125D02*
G01*
X144439692Y-85888184D01*
X144457817Y-85979854D01*
X144447023Y-86065569D01*
X144412288Y-86129115D01*
X144358594Y-86154279D01*
X144357954Y-86154282D01*
X144312351Y-86136162D01*
X144292970Y-86120378D01*
X144266806Y-86062941D01*
X144259708Y-85978856D01*
X144273640Y-85895329D01*
X144276216Y-85888184D01*
X144315059Y-85852474D01*
X144374368Y-85845788D01*
X144426122Y-85868125D01*
G37*
G36*
X147710079Y-86134293D02*
G01*
X147806909Y-86158595D01*
X147858580Y-86204724D01*
X147875015Y-86281891D01*
X147875096Y-86287493D01*
X147850264Y-86353017D01*
X147779813Y-86394928D01*
X147679611Y-86408565D01*
X147628823Y-86405757D01*
X147603191Y-86387737D01*
X147594115Y-86340109D01*
X147592993Y-86263576D01*
X147592993Y-86118588D01*
X147710079Y-86134293D01*
G37*
G36*
X144427446Y-86731298D02*
G01*
X144534230Y-86753449D01*
X144586243Y-86784559D01*
X144584656Y-86825599D01*
X144566939Y-86847394D01*
X144507660Y-86878446D01*
X144415982Y-86899450D01*
X144315524Y-86907800D01*
X144229902Y-86900894D01*
X144195495Y-86888355D01*
X144149678Y-86842355D01*
X144152189Y-86797743D01*
X144194996Y-86759956D01*
X144270064Y-86734436D01*
X144369361Y-86726620D01*
X144427446Y-86731298D01*
G37*
G36*
X147749380Y-85633484D02*
G01*
X147819816Y-85676659D01*
X147847238Y-85739656D01*
X147847275Y-85742238D01*
X147842801Y-85794246D01*
X147820113Y-85824733D01*
X147765312Y-85844551D01*
X147698728Y-85858199D01*
X147592993Y-85878035D01*
X147592993Y-85747749D01*
X147596647Y-85666848D01*
X147611549Y-85628129D01*
X147643600Y-85617520D01*
X147647661Y-85617463D01*
X147749380Y-85633484D01*
G37*
%TO.C,R10*%
X136903641Y-108980000D02*
X136596359Y-108980000D01*
X136903641Y-108220000D02*
X136596359Y-108220000D01*
%TO.C,R2*%
X121880000Y-100953641D02*
X121880000Y-100646359D01*
X121120000Y-100953641D02*
X121120000Y-100646359D01*
%TO.C,C8*%
X137740000Y-78592164D02*
X137740000Y-78807836D01*
X138460000Y-78592164D02*
X138460000Y-78807836D01*
%TO.C,C11*%
X136810000Y-86322164D02*
X136810000Y-86537836D01*
X136090000Y-86322164D02*
X136090000Y-86537836D01*
%TO.C,C14*%
X136857836Y-110060000D02*
X136642164Y-110060000D01*
X136857836Y-109340000D02*
X136642164Y-109340000D01*
%TO.C,D4*%
X147835000Y-79787500D02*
X147835000Y-77502500D01*
X147835000Y-77502500D02*
X146365000Y-77502500D01*
X146365000Y-77502500D02*
X146365000Y-79787500D01*
%TO.C,R11*%
X125796359Y-106580000D02*
X126103641Y-106580000D01*
X125796359Y-105820000D02*
X126103641Y-105820000D01*
%TO.C,R4*%
X139430000Y-86593641D02*
X139430000Y-86286359D01*
X138670000Y-86593641D02*
X138670000Y-86286359D01*
%TO.C,R19*%
X125646359Y-101220000D02*
X125953641Y-101220000D01*
X125646359Y-101980000D02*
X125953641Y-101980000D01*
%TO.C,R18*%
X125943641Y-103080000D02*
X125636359Y-103080000D01*
X125943641Y-102320000D02*
X125636359Y-102320000D01*
%TO.C,C10*%
X134160000Y-82592164D02*
X134160000Y-82807836D01*
X133440000Y-82592164D02*
X133440000Y-82807836D01*
%TO.C,C12*%
X125761252Y-107090000D02*
X124338748Y-107090000D01*
X125761252Y-108910000D02*
X124338748Y-108910000D01*
%TO.C,C9*%
X137160000Y-78807836D02*
X137160000Y-78592164D01*
X136440000Y-78807836D02*
X136440000Y-78592164D01*
%TO.C,R5*%
X152736359Y-89820000D02*
X153043641Y-89820000D01*
X152736359Y-90580000D02*
X153043641Y-90580000D01*
%TO.C,C7*%
X125612164Y-99440000D02*
X125827836Y-99440000D01*
X125612164Y-100160000D02*
X125827836Y-100160000D01*
%TO.C,R8*%
X149053641Y-97420000D02*
X148746359Y-97420000D01*
X149053641Y-98180000D02*
X148746359Y-98180000D01*
%TO.C,D6*%
X145450000Y-98800000D02*
X145450000Y-100800000D01*
X145450000Y-98800000D02*
X149350000Y-98800000D01*
X145450000Y-100800000D02*
X149350000Y-100800000D01*
%TO.C,Y1*%
X127470000Y-95100000D02*
X124170000Y-95100000D01*
X124170000Y-95100000D02*
X124170000Y-99100000D01*
%TO.C,C13*%
X136847836Y-106140000D02*
X136632164Y-106140000D01*
X136847836Y-106860000D02*
X136632164Y-106860000D01*
%TO.C,R7*%
X149053641Y-97080000D02*
X148746359Y-97080000D01*
X149053641Y-96320000D02*
X148746359Y-96320000D01*
%TO.C,U4*%
X153680000Y-105300000D02*
X153680000Y-106440000D01*
X149190000Y-109160000D02*
X149190000Y-106440000D01*
X149190000Y-106440000D02*
X149420000Y-106440000D01*
X150500000Y-109160000D02*
X149190000Y-109160000D01*
X153910000Y-106440000D02*
X153910000Y-109160000D01*
X153910000Y-106440000D02*
X153680000Y-106440000D01*
X153910000Y-109160000D02*
X152600000Y-109160000D01*
%TO.C,C16*%
X150788748Y-104535000D02*
X151311252Y-104535000D01*
X150788748Y-103065000D02*
X151311252Y-103065000D01*
%TO.C,R3*%
X140530000Y-86603641D02*
X140530000Y-86296359D01*
X139770000Y-86603641D02*
X139770000Y-86296359D01*
%TO.C,R15*%
X145780000Y-81546359D02*
X145780000Y-81853641D01*
X145020000Y-81546359D02*
X145020000Y-81853641D01*
%TO.C,C5*%
X131040000Y-91727836D02*
X131040000Y-91512164D01*
X131760000Y-91727836D02*
X131760000Y-91512164D01*
%TO.C,R17*%
X148420000Y-81546359D02*
X148420000Y-81853641D01*
X149180000Y-81546359D02*
X149180000Y-81853641D01*
%TO.C,C6*%
X125907836Y-94760000D02*
X125692164Y-94760000D01*
X125907836Y-94040000D02*
X125692164Y-94040000D01*
%TO.C,D1*%
X128350000Y-113650000D02*
X133750000Y-113650000D01*
X128350000Y-110350000D02*
X133750000Y-110350000D01*
X128350000Y-110350000D02*
X128350000Y-113650000D01*
%TO.C,C15*%
X145461252Y-102190000D02*
X144038748Y-102190000D01*
X145461252Y-104010000D02*
X144038748Y-104010000D01*
%TO.C,C2*%
X134612164Y-89560000D02*
X134827836Y-89560000D01*
X134612164Y-88840000D02*
X134827836Y-88840000D01*
%TO.C,D2*%
X141300000Y-112300000D02*
X141300000Y-106900000D01*
X138000000Y-112300000D02*
X141300000Y-112300000D01*
X138000000Y-112300000D02*
X138000000Y-106900000D01*
%TO.C,U3*%
X131750000Y-104840000D02*
X133700000Y-104840000D01*
X131750000Y-109960000D02*
X129800000Y-109960000D01*
X131750000Y-109960000D02*
X135200000Y-109960000D01*
X131750000Y-104840000D02*
X129800000Y-104840000D01*
%TO.C,R1*%
X121880000Y-93346359D02*
X121880000Y-93653641D01*
X121120000Y-93346359D02*
X121120000Y-93653641D01*
%TO.C,U1*%
X141210000Y-98810000D02*
X141210000Y-98360000D01*
X133990000Y-91590000D02*
X133990000Y-92040000D01*
X133990000Y-92040000D02*
X132700000Y-92040000D01*
X141210000Y-91590000D02*
X141210000Y-92040000D01*
X140760000Y-98810000D02*
X141210000Y-98810000D01*
X134440000Y-98810000D02*
X133990000Y-98810000D01*
X140760000Y-91590000D02*
X141210000Y-91590000D01*
X133990000Y-98810000D02*
X133990000Y-98360000D01*
X134440000Y-91590000D02*
X133990000Y-91590000D01*
D12*
%TO.C,U2*%
X139350000Y-80450000D02*
X138825000Y-80450000D01*
X135050000Y-80450000D02*
X135575000Y-80450000D01*
X135050000Y-80450000D02*
X135050000Y-80975000D01*
X139350000Y-84750000D02*
X138825000Y-84750000D01*
X139350000Y-80450000D02*
X139350000Y-80975000D01*
X135050000Y-84750000D02*
X135575000Y-84750000D01*
X135050000Y-84750000D02*
X135050000Y-84225000D01*
D11*
%TO.C,R12*%
X136596359Y-105120000D02*
X136903641Y-105120000D01*
X136596359Y-105880000D02*
X136903641Y-105880000D01*
%TO.C,R13*%
X133306359Y-103720000D02*
X133613641Y-103720000D01*
X133306359Y-104480000D02*
X133613641Y-104480000D01*
%TO.C,L1*%
X148450000Y-112700000D02*
X148450000Y-105100000D01*
X141750000Y-112700000D02*
X142650000Y-112700000D01*
X147450000Y-112700000D02*
X148350000Y-112700000D01*
X142650000Y-105100000D02*
X141750000Y-105100000D01*
X141650000Y-105100000D02*
X141650000Y-112700000D01*
X148350000Y-105100000D02*
X147450000Y-105100000D01*
%TO.C,C1*%
X130640000Y-97007836D02*
X130640000Y-96792164D01*
X131360000Y-97007836D02*
X131360000Y-96792164D01*
%TD*%
M02*
