%TF.GenerationSoftware,KiCad,Pcbnew,(6.0.0)*%
%TF.CreationDate,2022-08-29T11:56:51+07:00*%
%TF.ProjectId,FlightBit,466c6967-6874-4426-9974-2e6b69636164,rev?*%
%TF.SameCoordinates,Original*%
%TF.FileFunction,Copper,L1,Top*%
%TF.FilePolarity,Positive*%
%FSLAX46Y46*%
G04 Gerber Fmt 4.6, Leading zero omitted, Abs format (unit mm)*
G04 Created by KiCad (PCBNEW (6.0.0)) date 2022-08-29 11:56:51*
%MOMM*%
%LPD*%
G01*
G04 APERTURE LIST*
G04 Aperture macros list*
%AMRoundRect*
0 Rectangle with rounded corners*
0 $1 Rounding radius*
0 $2 $3 $4 $5 $6 $7 $8 $9 X,Y pos of 4 corners*
0 Add a 4 corners polygon primitive as box body*
4,1,4,$2,$3,$4,$5,$6,$7,$8,$9,$2,$3,0*
0 Add four circle primitives for the rounded corners*
1,1,$1+$1,$2,$3*
1,1,$1+$1,$4,$5*
1,1,$1+$1,$6,$7*
1,1,$1+$1,$8,$9*
0 Add four rect primitives between the rounded corners*
20,1,$1+$1,$2,$3,$4,$5,0*
20,1,$1+$1,$4,$5,$6,$7,0*
20,1,$1+$1,$6,$7,$8,$9,0*
20,1,$1+$1,$8,$9,$2,$3,0*%
%AMFreePoly0*
4,1,9,3.862500,-0.866500,0.737500,-0.866500,0.737500,-0.450000,-0.737500,-0.450000,-0.737500,0.450000,0.737500,0.450000,0.737500,0.866500,3.862500,0.866500,3.862500,-0.866500,3.862500,-0.866500,$1*%
G04 Aperture macros list end*
%TA.AperFunction,SMDPad,CuDef*%
%ADD10R,1.700000X0.900000*%
%TD*%
%TA.AperFunction,ComponentPad*%
%ADD11RoundRect,0.500000X-0.500000X-0.500000X0.500000X-0.500000X0.500000X0.500000X-0.500000X0.500000X0*%
%TD*%
%TA.AperFunction,SMDPad,CuDef*%
%ADD12RoundRect,0.140000X0.140000X0.170000X-0.140000X0.170000X-0.140000X-0.170000X0.140000X-0.170000X0*%
%TD*%
%TA.AperFunction,ComponentPad*%
%ADD13RoundRect,0.500000X-0.500000X0.500000X-0.500000X-0.500000X0.500000X-0.500000X0.500000X0.500000X0*%
%TD*%
%TA.AperFunction,SMDPad,CuDef*%
%ADD14RoundRect,0.218750X-0.256250X0.218750X-0.256250X-0.218750X0.256250X-0.218750X0.256250X0.218750X0*%
%TD*%
%TA.AperFunction,SMDPad,CuDef*%
%ADD15RoundRect,0.140000X-0.170000X0.140000X-0.170000X-0.140000X0.170000X-0.140000X0.170000X0.140000X0*%
%TD*%
%TA.AperFunction,SMDPad,CuDef*%
%ADD16RoundRect,0.135000X-0.185000X0.135000X-0.185000X-0.135000X0.185000X-0.135000X0.185000X0.135000X0*%
%TD*%
%TA.AperFunction,SMDPad,CuDef*%
%ADD17R,1.160000X0.600000*%
%TD*%
%TA.AperFunction,SMDPad,CuDef*%
%ADD18R,1.160000X0.300000*%
%TD*%
%TA.AperFunction,ComponentPad*%
%ADD19O,2.000000X0.900000*%
%TD*%
%TA.AperFunction,ComponentPad*%
%ADD20O,1.700000X0.900000*%
%TD*%
%TA.AperFunction,SMDPad,CuDef*%
%ADD21RoundRect,0.250000X0.475000X-0.250000X0.475000X0.250000X-0.475000X0.250000X-0.475000X-0.250000X0*%
%TD*%
%TA.AperFunction,SMDPad,CuDef*%
%ADD22RoundRect,0.150000X0.587500X0.150000X-0.587500X0.150000X-0.587500X-0.150000X0.587500X-0.150000X0*%
%TD*%
%TA.AperFunction,SMDPad,CuDef*%
%ADD23RoundRect,0.135000X0.135000X0.185000X-0.135000X0.185000X-0.135000X-0.185000X0.135000X-0.185000X0*%
%TD*%
%TA.AperFunction,SMDPad,CuDef*%
%ADD24RoundRect,0.135000X-0.135000X-0.185000X0.135000X-0.185000X0.135000X0.185000X-0.135000X0.185000X0*%
%TD*%
%TA.AperFunction,ComponentPad*%
%ADD25C,6.000000*%
%TD*%
%TA.AperFunction,SMDPad,CuDef*%
%ADD26RoundRect,0.135000X0.185000X-0.135000X0.185000X0.135000X-0.185000X0.135000X-0.185000X-0.135000X0*%
%TD*%
%TA.AperFunction,SMDPad,CuDef*%
%ADD27RoundRect,0.250000X0.325000X0.650000X-0.325000X0.650000X-0.325000X-0.650000X0.325000X-0.650000X0*%
%TD*%
%TA.AperFunction,SMDPad,CuDef*%
%ADD28RoundRect,0.140000X0.170000X-0.140000X0.170000X0.140000X-0.170000X0.140000X-0.170000X-0.140000X0*%
%TD*%
%TA.AperFunction,SMDPad,CuDef*%
%ADD29RoundRect,0.140000X-0.140000X-0.170000X0.140000X-0.170000X0.140000X0.170000X-0.140000X0.170000X0*%
%TD*%
%TA.AperFunction,ComponentPad*%
%ADD30RoundRect,0.500000X0.500000X0.500000X-0.500000X0.500000X-0.500000X-0.500000X0.500000X-0.500000X0*%
%TD*%
%TA.AperFunction,SMDPad,CuDef*%
%ADD31R,0.900000X1.200000*%
%TD*%
%TA.AperFunction,SMDPad,CuDef*%
%ADD32R,1.200000X1.400000*%
%TD*%
%TA.AperFunction,SMDPad,CuDef*%
%ADD33R,0.900000X1.300000*%
%TD*%
%TA.AperFunction,SMDPad,CuDef*%
%ADD34FreePoly0,270.000000*%
%TD*%
%TA.AperFunction,SMDPad,CuDef*%
%ADD35RoundRect,0.250000X-0.250000X-0.475000X0.250000X-0.475000X0.250000X0.475000X-0.250000X0.475000X0*%
%TD*%
%TA.AperFunction,SMDPad,CuDef*%
%ADD36R,2.500000X1.800000*%
%TD*%
%TA.AperFunction,SMDPad,CuDef*%
%ADD37R,1.800000X2.500000*%
%TD*%
%TA.AperFunction,SMDPad,CuDef*%
%ADD38RoundRect,0.150000X0.825000X0.150000X-0.825000X0.150000X-0.825000X-0.150000X0.825000X-0.150000X0*%
%TD*%
%TA.AperFunction,ComponentPad*%
%ADD39C,0.500000*%
%TD*%
%TA.AperFunction,SMDPad,CuDef*%
%ADD40R,2.290000X3.000000*%
%TD*%
%TA.AperFunction,SMDPad,CuDef*%
%ADD41RoundRect,0.075000X-0.662500X-0.075000X0.662500X-0.075000X0.662500X0.075000X-0.662500X0.075000X0*%
%TD*%
%TA.AperFunction,SMDPad,CuDef*%
%ADD42RoundRect,0.075000X-0.075000X-0.662500X0.075000X-0.662500X0.075000X0.662500X-0.075000X0.662500X0*%
%TD*%
%TA.AperFunction,SMDPad,CuDef*%
%ADD43RoundRect,0.075000X0.350000X0.075000X-0.350000X0.075000X-0.350000X-0.075000X0.350000X-0.075000X0*%
%TD*%
%TA.AperFunction,SMDPad,CuDef*%
%ADD44RoundRect,0.075000X-0.075000X0.350000X-0.075000X-0.350000X0.075000X-0.350000X0.075000X0.350000X0*%
%TD*%
%TA.AperFunction,SMDPad,CuDef*%
%ADD45R,3.500000X2.350000*%
%TD*%
%TA.AperFunction,ViaPad*%
%ADD46C,0.700000*%
%TD*%
%TA.AperFunction,ViaPad*%
%ADD47C,0.800000*%
%TD*%
%TA.AperFunction,Conductor*%
%ADD48C,0.250000*%
%TD*%
%TA.AperFunction,Conductor*%
%ADD49C,0.400000*%
%TD*%
%TA.AperFunction,Conductor*%
%ADD50C,0.200000*%
%TD*%
G04 APERTURE END LIST*
D10*
%TO.P,SW1,1,1*%
%TO.N,/BOOT*%
X121500000Y-95500000D03*
%TO.P,SW1,2,2*%
%TO.N,+3V3*%
X121500000Y-98900000D03*
%TD*%
D11*
%TO.P,J3,1,Pin_1*%
%TO.N,GND*%
X158400000Y-108772000D03*
%TO.P,J3,2,Pin_2*%
%TO.N,+5V*%
X158400000Y-106486000D03*
%TO.P,J3,3,Pin_3*%
%TO.N,/PPM*%
X158400000Y-104200000D03*
%TD*%
D12*
%TO.P,C3,1*%
%TO.N,+3V3*%
X140900000Y-101000000D03*
%TO.P,C3,2*%
%TO.N,GND*%
X139940000Y-101000000D03*
%TD*%
D13*
%TO.P,J4,1,Pin_1*%
%TO.N,GNDPWR*%
X134068000Y-115700000D03*
%TO.P,J4,2,Pin_2*%
%TO.N,/VBAT*%
X136354000Y-115700000D03*
%TO.P,J4,3,Pin_3*%
%TO.N,/TIM3_S1*%
X138640000Y-115700000D03*
%TO.P,J4,4,Pin_4*%
%TO.N,/TIM3_S2*%
X140926000Y-115700000D03*
%TO.P,J4,5,Pin_5*%
%TO.N,/TIM3_S3*%
X143258000Y-115700000D03*
%TO.P,J4,6,Pin_6*%
%TO.N,/TIM3_S4*%
X145558000Y-115700000D03*
%TD*%
D14*
%TO.P,D3,1,K*%
%TO.N,GND*%
X145400000Y-78212500D03*
%TO.P,D3,2,A*%
%TO.N,Net-(D3-Pad2)*%
X145400000Y-79787500D03*
%TD*%
D15*
%TO.P,C4,1*%
%TO.N,+3V3*%
X143700000Y-91720000D03*
%TO.P,C4,2*%
%TO.N,GND*%
X143700000Y-92680000D03*
%TD*%
D16*
%TO.P,R16,1*%
%TO.N,Net-(D4-Pad2)*%
X147070000Y-81190000D03*
%TO.P,R16,2*%
%TO.N,+3V3*%
X147070000Y-82210000D03*
%TD*%
D17*
%TO.P,J2,A1,GND*%
%TO.N,GND*%
X151815000Y-100400000D03*
%TO.P,J2,A4,VBUS*%
%TO.N,VBUS*%
X151815000Y-99600000D03*
D18*
%TO.P,J2,A5,CC1*%
%TO.N,unconnected-(J2-PadA5)*%
X151815000Y-98450000D03*
%TO.P,J2,A6,D+*%
%TO.N,/D+*%
X151815000Y-97450000D03*
%TO.P,J2,A7,D-*%
%TO.N,/D-*%
X151815000Y-96950000D03*
%TO.P,J2,A8,SBU1*%
%TO.N,unconnected-(J2-PadA8)*%
X151815000Y-95950000D03*
D17*
%TO.P,J2,A9,VBUS*%
%TO.N,VBUS*%
X151815000Y-94800000D03*
%TO.P,J2,A12,GND*%
%TO.N,GND*%
X151815000Y-94000000D03*
%TO.P,J2,B1,GND*%
X151815000Y-94000000D03*
%TO.P,J2,B4,VBUS*%
%TO.N,VBUS*%
X151815000Y-94800000D03*
D18*
%TO.P,J2,B5,CC2*%
%TO.N,unconnected-(J2-PadB5)*%
X151815000Y-95450000D03*
%TO.P,J2,B6,D+*%
%TO.N,/D+*%
X151815000Y-96450000D03*
%TO.P,J2,B7,D-*%
%TO.N,/D-*%
X151815000Y-97950000D03*
%TO.P,J2,B8,SBU2*%
%TO.N,unconnected-(J2-PadB8)*%
X151815000Y-98950000D03*
D17*
%TO.P,J2,B9,VBUS*%
%TO.N,VBUS*%
X151815000Y-99600000D03*
%TO.P,J2,B12,GND*%
%TO.N,GND*%
X151815000Y-100400000D03*
D19*
%TO.P,J2,S1,SHIELD*%
X152395000Y-92880000D03*
X152395000Y-101520000D03*
D20*
X156565000Y-92880000D03*
X156565000Y-101520000D03*
%TD*%
D21*
%TO.P,C17,1*%
%TO.N,+3V3*%
X155150000Y-107600000D03*
%TO.P,C17,2*%
%TO.N,GND*%
X155150000Y-105700000D03*
%TD*%
D22*
%TO.P,Q1,1,B*%
%TO.N,Net-(Q1-Pad1)*%
X153377500Y-88830000D03*
%TO.P,Q1,2,E*%
%TO.N,GND*%
X153377500Y-86930000D03*
%TO.P,Q1,3,C*%
%TO.N,/UART1_RX*%
X151502500Y-87880000D03*
%TD*%
D14*
%TO.P,D5,1,K*%
%TO.N,GND*%
X148800000Y-78200000D03*
%TO.P,D5,2,A*%
%TO.N,Net-(D5-Pad2)*%
X148800000Y-79775000D03*
%TD*%
D23*
%TO.P,R6,1*%
%TO.N,+3V3*%
X153390000Y-85600000D03*
%TO.P,R6,2*%
%TO.N,/UART1_RX*%
X152370000Y-85600000D03*
%TD*%
D24*
%TO.P,R14,1*%
%TO.N,GNDPWR*%
X130140000Y-104100000D03*
%TO.P,R14,2*%
%TO.N,/FB*%
X131160000Y-104100000D03*
%TD*%
%TO.P,R9,1*%
%TO.N,/EN*%
X136240000Y-107600000D03*
%TO.P,R9,2*%
%TO.N,/VIN*%
X137260000Y-107600000D03*
%TD*%
D25*
%TO.P,H2,1*%
%TO.N,N/C*%
X124200000Y-81700000D03*
%TD*%
D23*
%TO.P,R10,1*%
%TO.N,GNDPWR*%
X137260000Y-108600000D03*
%TO.P,R10,2*%
%TO.N,/EN*%
X136240000Y-108600000D03*
%TD*%
D26*
%TO.P,R2,1*%
%TO.N,/NRST*%
X121500000Y-101310000D03*
%TO.P,R2,2*%
%TO.N,+3V3*%
X121500000Y-100290000D03*
%TD*%
D15*
%TO.P,C8,1*%
%TO.N,GND*%
X138100000Y-78220000D03*
%TO.P,C8,2*%
%TO.N,+3V3*%
X138100000Y-79180000D03*
%TD*%
%TO.P,C11,1*%
%TO.N,/CPOUT*%
X136450000Y-85950000D03*
%TO.P,C11,2*%
%TO.N,GND*%
X136450000Y-86910000D03*
%TD*%
D12*
%TO.P,C14,1*%
%TO.N,/BST*%
X137230000Y-109700000D03*
%TO.P,C14,2*%
%TO.N,/SW*%
X136270000Y-109700000D03*
%TD*%
D14*
%TO.P,D4,1,K*%
%TO.N,GND*%
X147100000Y-78200000D03*
%TO.P,D4,2,A*%
%TO.N,Net-(D4-Pad2)*%
X147100000Y-79775000D03*
%TD*%
D25*
%TO.P,H4,1*%
%TO.N,N/C*%
X124200000Y-112700000D03*
%TD*%
D24*
%TO.P,R11,1*%
%TO.N,GNDPWR*%
X125440000Y-106200000D03*
%TO.P,R11,2*%
%TO.N,/FREQ*%
X126460000Y-106200000D03*
%TD*%
D26*
%TO.P,R4,1*%
%TO.N,+3V3*%
X139050000Y-86950000D03*
%TO.P,R4,2*%
%TO.N,/IMU_SCL*%
X139050000Y-85930000D03*
%TD*%
D24*
%TO.P,R19,1*%
%TO.N,GND*%
X125290000Y-101600000D03*
%TO.P,R19,2*%
%TO.N,/VoltageMeter*%
X126310000Y-101600000D03*
%TD*%
D23*
%TO.P,R18,1*%
%TO.N,/VoltageMeter*%
X126300000Y-102700000D03*
%TO.P,R18,2*%
%TO.N,/VBAT*%
X125280000Y-102700000D03*
%TD*%
D15*
%TO.P,C10,1*%
%TO.N,+3V3*%
X133800000Y-82220000D03*
%TO.P,C10,2*%
%TO.N,GND*%
X133800000Y-83180000D03*
%TD*%
D27*
%TO.P,C12,1*%
%TO.N,/VIN*%
X126525000Y-108000000D03*
%TO.P,C12,2*%
%TO.N,GNDPWR*%
X123575000Y-108000000D03*
%TD*%
D28*
%TO.P,C9,1*%
%TO.N,/REGOUT*%
X136800000Y-79180000D03*
%TO.P,C9,2*%
%TO.N,GND*%
X136800000Y-78220000D03*
%TD*%
D24*
%TO.P,R5,1*%
%TO.N,Net-(Q1-Pad1)*%
X152380000Y-90200000D03*
%TO.P,R5,2*%
%TO.N,/SBUS*%
X153400000Y-90200000D03*
%TD*%
D25*
%TO.P,H3,1*%
%TO.N,N/C*%
X155200000Y-81700000D03*
%TD*%
D29*
%TO.P,C7,1*%
%TO.N,GND*%
X125240000Y-99800000D03*
%TO.P,C7,2*%
%TO.N,/HSE_OUT*%
X126200000Y-99800000D03*
%TD*%
D23*
%TO.P,R8,1*%
%TO.N,/D+*%
X149410000Y-97800000D03*
%TO.P,R8,2*%
%TO.N,/USB_DP*%
X148390000Y-97800000D03*
%TD*%
D30*
%TO.P,J1,1,Pin_1*%
%TO.N,GND*%
X158200000Y-85628000D03*
%TO.P,J1,2,Pin_2*%
%TO.N,+5V*%
X158200000Y-87914000D03*
%TO.P,J1,3,Pin_3*%
%TO.N,/SBUS*%
X158200000Y-90200000D03*
%TD*%
D31*
%TO.P,D6,1,K*%
%TO.N,+5V*%
X146050000Y-99800000D03*
%TO.P,D6,2,A*%
%TO.N,VBUS*%
X149350000Y-99800000D03*
%TD*%
D32*
%TO.P,Y1,1,1*%
%TO.N,/HSE_IN*%
X124970000Y-96000000D03*
%TO.P,Y1,2,2*%
%TO.N,GND*%
X124970000Y-98200000D03*
%TO.P,Y1,3,3*%
%TO.N,/HSE_OUT*%
X126670000Y-98200000D03*
%TO.P,Y1,4,4*%
%TO.N,GND*%
X126670000Y-96000000D03*
%TD*%
D12*
%TO.P,C13,1*%
%TO.N,Net-(C13-Pad1)*%
X137220000Y-106500000D03*
%TO.P,C13,2*%
%TO.N,/COMP*%
X136260000Y-106500000D03*
%TD*%
D23*
%TO.P,R7,1*%
%TO.N,/D-*%
X149410000Y-96700000D03*
%TO.P,R7,2*%
%TO.N,/USB_DN*%
X148390000Y-96700000D03*
%TD*%
D33*
%TO.P,U4,1,GND*%
%TO.N,GND*%
X153050000Y-105850000D03*
D34*
%TO.P,U4,2,VO*%
%TO.N,+3V3*%
X151550000Y-105937500D03*
D33*
%TO.P,U4,3,VI*%
%TO.N,+5V*%
X150050000Y-105850000D03*
%TD*%
D35*
%TO.P,C16,1*%
%TO.N,+5V*%
X150100000Y-103800000D03*
%TO.P,C16,2*%
%TO.N,GND*%
X152000000Y-103800000D03*
%TD*%
D26*
%TO.P,R3,1*%
%TO.N,+3V3*%
X140150000Y-86960000D03*
%TO.P,R3,2*%
%TO.N,/IMU_SDA*%
X140150000Y-85940000D03*
%TD*%
D16*
%TO.P,R15,1*%
%TO.N,Net-(D3-Pad2)*%
X145400000Y-81190000D03*
%TO.P,R15,2*%
%TO.N,/LED_STATUS*%
X145400000Y-82210000D03*
%TD*%
D28*
%TO.P,C5,1*%
%TO.N,+3V3*%
X131400000Y-92100000D03*
%TO.P,C5,2*%
%TO.N,GND*%
X131400000Y-91140000D03*
%TD*%
D16*
%TO.P,R17,1*%
%TO.N,Net-(D5-Pad2)*%
X148800000Y-81190000D03*
%TO.P,R17,2*%
%TO.N,+5V*%
X148800000Y-82210000D03*
%TD*%
D12*
%TO.P,C6,1*%
%TO.N,GND*%
X126280000Y-94400000D03*
%TO.P,C6,2*%
%TO.N,/HSE_IN*%
X125320000Y-94400000D03*
%TD*%
D36*
%TO.P,D1,1,K*%
%TO.N,/VIN*%
X129750000Y-112000000D03*
%TO.P,D1,2,A*%
%TO.N,/VBAT*%
X133750000Y-112000000D03*
%TD*%
D11*
%TO.P,J5,1,Pin_1*%
%TO.N,GND*%
X121000000Y-89143000D03*
%TO.P,J5,2,Pin_2*%
%TO.N,+5V*%
X121000000Y-86857000D03*
%TD*%
D27*
%TO.P,C15,1*%
%TO.N,+5V*%
X146225000Y-103100000D03*
%TO.P,C15,2*%
%TO.N,GNDPWR*%
X143275000Y-103100000D03*
%TD*%
D29*
%TO.P,C2,1*%
%TO.N,+3V3*%
X134240000Y-89200000D03*
%TO.P,C2,2*%
%TO.N,GND*%
X135200000Y-89200000D03*
%TD*%
D37*
%TO.P,D2,1,K*%
%TO.N,/SW*%
X139650000Y-110900000D03*
%TO.P,D2,2,A*%
%TO.N,GNDPWR*%
X139650000Y-106900000D03*
%TD*%
D38*
%TO.P,U3,1,SW*%
%TO.N,/SW*%
X134225000Y-109305000D03*
%TO.P,U3,2,EN*%
%TO.N,/EN*%
X134225000Y-108035000D03*
%TO.P,U3,3,COMP*%
%TO.N,/COMP*%
X134225000Y-106765000D03*
%TO.P,U3,4,FB*%
%TO.N,/FB*%
X134225000Y-105495000D03*
%TO.P,U3,5,GND*%
%TO.N,GNDPWR*%
X129275000Y-105495000D03*
%TO.P,U3,6,FREQ*%
%TO.N,/FREQ*%
X129275000Y-106765000D03*
%TO.P,U3,7,VIN*%
%TO.N,/VIN*%
X129275000Y-108035000D03*
%TO.P,U3,8,BST*%
%TO.N,/BST*%
X129275000Y-109305000D03*
D39*
%TO.P,U3,9*%
%TO.N,N/C*%
X132400000Y-106400000D03*
X132400000Y-107400000D03*
X131100000Y-107400000D03*
X131100000Y-106400000D03*
D40*
X131750000Y-107400000D03*
D39*
X132400000Y-108400000D03*
X131100000Y-108400000D03*
%TD*%
D16*
%TO.P,R1,1*%
%TO.N,GND*%
X121500000Y-92990000D03*
%TO.P,R1,2*%
%TO.N,/BOOT*%
X121500000Y-94010000D03*
%TD*%
D41*
%TO.P,U1,1,VBAT*%
%TO.N,+3V3*%
X133437500Y-92450000D03*
%TO.P,U1,2,PC13*%
%TO.N,unconnected-(U1-Pad2)*%
X133437500Y-92950000D03*
%TO.P,U1,3,PC14*%
%TO.N,unconnected-(U1-Pad3)*%
X133437500Y-93450000D03*
%TO.P,U1,4,PC15*%
%TO.N,unconnected-(U1-Pad4)*%
X133437500Y-93950000D03*
%TO.P,U1,5,PD0*%
%TO.N,/HSE_IN*%
X133437500Y-94450000D03*
%TO.P,U1,6,PD1*%
%TO.N,/HSE_OUT*%
X133437500Y-94950000D03*
%TO.P,U1,7,NRST*%
%TO.N,/NRST*%
X133437500Y-95450000D03*
%TO.P,U1,8,VSSA*%
%TO.N,GND*%
X133437500Y-95950000D03*
%TO.P,U1,9,VDDA*%
%TO.N,+3V3*%
X133437500Y-96450000D03*
%TO.P,U1,10,PA0*%
%TO.N,/VoltageMeter*%
X133437500Y-96950000D03*
%TO.P,U1,11,PA1*%
%TO.N,unconnected-(U1-Pad11)*%
X133437500Y-97450000D03*
%TO.P,U1,12,PA2*%
%TO.N,unconnected-(U1-Pad12)*%
X133437500Y-97950000D03*
D42*
%TO.P,U1,13,PA3*%
%TO.N,unconnected-(U1-Pad13)*%
X134850000Y-99362500D03*
%TO.P,U1,14,PA4*%
%TO.N,unconnected-(U1-Pad14)*%
X135350000Y-99362500D03*
%TO.P,U1,15,PA5*%
%TO.N,unconnected-(U1-Pad15)*%
X135850000Y-99362500D03*
%TO.P,U1,16,PA6*%
%TO.N,/TIM3_S1*%
X136350000Y-99362500D03*
%TO.P,U1,17,PA7*%
%TO.N,/TIM3_S2*%
X136850000Y-99362500D03*
%TO.P,U1,18,PB0*%
%TO.N,/TIM3_S3*%
X137350000Y-99362500D03*
%TO.P,U1,19,PB1*%
%TO.N,/TIM3_S4*%
X137850000Y-99362500D03*
%TO.P,U1,20,PB2*%
%TO.N,unconnected-(U1-Pad20)*%
X138350000Y-99362500D03*
%TO.P,U1,21,PB10*%
%TO.N,unconnected-(U1-Pad21)*%
X138850000Y-99362500D03*
%TO.P,U1,22,PB11*%
%TO.N,unconnected-(U1-Pad22)*%
X139350000Y-99362500D03*
%TO.P,U1,23,VSS*%
%TO.N,GND*%
X139850000Y-99362500D03*
%TO.P,U1,24,VDD*%
%TO.N,+3V3*%
X140350000Y-99362500D03*
D41*
%TO.P,U1,25,PB12*%
%TO.N,unconnected-(U1-Pad25)*%
X141762500Y-97950000D03*
%TO.P,U1,26,PB13*%
%TO.N,unconnected-(U1-Pad26)*%
X141762500Y-97450000D03*
%TO.P,U1,27,PB14*%
%TO.N,unconnected-(U1-Pad27)*%
X141762500Y-96950000D03*
%TO.P,U1,28,PB15*%
%TO.N,unconnected-(U1-Pad28)*%
X141762500Y-96450000D03*
%TO.P,U1,29,PA8*%
%TO.N,/PPM*%
X141762500Y-95950000D03*
%TO.P,U1,30,PA9*%
%TO.N,/UART1_TX*%
X141762500Y-95450000D03*
%TO.P,U1,31,PA10*%
%TO.N,/UART1_RX*%
X141762500Y-94950000D03*
%TO.P,U1,32,PA11*%
%TO.N,/USB_DN*%
X141762500Y-94450000D03*
%TO.P,U1,33,PA12*%
%TO.N,/USB_DP*%
X141762500Y-93950000D03*
%TO.P,U1,34,PA13*%
%TO.N,unconnected-(U1-Pad34)*%
X141762500Y-93450000D03*
%TO.P,U1,35,VSS*%
%TO.N,GND*%
X141762500Y-92950000D03*
%TO.P,U1,36,VDD*%
%TO.N,+3V3*%
X141762500Y-92450000D03*
D42*
%TO.P,U1,37,PA14*%
%TO.N,unconnected-(U1-Pad37)*%
X140350000Y-91037500D03*
%TO.P,U1,38,PA15*%
%TO.N,unconnected-(U1-Pad38)*%
X139850000Y-91037500D03*
%TO.P,U1,39,PB3*%
%TO.N,unconnected-(U1-Pad39)*%
X139350000Y-91037500D03*
%TO.P,U1,40,PB4*%
%TO.N,/LED_STATUS*%
X138850000Y-91037500D03*
%TO.P,U1,41,PB5*%
%TO.N,unconnected-(U1-Pad41)*%
X138350000Y-91037500D03*
%TO.P,U1,42,PB6*%
%TO.N,/IMU_SCL*%
X137850000Y-91037500D03*
%TO.P,U1,43,PB7*%
%TO.N,/IMU_SDA*%
X137350000Y-91037500D03*
%TO.P,U1,44,BOOT0*%
%TO.N,/BOOT*%
X136850000Y-91037500D03*
%TO.P,U1,45,PB8*%
%TO.N,/IMU_INT*%
X136350000Y-91037500D03*
%TO.P,U1,46,PB9*%
%TO.N,unconnected-(U1-Pad46)*%
X135850000Y-91037500D03*
%TO.P,U1,47,VSS*%
%TO.N,GND*%
X135350000Y-91037500D03*
%TO.P,U1,48,VDD*%
%TO.N,+3V3*%
X134850000Y-91037500D03*
%TD*%
D43*
%TO.P,U2,1,CLKIN*%
%TO.N,GND*%
X139150000Y-83850000D03*
%TO.P,U2,2*%
%TO.N,N/C*%
X139150000Y-83350000D03*
%TO.P,U2,3*%
X139150000Y-82850000D03*
%TO.P,U2,4*%
X139150000Y-82350000D03*
%TO.P,U2,5*%
X139150000Y-81850000D03*
%TO.P,U2,6,AUX_SDA*%
%TO.N,unconnected-(U2-Pad6)*%
X139150000Y-81350000D03*
D44*
%TO.P,U2,7,AUX_SCL*%
%TO.N,unconnected-(U2-Pad7)*%
X138450000Y-80650000D03*
%TO.P,U2,8,VDDIO*%
%TO.N,+3V3*%
X137950000Y-80650000D03*
%TO.P,U2,9,AD0*%
%TO.N,GND*%
X137450000Y-80650000D03*
%TO.P,U2,10,REGOUT*%
%TO.N,/REGOUT*%
X136950000Y-80650000D03*
%TO.P,U2,11,FSYNC*%
%TO.N,GND*%
X136450000Y-80650000D03*
%TO.P,U2,12,INT*%
%TO.N,/IMU_INT*%
X135950000Y-80650000D03*
D43*
%TO.P,U2,13,VDD*%
%TO.N,+3V3*%
X135250000Y-81350000D03*
%TO.P,U2,14*%
%TO.N,N/C*%
X135250000Y-81850000D03*
%TO.P,U2,15*%
X135250000Y-82350000D03*
%TO.P,U2,16*%
X135250000Y-82850000D03*
%TO.P,U2,17*%
X135250000Y-83350000D03*
%TO.P,U2,18,GND*%
%TO.N,GND*%
X135250000Y-83850000D03*
D44*
%TO.P,U2,19*%
%TO.N,N/C*%
X135950000Y-84550000D03*
%TO.P,U2,20,CPOUT*%
%TO.N,/CPOUT*%
X136450000Y-84550000D03*
%TO.P,U2,21*%
%TO.N,N/C*%
X136950000Y-84550000D03*
%TO.P,U2,22*%
X137450000Y-84550000D03*
%TO.P,U2,23,SCL*%
%TO.N,/IMU_SCL*%
X137950000Y-84550000D03*
%TO.P,U2,24,SDA*%
%TO.N,/IMU_SDA*%
X138450000Y-84550000D03*
%TD*%
D24*
%TO.P,R12,1*%
%TO.N,GNDPWR*%
X136240000Y-105500000D03*
%TO.P,R12,2*%
%TO.N,Net-(C13-Pad1)*%
X137260000Y-105500000D03*
%TD*%
D25*
%TO.P,H1,1*%
%TO.N,N/C*%
X155200000Y-112700000D03*
%TD*%
D24*
%TO.P,R13,1*%
%TO.N,/FB*%
X132950000Y-104100000D03*
%TO.P,R13,2*%
%TO.N,+5V*%
X133970000Y-104100000D03*
%TD*%
D30*
%TO.P,J6,1,Pin_1*%
%TO.N,GND*%
X121000000Y-105200000D03*
%TO.P,J6,2,Pin_2*%
%TO.N,+3V3*%
X121000000Y-107486000D03*
%TD*%
D45*
%TO.P,L1,1*%
%TO.N,/SW*%
X145050000Y-111930000D03*
%TO.P,L1,2*%
%TO.N,+5V*%
X145050000Y-105870000D03*
%TD*%
D28*
%TO.P,C1,1*%
%TO.N,+3V3*%
X131000000Y-97380000D03*
%TO.P,C1,2*%
%TO.N,GND*%
X131000000Y-96420000D03*
%TD*%
D46*
%TO.N,+3V3*%
X122800000Y-98900000D03*
X140900000Y-101700000D03*
X154200000Y-85500000D03*
X134074099Y-88495612D03*
X140200000Y-87600000D03*
X120800000Y-100300000D03*
X130086620Y-98359491D03*
X121500000Y-98000000D03*
X130700000Y-92100000D03*
D47*
X155300000Y-108700000D03*
D46*
X133500000Y-81600000D03*
D47*
X153500000Y-108700000D03*
D46*
X138900000Y-79200000D03*
X147000000Y-82900000D03*
D47*
X154400000Y-108700000D03*
D46*
X144400000Y-91700000D03*
%TO.N,GND*%
X154500000Y-86900000D03*
X124700000Y-101600000D03*
D47*
X154200000Y-103400000D03*
D46*
X138800000Y-78200000D03*
X136100000Y-78000000D03*
D47*
X153300000Y-103400000D03*
D46*
X144300000Y-78200000D03*
D47*
X124400000Y-99800000D03*
D46*
X140300000Y-83900000D03*
X139900000Y-101700000D03*
X121500000Y-92300000D03*
D47*
X150700000Y-100500000D03*
D46*
X149900000Y-78200000D03*
X135800000Y-86900000D03*
D47*
X155100000Y-104300000D03*
X126300000Y-93600000D03*
X154200000Y-104300000D03*
X155100000Y-103400000D03*
D46*
X144400000Y-92700000D03*
D47*
X153300000Y-104300000D03*
D46*
X130026944Y-97326944D03*
D47*
X150700000Y-94000000D03*
D46*
X134973056Y-88526944D03*
X130800000Y-91100000D03*
X133600000Y-83800000D03*
D47*
%TO.N,/VIN*%
X127700000Y-108000000D03*
X137900000Y-107600000D03*
%TO.N,GNDPWR*%
X127400000Y-104000000D03*
X142100000Y-106600000D03*
X124000000Y-105700000D03*
X142100000Y-105700000D03*
X142100000Y-103900000D03*
X142100000Y-104800000D03*
X142100000Y-107500000D03*
X126400000Y-104000000D03*
X128400000Y-104000000D03*
X124000000Y-106600000D03*
X124000000Y-104800000D03*
X142100000Y-103000000D03*
X124400000Y-104000000D03*
X125400000Y-104000000D03*
%TO.N,/BST*%
X131400000Y-109600000D03*
X138000000Y-109400000D03*
%TO.N,+5V*%
X148600000Y-104000000D03*
D46*
X148800000Y-82900000D03*
D47*
X132100000Y-86900000D03*
X148600000Y-103100000D03*
X145000000Y-99800000D03*
%TO.N,/VBAT*%
X124400000Y-102700000D03*
X132200000Y-113500000D03*
D46*
%TO.N,/D-*%
X153500000Y-96800000D03*
X153600000Y-98100000D03*
D47*
%TO.N,VBUS*%
X149300000Y-94800000D03*
X149300000Y-98719500D03*
D46*
%TO.N,/TIM3_S1*%
X135600000Y-103000000D03*
%TO.N,/TIM3_S2*%
X136900000Y-103100000D03*
%TO.N,/TIM3_S3*%
X138000000Y-102800000D03*
%TO.N,/TIM3_S4*%
X139300000Y-103100000D03*
D47*
%TO.N,/UART1_RX*%
X144953722Y-93946278D03*
X143496278Y-95124501D03*
%TO.N,/IMU_SDA*%
X138947408Y-88334260D03*
X136800000Y-88300000D03*
%TO.N,/USB_DP*%
X147200000Y-96000500D03*
X147200000Y-97600000D03*
%TD*%
D48*
%TO.N,+3V3*%
X135250000Y-81350000D02*
X134050000Y-81350000D01*
X121500000Y-98900000D02*
X122800000Y-98900000D01*
X143380000Y-91720000D02*
X143700000Y-91720000D01*
X133800000Y-81900000D02*
X133800000Y-82220000D01*
X131000000Y-97446111D02*
X130086620Y-98359491D01*
X131000000Y-97380000D02*
X131000000Y-97446111D01*
X134240000Y-89200000D02*
X134240000Y-88661513D01*
X153390000Y-85600000D02*
X154100000Y-85600000D01*
X134850000Y-90050000D02*
X134240000Y-89440000D01*
X132250000Y-96450000D02*
X131320000Y-97380000D01*
X140350000Y-100250000D02*
X140900000Y-100800000D01*
X140150000Y-87550000D02*
X140150000Y-86960000D01*
X141762500Y-92450000D02*
X142650000Y-92450000D01*
X154100000Y-85600000D02*
X154200000Y-85500000D01*
X140900000Y-100800000D02*
X140900000Y-101000000D01*
X137950000Y-79330000D02*
X138100000Y-79180000D01*
X120810000Y-100290000D02*
X120800000Y-100300000D01*
X133500000Y-81600000D02*
X133800000Y-81900000D01*
X121500000Y-98900000D02*
X121500000Y-98000000D01*
X147070000Y-82210000D02*
X147070000Y-82830000D01*
X133800000Y-81600000D02*
X133800000Y-82220000D01*
X134050000Y-81350000D02*
X133800000Y-81600000D01*
X147070000Y-82830000D02*
X147000000Y-82900000D01*
X139050000Y-86950000D02*
X140140000Y-86950000D01*
X140200000Y-87600000D02*
X140150000Y-87550000D01*
X142650000Y-92450000D02*
X143380000Y-91720000D01*
X140900000Y-101000000D02*
X140900000Y-101700000D01*
X143700000Y-91720000D02*
X144380000Y-91720000D01*
X131750000Y-92450000D02*
X131400000Y-92100000D01*
X140350000Y-99362500D02*
X140350000Y-100250000D01*
X138100000Y-79180000D02*
X138880000Y-79180000D01*
X134850000Y-91037500D02*
X134850000Y-90050000D01*
X131400000Y-92100000D02*
X130700000Y-92100000D01*
X134240000Y-89440000D02*
X134240000Y-89200000D01*
X133437500Y-96450000D02*
X132250000Y-96450000D01*
X121500000Y-100290000D02*
X120810000Y-100290000D01*
X140140000Y-86950000D02*
X140150000Y-86960000D01*
X137950000Y-80650000D02*
X137950000Y-79330000D01*
X131320000Y-97380000D02*
X131000000Y-97380000D01*
X144380000Y-91720000D02*
X144400000Y-91700000D01*
X134240000Y-88661513D02*
X134074099Y-88495612D01*
X133437500Y-92450000D02*
X131750000Y-92450000D01*
X138880000Y-79180000D02*
X138900000Y-79200000D01*
%TO.N,GND*%
X139850000Y-99362500D02*
X139850000Y-100910000D01*
X144312500Y-78212500D02*
X144300000Y-78200000D01*
X143430000Y-92950000D02*
X143700000Y-92680000D01*
X154470000Y-86930000D02*
X154500000Y-86900000D01*
X138780000Y-78220000D02*
X138800000Y-78200000D01*
X137465480Y-80634520D02*
X137465480Y-78847590D01*
X135350000Y-91037500D02*
X135350000Y-89350000D01*
X136800000Y-78220000D02*
X136580000Y-78220000D01*
X135200000Y-89200000D02*
X135200000Y-88753888D01*
X133800000Y-83180000D02*
X133800000Y-83400000D01*
X135350000Y-89350000D02*
X135200000Y-89200000D01*
D49*
X151815000Y-94000000D02*
X150700000Y-94000000D01*
D48*
X131180000Y-96420000D02*
X131650000Y-95950000D01*
D49*
X152395000Y-101520000D02*
X156565000Y-101520000D01*
X126280000Y-93620000D02*
X126300000Y-93600000D01*
D48*
X136450000Y-79950000D02*
X136450000Y-80650000D01*
D49*
X126280000Y-94400000D02*
X126280000Y-93620000D01*
D48*
X136800000Y-78220000D02*
X136320000Y-78220000D01*
X135200000Y-88753888D02*
X134973056Y-88526944D01*
D49*
X150800000Y-100400000D02*
X150700000Y-100500000D01*
D48*
X131000000Y-96420000D02*
X130933888Y-96420000D01*
X134250000Y-83850000D02*
X135250000Y-83850000D01*
X139940000Y-101660000D02*
X139900000Y-101700000D01*
D49*
X125240000Y-98470000D02*
X124970000Y-98200000D01*
D48*
X139940000Y-101000000D02*
X139940000Y-101660000D01*
X138100000Y-78220000D02*
X138780000Y-78220000D01*
D49*
X152395000Y-92880000D02*
X156565000Y-92880000D01*
D48*
X145400000Y-78212500D02*
X144312500Y-78212500D01*
X136100000Y-78700000D02*
X136100000Y-79600000D01*
X131400000Y-91140000D02*
X130840000Y-91140000D01*
X143700000Y-92680000D02*
X144380000Y-92680000D01*
X139150000Y-83850000D02*
X140250000Y-83850000D01*
X141762500Y-92950000D02*
X143430000Y-92950000D01*
X136320000Y-78220000D02*
X136100000Y-78000000D01*
X136450000Y-86910000D02*
X135810000Y-86910000D01*
X131650000Y-95950000D02*
X133437500Y-95950000D01*
X130840000Y-91140000D02*
X130800000Y-91100000D01*
X139850000Y-100910000D02*
X139940000Y-101000000D01*
D49*
X126280000Y-94880000D02*
X126280000Y-94400000D01*
D48*
X125290000Y-101600000D02*
X124700000Y-101600000D01*
D49*
X126670000Y-95270000D02*
X126280000Y-94880000D01*
D48*
X145400000Y-78212500D02*
X148787500Y-78212500D01*
X137465480Y-78847590D02*
X138093070Y-78220000D01*
X148787500Y-78212500D02*
X148800000Y-78200000D01*
X131000000Y-96420000D02*
X131180000Y-96420000D01*
X138093070Y-78220000D02*
X138100000Y-78220000D01*
X148800000Y-78200000D02*
X149900000Y-78200000D01*
X135810000Y-86910000D02*
X135800000Y-86900000D01*
X133800000Y-83400000D02*
X134250000Y-83850000D01*
X136100000Y-79600000D02*
X136450000Y-79950000D01*
D49*
X126670000Y-96000000D02*
X126670000Y-95270000D01*
X151815000Y-100400000D02*
X150800000Y-100400000D01*
D48*
X121500000Y-92990000D02*
X121500000Y-92300000D01*
X133800000Y-83600000D02*
X133600000Y-83800000D01*
D49*
X125240000Y-99800000D02*
X124400000Y-99800000D01*
D48*
X133800000Y-83180000D02*
X133800000Y-83600000D01*
X136580000Y-78220000D02*
X136100000Y-78700000D01*
X153377500Y-86930000D02*
X154470000Y-86930000D01*
X137450000Y-80650000D02*
X137465480Y-80634520D01*
X144380000Y-92680000D02*
X144400000Y-92700000D01*
X140250000Y-83850000D02*
X140300000Y-83900000D01*
D49*
X125240000Y-99800000D02*
X125240000Y-98470000D01*
D48*
X130933888Y-96420000D02*
X130026944Y-97326944D01*
%TO.N,/HSE_IN*%
X124970000Y-96000000D02*
X124970000Y-95330000D01*
X125700000Y-97100000D02*
X124970000Y-96370000D01*
X130250000Y-94450000D02*
X127600000Y-97100000D01*
X124970000Y-96370000D02*
X124970000Y-96000000D01*
X124970000Y-95330000D02*
X125320000Y-94980000D01*
X125320000Y-94400000D02*
X125320000Y-94980000D01*
X127600000Y-97100000D02*
X125700000Y-97100000D01*
X133437500Y-94450000D02*
X130250000Y-94450000D01*
%TO.N,/HSE_OUT*%
X126670000Y-98200000D02*
X126670000Y-98630000D01*
X130650000Y-94950000D02*
X133437500Y-94950000D01*
X126670000Y-98200000D02*
X127400000Y-98200000D01*
X126670000Y-98630000D02*
X126200000Y-99100000D01*
X127400000Y-98200000D02*
X130650000Y-94950000D01*
X126200000Y-99100000D02*
X126200000Y-99800000D01*
%TO.N,/REGOUT*%
X136950000Y-80650000D02*
X136950000Y-79330000D01*
X136950000Y-79330000D02*
X136800000Y-79180000D01*
%TO.N,/CPOUT*%
X136450000Y-85950000D02*
X136450000Y-84550000D01*
D49*
%TO.N,/VIN*%
X137260000Y-107600000D02*
X137900000Y-107600000D01*
%TO.N,GNDPWR*%
X139650000Y-108450000D02*
X139650000Y-106900000D01*
X137260000Y-108600000D02*
X139500000Y-108600000D01*
X139500000Y-108600000D02*
X139650000Y-108450000D01*
%TO.N,Net-(C13-Pad1)*%
X137260000Y-106460000D02*
X137220000Y-106500000D01*
X137260000Y-105500000D02*
X137260000Y-106460000D01*
%TO.N,/COMP*%
X135700000Y-106500000D02*
X135435000Y-106765000D01*
X136260000Y-106500000D02*
X135700000Y-106500000D01*
X135435000Y-106765000D02*
X134225000Y-106765000D01*
%TO.N,/BST*%
X131100000Y-109300000D02*
X131400000Y-109600000D01*
X130400000Y-109300000D02*
X131100000Y-109300000D01*
X137700000Y-109700000D02*
X138000000Y-109400000D01*
X129275000Y-109305000D02*
X130395000Y-109305000D01*
X130395000Y-109305000D02*
X130400000Y-109300000D01*
X137230000Y-109700000D02*
X137700000Y-109700000D01*
%TO.N,+5V*%
X129557000Y-86857000D02*
X121000000Y-86857000D01*
D48*
X139700000Y-104100000D02*
X142400000Y-101400000D01*
X142400000Y-101400000D02*
X145900000Y-101400000D01*
D49*
X129600000Y-86900000D02*
X129557000Y-86857000D01*
X146100000Y-101400000D02*
X146225000Y-101275000D01*
D48*
X133970000Y-104100000D02*
X139700000Y-104100000D01*
X148800000Y-82210000D02*
X148800000Y-82900000D01*
X145900000Y-101400000D02*
X146225000Y-101725000D01*
X146225000Y-101725000D02*
X146225000Y-103100000D01*
D49*
X146225000Y-99975000D02*
X146050000Y-99800000D01*
X146225000Y-101275000D02*
X146225000Y-99975000D01*
X146225000Y-103100000D02*
X146225000Y-101275000D01*
X146050000Y-99800000D02*
X145000000Y-99800000D01*
X132100000Y-86900000D02*
X129600000Y-86900000D01*
X145900000Y-101400000D02*
X146100000Y-101400000D01*
D48*
%TO.N,/VBAT*%
X133750000Y-112000000D02*
X133700000Y-112000000D01*
X133700000Y-112000000D02*
X132200000Y-113500000D01*
D49*
X125280000Y-102700000D02*
X124400000Y-102700000D01*
D48*
%TO.N,Net-(D3-Pad2)*%
X145400000Y-81190000D02*
X145400000Y-79787500D01*
%TO.N,Net-(D4-Pad2)*%
X147070000Y-79805000D02*
X147100000Y-79775000D01*
X147070000Y-81190000D02*
X147070000Y-79805000D01*
%TO.N,Net-(D5-Pad2)*%
X148800000Y-81190000D02*
X148800000Y-79775000D01*
%TO.N,/SBUS*%
X153400000Y-90200000D02*
X158200000Y-90200000D01*
D50*
%TO.N,/D-*%
X153600000Y-98100000D02*
X153450000Y-97950000D01*
X151815000Y-96950000D02*
X153350000Y-96950000D01*
X151815000Y-96950000D02*
X149660000Y-96950000D01*
X153350000Y-96950000D02*
X153500000Y-96800000D01*
X153450000Y-97950000D02*
X151815000Y-97950000D01*
X149660000Y-96950000D02*
X149410000Y-96700000D01*
%TO.N,/D+*%
X149760000Y-97450000D02*
X149410000Y-97800000D01*
X154149511Y-96449511D02*
X154149511Y-97150489D01*
X152931452Y-96450000D02*
X153281452Y-96100000D01*
X153850000Y-97450000D02*
X151815000Y-97450000D01*
X153281452Y-96100000D02*
X153800000Y-96100000D01*
X151815000Y-96450000D02*
X152931452Y-96450000D01*
X153800000Y-96100000D02*
X154149511Y-96449511D01*
X151815000Y-97450000D02*
X149760000Y-97450000D01*
X154149511Y-97150489D02*
X153850000Y-97450000D01*
D49*
%TO.N,VBUS*%
X149550000Y-99600000D02*
X149350000Y-99800000D01*
X149300000Y-98719500D02*
X149300000Y-99750000D01*
X149300000Y-99750000D02*
X149350000Y-99800000D01*
X151815000Y-99600000D02*
X149550000Y-99600000D01*
X151815000Y-94800000D02*
X149300000Y-94800000D01*
D48*
%TO.N,/PPM*%
X143750000Y-95950000D02*
X150200000Y-102400000D01*
X157600000Y-104200000D02*
X158400000Y-104200000D01*
X155800000Y-102400000D02*
X157600000Y-104200000D01*
X141762500Y-95950000D02*
X143750000Y-95950000D01*
X150200000Y-102400000D02*
X155800000Y-102400000D01*
%TO.N,/TIM3_S1*%
X135600000Y-103000000D02*
X136350000Y-102250000D01*
X136350000Y-102250000D02*
X136350000Y-99362500D01*
%TO.N,/TIM3_S2*%
X136900000Y-103100000D02*
X136850000Y-103050000D01*
X136850000Y-103050000D02*
X136850000Y-99362500D01*
%TO.N,/TIM3_S3*%
X137350000Y-102150000D02*
X137350000Y-99362500D01*
X138000000Y-102800000D02*
X137350000Y-102150000D01*
%TO.N,/TIM3_S4*%
X139300000Y-103100000D02*
X139300000Y-103046096D01*
X139300000Y-103046096D02*
X137850000Y-101596096D01*
X137850000Y-101596096D02*
X137850000Y-99362500D01*
%TO.N,Net-(Q1-Pad1)*%
X153377500Y-88830000D02*
X152670000Y-88830000D01*
X152670000Y-88830000D02*
X152300000Y-89200000D01*
X152300000Y-90120000D02*
X152380000Y-90200000D01*
X152300000Y-89200000D02*
X152300000Y-90120000D01*
%TO.N,/UART1_RX*%
X143321777Y-94950000D02*
X143496278Y-95124501D01*
X151502500Y-85997500D02*
X151502500Y-87880000D01*
X145074511Y-93825489D02*
X145074511Y-89225489D01*
X146420000Y-87880000D02*
X151502500Y-87880000D01*
X145074511Y-89225489D02*
X146420000Y-87880000D01*
X152370000Y-85600000D02*
X151900000Y-85600000D01*
X151900000Y-85600000D02*
X151502500Y-85997500D01*
X141762500Y-94950000D02*
X143321777Y-94950000D01*
X144953722Y-93946278D02*
X145074511Y-93825489D01*
%TO.N,/BOOT*%
X134700000Y-92300000D02*
X132700000Y-90300000D01*
X132700000Y-90300000D02*
X126700000Y-90300000D01*
X122990000Y-94010000D02*
X121500000Y-94010000D01*
X136600000Y-92300000D02*
X134700000Y-92300000D01*
X121500000Y-95500000D02*
X121500000Y-94010000D01*
X136850000Y-92050000D02*
X136600000Y-92300000D01*
X126700000Y-90300000D02*
X122990000Y-94010000D01*
X136850000Y-91037500D02*
X136850000Y-92050000D01*
%TO.N,/NRST*%
X130950000Y-95450000D02*
X129200000Y-97200000D01*
X122800000Y-100700000D02*
X122190000Y-101310000D01*
X127600000Y-100700000D02*
X122800000Y-100700000D01*
X122190000Y-101310000D02*
X121500000Y-101310000D01*
X133437500Y-95450000D02*
X130950000Y-95450000D01*
X129200000Y-97200000D02*
X129200000Y-99100000D01*
X129200000Y-99100000D02*
X127600000Y-100700000D01*
%TO.N,/IMU_SDA*%
X141200000Y-86100000D02*
X141000000Y-85900000D01*
X140665740Y-88334260D02*
X141200000Y-87800000D01*
X138600000Y-85100000D02*
X139800000Y-85100000D01*
X139800000Y-85100000D02*
X140150000Y-85450000D01*
X138450000Y-84950000D02*
X138600000Y-85100000D01*
X137350000Y-89450000D02*
X137350000Y-91037500D01*
X140150000Y-85450000D02*
X140150000Y-85940000D01*
X138450000Y-84550000D02*
X138450000Y-84950000D01*
X136800000Y-88900000D02*
X137350000Y-89450000D01*
X141000000Y-85900000D02*
X140190000Y-85900000D01*
X136800000Y-88300000D02*
X136800000Y-88900000D01*
X141200000Y-87800000D02*
X141200000Y-86100000D01*
X138947408Y-88334260D02*
X140665740Y-88334260D01*
X140190000Y-85900000D02*
X140150000Y-85940000D01*
%TO.N,/IMU_SCL*%
X138330000Y-85930000D02*
X138570000Y-85930000D01*
X137950000Y-85550000D02*
X138330000Y-85930000D01*
X137850000Y-91037500D02*
X137850000Y-89350000D01*
X138100000Y-86400000D02*
X138570000Y-85930000D01*
X137950000Y-84550000D02*
X137950000Y-85550000D01*
X138570000Y-85930000D02*
X139050000Y-85930000D01*
X138100000Y-89100000D02*
X138100000Y-86400000D01*
X137850000Y-89350000D02*
X138100000Y-89100000D01*
D50*
%TO.N,/USB_DN*%
X148390000Y-96700000D02*
X146081800Y-96700000D01*
X141787499Y-94425001D02*
X141762500Y-94450000D01*
X143806801Y-94425001D02*
X141787499Y-94425001D01*
X146081800Y-96700000D02*
X143806801Y-94425001D01*
%TO.N,/USB_DP*%
X143993199Y-93974999D02*
X141787499Y-93974999D01*
X146900500Y-96300000D02*
X146318200Y-96300000D01*
X148190000Y-97600000D02*
X148390000Y-97800000D01*
X141787499Y-93974999D02*
X141762500Y-93950000D01*
X147200000Y-96000500D02*
X146900500Y-96300000D01*
X147200000Y-97600000D02*
X148190000Y-97600000D01*
X146318200Y-96300000D02*
X143993199Y-93974999D01*
D49*
%TO.N,/EN*%
X135600000Y-107600000D02*
X136240000Y-107600000D01*
X136240000Y-108600000D02*
X136240000Y-107600000D01*
X135165000Y-108035000D02*
X135600000Y-107600000D01*
X134225000Y-108035000D02*
X135165000Y-108035000D01*
%TO.N,/FREQ*%
X128065000Y-106765000D02*
X127500000Y-106200000D01*
X129275000Y-106765000D02*
X128065000Y-106765000D01*
X127500000Y-106200000D02*
X126460000Y-106200000D01*
%TO.N,/FB*%
X134225000Y-105495000D02*
X133595000Y-105495000D01*
X131160000Y-104100000D02*
X132950000Y-104100000D01*
X133595000Y-105495000D02*
X132950000Y-104850000D01*
X132950000Y-104850000D02*
X132950000Y-104100000D01*
D48*
%TO.N,/LED_STATUS*%
X138850000Y-89450000D02*
X139300000Y-89000000D01*
X145400000Y-87800000D02*
X145400000Y-82197500D01*
X138850000Y-91037500D02*
X138850000Y-89450000D01*
X139300000Y-89000000D02*
X144200000Y-89000000D01*
X144200000Y-89000000D02*
X145400000Y-87800000D01*
%TO.N,/VoltageMeter*%
X126310000Y-102690000D02*
X126300000Y-102700000D01*
X126310000Y-101600000D02*
X126310000Y-102690000D01*
X132450000Y-96950000D02*
X127800000Y-101600000D01*
X133437500Y-96950000D02*
X132450000Y-96950000D01*
X127800000Y-101600000D02*
X126310000Y-101600000D01*
%TO.N,/IMU_INT*%
X132600000Y-85200000D02*
X132600000Y-80300000D01*
X135950000Y-80150000D02*
X135950000Y-80650000D01*
X132600000Y-80300000D02*
X133200000Y-79700000D01*
X135500000Y-79700000D02*
X135950000Y-80150000D01*
X136350000Y-91037500D02*
X136350000Y-88950000D01*
X133200000Y-79700000D02*
X135500000Y-79700000D01*
X136350000Y-88950000D02*
X132600000Y-85200000D01*
%TD*%
%TA.AperFunction,Conductor*%
%TO.N,/VBAT*%
G36*
X135015931Y-111120002D02*
G01*
X135036905Y-111136905D01*
X137263095Y-113363095D01*
X137297121Y-113425407D01*
X137300000Y-113452190D01*
X137300000Y-116267194D01*
X137279998Y-116335315D01*
X137226342Y-116381808D01*
X137167378Y-116393020D01*
X136068711Y-116335195D01*
X135519378Y-116306283D01*
X135452402Y-116282728D01*
X135408794Y-116226703D01*
X135400000Y-116180457D01*
X135400000Y-113500000D01*
X134800000Y-112900000D01*
X132626000Y-112900000D01*
X132557879Y-112879998D01*
X132511386Y-112826342D01*
X132500000Y-112774000D01*
X132500000Y-111226000D01*
X132520002Y-111157879D01*
X132573658Y-111111386D01*
X132626000Y-111100000D01*
X134947810Y-111100000D01*
X135015931Y-111120002D01*
G37*
%TD.AperFunction*%
%TD*%
%TA.AperFunction,Conductor*%
%TO.N,+3V3*%
G36*
X151942121Y-105220002D02*
G01*
X151988614Y-105273658D01*
X152000000Y-105326000D01*
X152000000Y-106800000D01*
X152546751Y-106800000D01*
X152552494Y-106800167D01*
X152555354Y-106800500D01*
X153544646Y-106800500D01*
X153547445Y-106800167D01*
X153553078Y-106800000D01*
X154200000Y-106800000D01*
X154224154Y-106781885D01*
X154366400Y-106675200D01*
X154432898Y-106650329D01*
X154442000Y-106650000D01*
X156058000Y-106650000D01*
X156126121Y-106670002D01*
X156133600Y-106675200D01*
X156249600Y-106762200D01*
X156292095Y-106819074D01*
X156300000Y-106863000D01*
X156300000Y-108547810D01*
X156279998Y-108615931D01*
X156263095Y-108636905D01*
X155736905Y-109163095D01*
X155674593Y-109197121D01*
X155647810Y-109200000D01*
X153400000Y-109200000D01*
X153392404Y-109215192D01*
X153134826Y-109730349D01*
X153086471Y-109782333D01*
X153022128Y-109800000D01*
X150826000Y-109800000D01*
X150757879Y-109779998D01*
X150711386Y-109726342D01*
X150700000Y-109674000D01*
X150700000Y-106826000D01*
X150720002Y-106757879D01*
X150773658Y-106711386D01*
X150826000Y-106700000D01*
X151100000Y-106700000D01*
X151100000Y-105326000D01*
X151120002Y-105257879D01*
X151173658Y-105211386D01*
X151226000Y-105200000D01*
X151874000Y-105200000D01*
X151942121Y-105220002D01*
G37*
%TD.AperFunction*%
%TD*%
%TA.AperFunction,Conductor*%
%TO.N,+5V*%
G36*
X147915931Y-101920002D02*
G01*
X147936905Y-101936905D01*
X148900000Y-102900000D01*
X150547810Y-102900000D01*
X150615931Y-102920002D01*
X150636905Y-102936905D01*
X150863095Y-103163095D01*
X150897121Y-103225407D01*
X150900000Y-103252190D01*
X150900000Y-104547810D01*
X150879998Y-104615931D01*
X150863095Y-104636905D01*
X150600000Y-104900000D01*
X150600000Y-106299452D01*
X150579998Y-106367573D01*
X150545250Y-106398715D01*
X150547236Y-106401344D01*
X150457581Y-106469048D01*
X150456148Y-106467150D01*
X150409071Y-106495753D01*
X150376633Y-106500000D01*
X148600000Y-106500000D01*
X148136905Y-106963095D01*
X148074593Y-106997121D01*
X148047810Y-107000000D01*
X143426000Y-107000000D01*
X143357879Y-106979998D01*
X143311386Y-106926342D01*
X143300000Y-106874000D01*
X143300000Y-104826000D01*
X143320002Y-104757879D01*
X143373658Y-104711386D01*
X143426000Y-104700000D01*
X144900000Y-104700000D01*
X144900000Y-102552190D01*
X144920002Y-102484069D01*
X144936905Y-102463095D01*
X145463095Y-101936905D01*
X145525407Y-101902879D01*
X145552190Y-101900000D01*
X147847810Y-101900000D01*
X147915931Y-101920002D01*
G37*
%TD.AperFunction*%
%TD*%
%TA.AperFunction,Conductor*%
%TO.N,GNDPWR*%
G36*
X144115931Y-102220002D02*
G01*
X144136905Y-102236905D01*
X144263095Y-102363095D01*
X144297121Y-102425407D01*
X144300000Y-102452190D01*
X144300000Y-103847810D01*
X144279998Y-103915931D01*
X144263095Y-103936905D01*
X144136905Y-104063095D01*
X144074593Y-104097121D01*
X144047810Y-104100000D01*
X142900000Y-104100000D01*
X142700000Y-104300000D01*
X142700000Y-107647810D01*
X142679998Y-107715931D01*
X142663095Y-107736905D01*
X142236905Y-108163095D01*
X142174593Y-108197121D01*
X142147810Y-108200000D01*
X138826000Y-108200000D01*
X138757879Y-108179998D01*
X138711386Y-108126342D01*
X138700000Y-108074000D01*
X138700000Y-105700000D01*
X137900000Y-104900000D01*
X137549177Y-104900000D01*
X137507429Y-104892883D01*
X137484773Y-104884927D01*
X137477526Y-104882382D01*
X137469880Y-104881659D01*
X137469879Y-104881659D01*
X137464031Y-104881106D01*
X137447038Y-104879500D01*
X137072962Y-104879500D01*
X137055969Y-104881106D01*
X137050121Y-104881659D01*
X137050120Y-104881659D01*
X137042474Y-104882382D01*
X137035227Y-104884927D01*
X137012571Y-104892883D01*
X136970823Y-104900000D01*
X136900000Y-104900000D01*
X136700000Y-105100000D01*
X136700000Y-105189299D01*
X136695205Y-105217429D01*
X136696572Y-105217729D01*
X136694927Y-105225228D01*
X136692382Y-105232474D01*
X136689500Y-105262962D01*
X136689500Y-105658310D01*
X136669498Y-105726431D01*
X136652595Y-105747405D01*
X136636905Y-105763095D01*
X136574593Y-105797121D01*
X136547810Y-105800000D01*
X135952190Y-105800000D01*
X135884069Y-105779998D01*
X135863095Y-105763095D01*
X135836905Y-105736905D01*
X135802879Y-105674593D01*
X135800000Y-105647810D01*
X135800000Y-104752190D01*
X135820002Y-104684069D01*
X135836905Y-104663095D01*
X135937595Y-104562405D01*
X135999907Y-104528379D01*
X136026690Y-104525500D01*
X139767393Y-104525500D01*
X139790210Y-104518086D01*
X139809429Y-104513472D01*
X139833126Y-104509719D01*
X139841964Y-104505216D01*
X139854502Y-104498828D01*
X139872763Y-104491264D01*
X139886147Y-104486915D01*
X139886150Y-104486913D01*
X139895581Y-104483849D01*
X139914991Y-104469747D01*
X139931837Y-104459423D01*
X139953220Y-104448528D01*
X139964843Y-104436905D01*
X140027155Y-104402879D01*
X140053938Y-104400000D01*
X140100000Y-104400000D01*
X142263095Y-102236905D01*
X142325407Y-102202879D01*
X142352190Y-102200000D01*
X144047810Y-102200000D01*
X144115931Y-102220002D01*
G37*
%TD.AperFunction*%
%TD*%
%TA.AperFunction,Conductor*%
%TO.N,GND*%
G36*
X155341431Y-102845502D02*
G01*
X155362405Y-102862405D01*
X155763095Y-103263095D01*
X155797121Y-103325407D01*
X155800000Y-103352190D01*
X155800000Y-106147810D01*
X155779998Y-106215931D01*
X155763095Y-106236905D01*
X155636905Y-106363095D01*
X155574593Y-106397121D01*
X155547810Y-106400000D01*
X154200000Y-106400000D01*
X154136905Y-106463095D01*
X154074593Y-106497121D01*
X154047810Y-106500000D01*
X152726000Y-106500000D01*
X152657879Y-106479998D01*
X152611386Y-106426342D01*
X152600000Y-106374000D01*
X152600000Y-105100000D01*
X152300000Y-104800000D01*
X151552190Y-104800000D01*
X151484069Y-104779998D01*
X151463095Y-104763095D01*
X151436905Y-104736905D01*
X151402879Y-104674593D01*
X151400000Y-104647810D01*
X151400000Y-103052190D01*
X151420002Y-102984069D01*
X151436905Y-102963095D01*
X151537595Y-102862405D01*
X151599907Y-102828379D01*
X151626690Y-102825500D01*
X155273310Y-102825500D01*
X155341431Y-102845502D01*
G37*
%TD.AperFunction*%
%TD*%
%TA.AperFunction,Conductor*%
%TO.N,/SW*%
G36*
X135315931Y-109020002D02*
G01*
X135336905Y-109036905D01*
X135500000Y-109200000D01*
X135950823Y-109200000D01*
X135992571Y-109207117D01*
X136012984Y-109214285D01*
X136022474Y-109217618D01*
X136030120Y-109218341D01*
X136030121Y-109218341D01*
X136035969Y-109218894D01*
X136052962Y-109220500D01*
X136368310Y-109220500D01*
X136436431Y-109240502D01*
X136457405Y-109257405D01*
X136563095Y-109363095D01*
X136597121Y-109425407D01*
X136600000Y-109452190D01*
X136600000Y-110100000D01*
X136800000Y-110300000D01*
X136963445Y-110300000D01*
X136991478Y-110304778D01*
X136991781Y-110303395D01*
X136999280Y-110305040D01*
X137006526Y-110307585D01*
X137014172Y-110308308D01*
X137014173Y-110308308D01*
X137019403Y-110308802D01*
X137037362Y-110310500D01*
X137422638Y-110310500D01*
X137440597Y-110308802D01*
X137445827Y-110308308D01*
X137445828Y-110308308D01*
X137453474Y-110307585D01*
X137460720Y-110305040D01*
X137468219Y-110303395D01*
X137468522Y-110304778D01*
X137496555Y-110300000D01*
X138100000Y-110300000D01*
X138663095Y-109736905D01*
X138725407Y-109702879D01*
X138752190Y-109700000D01*
X140547810Y-109700000D01*
X140615931Y-109720002D01*
X140636905Y-109736905D01*
X141600000Y-110700000D01*
X146674000Y-110700000D01*
X146742121Y-110720002D01*
X146788614Y-110773658D01*
X146800000Y-110826000D01*
X146800000Y-113074000D01*
X146779998Y-113142121D01*
X146726342Y-113188614D01*
X146674000Y-113200000D01*
X137752190Y-113200000D01*
X137684069Y-113179998D01*
X137663095Y-113163095D01*
X135100000Y-110600000D01*
X133929745Y-110600000D01*
X133873396Y-110586698D01*
X133369650Y-110334825D01*
X133317667Y-110286471D01*
X133300000Y-110222128D01*
X133300000Y-109126000D01*
X133320002Y-109057879D01*
X133373658Y-109011386D01*
X133426000Y-109000000D01*
X135247810Y-109000000D01*
X135315931Y-109020002D01*
G37*
%TD.AperFunction*%
%TD*%
%TA.AperFunction,Conductor*%
%TO.N,GNDPWR*%
G36*
X130215931Y-103520002D02*
G01*
X130236905Y-103536905D01*
X130363095Y-103663095D01*
X130397121Y-103725407D01*
X130400000Y-103752190D01*
X130400000Y-104547810D01*
X130379998Y-104615931D01*
X130363095Y-104636905D01*
X130200000Y-104800000D01*
X130200000Y-105774000D01*
X130179998Y-105842121D01*
X130126342Y-105888614D01*
X130074000Y-105900000D01*
X127964131Y-105900000D01*
X127896010Y-105879998D01*
X127880723Y-105868441D01*
X127845399Y-105837244D01*
X127839712Y-105831898D01*
X127828494Y-105820680D01*
X127824905Y-105817990D01*
X127820316Y-105814550D01*
X127812477Y-105808168D01*
X127784339Y-105783318D01*
X127777612Y-105777377D01*
X127769489Y-105773563D01*
X127766336Y-105771492D01*
X127753324Y-105763673D01*
X127750005Y-105761856D01*
X127742824Y-105756474D01*
X127699261Y-105740143D01*
X127689947Y-105736217D01*
X127655967Y-105720264D01*
X127647837Y-105716447D01*
X127638965Y-105715066D01*
X127634583Y-105713726D01*
X127582326Y-105682326D01*
X127500000Y-105600000D01*
X126749177Y-105600000D01*
X126707429Y-105592883D01*
X126684773Y-105584927D01*
X126677526Y-105582382D01*
X126669880Y-105581659D01*
X126669879Y-105581659D01*
X126664031Y-105581106D01*
X126647038Y-105579500D01*
X126272962Y-105579500D01*
X126255969Y-105581106D01*
X126250121Y-105581659D01*
X126250120Y-105581659D01*
X126242474Y-105582382D01*
X126235227Y-105584927D01*
X126212571Y-105592883D01*
X126170823Y-105600000D01*
X126000000Y-105600000D01*
X125900000Y-105700000D01*
X125900000Y-105889299D01*
X125895205Y-105917429D01*
X125896572Y-105917729D01*
X125894927Y-105925228D01*
X125892382Y-105932474D01*
X125889500Y-105962962D01*
X125889500Y-106437038D01*
X125892382Y-106467526D01*
X125894927Y-106474772D01*
X125896572Y-106482271D01*
X125895205Y-106482571D01*
X125900000Y-106510701D01*
X125900000Y-106647810D01*
X125879998Y-106715931D01*
X125863095Y-106736905D01*
X125836905Y-106763095D01*
X125774593Y-106797121D01*
X125747810Y-106800000D01*
X125300000Y-106800000D01*
X125000000Y-107100000D01*
X125000000Y-108747810D01*
X124979998Y-108815931D01*
X124963095Y-108836905D01*
X124936905Y-108863095D01*
X124874593Y-108897121D01*
X124847810Y-108900000D01*
X123126000Y-108900000D01*
X123057879Y-108879998D01*
X123011386Y-108826342D01*
X123000000Y-108774000D01*
X123000000Y-104452190D01*
X123020002Y-104384069D01*
X123036905Y-104363095D01*
X123863095Y-103536905D01*
X123925407Y-103502879D01*
X123952190Y-103500000D01*
X130147810Y-103500000D01*
X130215931Y-103520002D01*
G37*
%TD.AperFunction*%
%TD*%
%TA.AperFunction,Conductor*%
%TO.N,/VIN*%
G36*
X127515931Y-107020002D02*
G01*
X127536905Y-107036905D01*
X127900000Y-107400000D01*
X130074000Y-107400000D01*
X130142121Y-107420002D01*
X130188614Y-107473658D01*
X130200000Y-107526000D01*
X130200000Y-108474000D01*
X130179998Y-108542121D01*
X130126342Y-108588614D01*
X130074000Y-108600000D01*
X128300000Y-108600000D01*
X128000000Y-108900000D01*
X128000000Y-109090559D01*
X127999860Y-109096492D01*
X127999779Y-109098219D01*
X127999500Y-109101166D01*
X127999500Y-109508834D01*
X127999779Y-109511781D01*
X127999860Y-109513508D01*
X128000000Y-109519441D01*
X128000000Y-109700000D01*
X128300000Y-110000000D01*
X130647810Y-110000000D01*
X130715931Y-110020002D01*
X130736905Y-110036905D01*
X130963095Y-110263095D01*
X130997121Y-110325407D01*
X131000000Y-110352190D01*
X131000000Y-112774000D01*
X130979998Y-112842121D01*
X130926342Y-112888614D01*
X130874000Y-112900000D01*
X128152190Y-112900000D01*
X128084069Y-112879998D01*
X128063095Y-112863095D01*
X127736905Y-112536905D01*
X127702879Y-112474593D01*
X127700000Y-112447810D01*
X127700000Y-111200000D01*
X125536905Y-109036905D01*
X125502879Y-108974593D01*
X125500000Y-108947810D01*
X125500000Y-107252190D01*
X125520002Y-107184069D01*
X125536905Y-107163095D01*
X125663095Y-107036905D01*
X125725407Y-107002879D01*
X125752190Y-107000000D01*
X127447810Y-107000000D01*
X127515931Y-107020002D01*
G37*
%TD.AperFunction*%
%TD*%
M02*
