%TF.GenerationSoftware,KiCad,Pcbnew,(6.0.0)*%
%TF.CreationDate,2022-08-29T11:56:51+07:00*%
%TF.ProjectId,FlightBit,466c6967-6874-4426-9974-2e6b69636164,rev?*%
%TF.SameCoordinates,Original*%
%TF.FileFunction,Copper,L2,Inr*%
%TF.FilePolarity,Positive*%
%FSLAX46Y46*%
G04 Gerber Fmt 4.6, Leading zero omitted, Abs format (unit mm)*
G04 Created by KiCad (PCBNEW (6.0.0)) date 2022-08-29 11:56:51*
%MOMM*%
%LPD*%
G01*
G04 APERTURE LIST*
G04 Aperture macros list*
%AMRoundRect*
0 Rectangle with rounded corners*
0 $1 Rounding radius*
0 $2 $3 $4 $5 $6 $7 $8 $9 X,Y pos of 4 corners*
0 Add a 4 corners polygon primitive as box body*
4,1,4,$2,$3,$4,$5,$6,$7,$8,$9,$2,$3,0*
0 Add four circle primitives for the rounded corners*
1,1,$1+$1,$2,$3*
1,1,$1+$1,$4,$5*
1,1,$1+$1,$6,$7*
1,1,$1+$1,$8,$9*
0 Add four rect primitives between the rounded corners*
20,1,$1+$1,$2,$3,$4,$5,0*
20,1,$1+$1,$4,$5,$6,$7,0*
20,1,$1+$1,$6,$7,$8,$9,0*
20,1,$1+$1,$8,$9,$2,$3,0*%
G04 Aperture macros list end*
%TA.AperFunction,ComponentPad*%
%ADD10RoundRect,0.500000X-0.500000X-0.500000X0.500000X-0.500000X0.500000X0.500000X-0.500000X0.500000X0*%
%TD*%
%TA.AperFunction,ComponentPad*%
%ADD11RoundRect,0.500000X-0.500000X0.500000X-0.500000X-0.500000X0.500000X-0.500000X0.500000X0.500000X0*%
%TD*%
%TA.AperFunction,ComponentPad*%
%ADD12O,2.000000X0.900000*%
%TD*%
%TA.AperFunction,ComponentPad*%
%ADD13O,1.700000X0.900000*%
%TD*%
%TA.AperFunction,ComponentPad*%
%ADD14C,6.000000*%
%TD*%
%TA.AperFunction,ComponentPad*%
%ADD15RoundRect,0.500000X0.500000X0.500000X-0.500000X0.500000X-0.500000X-0.500000X0.500000X-0.500000X0*%
%TD*%
%TA.AperFunction,ComponentPad*%
%ADD16C,0.500000*%
%TD*%
%TA.AperFunction,ViaPad*%
%ADD17C,0.700000*%
%TD*%
%TA.AperFunction,ViaPad*%
%ADD18C,0.800000*%
%TD*%
%TA.AperFunction,Conductor*%
%ADD19C,0.400000*%
%TD*%
G04 APERTURE END LIST*
D10*
%TO.N,GND*%
%TO.C,J3*%
X158400000Y-108772000D03*
%TO.N,+5V*%
X158400000Y-106486000D03*
%TO.N,/PPM*%
X158400000Y-104200000D03*
%TD*%
D11*
%TO.N,GNDPWR*%
%TO.C,J4*%
X134068000Y-115700000D03*
%TO.N,/VBAT*%
X136354000Y-115700000D03*
%TO.N,/TIM3_S1*%
X138640000Y-115700000D03*
%TO.N,/TIM3_S2*%
X140926000Y-115700000D03*
%TO.N,/TIM3_S3*%
X143258000Y-115700000D03*
%TO.N,/TIM3_S4*%
X145558000Y-115700000D03*
%TD*%
D12*
%TO.N,GND*%
%TO.C,J2*%
X152395000Y-92880000D03*
X152395000Y-101520000D03*
D13*
X156565000Y-92880000D03*
X156565000Y-101520000D03*
%TD*%
D14*
%TO.N,N/C*%
%TO.C,H2*%
X124200000Y-81700000D03*
%TD*%
%TO.N,N/C*%
%TO.C,H4*%
X124200000Y-112700000D03*
%TD*%
%TO.N,N/C*%
%TO.C,H3*%
X155200000Y-81700000D03*
%TD*%
D15*
%TO.N,GND*%
%TO.C,J1*%
X158200000Y-85628000D03*
%TO.N,+5V*%
X158200000Y-87914000D03*
%TO.N,/SBUS*%
X158200000Y-90200000D03*
%TD*%
D10*
%TO.N,GND*%
%TO.C,J5*%
X121000000Y-89143000D03*
%TO.N,+5V*%
X121000000Y-86857000D03*
%TD*%
D16*
%TO.N,N/C*%
%TO.C,U3*%
X132400000Y-106400000D03*
X132400000Y-107400000D03*
X131100000Y-107400000D03*
X131100000Y-106400000D03*
X132400000Y-108400000D03*
X131100000Y-108400000D03*
%TD*%
D14*
%TO.N,N/C*%
%TO.C,H1*%
X155200000Y-112700000D03*
%TD*%
D15*
%TO.N,GND*%
%TO.C,J6*%
X121000000Y-105200000D03*
%TO.N,+3V3*%
X121000000Y-107486000D03*
%TD*%
D17*
%TO.N,+3V3*%
X122800000Y-98900000D03*
X140900000Y-101700000D03*
X154200000Y-85500000D03*
X134074099Y-88495612D03*
X140200000Y-87600000D03*
X120800000Y-100300000D03*
X130086620Y-98359491D03*
X121500000Y-98000000D03*
X130700000Y-92100000D03*
D18*
X155300000Y-108700000D03*
D17*
X133500000Y-81600000D03*
D18*
X153500000Y-108700000D03*
D17*
X138900000Y-79200000D03*
X147000000Y-82900000D03*
D18*
X154400000Y-108700000D03*
D17*
X144400000Y-91700000D03*
%TO.N,GND*%
X154500000Y-86900000D03*
X124700000Y-101600000D03*
D18*
X154200000Y-103400000D03*
D17*
X138800000Y-78200000D03*
X136100000Y-78000000D03*
D18*
X153300000Y-103400000D03*
D17*
X144300000Y-78200000D03*
D18*
X124400000Y-99800000D03*
D17*
X140300000Y-83900000D03*
X139900000Y-101700000D03*
X121500000Y-92300000D03*
D18*
X150700000Y-100500000D03*
D17*
X149900000Y-78200000D03*
X135800000Y-86900000D03*
D18*
X155100000Y-104300000D03*
X126300000Y-93600000D03*
X154200000Y-104300000D03*
X155100000Y-103400000D03*
D17*
X144400000Y-92700000D03*
D18*
X153300000Y-104300000D03*
D17*
X130026944Y-97326944D03*
D18*
X150700000Y-94000000D03*
D17*
X134973056Y-88526944D03*
X130800000Y-91100000D03*
X133600000Y-83800000D03*
D18*
%TO.N,/VIN*%
X127700000Y-108000000D03*
X137900000Y-107600000D03*
%TO.N,GNDPWR*%
X127400000Y-104000000D03*
X142100000Y-106600000D03*
X124000000Y-105700000D03*
X142100000Y-105700000D03*
X142100000Y-103900000D03*
X142100000Y-104800000D03*
X142100000Y-107500000D03*
X126400000Y-104000000D03*
X128400000Y-104000000D03*
X124000000Y-106600000D03*
X124000000Y-104800000D03*
X142100000Y-103000000D03*
X124400000Y-104000000D03*
X125400000Y-104000000D03*
%TO.N,/BST*%
X131400000Y-109600000D03*
X138000000Y-109400000D03*
%TO.N,+5V*%
X148600000Y-104000000D03*
D17*
X148800000Y-82900000D03*
D18*
X132100000Y-86900000D03*
X148600000Y-103100000D03*
X145000000Y-99800000D03*
%TO.N,/VBAT*%
X124400000Y-102700000D03*
X132200000Y-113500000D03*
D17*
%TO.N,/D-*%
X153500000Y-96800000D03*
X153600000Y-98100000D03*
D18*
%TO.N,VBUS*%
X149300000Y-94800000D03*
X149300000Y-98719500D03*
D17*
%TO.N,/TIM3_S1*%
X135600000Y-103000000D03*
%TO.N,/TIM3_S2*%
X136900000Y-103100000D03*
%TO.N,/TIM3_S3*%
X138000000Y-102800000D03*
%TO.N,/TIM3_S4*%
X139300000Y-103100000D03*
D18*
%TO.N,/UART1_RX*%
X144953722Y-93946278D03*
X143496278Y-95124501D03*
%TO.N,/IMU_SDA*%
X138947408Y-88334260D03*
X136800000Y-88300000D03*
%TO.N,/USB_DP*%
X147200000Y-96000500D03*
X147200000Y-97600000D03*
%TD*%
D19*
%TO.N,+5V*%
X150786000Y-87914000D02*
X158200000Y-87914000D01*
X148800000Y-85900000D02*
X148800000Y-82900000D01*
X149686000Y-106486000D02*
X158400000Y-106486000D01*
X148600000Y-104000000D02*
X148600000Y-105400000D01*
X150786000Y-87914000D02*
X150786000Y-87886000D01*
X148600000Y-103100000D02*
X148600000Y-104000000D01*
X148600000Y-105400000D02*
X149686000Y-106486000D01*
X148500489Y-90199511D02*
X150786000Y-87914000D01*
X148600000Y-103100000D02*
X148500489Y-103000489D01*
X150786000Y-87886000D02*
X148800000Y-85900000D01*
X148500489Y-103000489D02*
X148500489Y-90199511D01*
%TD*%
%TA.AperFunction,Conductor*%
%TO.N,+3V3*%
G36*
X135195645Y-77728002D02*
G01*
X135242138Y-77781658D01*
X135252834Y-77847171D01*
X135238881Y-77979921D01*
X135236771Y-78000000D01*
X135255635Y-78179475D01*
X135257675Y-78185753D01*
X135257675Y-78185754D01*
X135258034Y-78186858D01*
X135311401Y-78351107D01*
X135314704Y-78356829D01*
X135314705Y-78356830D01*
X135346689Y-78412227D01*
X135401633Y-78507393D01*
X135406051Y-78512300D01*
X135406052Y-78512301D01*
X135411217Y-78518037D01*
X135522387Y-78641504D01*
X135668385Y-78747578D01*
X135674413Y-78750262D01*
X135674415Y-78750263D01*
X135682811Y-78754001D01*
X135833248Y-78820980D01*
X135921508Y-78839740D01*
X136003311Y-78857128D01*
X136003315Y-78857128D01*
X136009768Y-78858500D01*
X136190232Y-78858500D01*
X136196685Y-78857128D01*
X136196689Y-78857128D01*
X136278492Y-78839740D01*
X136366752Y-78820980D01*
X136517189Y-78754001D01*
X136525585Y-78750263D01*
X136525587Y-78750262D01*
X136531615Y-78747578D01*
X136677613Y-78641504D01*
X136788783Y-78518037D01*
X136793948Y-78512301D01*
X136793949Y-78512300D01*
X136798367Y-78507393D01*
X136853311Y-78412227D01*
X136885295Y-78356830D01*
X136885296Y-78356829D01*
X136888599Y-78351107D01*
X136941966Y-78186858D01*
X136942325Y-78185754D01*
X136942325Y-78185753D01*
X136944365Y-78179475D01*
X136963229Y-78000000D01*
X136961119Y-77979921D01*
X136947166Y-77847171D01*
X136959938Y-77777332D01*
X137008440Y-77725486D01*
X137072476Y-77708000D01*
X137883756Y-77708000D01*
X137951877Y-77728002D01*
X137998370Y-77781658D01*
X138008474Y-77851932D01*
X138003589Y-77872936D01*
X137955635Y-78020525D01*
X137936771Y-78200000D01*
X137955635Y-78379475D01*
X138011401Y-78551107D01*
X138101633Y-78707393D01*
X138106051Y-78712300D01*
X138106052Y-78712301D01*
X138203907Y-78820980D01*
X138222387Y-78841504D01*
X138227729Y-78845385D01*
X138227731Y-78845387D01*
X138363043Y-78943697D01*
X138368385Y-78947578D01*
X138374413Y-78950262D01*
X138374415Y-78950263D01*
X138527217Y-79018295D01*
X138533248Y-79020980D01*
X138621508Y-79039740D01*
X138703311Y-79057128D01*
X138703315Y-79057128D01*
X138709768Y-79058500D01*
X138890232Y-79058500D01*
X138896685Y-79057128D01*
X138896689Y-79057128D01*
X138978492Y-79039740D01*
X139066752Y-79020980D01*
X139072783Y-79018295D01*
X139225585Y-78950263D01*
X139225587Y-78950262D01*
X139231615Y-78947578D01*
X139236957Y-78943697D01*
X139372269Y-78845387D01*
X139372271Y-78845385D01*
X139377613Y-78841504D01*
X139396093Y-78820980D01*
X139493948Y-78712301D01*
X139493949Y-78712300D01*
X139498367Y-78707393D01*
X139588599Y-78551107D01*
X139644365Y-78379475D01*
X139663229Y-78200000D01*
X139644365Y-78020525D01*
X139596411Y-77872936D01*
X139594384Y-77801968D01*
X139631046Y-77741170D01*
X139694759Y-77709845D01*
X139716244Y-77708000D01*
X143383756Y-77708000D01*
X143451877Y-77728002D01*
X143498370Y-77781658D01*
X143508474Y-77851932D01*
X143503589Y-77872936D01*
X143455635Y-78020525D01*
X143436771Y-78200000D01*
X143455635Y-78379475D01*
X143511401Y-78551107D01*
X143601633Y-78707393D01*
X143606051Y-78712300D01*
X143606052Y-78712301D01*
X143703907Y-78820980D01*
X143722387Y-78841504D01*
X143727729Y-78845385D01*
X143727731Y-78845387D01*
X143863043Y-78943697D01*
X143868385Y-78947578D01*
X143874413Y-78950262D01*
X143874415Y-78950263D01*
X144027217Y-79018295D01*
X144033248Y-79020980D01*
X144121508Y-79039740D01*
X144203311Y-79057128D01*
X144203315Y-79057128D01*
X144209768Y-79058500D01*
X144390232Y-79058500D01*
X144396685Y-79057128D01*
X144396689Y-79057128D01*
X144478492Y-79039740D01*
X144566752Y-79020980D01*
X144572783Y-79018295D01*
X144725585Y-78950263D01*
X144725587Y-78950262D01*
X144731615Y-78947578D01*
X144736957Y-78943697D01*
X144872269Y-78845387D01*
X144872271Y-78845385D01*
X144877613Y-78841504D01*
X144896093Y-78820980D01*
X144993948Y-78712301D01*
X144993949Y-78712300D01*
X144998367Y-78707393D01*
X145088599Y-78551107D01*
X145144365Y-78379475D01*
X145163229Y-78200000D01*
X145144365Y-78020525D01*
X145096411Y-77872936D01*
X145094384Y-77801968D01*
X145131046Y-77741170D01*
X145194759Y-77709845D01*
X145216244Y-77708000D01*
X148983756Y-77708000D01*
X149051877Y-77728002D01*
X149098370Y-77781658D01*
X149108474Y-77851932D01*
X149103589Y-77872936D01*
X149055635Y-78020525D01*
X149036771Y-78200000D01*
X149055635Y-78379475D01*
X149111401Y-78551107D01*
X149201633Y-78707393D01*
X149206051Y-78712300D01*
X149206052Y-78712301D01*
X149303907Y-78820980D01*
X149322387Y-78841504D01*
X149327729Y-78845385D01*
X149327731Y-78845387D01*
X149463043Y-78943697D01*
X149468385Y-78947578D01*
X149474413Y-78950262D01*
X149474415Y-78950263D01*
X149627217Y-79018295D01*
X149633248Y-79020980D01*
X149721508Y-79039740D01*
X149803311Y-79057128D01*
X149803315Y-79057128D01*
X149809768Y-79058500D01*
X149990232Y-79058500D01*
X149996685Y-79057128D01*
X149996689Y-79057128D01*
X150078492Y-79039740D01*
X150166752Y-79020980D01*
X150172783Y-79018295D01*
X150325585Y-78950263D01*
X150325587Y-78950262D01*
X150331615Y-78947578D01*
X150336957Y-78943697D01*
X150472269Y-78845387D01*
X150472271Y-78845385D01*
X150477613Y-78841504D01*
X150496093Y-78820980D01*
X150593948Y-78712301D01*
X150593949Y-78712300D01*
X150598367Y-78707393D01*
X150688599Y-78551107D01*
X150744365Y-78379475D01*
X150763229Y-78200000D01*
X150744365Y-78020525D01*
X150696411Y-77872936D01*
X150694384Y-77801968D01*
X150731046Y-77741170D01*
X150794759Y-77709845D01*
X150816244Y-77708000D01*
X155150672Y-77708000D01*
X155170057Y-77709500D01*
X155184858Y-77711805D01*
X155184861Y-77711805D01*
X155193730Y-77713186D01*
X155213626Y-77710584D01*
X155235784Y-77709654D01*
X155562518Y-77724760D01*
X155574107Y-77725834D01*
X155927764Y-77775167D01*
X155939204Y-77777306D01*
X156286799Y-77859060D01*
X156297987Y-77862243D01*
X156636553Y-77975719D01*
X156647398Y-77979919D01*
X156810732Y-78052039D01*
X156974063Y-78124157D01*
X156984468Y-78129337D01*
X157296441Y-78303105D01*
X157306318Y-78309221D01*
X157600912Y-78511023D01*
X157610200Y-78518037D01*
X157884919Y-78746160D01*
X157893519Y-78754001D01*
X158145999Y-79006481D01*
X158153840Y-79015081D01*
X158381963Y-79289800D01*
X158388977Y-79299088D01*
X158590779Y-79593682D01*
X158596895Y-79603559D01*
X158770663Y-79915532D01*
X158775843Y-79925937D01*
X158920079Y-80252598D01*
X158924283Y-80263451D01*
X159037756Y-80602011D01*
X159040941Y-80613204D01*
X159122694Y-80960796D01*
X159124833Y-80972236D01*
X159174166Y-81325893D01*
X159175240Y-81337482D01*
X159190003Y-81656816D01*
X159188638Y-81682015D01*
X159186814Y-81693730D01*
X159187978Y-81702632D01*
X159187978Y-81702635D01*
X159190936Y-81725251D01*
X159192000Y-81741589D01*
X159192000Y-84051440D01*
X159171998Y-84119561D01*
X159118342Y-84166054D01*
X159048068Y-84176158D01*
X159017578Y-84167764D01*
X159013470Y-84166054D01*
X158996284Y-84158900D01*
X158990248Y-84157683D01*
X158990245Y-84157682D01*
X158806996Y-84120733D01*
X158806995Y-84120733D01*
X158802408Y-84119808D01*
X158796328Y-84119500D01*
X158019488Y-84119500D01*
X157951367Y-84099498D01*
X157904874Y-84045842D01*
X157894770Y-83975568D01*
X157921568Y-83914206D01*
X158040246Y-83767651D01*
X158042332Y-83765075D01*
X158242620Y-83456657D01*
X158275256Y-83392607D01*
X158408075Y-83131934D01*
X158409573Y-83128994D01*
X158497475Y-82900000D01*
X158540175Y-82788764D01*
X158540176Y-82788762D01*
X158541361Y-82785674D01*
X158636541Y-82430459D01*
X158681003Y-82149737D01*
X158693555Y-82070489D01*
X158693556Y-82070481D01*
X158694069Y-82067241D01*
X158713315Y-81700000D01*
X158694069Y-81332759D01*
X158686678Y-81286089D01*
X158637057Y-80972802D01*
X158636541Y-80969541D01*
X158541361Y-80614326D01*
X158409573Y-80271006D01*
X158242620Y-79943343D01*
X158231317Y-79925937D01*
X158044134Y-79637700D01*
X158042332Y-79634925D01*
X157810902Y-79349133D01*
X157550867Y-79089098D01*
X157265075Y-78857668D01*
X157095551Y-78747578D01*
X156959427Y-78659178D01*
X156959424Y-78659176D01*
X156956658Y-78657380D01*
X156953724Y-78655885D01*
X156953717Y-78655881D01*
X156631934Y-78491925D01*
X156628994Y-78490427D01*
X156285674Y-78358639D01*
X155930459Y-78263459D01*
X155737442Y-78232888D01*
X155570489Y-78206445D01*
X155570481Y-78206444D01*
X155567241Y-78205931D01*
X155200000Y-78186685D01*
X154832759Y-78205931D01*
X154829519Y-78206444D01*
X154829511Y-78206445D01*
X154662558Y-78232888D01*
X154469541Y-78263459D01*
X154114326Y-78358639D01*
X153771006Y-78490427D01*
X153768066Y-78491925D01*
X153446284Y-78655881D01*
X153446277Y-78655885D01*
X153443343Y-78657380D01*
X153440577Y-78659176D01*
X153440574Y-78659178D01*
X153300911Y-78749876D01*
X153134925Y-78857668D01*
X152849133Y-79089098D01*
X152589098Y-79349133D01*
X152357668Y-79634925D01*
X152355866Y-79637700D01*
X152168684Y-79925937D01*
X152157380Y-79943343D01*
X151990427Y-80271006D01*
X151858639Y-80614326D01*
X151763459Y-80969541D01*
X151762943Y-80972802D01*
X151713323Y-81286089D01*
X151705931Y-81332759D01*
X151686685Y-81700000D01*
X151705931Y-82067241D01*
X151706444Y-82070481D01*
X151706445Y-82070489D01*
X151718997Y-82149737D01*
X151763459Y-82430459D01*
X151858639Y-82785674D01*
X151859824Y-82788762D01*
X151859825Y-82788764D01*
X151902525Y-82900000D01*
X151990427Y-83128994D01*
X151991925Y-83131934D01*
X152124745Y-83392607D01*
X152157380Y-83456657D01*
X152357668Y-83765075D01*
X152589098Y-84050867D01*
X152849133Y-84310902D01*
X153134925Y-84542332D01*
X153137700Y-84544134D01*
X153405885Y-84718295D01*
X153443342Y-84742620D01*
X153446276Y-84744115D01*
X153446283Y-84744119D01*
X153674928Y-84860619D01*
X153771006Y-84909573D01*
X154114326Y-85041361D01*
X154469541Y-85136541D01*
X154662558Y-85167112D01*
X154829511Y-85193555D01*
X154829519Y-85193556D01*
X154832759Y-85194069D01*
X155200000Y-85213315D01*
X155567241Y-85194069D01*
X155570481Y-85193556D01*
X155570489Y-85193555D01*
X155737442Y-85167112D01*
X155930459Y-85136541D01*
X156285674Y-85041361D01*
X156520346Y-84951279D01*
X156591110Y-84945540D01*
X156653743Y-84978970D01*
X156688360Y-85040956D01*
X156691500Y-85068910D01*
X156691500Y-86224328D01*
X156691808Y-86230408D01*
X156692733Y-86234995D01*
X156692733Y-86234996D01*
X156729199Y-86415846D01*
X156730900Y-86424284D01*
X156806905Y-86606873D01*
X156810332Y-86611992D01*
X156810334Y-86611996D01*
X156869855Y-86700907D01*
X156891129Y-86768641D01*
X156869855Y-86841093D01*
X156810334Y-86930004D01*
X156810332Y-86930008D01*
X156806905Y-86935127D01*
X156730900Y-87117716D01*
X156730837Y-87118028D01*
X156692908Y-87175633D01*
X156628005Y-87204409D01*
X156611456Y-87205500D01*
X155471057Y-87205500D01*
X155402936Y-87185498D01*
X155356443Y-87131842D01*
X155345747Y-87066329D01*
X155362539Y-86906565D01*
X155363229Y-86900000D01*
X155362539Y-86893435D01*
X155345055Y-86727089D01*
X155345055Y-86727088D01*
X155344365Y-86720525D01*
X155288599Y-86548893D01*
X155280422Y-86534729D01*
X155201668Y-86398325D01*
X155198367Y-86392607D01*
X155077613Y-86258496D01*
X155071559Y-86254097D01*
X154936957Y-86156303D01*
X154936956Y-86156302D01*
X154931615Y-86152422D01*
X154925587Y-86149738D01*
X154925585Y-86149737D01*
X154772783Y-86081705D01*
X154772781Y-86081705D01*
X154766752Y-86079020D01*
X154678492Y-86060260D01*
X154596689Y-86042872D01*
X154596685Y-86042872D01*
X154590232Y-86041500D01*
X154409768Y-86041500D01*
X154403315Y-86042872D01*
X154403311Y-86042872D01*
X154321508Y-86060260D01*
X154233248Y-86079020D01*
X154227219Y-86081704D01*
X154227217Y-86081705D01*
X154074416Y-86149737D01*
X154074414Y-86149738D01*
X154068386Y-86152422D01*
X154063045Y-86156302D01*
X154063044Y-86156303D01*
X153927731Y-86254613D01*
X153927729Y-86254615D01*
X153922387Y-86258496D01*
X153801633Y-86392607D01*
X153798332Y-86398325D01*
X153719579Y-86534729D01*
X153711401Y-86548893D01*
X153655635Y-86720525D01*
X153654945Y-86727088D01*
X153654945Y-86727089D01*
X153637461Y-86893435D01*
X153636771Y-86900000D01*
X153637461Y-86906565D01*
X153654253Y-87066329D01*
X153641481Y-87136168D01*
X153592979Y-87188014D01*
X153528943Y-87205500D01*
X151159660Y-87205500D01*
X151091539Y-87185498D01*
X151070565Y-87168595D01*
X149545405Y-85643435D01*
X149511379Y-85581123D01*
X149508500Y-85554340D01*
X149508500Y-83423603D01*
X149525381Y-83360603D01*
X149585295Y-83256830D01*
X149585296Y-83256829D01*
X149588599Y-83251107D01*
X149627320Y-83131934D01*
X149642325Y-83085754D01*
X149642325Y-83085753D01*
X149644365Y-83079475D01*
X149647209Y-83052422D01*
X149662539Y-82906565D01*
X149663229Y-82900000D01*
X149644365Y-82720525D01*
X149588599Y-82548893D01*
X149498367Y-82392607D01*
X149377613Y-82258496D01*
X149231615Y-82152422D01*
X149225587Y-82149738D01*
X149225585Y-82149737D01*
X149072783Y-82081705D01*
X149072781Y-82081705D01*
X149066752Y-82079020D01*
X148978492Y-82060260D01*
X148896689Y-82042872D01*
X148896685Y-82042872D01*
X148890232Y-82041500D01*
X148709768Y-82041500D01*
X148703315Y-82042872D01*
X148703311Y-82042872D01*
X148621508Y-82060260D01*
X148533248Y-82079020D01*
X148527219Y-82081704D01*
X148527217Y-82081705D01*
X148374416Y-82149737D01*
X148374414Y-82149738D01*
X148368386Y-82152422D01*
X148363045Y-82156302D01*
X148363044Y-82156303D01*
X148227731Y-82254613D01*
X148227729Y-82254615D01*
X148222387Y-82258496D01*
X148101633Y-82392607D01*
X148011401Y-82548893D01*
X147955635Y-82720525D01*
X147936771Y-82900000D01*
X147937461Y-82906565D01*
X147952792Y-83052422D01*
X147955635Y-83079475D01*
X147957675Y-83085753D01*
X147957675Y-83085754D01*
X147972680Y-83131934D01*
X148011401Y-83251107D01*
X148014704Y-83256829D01*
X148014705Y-83256830D01*
X148074619Y-83360603D01*
X148091500Y-83423603D01*
X148091500Y-85871088D01*
X148091208Y-85879658D01*
X148087275Y-85937352D01*
X148088580Y-85944829D01*
X148088580Y-85944830D01*
X148098261Y-86000299D01*
X148099223Y-86006821D01*
X148106898Y-86070242D01*
X148109581Y-86077343D01*
X148110222Y-86079952D01*
X148114685Y-86096262D01*
X148115450Y-86098798D01*
X148116757Y-86106284D01*
X148137011Y-86152422D01*
X148142442Y-86164795D01*
X148144933Y-86170899D01*
X148167513Y-86230656D01*
X148171817Y-86236919D01*
X148173054Y-86239285D01*
X148181299Y-86254097D01*
X148182632Y-86256351D01*
X148185685Y-86263305D01*
X148190307Y-86269328D01*
X148224579Y-86313991D01*
X148228459Y-86319332D01*
X148260339Y-86365720D01*
X148260344Y-86365725D01*
X148264643Y-86371981D01*
X148270313Y-86377032D01*
X148270314Y-86377034D01*
X148311170Y-86413435D01*
X148316446Y-86418416D01*
X149708934Y-87810905D01*
X149742960Y-87873217D01*
X149737895Y-87944033D01*
X149708934Y-87989095D01*
X148019961Y-89678069D01*
X148013695Y-89683923D01*
X147975829Y-89716955D01*
X147975826Y-89716958D01*
X147970104Y-89721950D01*
X147950393Y-89749996D01*
X147933361Y-89774230D01*
X147929428Y-89779525D01*
X147890013Y-89829793D01*
X147886890Y-89836709D01*
X147885506Y-89838995D01*
X147877132Y-89853676D01*
X147875867Y-89856036D01*
X147871499Y-89862250D01*
X147868739Y-89869329D01*
X147868738Y-89869331D01*
X147848287Y-89921786D01*
X147845736Y-89927855D01*
X147819444Y-89986084D01*
X147818060Y-89993551D01*
X147817259Y-89996106D01*
X147812630Y-90012359D01*
X147811967Y-90014939D01*
X147809207Y-90022020D01*
X147808216Y-90029551D01*
X147808215Y-90029553D01*
X147800868Y-90085363D01*
X147799837Y-90091870D01*
X147788193Y-90154697D01*
X147788630Y-90162277D01*
X147788630Y-90162278D01*
X147791780Y-90216903D01*
X147791989Y-90224157D01*
X147791989Y-95075570D01*
X147771987Y-95143691D01*
X147718331Y-95190184D01*
X147648057Y-95200288D01*
X147614740Y-95190677D01*
X147488319Y-95134391D01*
X147488318Y-95134391D01*
X147482288Y-95131706D01*
X147388887Y-95111853D01*
X147301944Y-95093372D01*
X147301939Y-95093372D01*
X147295487Y-95092000D01*
X147104513Y-95092000D01*
X147098061Y-95093372D01*
X147098056Y-95093372D01*
X147011113Y-95111853D01*
X146917712Y-95131706D01*
X146911682Y-95134391D01*
X146911681Y-95134391D01*
X146749278Y-95206697D01*
X146749276Y-95206698D01*
X146743248Y-95209382D01*
X146588747Y-95321634D01*
X146460960Y-95463556D01*
X146365473Y-95628944D01*
X146306458Y-95810572D01*
X146286496Y-96000500D01*
X146306458Y-96190428D01*
X146365473Y-96372056D01*
X146460960Y-96537444D01*
X146465378Y-96542351D01*
X146465379Y-96542352D01*
X146584325Y-96674455D01*
X146588747Y-96679366D01*
X146614827Y-96698314D01*
X146658181Y-96754536D01*
X146664257Y-96825272D01*
X146631125Y-96888064D01*
X146614830Y-96902183D01*
X146588747Y-96921134D01*
X146584326Y-96926044D01*
X146584325Y-96926045D01*
X146536217Y-96979475D01*
X146460960Y-97063056D01*
X146365473Y-97228444D01*
X146306458Y-97410072D01*
X146305768Y-97416633D01*
X146305768Y-97416635D01*
X146296332Y-97506419D01*
X146286496Y-97600000D01*
X146287186Y-97606565D01*
X146302806Y-97755178D01*
X146306458Y-97789928D01*
X146365473Y-97971556D01*
X146460960Y-98136944D01*
X146465378Y-98141851D01*
X146465379Y-98141852D01*
X146507178Y-98188274D01*
X146588747Y-98278866D01*
X146743248Y-98391118D01*
X146749276Y-98393802D01*
X146749278Y-98393803D01*
X146877986Y-98451107D01*
X146917712Y-98468794D01*
X147011113Y-98488647D01*
X147098056Y-98507128D01*
X147098061Y-98507128D01*
X147104513Y-98508500D01*
X147295487Y-98508500D01*
X147301939Y-98507128D01*
X147301944Y-98507128D01*
X147388887Y-98488647D01*
X147482288Y-98468794D01*
X147536131Y-98444822D01*
X147614740Y-98409823D01*
X147685107Y-98400389D01*
X147749404Y-98430496D01*
X147787218Y-98490585D01*
X147791989Y-98524930D01*
X147791989Y-102648756D01*
X147775109Y-102711755D01*
X147765473Y-102728444D01*
X147706458Y-102910072D01*
X147705768Y-102916633D01*
X147705768Y-102916635D01*
X147705359Y-102920525D01*
X147686496Y-103100000D01*
X147687186Y-103106565D01*
X147703911Y-103265690D01*
X147706458Y-103289928D01*
X147765473Y-103471556D01*
X147768776Y-103477277D01*
X147774389Y-103486998D01*
X147791128Y-103555993D01*
X147774390Y-103613000D01*
X147765473Y-103628444D01*
X147706458Y-103810072D01*
X147705768Y-103816633D01*
X147705768Y-103816635D01*
X147701512Y-103857128D01*
X147686496Y-104000000D01*
X147687186Y-104006565D01*
X147699228Y-104121134D01*
X147706458Y-104189928D01*
X147765473Y-104371556D01*
X147768776Y-104377278D01*
X147768777Y-104377279D01*
X147787527Y-104409755D01*
X147860960Y-104536944D01*
X147865379Y-104541852D01*
X147867436Y-104544683D01*
X147891295Y-104611551D01*
X147891500Y-104618744D01*
X147891500Y-105371088D01*
X147891208Y-105379658D01*
X147888929Y-105413093D01*
X147887275Y-105437352D01*
X147888580Y-105444829D01*
X147888580Y-105444830D01*
X147898261Y-105500299D01*
X147899223Y-105506821D01*
X147906898Y-105570242D01*
X147909581Y-105577343D01*
X147910222Y-105579952D01*
X147914685Y-105596262D01*
X147915450Y-105598798D01*
X147916757Y-105606284D01*
X147919811Y-105613241D01*
X147942442Y-105664795D01*
X147944933Y-105670899D01*
X147967513Y-105730656D01*
X147971817Y-105736919D01*
X147973054Y-105739285D01*
X147981299Y-105754097D01*
X147982632Y-105756351D01*
X147985685Y-105763305D01*
X148021619Y-105810133D01*
X148024579Y-105813991D01*
X148028459Y-105819332D01*
X148060339Y-105865720D01*
X148060344Y-105865725D01*
X148064643Y-105871981D01*
X148070313Y-105877032D01*
X148070314Y-105877034D01*
X148111170Y-105913435D01*
X148116446Y-105918416D01*
X149164550Y-106966520D01*
X149170404Y-106972785D01*
X149208439Y-107016385D01*
X149214653Y-107020752D01*
X149260719Y-107053128D01*
X149266014Y-107057061D01*
X149316282Y-107096476D01*
X149323198Y-107099599D01*
X149325484Y-107100983D01*
X149340165Y-107109357D01*
X149342525Y-107110622D01*
X149348739Y-107114990D01*
X149355818Y-107117750D01*
X149355820Y-107117751D01*
X149408275Y-107138202D01*
X149414344Y-107140753D01*
X149472573Y-107167045D01*
X149480040Y-107168429D01*
X149482595Y-107169230D01*
X149498848Y-107173859D01*
X149501428Y-107174522D01*
X149508509Y-107177282D01*
X149516040Y-107178273D01*
X149516042Y-107178274D01*
X149545661Y-107182173D01*
X149571861Y-107185622D01*
X149578359Y-107186652D01*
X149641186Y-107198296D01*
X149648766Y-107197859D01*
X149648767Y-107197859D01*
X149703392Y-107194709D01*
X149710646Y-107194500D01*
X156811456Y-107194500D01*
X156879577Y-107214502D01*
X156926070Y-107268158D01*
X156930301Y-107279314D01*
X156930900Y-107282284D01*
X157006905Y-107464873D01*
X157010332Y-107469992D01*
X157010334Y-107469996D01*
X157069855Y-107558907D01*
X157091129Y-107626641D01*
X157069855Y-107699093D01*
X157010334Y-107788004D01*
X157010332Y-107788008D01*
X157006905Y-107793127D01*
X156930900Y-107975716D01*
X156929683Y-107981752D01*
X156929682Y-107981755D01*
X156914977Y-108054687D01*
X156891808Y-108169592D01*
X156891500Y-108175672D01*
X156891500Y-109368328D01*
X156891808Y-109374408D01*
X156896455Y-109397454D01*
X156890313Y-109468182D01*
X156846906Y-109524364D01*
X156780016Y-109548159D01*
X156715738Y-109534625D01*
X156631934Y-109491925D01*
X156628994Y-109490427D01*
X156393423Y-109400000D01*
X156288764Y-109359825D01*
X156288762Y-109359824D01*
X156285674Y-109358639D01*
X155930459Y-109263459D01*
X155709383Y-109228444D01*
X155570489Y-109206445D01*
X155570481Y-109206444D01*
X155567241Y-109205931D01*
X155200000Y-109186685D01*
X154832759Y-109205931D01*
X154829519Y-109206444D01*
X154829511Y-109206445D01*
X154690617Y-109228444D01*
X154469541Y-109263459D01*
X154114326Y-109358639D01*
X154111238Y-109359824D01*
X154111236Y-109359825D01*
X154006577Y-109400000D01*
X153771006Y-109490427D01*
X153768066Y-109491925D01*
X153446284Y-109655881D01*
X153446277Y-109655885D01*
X153443343Y-109657380D01*
X153440577Y-109659176D01*
X153440574Y-109659178D01*
X153258714Y-109777279D01*
X153134925Y-109857668D01*
X152849133Y-110089098D01*
X152589098Y-110349133D01*
X152357668Y-110634925D01*
X152157380Y-110943343D01*
X151990427Y-111271006D01*
X151858639Y-111614326D01*
X151763459Y-111969541D01*
X151705931Y-112332759D01*
X151686685Y-112700000D01*
X151705931Y-113067241D01*
X151706444Y-113070481D01*
X151706445Y-113070489D01*
X151716620Y-113134729D01*
X151763459Y-113430459D01*
X151858639Y-113785674D01*
X151990427Y-114128994D01*
X151991925Y-114131934D01*
X152140590Y-114423704D01*
X152157380Y-114456657D01*
X152159176Y-114459423D01*
X152159178Y-114459426D01*
X152175449Y-114484481D01*
X152357668Y-114765075D01*
X152589098Y-115050867D01*
X152849133Y-115310902D01*
X153134925Y-115542332D01*
X153137700Y-115544134D01*
X153306633Y-115653840D01*
X153443342Y-115742620D01*
X153446276Y-115744115D01*
X153446283Y-115744119D01*
X153513972Y-115778608D01*
X153771006Y-115909573D01*
X154114326Y-116041361D01*
X154469541Y-116136541D01*
X154662558Y-116167112D01*
X154829511Y-116193555D01*
X154829519Y-116193556D01*
X154832759Y-116194069D01*
X155200000Y-116213315D01*
X155567241Y-116194069D01*
X155570481Y-116193556D01*
X155570489Y-116193555D01*
X155737442Y-116167112D01*
X155930459Y-116136541D01*
X156285674Y-116041361D01*
X156628994Y-115909573D01*
X156886028Y-115778608D01*
X156953717Y-115744119D01*
X156953724Y-115744115D01*
X156956658Y-115742620D01*
X157093368Y-115653840D01*
X157262300Y-115544134D01*
X157265075Y-115542332D01*
X157550867Y-115310902D01*
X157810902Y-115050867D01*
X158042332Y-114765075D01*
X158224551Y-114484481D01*
X158240822Y-114459426D01*
X158240824Y-114459423D01*
X158242620Y-114456657D01*
X158259411Y-114423704D01*
X158408075Y-114131934D01*
X158409573Y-114128994D01*
X158541361Y-113785674D01*
X158636541Y-113430459D01*
X158683380Y-113134729D01*
X158693555Y-113070489D01*
X158693556Y-113070481D01*
X158694069Y-113067241D01*
X158713315Y-112700000D01*
X158694069Y-112332759D01*
X158636541Y-111969541D01*
X158541361Y-111614326D01*
X158409573Y-111271006D01*
X158242620Y-110943343D01*
X158042332Y-110634925D01*
X157921568Y-110485794D01*
X157894242Y-110420267D01*
X157906682Y-110350369D01*
X157954936Y-110298292D01*
X158019488Y-110280500D01*
X158996328Y-110280500D01*
X159002408Y-110280192D01*
X159041096Y-110272391D01*
X159111825Y-110278533D01*
X159168006Y-110321940D01*
X159192000Y-110395905D01*
X159192000Y-112650672D01*
X159190500Y-112670056D01*
X159186814Y-112693730D01*
X159188454Y-112706270D01*
X159189416Y-112713626D01*
X159190346Y-112735784D01*
X159175240Y-113062518D01*
X159174166Y-113074107D01*
X159124833Y-113427764D01*
X159122694Y-113439204D01*
X159040941Y-113786796D01*
X159037757Y-113797987D01*
X159015206Y-113865271D01*
X158924283Y-114136549D01*
X158920081Y-114147398D01*
X158883211Y-114230900D01*
X158775843Y-114474063D01*
X158770663Y-114484468D01*
X158596895Y-114796441D01*
X158590779Y-114806318D01*
X158388977Y-115100912D01*
X158381963Y-115110200D01*
X158153840Y-115384919D01*
X158145999Y-115393519D01*
X157893519Y-115645999D01*
X157884919Y-115653840D01*
X157610200Y-115881963D01*
X157600912Y-115888977D01*
X157306318Y-116090779D01*
X157296441Y-116096895D01*
X156984468Y-116270663D01*
X156974063Y-116275843D01*
X156903509Y-116306996D01*
X156647398Y-116420081D01*
X156636553Y-116424281D01*
X156358192Y-116517578D01*
X156297989Y-116537756D01*
X156286799Y-116540940D01*
X156086059Y-116588154D01*
X155939204Y-116622694D01*
X155927764Y-116624833D01*
X155574107Y-116674166D01*
X155562519Y-116675240D01*
X155541389Y-116676217D01*
X155243184Y-116690003D01*
X155217985Y-116688638D01*
X155215142Y-116688195D01*
X155215140Y-116688195D01*
X155206270Y-116686814D01*
X155197368Y-116687978D01*
X155197365Y-116687978D01*
X155174749Y-116690936D01*
X155158411Y-116692000D01*
X147134560Y-116692000D01*
X147066439Y-116671998D01*
X147019946Y-116618342D01*
X147009842Y-116548068D01*
X147018236Y-116517578D01*
X147024732Y-116501972D01*
X147027100Y-116496284D01*
X147041992Y-116422430D01*
X147065267Y-116306996D01*
X147065267Y-116306995D01*
X147066192Y-116302408D01*
X147066500Y-116296328D01*
X147066500Y-115103672D01*
X147066192Y-115097592D01*
X147056771Y-115050867D01*
X147028318Y-114909755D01*
X147028317Y-114909752D01*
X147027100Y-114903716D01*
X146951095Y-114721127D01*
X146947668Y-114716008D01*
X146947666Y-114716004D01*
X146844504Y-114561901D01*
X146844500Y-114561896D01*
X146841073Y-114556777D01*
X146701223Y-114416927D01*
X146696104Y-114413500D01*
X146696099Y-114413496D01*
X146541996Y-114310334D01*
X146541992Y-114310332D01*
X146536873Y-114306905D01*
X146354284Y-114230900D01*
X146348248Y-114229683D01*
X146348245Y-114229682D01*
X146164996Y-114192733D01*
X146164995Y-114192733D01*
X146160408Y-114191808D01*
X146154328Y-114191500D01*
X144961672Y-114191500D01*
X144955592Y-114191808D01*
X144951005Y-114192733D01*
X144951004Y-114192733D01*
X144767755Y-114229682D01*
X144767752Y-114229683D01*
X144761716Y-114230900D01*
X144579127Y-114306905D01*
X144574008Y-114310332D01*
X144574004Y-114310334D01*
X144478093Y-114374541D01*
X144410359Y-114395815D01*
X144337907Y-114374541D01*
X144241996Y-114310334D01*
X144241992Y-114310332D01*
X144236873Y-114306905D01*
X144054284Y-114230900D01*
X144048248Y-114229683D01*
X144048245Y-114229682D01*
X143864996Y-114192733D01*
X143864995Y-114192733D01*
X143860408Y-114191808D01*
X143854328Y-114191500D01*
X142661672Y-114191500D01*
X142655592Y-114191808D01*
X142651005Y-114192733D01*
X142651004Y-114192733D01*
X142467755Y-114229682D01*
X142467752Y-114229683D01*
X142461716Y-114230900D01*
X142279127Y-114306905D01*
X142274008Y-114310332D01*
X142274004Y-114310334D01*
X142162093Y-114385252D01*
X142094359Y-114406526D01*
X142021907Y-114385252D01*
X141909996Y-114310334D01*
X141909992Y-114310332D01*
X141904873Y-114306905D01*
X141722284Y-114230900D01*
X141716248Y-114229683D01*
X141716245Y-114229682D01*
X141532996Y-114192733D01*
X141532995Y-114192733D01*
X141528408Y-114191808D01*
X141522328Y-114191500D01*
X140329672Y-114191500D01*
X140323592Y-114191808D01*
X140319005Y-114192733D01*
X140319004Y-114192733D01*
X140135755Y-114229682D01*
X140135752Y-114229683D01*
X140129716Y-114230900D01*
X139947127Y-114306905D01*
X139942008Y-114310332D01*
X139942004Y-114310334D01*
X139853093Y-114369855D01*
X139785359Y-114391129D01*
X139712907Y-114369855D01*
X139623996Y-114310334D01*
X139623992Y-114310332D01*
X139618873Y-114306905D01*
X139436284Y-114230900D01*
X139430248Y-114229683D01*
X139430245Y-114229682D01*
X139246996Y-114192733D01*
X139246995Y-114192733D01*
X139242408Y-114191808D01*
X139236328Y-114191500D01*
X138043672Y-114191500D01*
X138037592Y-114191808D01*
X138033005Y-114192733D01*
X138033004Y-114192733D01*
X137849755Y-114229682D01*
X137849752Y-114229683D01*
X137843716Y-114230900D01*
X137661127Y-114306905D01*
X137656008Y-114310332D01*
X137656004Y-114310334D01*
X137567093Y-114369855D01*
X137499359Y-114391129D01*
X137426907Y-114369855D01*
X137337996Y-114310334D01*
X137337992Y-114310332D01*
X137332873Y-114306905D01*
X137150284Y-114230900D01*
X137144248Y-114229683D01*
X137144245Y-114229682D01*
X136960996Y-114192733D01*
X136960995Y-114192733D01*
X136956408Y-114191808D01*
X136950328Y-114191500D01*
X135757672Y-114191500D01*
X135751592Y-114191808D01*
X135747005Y-114192733D01*
X135747004Y-114192733D01*
X135563755Y-114229682D01*
X135563752Y-114229683D01*
X135557716Y-114230900D01*
X135375127Y-114306905D01*
X135370008Y-114310332D01*
X135370004Y-114310334D01*
X135281093Y-114369855D01*
X135213359Y-114391129D01*
X135140907Y-114369855D01*
X135051996Y-114310334D01*
X135051992Y-114310332D01*
X135046873Y-114306905D01*
X134864284Y-114230900D01*
X134858248Y-114229683D01*
X134858245Y-114229682D01*
X134674996Y-114192733D01*
X134674995Y-114192733D01*
X134670408Y-114191808D01*
X134664328Y-114191500D01*
X133471672Y-114191500D01*
X133465592Y-114191808D01*
X133461005Y-114192733D01*
X133461004Y-114192733D01*
X133277755Y-114229682D01*
X133277752Y-114229683D01*
X133271716Y-114230900D01*
X133089127Y-114306905D01*
X133084008Y-114310332D01*
X133084004Y-114310334D01*
X132929901Y-114413496D01*
X132929896Y-114413500D01*
X132924777Y-114416927D01*
X132784927Y-114556777D01*
X132781500Y-114561896D01*
X132781496Y-114561901D01*
X132678334Y-114716004D01*
X132678332Y-114716008D01*
X132674905Y-114721127D01*
X132598900Y-114903716D01*
X132597683Y-114909752D01*
X132597682Y-114909755D01*
X132569229Y-115050867D01*
X132559808Y-115097592D01*
X132559500Y-115103672D01*
X132559500Y-116296328D01*
X132559808Y-116302408D01*
X132560733Y-116306995D01*
X132560733Y-116306996D01*
X132584009Y-116422430D01*
X132598900Y-116496284D01*
X132601268Y-116501972D01*
X132607764Y-116517578D01*
X132615477Y-116588154D01*
X132583809Y-116651697D01*
X132522814Y-116688031D01*
X132491440Y-116692000D01*
X124249328Y-116692000D01*
X124229943Y-116690500D01*
X124215142Y-116688195D01*
X124215139Y-116688195D01*
X124206270Y-116686814D01*
X124187105Y-116689320D01*
X124186374Y-116689416D01*
X124164216Y-116690346D01*
X123837482Y-116675240D01*
X123825893Y-116674166D01*
X123472236Y-116624833D01*
X123460796Y-116622694D01*
X123313941Y-116588154D01*
X123113201Y-116540940D01*
X123102011Y-116537756D01*
X123041808Y-116517578D01*
X122763447Y-116424281D01*
X122752602Y-116420081D01*
X122496491Y-116306996D01*
X122425937Y-116275843D01*
X122415532Y-116270663D01*
X122103559Y-116096895D01*
X122093682Y-116090779D01*
X121799088Y-115888977D01*
X121789800Y-115881963D01*
X121515081Y-115653840D01*
X121506481Y-115645999D01*
X121254001Y-115393519D01*
X121246160Y-115384919D01*
X121018037Y-115110200D01*
X121011023Y-115100912D01*
X120809221Y-114806318D01*
X120803105Y-114796441D01*
X120629337Y-114484468D01*
X120624157Y-114474063D01*
X120516789Y-114230900D01*
X120479919Y-114147398D01*
X120475717Y-114136549D01*
X120384795Y-113865271D01*
X120362243Y-113797987D01*
X120359059Y-113786796D01*
X120277306Y-113439204D01*
X120275167Y-113427764D01*
X120225834Y-113074107D01*
X120224760Y-113062518D01*
X120209997Y-112743184D01*
X120211362Y-112717985D01*
X120211805Y-112715142D01*
X120211805Y-112715140D01*
X120213186Y-112706270D01*
X120212366Y-112700000D01*
X120686685Y-112700000D01*
X120705931Y-113067241D01*
X120706444Y-113070481D01*
X120706445Y-113070489D01*
X120716620Y-113134729D01*
X120763459Y-113430459D01*
X120858639Y-113785674D01*
X120990427Y-114128994D01*
X120991925Y-114131934D01*
X121140590Y-114423704D01*
X121157380Y-114456657D01*
X121159176Y-114459423D01*
X121159178Y-114459426D01*
X121175449Y-114484481D01*
X121357668Y-114765075D01*
X121589098Y-115050867D01*
X121849133Y-115310902D01*
X122134925Y-115542332D01*
X122137700Y-115544134D01*
X122306633Y-115653840D01*
X122443342Y-115742620D01*
X122446276Y-115744115D01*
X122446283Y-115744119D01*
X122513972Y-115778608D01*
X122771006Y-115909573D01*
X123114326Y-116041361D01*
X123469541Y-116136541D01*
X123662558Y-116167112D01*
X123829511Y-116193555D01*
X123829519Y-116193556D01*
X123832759Y-116194069D01*
X124200000Y-116213315D01*
X124567241Y-116194069D01*
X124570481Y-116193556D01*
X124570489Y-116193555D01*
X124737442Y-116167112D01*
X124930459Y-116136541D01*
X125285674Y-116041361D01*
X125628994Y-115909573D01*
X125886028Y-115778608D01*
X125953717Y-115744119D01*
X125953724Y-115744115D01*
X125956658Y-115742620D01*
X126093368Y-115653840D01*
X126262300Y-115544134D01*
X126265075Y-115542332D01*
X126550867Y-115310902D01*
X126810902Y-115050867D01*
X127042332Y-114765075D01*
X127224551Y-114484481D01*
X127240822Y-114459426D01*
X127240824Y-114459423D01*
X127242620Y-114456657D01*
X127259411Y-114423704D01*
X127408075Y-114131934D01*
X127409573Y-114128994D01*
X127541361Y-113785674D01*
X127617907Y-113500000D01*
X131286496Y-113500000D01*
X131306458Y-113689928D01*
X131365473Y-113871556D01*
X131460960Y-114036944D01*
X131588747Y-114178866D01*
X131743248Y-114291118D01*
X131749276Y-114293802D01*
X131749278Y-114293803D01*
X131824930Y-114327485D01*
X131917712Y-114368794D01*
X132011113Y-114388647D01*
X132098056Y-114407128D01*
X132098061Y-114407128D01*
X132104513Y-114408500D01*
X132295487Y-114408500D01*
X132301939Y-114407128D01*
X132301944Y-114407128D01*
X132388887Y-114388647D01*
X132482288Y-114368794D01*
X132575070Y-114327485D01*
X132650722Y-114293803D01*
X132650724Y-114293802D01*
X132656752Y-114291118D01*
X132811253Y-114178866D01*
X132939040Y-114036944D01*
X133034527Y-113871556D01*
X133093542Y-113689928D01*
X133113504Y-113500000D01*
X133093542Y-113310072D01*
X133034527Y-113128444D01*
X133026137Y-113113911D01*
X132942341Y-112968774D01*
X132939040Y-112963056D01*
X132811253Y-112821134D01*
X132712157Y-112749136D01*
X132662094Y-112712763D01*
X132662093Y-112712762D01*
X132656752Y-112708882D01*
X132650724Y-112706198D01*
X132650722Y-112706197D01*
X132488319Y-112633891D01*
X132488318Y-112633891D01*
X132482288Y-112631206D01*
X132388887Y-112611353D01*
X132301944Y-112592872D01*
X132301939Y-112592872D01*
X132295487Y-112591500D01*
X132104513Y-112591500D01*
X132098061Y-112592872D01*
X132098056Y-112592872D01*
X132011113Y-112611353D01*
X131917712Y-112631206D01*
X131911682Y-112633891D01*
X131911681Y-112633891D01*
X131749278Y-112706197D01*
X131749276Y-112706198D01*
X131743248Y-112708882D01*
X131737907Y-112712762D01*
X131737906Y-112712763D01*
X131687843Y-112749136D01*
X131588747Y-112821134D01*
X131460960Y-112963056D01*
X131457659Y-112968774D01*
X131373864Y-113113911D01*
X131365473Y-113128444D01*
X131306458Y-113310072D01*
X131286496Y-113500000D01*
X127617907Y-113500000D01*
X127636541Y-113430459D01*
X127683380Y-113134729D01*
X127693555Y-113070489D01*
X127693556Y-113070481D01*
X127694069Y-113067241D01*
X127713315Y-112700000D01*
X127694069Y-112332759D01*
X127636541Y-111969541D01*
X127541361Y-111614326D01*
X127409573Y-111271006D01*
X127242620Y-110943343D01*
X127042332Y-110634925D01*
X126810902Y-110349133D01*
X126550867Y-110089098D01*
X126265075Y-109857668D01*
X126122796Y-109765271D01*
X125959427Y-109659178D01*
X125959424Y-109659176D01*
X125956658Y-109657380D01*
X125953724Y-109655885D01*
X125953717Y-109655881D01*
X125631934Y-109491925D01*
X125628994Y-109490427D01*
X125393423Y-109400000D01*
X125288764Y-109359825D01*
X125288762Y-109359824D01*
X125285674Y-109358639D01*
X124930459Y-109263459D01*
X124709383Y-109228444D01*
X124570489Y-109206445D01*
X124570481Y-109206444D01*
X124567241Y-109205931D01*
X124200000Y-109186685D01*
X123832759Y-109205931D01*
X123829519Y-109206444D01*
X123829511Y-109206445D01*
X123690617Y-109228444D01*
X123469541Y-109263459D01*
X123114326Y-109358639D01*
X123111238Y-109359824D01*
X123111236Y-109359825D01*
X123006577Y-109400000D01*
X122771006Y-109490427D01*
X122768066Y-109491925D01*
X122446284Y-109655881D01*
X122446277Y-109655885D01*
X122443343Y-109657380D01*
X122440577Y-109659176D01*
X122440574Y-109659178D01*
X122258714Y-109777279D01*
X122134925Y-109857668D01*
X121849133Y-110089098D01*
X121589098Y-110349133D01*
X121357668Y-110634925D01*
X121157380Y-110943343D01*
X120990427Y-111271006D01*
X120858639Y-111614326D01*
X120763459Y-111969541D01*
X120705931Y-112332759D01*
X120686685Y-112700000D01*
X120212366Y-112700000D01*
X120211935Y-112696699D01*
X120209064Y-112674749D01*
X120208000Y-112658411D01*
X120208000Y-108000000D01*
X126786496Y-108000000D01*
X126787186Y-108006565D01*
X126805128Y-108177269D01*
X126806458Y-108189928D01*
X126865473Y-108371556D01*
X126868776Y-108377278D01*
X126868777Y-108377279D01*
X126891921Y-108417366D01*
X126960960Y-108536944D01*
X126965378Y-108541851D01*
X126965379Y-108541852D01*
X127084325Y-108673955D01*
X127088747Y-108678866D01*
X127243248Y-108791118D01*
X127249276Y-108793802D01*
X127249278Y-108793803D01*
X127397286Y-108859700D01*
X127417712Y-108868794D01*
X127511113Y-108888647D01*
X127598056Y-108907128D01*
X127598061Y-108907128D01*
X127604513Y-108908500D01*
X127795487Y-108908500D01*
X127801939Y-108907128D01*
X127801944Y-108907128D01*
X127888887Y-108888647D01*
X127982288Y-108868794D01*
X128002714Y-108859700D01*
X128150722Y-108793803D01*
X128150724Y-108793802D01*
X128156752Y-108791118D01*
X128311253Y-108678866D01*
X128315675Y-108673955D01*
X128434621Y-108541852D01*
X128434622Y-108541851D01*
X128439040Y-108536944D01*
X128508079Y-108417366D01*
X128524258Y-108389343D01*
X130336775Y-108389343D01*
X130353381Y-108558699D01*
X130407094Y-108720167D01*
X130410741Y-108726189D01*
X130410742Y-108726191D01*
X130451690Y-108793803D01*
X130495246Y-108865723D01*
X130579427Y-108952895D01*
X130604301Y-108978653D01*
X130637233Y-109041550D01*
X130630933Y-109112266D01*
X130622783Y-109129180D01*
X130589483Y-109186858D01*
X130565473Y-109228444D01*
X130506458Y-109410072D01*
X130505768Y-109416633D01*
X130505768Y-109416635D01*
X130493367Y-109534625D01*
X130486496Y-109600000D01*
X130487186Y-109606565D01*
X130505129Y-109777279D01*
X130506458Y-109789928D01*
X130565473Y-109971556D01*
X130660960Y-110136944D01*
X130665378Y-110141851D01*
X130665379Y-110141852D01*
X130777290Y-110266142D01*
X130788747Y-110278866D01*
X130943248Y-110391118D01*
X130949276Y-110393802D01*
X130949278Y-110393803D01*
X131008718Y-110420267D01*
X131117712Y-110468794D01*
X131211113Y-110488647D01*
X131298056Y-110507128D01*
X131298061Y-110507128D01*
X131304513Y-110508500D01*
X131495487Y-110508500D01*
X131501939Y-110507128D01*
X131501944Y-110507128D01*
X131588888Y-110488647D01*
X131682288Y-110468794D01*
X131791282Y-110420267D01*
X131850722Y-110393803D01*
X131850724Y-110393802D01*
X131856752Y-110391118D01*
X132011253Y-110278866D01*
X132022710Y-110266142D01*
X132134621Y-110141852D01*
X132134622Y-110141851D01*
X132139040Y-110136944D01*
X132234527Y-109971556D01*
X132293542Y-109789928D01*
X132294872Y-109777279D01*
X132312814Y-109606565D01*
X132313504Y-109600000D01*
X132306633Y-109534625D01*
X132294232Y-109416635D01*
X132294232Y-109416633D01*
X132293542Y-109410072D01*
X132280451Y-109369783D01*
X132266668Y-109327362D01*
X132264641Y-109256394D01*
X132301303Y-109195597D01*
X132365015Y-109164271D01*
X132382616Y-109162945D01*
X132384015Y-109163132D01*
X132391026Y-109162494D01*
X132391030Y-109162494D01*
X132546462Y-109148348D01*
X132553483Y-109147709D01*
X132560185Y-109145531D01*
X132560187Y-109145531D01*
X132708623Y-109097301D01*
X132708626Y-109097300D01*
X132715322Y-109095124D01*
X132861490Y-109007990D01*
X132866584Y-109003139D01*
X132866588Y-109003136D01*
X132965965Y-108908500D01*
X132984721Y-108890639D01*
X133078891Y-108748902D01*
X133139319Y-108589825D01*
X133163001Y-108421313D01*
X133163180Y-108408500D01*
X133163244Y-108403961D01*
X133163244Y-108403955D01*
X133163299Y-108400000D01*
X133144331Y-108230892D01*
X133088368Y-108070189D01*
X133082383Y-108060610D01*
X133023346Y-107966133D01*
X133004210Y-107897764D01*
X133025252Y-107829636D01*
X133074990Y-107754773D01*
X133078891Y-107748902D01*
X133135454Y-107600000D01*
X136986496Y-107600000D01*
X136987186Y-107606565D01*
X137001454Y-107742314D01*
X137006458Y-107789928D01*
X137065473Y-107971556D01*
X137160960Y-108136944D01*
X137165378Y-108141851D01*
X137165379Y-108141852D01*
X137208667Y-108189928D01*
X137288747Y-108278866D01*
X137309306Y-108293803D01*
X137431179Y-108382349D01*
X137443248Y-108391118D01*
X137449274Y-108393801D01*
X137449281Y-108393805D01*
X137491722Y-108412700D01*
X137545818Y-108458679D01*
X137566468Y-108526607D01*
X137547116Y-108594915D01*
X137514535Y-108629743D01*
X137388747Y-108721134D01*
X137384326Y-108726044D01*
X137384325Y-108726045D01*
X137323316Y-108793803D01*
X137260960Y-108863056D01*
X137248425Y-108884768D01*
X137180085Y-109003136D01*
X137165473Y-109028444D01*
X137106458Y-109210072D01*
X137105768Y-109216633D01*
X137105768Y-109216635D01*
X137089993Y-109366731D01*
X137086496Y-109400000D01*
X137087186Y-109406565D01*
X137096158Y-109491925D01*
X137106458Y-109589928D01*
X137165473Y-109771556D01*
X137260960Y-109936944D01*
X137388747Y-110078866D01*
X137543248Y-110191118D01*
X137549276Y-110193802D01*
X137549278Y-110193803D01*
X137711681Y-110266109D01*
X137717712Y-110268794D01*
X137783365Y-110282749D01*
X137898056Y-110307128D01*
X137898061Y-110307128D01*
X137904513Y-110308500D01*
X138095487Y-110308500D01*
X138101939Y-110307128D01*
X138101944Y-110307128D01*
X138216635Y-110282749D01*
X138282288Y-110268794D01*
X138288319Y-110266109D01*
X138450722Y-110193803D01*
X138450724Y-110193802D01*
X138456752Y-110191118D01*
X138611253Y-110078866D01*
X138739040Y-109936944D01*
X138834527Y-109771556D01*
X138893542Y-109589928D01*
X138903843Y-109491925D01*
X138912814Y-109406565D01*
X138913504Y-109400000D01*
X138910007Y-109366731D01*
X138894232Y-109216635D01*
X138894232Y-109216633D01*
X138893542Y-109210072D01*
X138834527Y-109028444D01*
X138819916Y-109003136D01*
X138751575Y-108884768D01*
X138739040Y-108863056D01*
X138676685Y-108793803D01*
X138615675Y-108726045D01*
X138615674Y-108726044D01*
X138611253Y-108721134D01*
X138456752Y-108608882D01*
X138450726Y-108606199D01*
X138450719Y-108606195D01*
X138408278Y-108587300D01*
X138354182Y-108541321D01*
X138333532Y-108473393D01*
X138352884Y-108405085D01*
X138385465Y-108370257D01*
X138490694Y-108293803D01*
X138511253Y-108278866D01*
X138591333Y-108189928D01*
X138634621Y-108141852D01*
X138634622Y-108141851D01*
X138639040Y-108136944D01*
X138734527Y-107971556D01*
X138793542Y-107789928D01*
X138798547Y-107742314D01*
X138812814Y-107606565D01*
X138813504Y-107600000D01*
X138809163Y-107558699D01*
X138802994Y-107500000D01*
X141186496Y-107500000D01*
X141206458Y-107689928D01*
X141265473Y-107871556D01*
X141268776Y-107877278D01*
X141268777Y-107877279D01*
X141280604Y-107897764D01*
X141360960Y-108036944D01*
X141365378Y-108041851D01*
X141365379Y-108041852D01*
X141480397Y-108169592D01*
X141488747Y-108178866D01*
X141569988Y-108237891D01*
X141626385Y-108278866D01*
X141643248Y-108291118D01*
X141649276Y-108293802D01*
X141649278Y-108293803D01*
X141809799Y-108365271D01*
X141817712Y-108368794D01*
X141904479Y-108387237D01*
X141998056Y-108407128D01*
X141998061Y-108407128D01*
X142004513Y-108408500D01*
X142195487Y-108408500D01*
X142201939Y-108407128D01*
X142201944Y-108407128D01*
X142295521Y-108387237D01*
X142382288Y-108368794D01*
X142390201Y-108365271D01*
X142550722Y-108293803D01*
X142550724Y-108293802D01*
X142556752Y-108291118D01*
X142573616Y-108278866D01*
X142630012Y-108237891D01*
X142711253Y-108178866D01*
X142719603Y-108169592D01*
X142834621Y-108041852D01*
X142834622Y-108041851D01*
X142839040Y-108036944D01*
X142919396Y-107897764D01*
X142931223Y-107877279D01*
X142931224Y-107877278D01*
X142934527Y-107871556D01*
X142993542Y-107689928D01*
X143013504Y-107500000D01*
X143010368Y-107470166D01*
X142994232Y-107316635D01*
X142994232Y-107316633D01*
X142993542Y-107310072D01*
X142934527Y-107128444D01*
X142925611Y-107113001D01*
X142908872Y-107044007D01*
X142925611Y-106986998D01*
X142931224Y-106977277D01*
X142934527Y-106971556D01*
X142993542Y-106789928D01*
X142998547Y-106742314D01*
X143012814Y-106606565D01*
X143013504Y-106600000D01*
X143009163Y-106558699D01*
X142994232Y-106416635D01*
X142994232Y-106416633D01*
X142993542Y-106410072D01*
X142934527Y-106228444D01*
X142925611Y-106213001D01*
X142908872Y-106144007D01*
X142925611Y-106086998D01*
X142931224Y-106077277D01*
X142934527Y-106071556D01*
X142993542Y-105889928D01*
X142996087Y-105865720D01*
X143012814Y-105706565D01*
X143013504Y-105700000D01*
X143006941Y-105637554D01*
X142994232Y-105516635D01*
X142994232Y-105516633D01*
X142993542Y-105510072D01*
X142934527Y-105328444D01*
X142925611Y-105313001D01*
X142908872Y-105244007D01*
X142925611Y-105186998D01*
X142927345Y-105183996D01*
X142934527Y-105171556D01*
X142993542Y-104989928D01*
X143013504Y-104800000D01*
X143001181Y-104682749D01*
X142994232Y-104616635D01*
X142994232Y-104616633D01*
X142993542Y-104610072D01*
X142934527Y-104428444D01*
X142925611Y-104413001D01*
X142908872Y-104344007D01*
X142925611Y-104286998D01*
X142931224Y-104277277D01*
X142934527Y-104271556D01*
X142993542Y-104089928D01*
X143007356Y-103958500D01*
X143012814Y-103906565D01*
X143013504Y-103900000D01*
X143008879Y-103855993D01*
X142994232Y-103716635D01*
X142994232Y-103716633D01*
X142993542Y-103710072D01*
X142934527Y-103528444D01*
X142925611Y-103513001D01*
X142908872Y-103444007D01*
X142925611Y-103386998D01*
X142931224Y-103377277D01*
X142934527Y-103371556D01*
X142993542Y-103189928D01*
X143013504Y-103000000D01*
X143004052Y-102910072D01*
X142994232Y-102816635D01*
X142994232Y-102816633D01*
X142993542Y-102810072D01*
X142934527Y-102628444D01*
X142913837Y-102592607D01*
X142894145Y-102558500D01*
X142839040Y-102463056D01*
X142796538Y-102415852D01*
X142715675Y-102326045D01*
X142715674Y-102326044D01*
X142711253Y-102321134D01*
X142556752Y-102208882D01*
X142550724Y-102206198D01*
X142550722Y-102206197D01*
X142388319Y-102133891D01*
X142388318Y-102133891D01*
X142382288Y-102131206D01*
X142288887Y-102111353D01*
X142201944Y-102092872D01*
X142201939Y-102092872D01*
X142195487Y-102091500D01*
X142004513Y-102091500D01*
X141998061Y-102092872D01*
X141998056Y-102092872D01*
X141911112Y-102111353D01*
X141817712Y-102131206D01*
X141811682Y-102133891D01*
X141811681Y-102133891D01*
X141649278Y-102206197D01*
X141649276Y-102206198D01*
X141643248Y-102208882D01*
X141488747Y-102321134D01*
X141484326Y-102326044D01*
X141484325Y-102326045D01*
X141403463Y-102415852D01*
X141360960Y-102463056D01*
X141305855Y-102558500D01*
X141286164Y-102592607D01*
X141265473Y-102628444D01*
X141206458Y-102810072D01*
X141205768Y-102816633D01*
X141205768Y-102816635D01*
X141195948Y-102910072D01*
X141186496Y-103000000D01*
X141206458Y-103189928D01*
X141265473Y-103371556D01*
X141268776Y-103377277D01*
X141274389Y-103386998D01*
X141291128Y-103455993D01*
X141274390Y-103513000D01*
X141265473Y-103528444D01*
X141206458Y-103710072D01*
X141205768Y-103716633D01*
X141205768Y-103716635D01*
X141191121Y-103855993D01*
X141186496Y-103900000D01*
X141187186Y-103906565D01*
X141192645Y-103958500D01*
X141206458Y-104089928D01*
X141265473Y-104271556D01*
X141268776Y-104277277D01*
X141274389Y-104286998D01*
X141291128Y-104355993D01*
X141274390Y-104413000D01*
X141265473Y-104428444D01*
X141206458Y-104610072D01*
X141205768Y-104616633D01*
X141205768Y-104616635D01*
X141198819Y-104682749D01*
X141186496Y-104800000D01*
X141206458Y-104989928D01*
X141265473Y-105171556D01*
X141272656Y-105183996D01*
X141274389Y-105186998D01*
X141291128Y-105255993D01*
X141274390Y-105313000D01*
X141265473Y-105328444D01*
X141206458Y-105510072D01*
X141205768Y-105516633D01*
X141205768Y-105516635D01*
X141193059Y-105637554D01*
X141186496Y-105700000D01*
X141187186Y-105706565D01*
X141203914Y-105865720D01*
X141206458Y-105889928D01*
X141265473Y-106071556D01*
X141268776Y-106077277D01*
X141274389Y-106086998D01*
X141291128Y-106155993D01*
X141274390Y-106213000D01*
X141265473Y-106228444D01*
X141206458Y-106410072D01*
X141205768Y-106416633D01*
X141205768Y-106416635D01*
X141190837Y-106558699D01*
X141186496Y-106600000D01*
X141187186Y-106606565D01*
X141201454Y-106742314D01*
X141206458Y-106789928D01*
X141265473Y-106971556D01*
X141268776Y-106977277D01*
X141274389Y-106986998D01*
X141291128Y-107055993D01*
X141274390Y-107113000D01*
X141265473Y-107128444D01*
X141206458Y-107310072D01*
X141205768Y-107316633D01*
X141205768Y-107316635D01*
X141189632Y-107470166D01*
X141186496Y-107500000D01*
X138802994Y-107500000D01*
X138794232Y-107416635D01*
X138794232Y-107416633D01*
X138793542Y-107410072D01*
X138734527Y-107228444D01*
X138639040Y-107063056D01*
X138632681Y-107055993D01*
X138515675Y-106926045D01*
X138515674Y-106926044D01*
X138511253Y-106921134D01*
X138356752Y-106808882D01*
X138350724Y-106806198D01*
X138350722Y-106806197D01*
X138188319Y-106733891D01*
X138188318Y-106733891D01*
X138182288Y-106731206D01*
X138079187Y-106709291D01*
X138001944Y-106692872D01*
X138001939Y-106692872D01*
X137995487Y-106691500D01*
X137804513Y-106691500D01*
X137798061Y-106692872D01*
X137798056Y-106692872D01*
X137720813Y-106709291D01*
X137617712Y-106731206D01*
X137611682Y-106733891D01*
X137611681Y-106733891D01*
X137449278Y-106806197D01*
X137449276Y-106806198D01*
X137443248Y-106808882D01*
X137288747Y-106921134D01*
X137284326Y-106926044D01*
X137284325Y-106926045D01*
X137167320Y-107055993D01*
X137160960Y-107063056D01*
X137065473Y-107228444D01*
X137006458Y-107410072D01*
X137005768Y-107416633D01*
X137005768Y-107416635D01*
X136990837Y-107558699D01*
X136986496Y-107600000D01*
X133135454Y-107600000D01*
X133139319Y-107589825D01*
X133163001Y-107421313D01*
X133163299Y-107400000D01*
X133144331Y-107230892D01*
X133138624Y-107214502D01*
X133110843Y-107134729D01*
X133088368Y-107070189D01*
X133082383Y-107060610D01*
X133023346Y-106966133D01*
X133004210Y-106897764D01*
X133025252Y-106829636D01*
X133058646Y-106779372D01*
X133078891Y-106748902D01*
X133139319Y-106589825D01*
X133163001Y-106421313D01*
X133163299Y-106400000D01*
X133144331Y-106230892D01*
X133088368Y-106070189D01*
X133082383Y-106060610D01*
X133038413Y-105990245D01*
X132998192Y-105925879D01*
X132878286Y-105805132D01*
X132864414Y-105796328D01*
X132787682Y-105747633D01*
X132734608Y-105713951D01*
X132574300Y-105656868D01*
X132405329Y-105636720D01*
X132398326Y-105637456D01*
X132398325Y-105637456D01*
X132243101Y-105653770D01*
X132243097Y-105653771D01*
X132236093Y-105654507D01*
X132229422Y-105656778D01*
X132081673Y-105707075D01*
X132081670Y-105707076D01*
X132075003Y-105709346D01*
X132069005Y-105713036D01*
X132069003Y-105713037D01*
X131936065Y-105794821D01*
X131936063Y-105794823D01*
X131930066Y-105798512D01*
X131925033Y-105803441D01*
X131837785Y-105888881D01*
X131775120Y-105922252D01*
X131704361Y-105916446D01*
X131660221Y-105887641D01*
X131583253Y-105810133D01*
X131583248Y-105810129D01*
X131578286Y-105805132D01*
X131564414Y-105796328D01*
X131487682Y-105747633D01*
X131434608Y-105713951D01*
X131274300Y-105656868D01*
X131105329Y-105636720D01*
X131098326Y-105637456D01*
X131098325Y-105637456D01*
X130943101Y-105653770D01*
X130943097Y-105653771D01*
X130936093Y-105654507D01*
X130929422Y-105656778D01*
X130781673Y-105707075D01*
X130781670Y-105707076D01*
X130775003Y-105709346D01*
X130769005Y-105713036D01*
X130769003Y-105713037D01*
X130636065Y-105794821D01*
X130636063Y-105794823D01*
X130630066Y-105798512D01*
X130508486Y-105917573D01*
X130504675Y-105923487D01*
X130504673Y-105923489D01*
X130454094Y-106001972D01*
X130416304Y-106060610D01*
X130358103Y-106220516D01*
X130336775Y-106389343D01*
X130353381Y-106558699D01*
X130407094Y-106720167D01*
X130477064Y-106835700D01*
X130495242Y-106904328D01*
X130475198Y-106969225D01*
X130416304Y-107060610D01*
X130358103Y-107220516D01*
X130336775Y-107389343D01*
X130353381Y-107558699D01*
X130407094Y-107720167D01*
X130477064Y-107835700D01*
X130495242Y-107904328D01*
X130475198Y-107969225D01*
X130416304Y-108060610D01*
X130358103Y-108220516D01*
X130336775Y-108389343D01*
X128524258Y-108389343D01*
X128531223Y-108377279D01*
X128531224Y-108377278D01*
X128534527Y-108371556D01*
X128593542Y-108189928D01*
X128594873Y-108177269D01*
X128612814Y-108006565D01*
X128613504Y-108000000D01*
X128610270Y-107969226D01*
X128594232Y-107816635D01*
X128594232Y-107816633D01*
X128593542Y-107810072D01*
X128534527Y-107628444D01*
X128516035Y-107596414D01*
X128464160Y-107506565D01*
X128439040Y-107463056D01*
X128401455Y-107421313D01*
X128315675Y-107326045D01*
X128315674Y-107326044D01*
X128311253Y-107321134D01*
X128172765Y-107220516D01*
X128162094Y-107212763D01*
X128162093Y-107212762D01*
X128156752Y-107208882D01*
X128150724Y-107206198D01*
X128150722Y-107206197D01*
X127988319Y-107133891D01*
X127988318Y-107133891D01*
X127982288Y-107131206D01*
X127879497Y-107109357D01*
X127801944Y-107092872D01*
X127801939Y-107092872D01*
X127795487Y-107091500D01*
X127604513Y-107091500D01*
X127598061Y-107092872D01*
X127598056Y-107092872D01*
X127520503Y-107109357D01*
X127417712Y-107131206D01*
X127411682Y-107133891D01*
X127411681Y-107133891D01*
X127249278Y-107206197D01*
X127249276Y-107206198D01*
X127243248Y-107208882D01*
X127237907Y-107212762D01*
X127237906Y-107212763D01*
X127227235Y-107220516D01*
X127088747Y-107321134D01*
X127084326Y-107326044D01*
X127084325Y-107326045D01*
X126998546Y-107421313D01*
X126960960Y-107463056D01*
X126935840Y-107506565D01*
X126883966Y-107596414D01*
X126865473Y-107628444D01*
X126806458Y-107810072D01*
X126805768Y-107816633D01*
X126805768Y-107816635D01*
X126789730Y-107969226D01*
X126786496Y-108000000D01*
X120208000Y-108000000D01*
X120208000Y-106823905D01*
X120228002Y-106755784D01*
X120281658Y-106709291D01*
X120358904Y-106700391D01*
X120397592Y-106708192D01*
X120403672Y-106708500D01*
X121596328Y-106708500D01*
X121602408Y-106708192D01*
X121606996Y-106707267D01*
X121790245Y-106670318D01*
X121790248Y-106670317D01*
X121796284Y-106669100D01*
X121962285Y-106600000D01*
X123086496Y-106600000D01*
X123087186Y-106606565D01*
X123101454Y-106742314D01*
X123106458Y-106789928D01*
X123165473Y-106971556D01*
X123260960Y-107136944D01*
X123265378Y-107141851D01*
X123265379Y-107141852D01*
X123325733Y-107208882D01*
X123388747Y-107278866D01*
X123441579Y-107317251D01*
X123531179Y-107382349D01*
X123543248Y-107391118D01*
X123549276Y-107393802D01*
X123549278Y-107393803D01*
X123696123Y-107459182D01*
X123717712Y-107468794D01*
X123811113Y-107488647D01*
X123898056Y-107507128D01*
X123898061Y-107507128D01*
X123904513Y-107508500D01*
X124095487Y-107508500D01*
X124101939Y-107507128D01*
X124101944Y-107507128D01*
X124188887Y-107488647D01*
X124282288Y-107468794D01*
X124303877Y-107459182D01*
X124450722Y-107393803D01*
X124450724Y-107393802D01*
X124456752Y-107391118D01*
X124468822Y-107382349D01*
X124558421Y-107317251D01*
X124611253Y-107278866D01*
X124674267Y-107208882D01*
X124734621Y-107141852D01*
X124734622Y-107141851D01*
X124739040Y-107136944D01*
X124834527Y-106971556D01*
X124893542Y-106789928D01*
X124898547Y-106742314D01*
X124912814Y-106606565D01*
X124913504Y-106600000D01*
X124909163Y-106558699D01*
X124894232Y-106416635D01*
X124894232Y-106416633D01*
X124893542Y-106410072D01*
X124834527Y-106228444D01*
X124825611Y-106213001D01*
X124808872Y-106144007D01*
X124825611Y-106086998D01*
X124831224Y-106077277D01*
X124834527Y-106071556D01*
X124893542Y-105889928D01*
X124896087Y-105865720D01*
X124912814Y-105706565D01*
X124913504Y-105700000D01*
X124906941Y-105637554D01*
X124894232Y-105516635D01*
X124894232Y-105516633D01*
X124893542Y-105510072D01*
X124834527Y-105328444D01*
X124825611Y-105313001D01*
X124808872Y-105244007D01*
X124825611Y-105186998D01*
X124827345Y-105183996D01*
X124834527Y-105171556D01*
X124893542Y-104989928D01*
X124897598Y-104951338D01*
X124924612Y-104885681D01*
X124982833Y-104845052D01*
X125053778Y-104842349D01*
X125074155Y-104849401D01*
X125117712Y-104868794D01*
X125197159Y-104885681D01*
X125298056Y-104907128D01*
X125298061Y-104907128D01*
X125304513Y-104908500D01*
X125495487Y-104908500D01*
X125501939Y-104907128D01*
X125501944Y-104907128D01*
X125602841Y-104885681D01*
X125682288Y-104868794D01*
X125848752Y-104794680D01*
X125919118Y-104785246D01*
X125951247Y-104794680D01*
X126117712Y-104868794D01*
X126197159Y-104885681D01*
X126298056Y-104907128D01*
X126298061Y-104907128D01*
X126304513Y-104908500D01*
X126495487Y-104908500D01*
X126501939Y-104907128D01*
X126501944Y-104907128D01*
X126602841Y-104885681D01*
X126682288Y-104868794D01*
X126848752Y-104794680D01*
X126919118Y-104785246D01*
X126951247Y-104794680D01*
X127117712Y-104868794D01*
X127197159Y-104885681D01*
X127298056Y-104907128D01*
X127298061Y-104907128D01*
X127304513Y-104908500D01*
X127495487Y-104908500D01*
X127501939Y-104907128D01*
X127501944Y-104907128D01*
X127602841Y-104885681D01*
X127682288Y-104868794D01*
X127848752Y-104794680D01*
X127919118Y-104785246D01*
X127951247Y-104794680D01*
X128117712Y-104868794D01*
X128197159Y-104885681D01*
X128298056Y-104907128D01*
X128298061Y-104907128D01*
X128304513Y-104908500D01*
X128495487Y-104908500D01*
X128501939Y-104907128D01*
X128501944Y-104907128D01*
X128602841Y-104885681D01*
X128682288Y-104868794D01*
X128688319Y-104866109D01*
X128850722Y-104793803D01*
X128850724Y-104793802D01*
X128856752Y-104791118D01*
X128900001Y-104759696D01*
X128912157Y-104750864D01*
X129011253Y-104678866D01*
X129080268Y-104602217D01*
X129134621Y-104541852D01*
X129134622Y-104541851D01*
X129139040Y-104536944D01*
X129234527Y-104371556D01*
X129293542Y-104189928D01*
X129300773Y-104121134D01*
X129312814Y-104006565D01*
X129313504Y-104000000D01*
X129298488Y-103857128D01*
X129294232Y-103816635D01*
X129294232Y-103816633D01*
X129293542Y-103810072D01*
X129234527Y-103628444D01*
X129228668Y-103618295D01*
X129185777Y-103544007D01*
X129139040Y-103463056D01*
X129132681Y-103455993D01*
X129015675Y-103326045D01*
X129015674Y-103326044D01*
X129011253Y-103321134D01*
X128902131Y-103241852D01*
X128862094Y-103212763D01*
X128862093Y-103212762D01*
X128856752Y-103208882D01*
X128850724Y-103206198D01*
X128850722Y-103206197D01*
X128688319Y-103133891D01*
X128688318Y-103133891D01*
X128682288Y-103131206D01*
X128566362Y-103106565D01*
X128501944Y-103092872D01*
X128501939Y-103092872D01*
X128495487Y-103091500D01*
X128304513Y-103091500D01*
X128298061Y-103092872D01*
X128298056Y-103092872D01*
X128233638Y-103106565D01*
X128117712Y-103131206D01*
X127951248Y-103205320D01*
X127880882Y-103214754D01*
X127848753Y-103205320D01*
X127682288Y-103131206D01*
X127566362Y-103106565D01*
X127501944Y-103092872D01*
X127501939Y-103092872D01*
X127495487Y-103091500D01*
X127304513Y-103091500D01*
X127298061Y-103092872D01*
X127298056Y-103092872D01*
X127233638Y-103106565D01*
X127117712Y-103131206D01*
X126951248Y-103205320D01*
X126880882Y-103214754D01*
X126848753Y-103205320D01*
X126682288Y-103131206D01*
X126566362Y-103106565D01*
X126501944Y-103092872D01*
X126501939Y-103092872D01*
X126495487Y-103091500D01*
X126304513Y-103091500D01*
X126298061Y-103092872D01*
X126298056Y-103092872D01*
X126233638Y-103106565D01*
X126117712Y-103131206D01*
X125951248Y-103205320D01*
X125880882Y-103214754D01*
X125848753Y-103205320D01*
X125682288Y-103131206D01*
X125566362Y-103106565D01*
X125501944Y-103092872D01*
X125501939Y-103092872D01*
X125495487Y-103091500D01*
X125401471Y-103091500D01*
X125333350Y-103071498D01*
X125286857Y-103017842D01*
X125284292Y-103000000D01*
X134736771Y-103000000D01*
X134737461Y-103006565D01*
X134744894Y-103077279D01*
X134755635Y-103179475D01*
X134757675Y-103185753D01*
X134757675Y-103185754D01*
X134772450Y-103231226D01*
X134811401Y-103351107D01*
X134814704Y-103356829D01*
X134814705Y-103356830D01*
X134823207Y-103371556D01*
X134901633Y-103507393D01*
X134906051Y-103512300D01*
X134906052Y-103512301D01*
X135010628Y-103628444D01*
X135022387Y-103641504D01*
X135027729Y-103645385D01*
X135027731Y-103645387D01*
X135148689Y-103733268D01*
X135168385Y-103747578D01*
X135174413Y-103750262D01*
X135174415Y-103750263D01*
X135323489Y-103816635D01*
X135333248Y-103820980D01*
X135421508Y-103839740D01*
X135503311Y-103857128D01*
X135503315Y-103857128D01*
X135509768Y-103858500D01*
X135690232Y-103858500D01*
X135696685Y-103857128D01*
X135696689Y-103857128D01*
X135778492Y-103839740D01*
X135866752Y-103820980D01*
X135876511Y-103816635D01*
X136025585Y-103750263D01*
X136025587Y-103750262D01*
X136031615Y-103747578D01*
X136051311Y-103733268D01*
X136118918Y-103684149D01*
X136185786Y-103660290D01*
X136254938Y-103676371D01*
X136286615Y-103701775D01*
X136322387Y-103741504D01*
X136327729Y-103745385D01*
X136327731Y-103745387D01*
X136431776Y-103820980D01*
X136468385Y-103847578D01*
X136474413Y-103850262D01*
X136474415Y-103850263D01*
X136627217Y-103918295D01*
X136633248Y-103920980D01*
X136697933Y-103934729D01*
X136803311Y-103957128D01*
X136803315Y-103957128D01*
X136809768Y-103958500D01*
X136990232Y-103958500D01*
X136996685Y-103957128D01*
X136996689Y-103957128D01*
X137102067Y-103934729D01*
X137166752Y-103920980D01*
X137172783Y-103918295D01*
X137325585Y-103850263D01*
X137325587Y-103850262D01*
X137331615Y-103847578D01*
X137368224Y-103820980D01*
X137472269Y-103745387D01*
X137472271Y-103745385D01*
X137477613Y-103741504D01*
X137505915Y-103710072D01*
X137566977Y-103642255D01*
X137627423Y-103605015D01*
X137698406Y-103606367D01*
X137711863Y-103611459D01*
X137727213Y-103618294D01*
X137727221Y-103618297D01*
X137733248Y-103620980D01*
X137821508Y-103639740D01*
X137903311Y-103657128D01*
X137903315Y-103657128D01*
X137909768Y-103658500D01*
X138090232Y-103658500D01*
X138096685Y-103657128D01*
X138096689Y-103657128D01*
X138178492Y-103639740D01*
X138266752Y-103620980D01*
X138286246Y-103612301D01*
X138431615Y-103547578D01*
X138432352Y-103549232D01*
X138492751Y-103534575D01*
X138559845Y-103557792D01*
X138595883Y-103597434D01*
X138601633Y-103607393D01*
X138606051Y-103612300D01*
X138606052Y-103612301D01*
X138699995Y-103716635D01*
X138722387Y-103741504D01*
X138727729Y-103745385D01*
X138727731Y-103745387D01*
X138831776Y-103820980D01*
X138868385Y-103847578D01*
X138874413Y-103850262D01*
X138874415Y-103850263D01*
X139027217Y-103918295D01*
X139033248Y-103920980D01*
X139097933Y-103934729D01*
X139203311Y-103957128D01*
X139203315Y-103957128D01*
X139209768Y-103958500D01*
X139390232Y-103958500D01*
X139396685Y-103957128D01*
X139396689Y-103957128D01*
X139502067Y-103934729D01*
X139566752Y-103920980D01*
X139572783Y-103918295D01*
X139725585Y-103850263D01*
X139725587Y-103850262D01*
X139731615Y-103847578D01*
X139768224Y-103820980D01*
X139872269Y-103745387D01*
X139872271Y-103745385D01*
X139877613Y-103741504D01*
X139900005Y-103716635D01*
X139993948Y-103612301D01*
X139993949Y-103612300D01*
X139998367Y-103607393D01*
X140056102Y-103507393D01*
X140085295Y-103456830D01*
X140085296Y-103456829D01*
X140088599Y-103451107D01*
X140114446Y-103371556D01*
X140142325Y-103285754D01*
X140142325Y-103285753D01*
X140144365Y-103279475D01*
X140163229Y-103100000D01*
X140155708Y-103028444D01*
X140145055Y-102927089D01*
X140145055Y-102927088D01*
X140144365Y-102920525D01*
X140088599Y-102748893D01*
X140080422Y-102734729D01*
X140066651Y-102710878D01*
X140049913Y-102641883D01*
X140073133Y-102574791D01*
X140128940Y-102530904D01*
X140149577Y-102524631D01*
X140160289Y-102522354D01*
X140160291Y-102522353D01*
X140166752Y-102520980D01*
X140205346Y-102503797D01*
X140325585Y-102450263D01*
X140325587Y-102450262D01*
X140331615Y-102447578D01*
X140336957Y-102443697D01*
X140472269Y-102345387D01*
X140472271Y-102345385D01*
X140477613Y-102341504D01*
X140495954Y-102321134D01*
X140593948Y-102212301D01*
X140593949Y-102212300D01*
X140598367Y-102207393D01*
X140658975Y-102102418D01*
X140685295Y-102056830D01*
X140685296Y-102056829D01*
X140688599Y-102051107D01*
X140744365Y-101879475D01*
X140763229Y-101700000D01*
X140744365Y-101520525D01*
X140688599Y-101348893D01*
X140598367Y-101192607D01*
X140503908Y-101087699D01*
X140482035Y-101063407D01*
X140482034Y-101063406D01*
X140477613Y-101058496D01*
X140447950Y-101036944D01*
X140336957Y-100956303D01*
X140336956Y-100956302D01*
X140331615Y-100952422D01*
X140325587Y-100949738D01*
X140325585Y-100949737D01*
X140172783Y-100881705D01*
X140172781Y-100881705D01*
X140166752Y-100879020D01*
X140056526Y-100855591D01*
X139996689Y-100842872D01*
X139996685Y-100842872D01*
X139990232Y-100841500D01*
X139809768Y-100841500D01*
X139803315Y-100842872D01*
X139803311Y-100842872D01*
X139743474Y-100855591D01*
X139633248Y-100879020D01*
X139627219Y-100881704D01*
X139627217Y-100881705D01*
X139474416Y-100949737D01*
X139474414Y-100949738D01*
X139468386Y-100952422D01*
X139463045Y-100956302D01*
X139463044Y-100956303D01*
X139327731Y-101054613D01*
X139327729Y-101054615D01*
X139322387Y-101058496D01*
X139317966Y-101063406D01*
X139317965Y-101063407D01*
X139296093Y-101087699D01*
X139201633Y-101192607D01*
X139111401Y-101348893D01*
X139055635Y-101520525D01*
X139036771Y-101700000D01*
X139055635Y-101879475D01*
X139111401Y-102051107D01*
X139114704Y-102056829D01*
X139114705Y-102056830D01*
X139133349Y-102089122D01*
X139150087Y-102158117D01*
X139126867Y-102225209D01*
X139071060Y-102269096D01*
X139050423Y-102275369D01*
X139039711Y-102277646D01*
X139039709Y-102277647D01*
X139033248Y-102279020D01*
X139027219Y-102281704D01*
X139027217Y-102281705D01*
X138938659Y-102321134D01*
X138868386Y-102352422D01*
X138867649Y-102350768D01*
X138807250Y-102365425D01*
X138740156Y-102342208D01*
X138704118Y-102302567D01*
X138701671Y-102298328D01*
X138701666Y-102298322D01*
X138698367Y-102292607D01*
X138577613Y-102158496D01*
X138556109Y-102142872D01*
X138436957Y-102056303D01*
X138436956Y-102056302D01*
X138431615Y-102052422D01*
X138425587Y-102049738D01*
X138425585Y-102049737D01*
X138272783Y-101981705D01*
X138272781Y-101981705D01*
X138266752Y-101979020D01*
X138162355Y-101956830D01*
X138096689Y-101942872D01*
X138096685Y-101942872D01*
X138090232Y-101941500D01*
X137909768Y-101941500D01*
X137903315Y-101942872D01*
X137903311Y-101942872D01*
X137837645Y-101956830D01*
X137733248Y-101979020D01*
X137727219Y-101981704D01*
X137727217Y-101981705D01*
X137574416Y-102049737D01*
X137574414Y-102049738D01*
X137568386Y-102052422D01*
X137563045Y-102056302D01*
X137563044Y-102056303D01*
X137427731Y-102154613D01*
X137427729Y-102154615D01*
X137422387Y-102158496D01*
X137417966Y-102163406D01*
X137417965Y-102163407D01*
X137333023Y-102257745D01*
X137272577Y-102294985D01*
X137201594Y-102293633D01*
X137188137Y-102288541D01*
X137172787Y-102281706D01*
X137172779Y-102281703D01*
X137166752Y-102279020D01*
X137059876Y-102256303D01*
X136996689Y-102242872D01*
X136996685Y-102242872D01*
X136990232Y-102241500D01*
X136809768Y-102241500D01*
X136803315Y-102242872D01*
X136803311Y-102242872D01*
X136740124Y-102256303D01*
X136633248Y-102279020D01*
X136627219Y-102281704D01*
X136627217Y-102281705D01*
X136474416Y-102349737D01*
X136474414Y-102349738D01*
X136468386Y-102352422D01*
X136443844Y-102370253D01*
X136381081Y-102415852D01*
X136314213Y-102439710D01*
X136245062Y-102423629D01*
X136213385Y-102398225D01*
X136182035Y-102363407D01*
X136182034Y-102363406D01*
X136177613Y-102358496D01*
X136166977Y-102350768D01*
X136036957Y-102256303D01*
X136036956Y-102256302D01*
X136031615Y-102252422D01*
X136025587Y-102249738D01*
X136025585Y-102249737D01*
X135872783Y-102181705D01*
X135872781Y-102181705D01*
X135866752Y-102179020D01*
X135751925Y-102154613D01*
X135696689Y-102142872D01*
X135696685Y-102142872D01*
X135690232Y-102141500D01*
X135509768Y-102141500D01*
X135503315Y-102142872D01*
X135503311Y-102142872D01*
X135448075Y-102154613D01*
X135333248Y-102179020D01*
X135327219Y-102181704D01*
X135327217Y-102181705D01*
X135174416Y-102249737D01*
X135174414Y-102249738D01*
X135168386Y-102252422D01*
X135163045Y-102256302D01*
X135163044Y-102256303D01*
X135027731Y-102354613D01*
X135027729Y-102354615D01*
X135022387Y-102358496D01*
X135017966Y-102363406D01*
X135017965Y-102363407D01*
X134914412Y-102478415D01*
X134901633Y-102492607D01*
X134886802Y-102518295D01*
X134819579Y-102634729D01*
X134811401Y-102648893D01*
X134809359Y-102655178D01*
X134783512Y-102734729D01*
X134755635Y-102820525D01*
X134754945Y-102827088D01*
X134754945Y-102827089D01*
X134745124Y-102920525D01*
X134736771Y-103000000D01*
X125284292Y-103000000D01*
X125276753Y-102947568D01*
X125281638Y-102926563D01*
X125285641Y-102914246D01*
X125293542Y-102889928D01*
X125295766Y-102868774D01*
X125312814Y-102706565D01*
X125313504Y-102700000D01*
X125298595Y-102558148D01*
X125294232Y-102516635D01*
X125294232Y-102516633D01*
X125293542Y-102510072D01*
X125247476Y-102368296D01*
X125245448Y-102297330D01*
X125278818Y-102242589D01*
X125277613Y-102241504D01*
X125393948Y-102112301D01*
X125393949Y-102112300D01*
X125398367Y-102107393D01*
X125488599Y-101951107D01*
X125544365Y-101779475D01*
X125563229Y-101600000D01*
X125549210Y-101466618D01*
X125545055Y-101427089D01*
X125545055Y-101427088D01*
X125544365Y-101420525D01*
X125488599Y-101248893D01*
X125459404Y-101198325D01*
X125401668Y-101098325D01*
X125398367Y-101092607D01*
X125367654Y-101058496D01*
X125282035Y-100963407D01*
X125282034Y-100963406D01*
X125277613Y-100958496D01*
X125265558Y-100949737D01*
X125136957Y-100856303D01*
X125136956Y-100856302D01*
X125131615Y-100852422D01*
X125125587Y-100849738D01*
X125125585Y-100849737D01*
X124972783Y-100781705D01*
X124972781Y-100781705D01*
X124966752Y-100779020D01*
X124960297Y-100777648D01*
X124960288Y-100777645D01*
X124958377Y-100777239D01*
X124957378Y-100776700D01*
X124954012Y-100775606D01*
X124954212Y-100774990D01*
X124895904Y-100743511D01*
X124861583Y-100681361D01*
X124866311Y-100610522D01*
X124910513Y-100552058D01*
X125011253Y-100478866D01*
X125022993Y-100465827D01*
X125134621Y-100341852D01*
X125134622Y-100341851D01*
X125139040Y-100336944D01*
X125234527Y-100171556D01*
X125293542Y-99989928D01*
X125295766Y-99968774D01*
X125312814Y-99806565D01*
X125313504Y-99800000D01*
X144086496Y-99800000D01*
X144087186Y-99806565D01*
X144104235Y-99968774D01*
X144106458Y-99989928D01*
X144165473Y-100171556D01*
X144260960Y-100336944D01*
X144265378Y-100341851D01*
X144265379Y-100341852D01*
X144377007Y-100465827D01*
X144388747Y-100478866D01*
X144455178Y-100527131D01*
X144521876Y-100575590D01*
X144543248Y-100591118D01*
X144549276Y-100593802D01*
X144549278Y-100593803D01*
X144711681Y-100666109D01*
X144717712Y-100668794D01*
X144811112Y-100688647D01*
X144898056Y-100707128D01*
X144898061Y-100707128D01*
X144904513Y-100708500D01*
X145095487Y-100708500D01*
X145101939Y-100707128D01*
X145101944Y-100707128D01*
X145188887Y-100688647D01*
X145282288Y-100668794D01*
X145288319Y-100666109D01*
X145450722Y-100593803D01*
X145450724Y-100593802D01*
X145456752Y-100591118D01*
X145478125Y-100575590D01*
X145544822Y-100527131D01*
X145611253Y-100478866D01*
X145622993Y-100465827D01*
X145734621Y-100341852D01*
X145734622Y-100341851D01*
X145739040Y-100336944D01*
X145834527Y-100171556D01*
X145893542Y-99989928D01*
X145895766Y-99968774D01*
X145912814Y-99806565D01*
X145913504Y-99800000D01*
X145896623Y-99639386D01*
X145894232Y-99616635D01*
X145894232Y-99616633D01*
X145893542Y-99610072D01*
X145834527Y-99428444D01*
X145817162Y-99398366D01*
X145757955Y-99295818D01*
X145739040Y-99263056D01*
X145611253Y-99121134D01*
X145456752Y-99008882D01*
X145450724Y-99006198D01*
X145450722Y-99006197D01*
X145288319Y-98933891D01*
X145288318Y-98933891D01*
X145282288Y-98931206D01*
X145179831Y-98909428D01*
X145101944Y-98892872D01*
X145101939Y-98892872D01*
X145095487Y-98891500D01*
X144904513Y-98891500D01*
X144898061Y-98892872D01*
X144898056Y-98892872D01*
X144820169Y-98909428D01*
X144717712Y-98931206D01*
X144711682Y-98933891D01*
X144711681Y-98933891D01*
X144549278Y-99006197D01*
X144549276Y-99006198D01*
X144543248Y-99008882D01*
X144388747Y-99121134D01*
X144260960Y-99263056D01*
X144242045Y-99295818D01*
X144182839Y-99398366D01*
X144165473Y-99428444D01*
X144106458Y-99610072D01*
X144105768Y-99616633D01*
X144105768Y-99616635D01*
X144103377Y-99639386D01*
X144086496Y-99800000D01*
X125313504Y-99800000D01*
X125296623Y-99639386D01*
X125294232Y-99616635D01*
X125294232Y-99616633D01*
X125293542Y-99610072D01*
X125234527Y-99428444D01*
X125217162Y-99398366D01*
X125157955Y-99295818D01*
X125139040Y-99263056D01*
X125011253Y-99121134D01*
X124856752Y-99008882D01*
X124850724Y-99006198D01*
X124850722Y-99006197D01*
X124688319Y-98933891D01*
X124688318Y-98933891D01*
X124682288Y-98931206D01*
X124579831Y-98909428D01*
X124501944Y-98892872D01*
X124501939Y-98892872D01*
X124495487Y-98891500D01*
X124304513Y-98891500D01*
X124298061Y-98892872D01*
X124298056Y-98892872D01*
X124220169Y-98909428D01*
X124117712Y-98931206D01*
X124111682Y-98933891D01*
X124111681Y-98933891D01*
X123949278Y-99006197D01*
X123949276Y-99006198D01*
X123943248Y-99008882D01*
X123788747Y-99121134D01*
X123660960Y-99263056D01*
X123642045Y-99295818D01*
X123582839Y-99398366D01*
X123565473Y-99428444D01*
X123506458Y-99610072D01*
X123505768Y-99616633D01*
X123505768Y-99616635D01*
X123503377Y-99639386D01*
X123486496Y-99800000D01*
X123487186Y-99806565D01*
X123504235Y-99968774D01*
X123506458Y-99989928D01*
X123565473Y-100171556D01*
X123660960Y-100336944D01*
X123665378Y-100341851D01*
X123665379Y-100341852D01*
X123777007Y-100465827D01*
X123788747Y-100478866D01*
X123855178Y-100527131D01*
X123921876Y-100575590D01*
X123943248Y-100591118D01*
X123949276Y-100593802D01*
X123949278Y-100593803D01*
X124111681Y-100666109D01*
X124117712Y-100668794D01*
X124124167Y-100670166D01*
X124124170Y-100670167D01*
X124153001Y-100676295D01*
X124215475Y-100710023D01*
X124249797Y-100772173D01*
X124245069Y-100843012D01*
X124200866Y-100901478D01*
X124127731Y-100954613D01*
X124127729Y-100954615D01*
X124122387Y-100958496D01*
X124117966Y-100963406D01*
X124117965Y-100963407D01*
X124032347Y-101058496D01*
X124001633Y-101092607D01*
X123998332Y-101098325D01*
X123940597Y-101198325D01*
X123911401Y-101248893D01*
X123855635Y-101420525D01*
X123854945Y-101427088D01*
X123854945Y-101427089D01*
X123850790Y-101466618D01*
X123836771Y-101600000D01*
X123855635Y-101779475D01*
X123857675Y-101785754D01*
X123857676Y-101785758D01*
X123878095Y-101848603D01*
X123880122Y-101919571D01*
X123843459Y-101980368D01*
X123832323Y-101989474D01*
X123788747Y-102021134D01*
X123784326Y-102026044D01*
X123784325Y-102026045D01*
X123710677Y-102107840D01*
X123660960Y-102163056D01*
X123635362Y-102207393D01*
X123573684Y-102314223D01*
X123565473Y-102328444D01*
X123506458Y-102510072D01*
X123505768Y-102516633D01*
X123505768Y-102516635D01*
X123501405Y-102558148D01*
X123486496Y-102700000D01*
X123487186Y-102706565D01*
X123504235Y-102868774D01*
X123506458Y-102889928D01*
X123565473Y-103071556D01*
X123660960Y-103236944D01*
X123665378Y-103241851D01*
X123665379Y-103241852D01*
X123686843Y-103265690D01*
X123717561Y-103329697D01*
X123708796Y-103400151D01*
X123686843Y-103434310D01*
X123667320Y-103455993D01*
X123660960Y-103463056D01*
X123614223Y-103544007D01*
X123571333Y-103618295D01*
X123565473Y-103628444D01*
X123506458Y-103810072D01*
X123505769Y-103816631D01*
X123505768Y-103816634D01*
X123486657Y-103998468D01*
X123459644Y-104064124D01*
X123435408Y-104087233D01*
X123394091Y-104117251D01*
X123394089Y-104117253D01*
X123388747Y-104121134D01*
X123260960Y-104263056D01*
X123165473Y-104428444D01*
X123106458Y-104610072D01*
X123105768Y-104616633D01*
X123105768Y-104616635D01*
X123098819Y-104682749D01*
X123086496Y-104800000D01*
X123106458Y-104989928D01*
X123165473Y-105171556D01*
X123172656Y-105183996D01*
X123174389Y-105186998D01*
X123191128Y-105255993D01*
X123174390Y-105313000D01*
X123165473Y-105328444D01*
X123106458Y-105510072D01*
X123105768Y-105516633D01*
X123105768Y-105516635D01*
X123093059Y-105637554D01*
X123086496Y-105700000D01*
X123087186Y-105706565D01*
X123103914Y-105865720D01*
X123106458Y-105889928D01*
X123165473Y-106071556D01*
X123168776Y-106077277D01*
X123174389Y-106086998D01*
X123191128Y-106155993D01*
X123174390Y-106213000D01*
X123165473Y-106228444D01*
X123106458Y-106410072D01*
X123105768Y-106416633D01*
X123105768Y-106416635D01*
X123090837Y-106558699D01*
X123086496Y-106600000D01*
X121962285Y-106600000D01*
X121978873Y-106593095D01*
X121983992Y-106589668D01*
X121983996Y-106589666D01*
X122138099Y-106486504D01*
X122138104Y-106486500D01*
X122143223Y-106483073D01*
X122283073Y-106343223D01*
X122286500Y-106338104D01*
X122286504Y-106338099D01*
X122389666Y-106183996D01*
X122389668Y-106183992D01*
X122393095Y-106178873D01*
X122469100Y-105996284D01*
X122482092Y-105931854D01*
X122507267Y-105806996D01*
X122507267Y-105806995D01*
X122508192Y-105802408D01*
X122508500Y-105796328D01*
X122508500Y-104603672D01*
X122508192Y-104597592D01*
X122502802Y-104570862D01*
X122470318Y-104409755D01*
X122470317Y-104409752D01*
X122469100Y-104403716D01*
X122393095Y-104221127D01*
X122389668Y-104216008D01*
X122389666Y-104216004D01*
X122286504Y-104061901D01*
X122286500Y-104061896D01*
X122283073Y-104056777D01*
X122143223Y-103916927D01*
X122138104Y-103913500D01*
X122138099Y-103913496D01*
X121983996Y-103810334D01*
X121983992Y-103810332D01*
X121978873Y-103806905D01*
X121796284Y-103730900D01*
X121790248Y-103729683D01*
X121790245Y-103729682D01*
X121606996Y-103692733D01*
X121606995Y-103692733D01*
X121602408Y-103691808D01*
X121596328Y-103691500D01*
X120403672Y-103691500D01*
X120397592Y-103691808D01*
X120358904Y-103699609D01*
X120288175Y-103693467D01*
X120231994Y-103650060D01*
X120208000Y-103576095D01*
X120208000Y-97326944D01*
X129163715Y-97326944D01*
X129182579Y-97506419D01*
X129238345Y-97678051D01*
X129328577Y-97834337D01*
X129449331Y-97968448D01*
X129454673Y-97972329D01*
X129454675Y-97972331D01*
X129589987Y-98070641D01*
X129595329Y-98074522D01*
X129601357Y-98077206D01*
X129601359Y-98077207D01*
X129746554Y-98141852D01*
X129760192Y-98147924D01*
X129848452Y-98166684D01*
X129930255Y-98184072D01*
X129930259Y-98184072D01*
X129936712Y-98185444D01*
X130117176Y-98185444D01*
X130123629Y-98184072D01*
X130123633Y-98184072D01*
X130205436Y-98166684D01*
X130293696Y-98147924D01*
X130307334Y-98141852D01*
X130452529Y-98077207D01*
X130452531Y-98077206D01*
X130458559Y-98074522D01*
X130463901Y-98070641D01*
X130599213Y-97972331D01*
X130599215Y-97972329D01*
X130604557Y-97968448D01*
X130725311Y-97834337D01*
X130815543Y-97678051D01*
X130871309Y-97506419D01*
X130890173Y-97326944D01*
X130879820Y-97228444D01*
X130871999Y-97154033D01*
X130871999Y-97154032D01*
X130871309Y-97147469D01*
X130815543Y-96975837D01*
X130725311Y-96819551D01*
X130713619Y-96806565D01*
X130608979Y-96690351D01*
X130608978Y-96690350D01*
X130604557Y-96685440D01*
X130589438Y-96674455D01*
X130463901Y-96583247D01*
X130463900Y-96583246D01*
X130458559Y-96579366D01*
X130452531Y-96576682D01*
X130452529Y-96576681D01*
X130299727Y-96508649D01*
X130299725Y-96508649D01*
X130293696Y-96505964D01*
X130205436Y-96487204D01*
X130123633Y-96469816D01*
X130123629Y-96469816D01*
X130117176Y-96468444D01*
X129936712Y-96468444D01*
X129930259Y-96469816D01*
X129930255Y-96469816D01*
X129848452Y-96487204D01*
X129760192Y-96505964D01*
X129754163Y-96508648D01*
X129754161Y-96508649D01*
X129601360Y-96576681D01*
X129601358Y-96576682D01*
X129595330Y-96579366D01*
X129589989Y-96583246D01*
X129589988Y-96583247D01*
X129454675Y-96681557D01*
X129454673Y-96681559D01*
X129449331Y-96685440D01*
X129444910Y-96690350D01*
X129444909Y-96690351D01*
X129340270Y-96806565D01*
X129328577Y-96819551D01*
X129238345Y-96975837D01*
X129182579Y-97147469D01*
X129181889Y-97154032D01*
X129181889Y-97154033D01*
X129174068Y-97228444D01*
X129163715Y-97326944D01*
X120208000Y-97326944D01*
X120208000Y-95124501D01*
X142582774Y-95124501D01*
X142602736Y-95314429D01*
X142661751Y-95496057D01*
X142757238Y-95661445D01*
X142885025Y-95803367D01*
X143039526Y-95915619D01*
X143045554Y-95918303D01*
X143045556Y-95918304D01*
X143187958Y-95981705D01*
X143213990Y-95993295D01*
X143307390Y-96013148D01*
X143394334Y-96031629D01*
X143394339Y-96031629D01*
X143400791Y-96033001D01*
X143591765Y-96033001D01*
X143598217Y-96031629D01*
X143598222Y-96031629D01*
X143685165Y-96013148D01*
X143778566Y-95993295D01*
X143804598Y-95981705D01*
X143947000Y-95918304D01*
X143947002Y-95918303D01*
X143953030Y-95915619D01*
X144107531Y-95803367D01*
X144235318Y-95661445D01*
X144330805Y-95496057D01*
X144389820Y-95314429D01*
X144409782Y-95124501D01*
X144390845Y-94944323D01*
X144390510Y-94941136D01*
X144390510Y-94941134D01*
X144389820Y-94934573D01*
X144384247Y-94917421D01*
X144382219Y-94846456D01*
X144418880Y-94785658D01*
X144482592Y-94754332D01*
X144555329Y-94763379D01*
X144637582Y-94800000D01*
X144671434Y-94815072D01*
X144764834Y-94834925D01*
X144851778Y-94853406D01*
X144851783Y-94853406D01*
X144858235Y-94854778D01*
X145049209Y-94854778D01*
X145055661Y-94853406D01*
X145055666Y-94853406D01*
X145142610Y-94834925D01*
X145236010Y-94815072D01*
X145258846Y-94804905D01*
X145404444Y-94740081D01*
X145404446Y-94740080D01*
X145410474Y-94737396D01*
X145564975Y-94625144D01*
X145593670Y-94593275D01*
X145688343Y-94488130D01*
X145688344Y-94488129D01*
X145692762Y-94483222D01*
X145788249Y-94317834D01*
X145847264Y-94136206D01*
X145849223Y-94117572D01*
X145866536Y-93952843D01*
X145867226Y-93946278D01*
X145859366Y-93871498D01*
X145847954Y-93762913D01*
X145847954Y-93762911D01*
X145847264Y-93756350D01*
X145788249Y-93574722D01*
X145692762Y-93409334D01*
X145680391Y-93395594D01*
X145569397Y-93272323D01*
X145569396Y-93272322D01*
X145564975Y-93267412D01*
X145410474Y-93155160D01*
X145404446Y-93152476D01*
X145404444Y-93152475D01*
X145290746Y-93101854D01*
X145236651Y-93055874D01*
X145216001Y-92987947D01*
X145222162Y-92947812D01*
X145242324Y-92885758D01*
X145242325Y-92885754D01*
X145244365Y-92879475D01*
X145263229Y-92700000D01*
X145244365Y-92520525D01*
X145228895Y-92472911D01*
X145190641Y-92355178D01*
X145188599Y-92348893D01*
X145098367Y-92192607D01*
X145039375Y-92127089D01*
X144982035Y-92063407D01*
X144982034Y-92063406D01*
X144977613Y-92058496D01*
X144955809Y-92042654D01*
X144836957Y-91956303D01*
X144836956Y-91956302D01*
X144831615Y-91952422D01*
X144825587Y-91949738D01*
X144825585Y-91949737D01*
X144672783Y-91881705D01*
X144672781Y-91881705D01*
X144666752Y-91879020D01*
X144578492Y-91860260D01*
X144496689Y-91842872D01*
X144496685Y-91842872D01*
X144490232Y-91841500D01*
X144309768Y-91841500D01*
X144303315Y-91842872D01*
X144303311Y-91842872D01*
X144221508Y-91860260D01*
X144133248Y-91879020D01*
X144127219Y-91881704D01*
X144127217Y-91881705D01*
X143974416Y-91949737D01*
X143974414Y-91949738D01*
X143968386Y-91952422D01*
X143963045Y-91956302D01*
X143963044Y-91956303D01*
X143827731Y-92054613D01*
X143827729Y-92054615D01*
X143822387Y-92058496D01*
X143817966Y-92063406D01*
X143817965Y-92063407D01*
X143760626Y-92127089D01*
X143701633Y-92192607D01*
X143611401Y-92348893D01*
X143609359Y-92355178D01*
X143571106Y-92472911D01*
X143555635Y-92520525D01*
X143536771Y-92700000D01*
X143555635Y-92879475D01*
X143557675Y-92885753D01*
X143557675Y-92885754D01*
X143575789Y-92941504D01*
X143611401Y-93051107D01*
X143701633Y-93207393D01*
X143706051Y-93212300D01*
X143706052Y-93212301D01*
X143804046Y-93321134D01*
X143822387Y-93341504D01*
X143827729Y-93345385D01*
X143827731Y-93345387D01*
X143963043Y-93443697D01*
X143968385Y-93447578D01*
X143974411Y-93450261D01*
X143974418Y-93450265D01*
X144032583Y-93476161D01*
X144086679Y-93522141D01*
X144107329Y-93590068D01*
X144101169Y-93630201D01*
X144060180Y-93756350D01*
X144059490Y-93762911D01*
X144059490Y-93762913D01*
X144048078Y-93871498D01*
X144040218Y-93946278D01*
X144040908Y-93952843D01*
X144058222Y-94117572D01*
X144060180Y-94136206D01*
X144065753Y-94153358D01*
X144067781Y-94224323D01*
X144031120Y-94285121D01*
X143967408Y-94316447D01*
X143894671Y-94307400D01*
X143784597Y-94258392D01*
X143784596Y-94258392D01*
X143778566Y-94255707D01*
X143685166Y-94235854D01*
X143598222Y-94217373D01*
X143598217Y-94217373D01*
X143591765Y-94216001D01*
X143400791Y-94216001D01*
X143394339Y-94217373D01*
X143394334Y-94217373D01*
X143307390Y-94235854D01*
X143213990Y-94255707D01*
X143207960Y-94258392D01*
X143207959Y-94258392D01*
X143045556Y-94330698D01*
X143045554Y-94330699D01*
X143039526Y-94333383D01*
X142885025Y-94445635D01*
X142880604Y-94450545D01*
X142880603Y-94450546D01*
X142807959Y-94531226D01*
X142757238Y-94587557D01*
X142661751Y-94752945D01*
X142602736Y-94934573D01*
X142602046Y-94941134D01*
X142602046Y-94941136D01*
X142601711Y-94944323D01*
X142582774Y-95124501D01*
X120208000Y-95124501D01*
X120208000Y-93600000D01*
X125386496Y-93600000D01*
X125387186Y-93606565D01*
X125403891Y-93765500D01*
X125406458Y-93789928D01*
X125465473Y-93971556D01*
X125468776Y-93977278D01*
X125468777Y-93977279D01*
X125487023Y-94008882D01*
X125560960Y-94136944D01*
X125565378Y-94141851D01*
X125565379Y-94141852D01*
X125670312Y-94258392D01*
X125688747Y-94278866D01*
X125843248Y-94391118D01*
X125849276Y-94393802D01*
X125849278Y-94393803D01*
X125976726Y-94450546D01*
X126017712Y-94468794D01*
X126092600Y-94484712D01*
X126198056Y-94507128D01*
X126198061Y-94507128D01*
X126204513Y-94508500D01*
X126395487Y-94508500D01*
X126401939Y-94507128D01*
X126401944Y-94507128D01*
X126507400Y-94484712D01*
X126582288Y-94468794D01*
X126623274Y-94450546D01*
X126750722Y-94393803D01*
X126750724Y-94393802D01*
X126756752Y-94391118D01*
X126911253Y-94278866D01*
X126929688Y-94258392D01*
X127034621Y-94141852D01*
X127034622Y-94141851D01*
X127039040Y-94136944D01*
X127112977Y-94008882D01*
X127131223Y-93977279D01*
X127131224Y-93977278D01*
X127134527Y-93971556D01*
X127193542Y-93789928D01*
X127196110Y-93765500D01*
X127212814Y-93606565D01*
X127213504Y-93600000D01*
X127198595Y-93458148D01*
X127194232Y-93416635D01*
X127194232Y-93416633D01*
X127193542Y-93410072D01*
X127134527Y-93228444D01*
X127039040Y-93063056D01*
X126997578Y-93017007D01*
X126915675Y-92926045D01*
X126915674Y-92926044D01*
X126911253Y-92921134D01*
X126789859Y-92832936D01*
X126762094Y-92812763D01*
X126762093Y-92812762D01*
X126756752Y-92808882D01*
X126750724Y-92806198D01*
X126750722Y-92806197D01*
X126588319Y-92733891D01*
X126588318Y-92733891D01*
X126582288Y-92731206D01*
X126466362Y-92706565D01*
X126401944Y-92692872D01*
X126401939Y-92692872D01*
X126395487Y-92691500D01*
X126204513Y-92691500D01*
X126198061Y-92692872D01*
X126198056Y-92692872D01*
X126133638Y-92706565D01*
X126017712Y-92731206D01*
X126011682Y-92733891D01*
X126011681Y-92733891D01*
X125849278Y-92806197D01*
X125849276Y-92806198D01*
X125843248Y-92808882D01*
X125837907Y-92812762D01*
X125837906Y-92812763D01*
X125810141Y-92832936D01*
X125688747Y-92921134D01*
X125684326Y-92926044D01*
X125684325Y-92926045D01*
X125602423Y-93017007D01*
X125560960Y-93063056D01*
X125465473Y-93228444D01*
X125406458Y-93410072D01*
X125405768Y-93416633D01*
X125405768Y-93416635D01*
X125401405Y-93458148D01*
X125386496Y-93600000D01*
X120208000Y-93600000D01*
X120208000Y-92300000D01*
X120636771Y-92300000D01*
X120655635Y-92479475D01*
X120657675Y-92485753D01*
X120657675Y-92485754D01*
X120674795Y-92538444D01*
X120711401Y-92651107D01*
X120801633Y-92807393D01*
X120806051Y-92812300D01*
X120806052Y-92812301D01*
X120903640Y-92920683D01*
X120922387Y-92941504D01*
X120927729Y-92945385D01*
X120927731Y-92945387D01*
X121063043Y-93043697D01*
X121068385Y-93047578D01*
X121074413Y-93050262D01*
X121074415Y-93050263D01*
X121227217Y-93118295D01*
X121233248Y-93120980D01*
X121321508Y-93139740D01*
X121403311Y-93157128D01*
X121403315Y-93157128D01*
X121409768Y-93158500D01*
X121590232Y-93158500D01*
X121596685Y-93157128D01*
X121596689Y-93157128D01*
X121678492Y-93139740D01*
X121766752Y-93120980D01*
X121772783Y-93118295D01*
X121925585Y-93050263D01*
X121925587Y-93050262D01*
X121931615Y-93047578D01*
X121936957Y-93043697D01*
X122072269Y-92945387D01*
X122072271Y-92945385D01*
X122077613Y-92941504D01*
X122096360Y-92920683D01*
X122193948Y-92812301D01*
X122193949Y-92812300D01*
X122198367Y-92807393D01*
X122288599Y-92651107D01*
X122325205Y-92538444D01*
X122342325Y-92485754D01*
X122342325Y-92485753D01*
X122344365Y-92479475D01*
X122363229Y-92300000D01*
X122344365Y-92120525D01*
X122325807Y-92063407D01*
X122293569Y-91964190D01*
X122288599Y-91948893D01*
X122280919Y-91935590D01*
X122231655Y-91850263D01*
X122198367Y-91792607D01*
X122122568Y-91708423D01*
X122082035Y-91663407D01*
X122082034Y-91663406D01*
X122077613Y-91658496D01*
X122014032Y-91612301D01*
X121936957Y-91556303D01*
X121936956Y-91556302D01*
X121931615Y-91552422D01*
X121925587Y-91549738D01*
X121925585Y-91549737D01*
X121772783Y-91481705D01*
X121772781Y-91481705D01*
X121766752Y-91479020D01*
X121662355Y-91456830D01*
X121596689Y-91442872D01*
X121596685Y-91442872D01*
X121590232Y-91441500D01*
X121409768Y-91441500D01*
X121403315Y-91442872D01*
X121403311Y-91442872D01*
X121337645Y-91456830D01*
X121233248Y-91479020D01*
X121227219Y-91481704D01*
X121227217Y-91481705D01*
X121074416Y-91549737D01*
X121074414Y-91549738D01*
X121068386Y-91552422D01*
X121063045Y-91556302D01*
X121063044Y-91556303D01*
X120927731Y-91654613D01*
X120927729Y-91654615D01*
X120922387Y-91658496D01*
X120917966Y-91663406D01*
X120917965Y-91663407D01*
X120877433Y-91708423D01*
X120801633Y-91792607D01*
X120768345Y-91850263D01*
X120719082Y-91935590D01*
X120711401Y-91948893D01*
X120706431Y-91964190D01*
X120674194Y-92063407D01*
X120655635Y-92120525D01*
X120636771Y-92300000D01*
X120208000Y-92300000D01*
X120208000Y-91100000D01*
X129936771Y-91100000D01*
X129937461Y-91106565D01*
X129945600Y-91183996D01*
X129955635Y-91279475D01*
X130011401Y-91451107D01*
X130014704Y-91456829D01*
X130014705Y-91456830D01*
X130046689Y-91512227D01*
X130101633Y-91607393D01*
X130222387Y-91741504D01*
X130227729Y-91745385D01*
X130227731Y-91745387D01*
X130363043Y-91843697D01*
X130368385Y-91847578D01*
X130374413Y-91850262D01*
X130374415Y-91850263D01*
X130445035Y-91881705D01*
X130533248Y-91920980D01*
X130621508Y-91939740D01*
X130703311Y-91957128D01*
X130703315Y-91957128D01*
X130709768Y-91958500D01*
X130890232Y-91958500D01*
X130896685Y-91957128D01*
X130896689Y-91957128D01*
X130978492Y-91939740D01*
X131066752Y-91920980D01*
X131154965Y-91881705D01*
X131225585Y-91850263D01*
X131225587Y-91850262D01*
X131231615Y-91847578D01*
X131236957Y-91843697D01*
X131372269Y-91745387D01*
X131372271Y-91745385D01*
X131377613Y-91741504D01*
X131498367Y-91607393D01*
X131553311Y-91512227D01*
X131585295Y-91456830D01*
X131585296Y-91456829D01*
X131588599Y-91451107D01*
X131644365Y-91279475D01*
X131654401Y-91183996D01*
X131662539Y-91106565D01*
X131663229Y-91100000D01*
X131644365Y-90920525D01*
X131588599Y-90748893D01*
X131559669Y-90698784D01*
X131532369Y-90651500D01*
X131498367Y-90592607D01*
X131455656Y-90545171D01*
X131382035Y-90463407D01*
X131382034Y-90463406D01*
X131377613Y-90458496D01*
X131231615Y-90352422D01*
X131225587Y-90349738D01*
X131225585Y-90349737D01*
X131072783Y-90281705D01*
X131072781Y-90281705D01*
X131066752Y-90279020D01*
X130978492Y-90260260D01*
X130896689Y-90242872D01*
X130896685Y-90242872D01*
X130890232Y-90241500D01*
X130709768Y-90241500D01*
X130703315Y-90242872D01*
X130703311Y-90242872D01*
X130621508Y-90260260D01*
X130533248Y-90279020D01*
X130527219Y-90281704D01*
X130527217Y-90281705D01*
X130374416Y-90349737D01*
X130374414Y-90349738D01*
X130368386Y-90352422D01*
X130363045Y-90356302D01*
X130363044Y-90356303D01*
X130227731Y-90454613D01*
X130227729Y-90454615D01*
X130222387Y-90458496D01*
X130217966Y-90463406D01*
X130217965Y-90463407D01*
X130144345Y-90545171D01*
X130101633Y-90592607D01*
X130067631Y-90651500D01*
X130040332Y-90698784D01*
X130011401Y-90748893D01*
X129955635Y-90920525D01*
X129936771Y-91100000D01*
X120208000Y-91100000D01*
X120208000Y-90766905D01*
X120228002Y-90698784D01*
X120281658Y-90652291D01*
X120358904Y-90643391D01*
X120397592Y-90651192D01*
X120403672Y-90651500D01*
X121596328Y-90651500D01*
X121602408Y-90651192D01*
X121606996Y-90650267D01*
X121790245Y-90613318D01*
X121790248Y-90613317D01*
X121796284Y-90612100D01*
X121949109Y-90548485D01*
X121973182Y-90538464D01*
X121978873Y-90536095D01*
X121983992Y-90532668D01*
X121983996Y-90532666D01*
X122138099Y-90429504D01*
X122138104Y-90429500D01*
X122143223Y-90426073D01*
X122283073Y-90286223D01*
X122286500Y-90281104D01*
X122286504Y-90281099D01*
X122389666Y-90126996D01*
X122389668Y-90126992D01*
X122393095Y-90121873D01*
X122469100Y-89939284D01*
X122472629Y-89921786D01*
X122507267Y-89749996D01*
X122507267Y-89749995D01*
X122508192Y-89745408D01*
X122508500Y-89739328D01*
X122508500Y-88546672D01*
X122508192Y-88540592D01*
X122505440Y-88526944D01*
X134109827Y-88526944D01*
X134110517Y-88533509D01*
X134127613Y-88696158D01*
X134128691Y-88706419D01*
X134130731Y-88712697D01*
X134130731Y-88712698D01*
X134136537Y-88730567D01*
X134184457Y-88878051D01*
X134187760Y-88883773D01*
X134187761Y-88883774D01*
X134195972Y-88897996D01*
X134274689Y-89034337D01*
X134279107Y-89039244D01*
X134279108Y-89039245D01*
X134358207Y-89127093D01*
X134395443Y-89168448D01*
X134400785Y-89172329D01*
X134400787Y-89172331D01*
X134460898Y-89216004D01*
X134541441Y-89274522D01*
X134547469Y-89277206D01*
X134547471Y-89277207D01*
X134700273Y-89345239D01*
X134706304Y-89347924D01*
X134794564Y-89366684D01*
X134876367Y-89384072D01*
X134876371Y-89384072D01*
X134882824Y-89385444D01*
X135063288Y-89385444D01*
X135069741Y-89384072D01*
X135069745Y-89384072D01*
X135151548Y-89366684D01*
X135239808Y-89347924D01*
X135245839Y-89345239D01*
X135398641Y-89277207D01*
X135398643Y-89277206D01*
X135404671Y-89274522D01*
X135485214Y-89216004D01*
X135545325Y-89172331D01*
X135545327Y-89172329D01*
X135550669Y-89168448D01*
X135587905Y-89127093D01*
X135667004Y-89039245D01*
X135667005Y-89039244D01*
X135671423Y-89034337D01*
X135750140Y-88897996D01*
X135758351Y-88883774D01*
X135758352Y-88883773D01*
X135761655Y-88878051D01*
X135775012Y-88836944D01*
X135790533Y-88789173D01*
X135830606Y-88730567D01*
X135896002Y-88702929D01*
X135965959Y-88715035D01*
X136019485Y-88765107D01*
X136060960Y-88836944D01*
X136065378Y-88841851D01*
X136065379Y-88841852D01*
X136115931Y-88897996D01*
X136188747Y-88978866D01*
X136343248Y-89091118D01*
X136349276Y-89093802D01*
X136349278Y-89093803D01*
X136511681Y-89166109D01*
X136517712Y-89168794D01*
X136611113Y-89188647D01*
X136698056Y-89207128D01*
X136698061Y-89207128D01*
X136704513Y-89208500D01*
X136895487Y-89208500D01*
X136901939Y-89207128D01*
X136901944Y-89207128D01*
X136988887Y-89188647D01*
X137082288Y-89168794D01*
X137088319Y-89166109D01*
X137250722Y-89093803D01*
X137250724Y-89093802D01*
X137256752Y-89091118D01*
X137411253Y-88978866D01*
X137484069Y-88897996D01*
X137534621Y-88841852D01*
X137534622Y-88841851D01*
X137539040Y-88836944D01*
X137634527Y-88671556D01*
X137693542Y-88489928D01*
X137709903Y-88334260D01*
X138033904Y-88334260D01*
X138053866Y-88524188D01*
X138112881Y-88705816D01*
X138116184Y-88711538D01*
X138116185Y-88711539D01*
X138118746Y-88715974D01*
X138208368Y-88871204D01*
X138212786Y-88876111D01*
X138212787Y-88876112D01*
X138300885Y-88973955D01*
X138336155Y-89013126D01*
X138490656Y-89125378D01*
X138496684Y-89128062D01*
X138496686Y-89128063D01*
X138659089Y-89200369D01*
X138665120Y-89203054D01*
X138758521Y-89222907D01*
X138845464Y-89241388D01*
X138845469Y-89241388D01*
X138851921Y-89242760D01*
X139042895Y-89242760D01*
X139049347Y-89241388D01*
X139049352Y-89241388D01*
X139136296Y-89222907D01*
X139229696Y-89203054D01*
X139235727Y-89200369D01*
X139398130Y-89128063D01*
X139398132Y-89128062D01*
X139404160Y-89125378D01*
X139558661Y-89013126D01*
X139593931Y-88973955D01*
X139682029Y-88876112D01*
X139682030Y-88876111D01*
X139686448Y-88871204D01*
X139776070Y-88715974D01*
X139778631Y-88711539D01*
X139778632Y-88711538D01*
X139781935Y-88705816D01*
X139840950Y-88524188D01*
X139860912Y-88334260D01*
X139840950Y-88144332D01*
X139781935Y-87962704D01*
X139686448Y-87797316D01*
X139604195Y-87705964D01*
X139563083Y-87660305D01*
X139563082Y-87660304D01*
X139558661Y-87655394D01*
X139404160Y-87543142D01*
X139398132Y-87540458D01*
X139398130Y-87540457D01*
X139235727Y-87468151D01*
X139235726Y-87468151D01*
X139229696Y-87465466D01*
X139136295Y-87445613D01*
X139049352Y-87427132D01*
X139049347Y-87427132D01*
X139042895Y-87425760D01*
X138851921Y-87425760D01*
X138845469Y-87427132D01*
X138845464Y-87427132D01*
X138758521Y-87445613D01*
X138665120Y-87465466D01*
X138659090Y-87468151D01*
X138659089Y-87468151D01*
X138496686Y-87540457D01*
X138496684Y-87540458D01*
X138490656Y-87543142D01*
X138336155Y-87655394D01*
X138331734Y-87660304D01*
X138331733Y-87660305D01*
X138290622Y-87705964D01*
X138208368Y-87797316D01*
X138112881Y-87962704D01*
X138053866Y-88144332D01*
X138033904Y-88334260D01*
X137709903Y-88334260D01*
X137713504Y-88300000D01*
X137699853Y-88170114D01*
X137694232Y-88116635D01*
X137694232Y-88116633D01*
X137693542Y-88110072D01*
X137634527Y-87928444D01*
X137539040Y-87763056D01*
X137476685Y-87693803D01*
X137415675Y-87626045D01*
X137415674Y-87626044D01*
X137411253Y-87621134D01*
X137256752Y-87508882D01*
X137250724Y-87506198D01*
X137250722Y-87506197D01*
X137088319Y-87433891D01*
X137088318Y-87433891D01*
X137082288Y-87431206D01*
X136988887Y-87411353D01*
X136901944Y-87392872D01*
X136901939Y-87392872D01*
X136895487Y-87391500D01*
X136716406Y-87391500D01*
X136648285Y-87371498D01*
X136601792Y-87317842D01*
X136591688Y-87247568D01*
X136596573Y-87226564D01*
X136625945Y-87136168D01*
X136644365Y-87079475D01*
X136663229Y-86900000D01*
X136662539Y-86893435D01*
X136645055Y-86727089D01*
X136645055Y-86727088D01*
X136644365Y-86720525D01*
X136588599Y-86548893D01*
X136580422Y-86534729D01*
X136501668Y-86398325D01*
X136498367Y-86392607D01*
X136377613Y-86258496D01*
X136371559Y-86254097D01*
X136236957Y-86156303D01*
X136236956Y-86156302D01*
X136231615Y-86152422D01*
X136225587Y-86149738D01*
X136225585Y-86149737D01*
X136072783Y-86081705D01*
X136072781Y-86081705D01*
X136066752Y-86079020D01*
X135978492Y-86060260D01*
X135896689Y-86042872D01*
X135896685Y-86042872D01*
X135890232Y-86041500D01*
X135709768Y-86041500D01*
X135703315Y-86042872D01*
X135703311Y-86042872D01*
X135621508Y-86060260D01*
X135533248Y-86079020D01*
X135527219Y-86081704D01*
X135527217Y-86081705D01*
X135374416Y-86149737D01*
X135374414Y-86149738D01*
X135368386Y-86152422D01*
X135363045Y-86156302D01*
X135363044Y-86156303D01*
X135227731Y-86254613D01*
X135227729Y-86254615D01*
X135222387Y-86258496D01*
X135101633Y-86392607D01*
X135098332Y-86398325D01*
X135019579Y-86534729D01*
X135011401Y-86548893D01*
X134955635Y-86720525D01*
X134954945Y-86727088D01*
X134954945Y-86727089D01*
X134937461Y-86893435D01*
X134936771Y-86900000D01*
X134955635Y-87079475D01*
X135011401Y-87251107D01*
X135014704Y-87256829D01*
X135014705Y-87256830D01*
X135023207Y-87271556D01*
X135101633Y-87407393D01*
X135147322Y-87458136D01*
X135178038Y-87522142D01*
X135169273Y-87592595D01*
X135123810Y-87647126D01*
X135053684Y-87668444D01*
X134882824Y-87668444D01*
X134876371Y-87669816D01*
X134876367Y-87669816D01*
X134794564Y-87687204D01*
X134706304Y-87705964D01*
X134700275Y-87708648D01*
X134700273Y-87708649D01*
X134547472Y-87776681D01*
X134547470Y-87776682D01*
X134541442Y-87779366D01*
X134536101Y-87783246D01*
X134536100Y-87783247D01*
X134400787Y-87881557D01*
X134400785Y-87881559D01*
X134395443Y-87885440D01*
X134274689Y-88019551D01*
X134227030Y-88102099D01*
X134194176Y-88159004D01*
X134184457Y-88175837D01*
X134182415Y-88182122D01*
X134146248Y-88293435D01*
X134128691Y-88347469D01*
X134109827Y-88526944D01*
X122505440Y-88526944D01*
X122470318Y-88352755D01*
X122470317Y-88352752D01*
X122469100Y-88346716D01*
X122393095Y-88164127D01*
X122389668Y-88159008D01*
X122389666Y-88159004D01*
X122330145Y-88070093D01*
X122308871Y-88002359D01*
X122330145Y-87929907D01*
X122389666Y-87840996D01*
X122389668Y-87840992D01*
X122393095Y-87835873D01*
X122469100Y-87653284D01*
X122474593Y-87626045D01*
X122507267Y-87463996D01*
X122507267Y-87463995D01*
X122508192Y-87459408D01*
X122508500Y-87453328D01*
X122508500Y-86900000D01*
X131186496Y-86900000D01*
X131187186Y-86906565D01*
X131203978Y-87066329D01*
X131206458Y-87089928D01*
X131265473Y-87271556D01*
X131360960Y-87436944D01*
X131365378Y-87441851D01*
X131365379Y-87441852D01*
X131454163Y-87540457D01*
X131488747Y-87578866D01*
X131643248Y-87691118D01*
X131649276Y-87693802D01*
X131649278Y-87693803D01*
X131794591Y-87758500D01*
X131817712Y-87768794D01*
X131885708Y-87783247D01*
X131998056Y-87807128D01*
X131998061Y-87807128D01*
X132004513Y-87808500D01*
X132195487Y-87808500D01*
X132201939Y-87807128D01*
X132201944Y-87807128D01*
X132314292Y-87783247D01*
X132382288Y-87768794D01*
X132405409Y-87758500D01*
X132550722Y-87693803D01*
X132550724Y-87693802D01*
X132556752Y-87691118D01*
X132711253Y-87578866D01*
X132745837Y-87540457D01*
X132834621Y-87441852D01*
X132834622Y-87441851D01*
X132839040Y-87436944D01*
X132934527Y-87271556D01*
X132993542Y-87089928D01*
X132996023Y-87066329D01*
X133012814Y-86906565D01*
X133013504Y-86900000D01*
X132993542Y-86710072D01*
X132934527Y-86528444D01*
X132839040Y-86363056D01*
X132733752Y-86246121D01*
X132715675Y-86226045D01*
X132715674Y-86226044D01*
X132711253Y-86221134D01*
X132556752Y-86108882D01*
X132550724Y-86106198D01*
X132550722Y-86106197D01*
X132388319Y-86033891D01*
X132388318Y-86033891D01*
X132382288Y-86031206D01*
X132288887Y-86011353D01*
X132201944Y-85992872D01*
X132201939Y-85992872D01*
X132195487Y-85991500D01*
X132004513Y-85991500D01*
X131998061Y-85992872D01*
X131998056Y-85992872D01*
X131911113Y-86011353D01*
X131817712Y-86031206D01*
X131811682Y-86033891D01*
X131811681Y-86033891D01*
X131649278Y-86106197D01*
X131649276Y-86106198D01*
X131643248Y-86108882D01*
X131488747Y-86221134D01*
X131484326Y-86226044D01*
X131484325Y-86226045D01*
X131466249Y-86246121D01*
X131360960Y-86363056D01*
X131265473Y-86528444D01*
X131206458Y-86710072D01*
X131186496Y-86900000D01*
X122508500Y-86900000D01*
X122508500Y-86260672D01*
X122508192Y-86254592D01*
X122502090Y-86224328D01*
X122470318Y-86066755D01*
X122470317Y-86066752D01*
X122469100Y-86060716D01*
X122393095Y-85878127D01*
X122389668Y-85873008D01*
X122389666Y-85873004D01*
X122286504Y-85718901D01*
X122286500Y-85718896D01*
X122283073Y-85713777D01*
X122143223Y-85573927D01*
X122138104Y-85570500D01*
X122138099Y-85570496D01*
X121983996Y-85467334D01*
X121983992Y-85467332D01*
X121978873Y-85463905D01*
X121796284Y-85387900D01*
X121790248Y-85386683D01*
X121790245Y-85386682D01*
X121606996Y-85349733D01*
X121606995Y-85349733D01*
X121602408Y-85348808D01*
X121596328Y-85348500D01*
X120403672Y-85348500D01*
X120397592Y-85348808D01*
X120358904Y-85356609D01*
X120288175Y-85350467D01*
X120231994Y-85307060D01*
X120208000Y-85233095D01*
X120208000Y-81749328D01*
X120209500Y-81729943D01*
X120211805Y-81715142D01*
X120211805Y-81715139D01*
X120213186Y-81706270D01*
X120212366Y-81700000D01*
X120686685Y-81700000D01*
X120705931Y-82067241D01*
X120706444Y-82070481D01*
X120706445Y-82070489D01*
X120718997Y-82149737D01*
X120763459Y-82430459D01*
X120858639Y-82785674D01*
X120859824Y-82788762D01*
X120859825Y-82788764D01*
X120902525Y-82900000D01*
X120990427Y-83128994D01*
X120991925Y-83131934D01*
X121124745Y-83392607D01*
X121157380Y-83456657D01*
X121357668Y-83765075D01*
X121589098Y-84050867D01*
X121849133Y-84310902D01*
X122134925Y-84542332D01*
X122137700Y-84544134D01*
X122405885Y-84718295D01*
X122443342Y-84742620D01*
X122446276Y-84744115D01*
X122446283Y-84744119D01*
X122674928Y-84860619D01*
X122771006Y-84909573D01*
X123114326Y-85041361D01*
X123469541Y-85136541D01*
X123662558Y-85167112D01*
X123829511Y-85193555D01*
X123829519Y-85193556D01*
X123832759Y-85194069D01*
X124200000Y-85213315D01*
X124567241Y-85194069D01*
X124570481Y-85193556D01*
X124570489Y-85193555D01*
X124737442Y-85167112D01*
X124930459Y-85136541D01*
X125285674Y-85041361D01*
X125628994Y-84909573D01*
X125725072Y-84860619D01*
X125953717Y-84744119D01*
X125953724Y-84744115D01*
X125956658Y-84742620D01*
X125994116Y-84718295D01*
X126262300Y-84544134D01*
X126265075Y-84542332D01*
X126550867Y-84310902D01*
X126810902Y-84050867D01*
X127014050Y-83800000D01*
X132736771Y-83800000D01*
X132755635Y-83979475D01*
X132811401Y-84151107D01*
X132901633Y-84307393D01*
X132906051Y-84312300D01*
X132906052Y-84312301D01*
X133017965Y-84436593D01*
X133022387Y-84441504D01*
X133027729Y-84445385D01*
X133027731Y-84445387D01*
X133163043Y-84543697D01*
X133168385Y-84547578D01*
X133174413Y-84550262D01*
X133174415Y-84550263D01*
X133327217Y-84618295D01*
X133333248Y-84620980D01*
X133421508Y-84639740D01*
X133503311Y-84657128D01*
X133503315Y-84657128D01*
X133509768Y-84658500D01*
X133690232Y-84658500D01*
X133696685Y-84657128D01*
X133696689Y-84657128D01*
X133778492Y-84639740D01*
X133866752Y-84620980D01*
X133872783Y-84618295D01*
X134025585Y-84550263D01*
X134025587Y-84550262D01*
X134031615Y-84547578D01*
X134036957Y-84543697D01*
X134172269Y-84445387D01*
X134172271Y-84445385D01*
X134177613Y-84441504D01*
X134182035Y-84436593D01*
X134293948Y-84312301D01*
X134293949Y-84312300D01*
X134298367Y-84307393D01*
X134388599Y-84151107D01*
X134444365Y-83979475D01*
X134452718Y-83900000D01*
X139436771Y-83900000D01*
X139455635Y-84079475D01*
X139457675Y-84085753D01*
X139457675Y-84085754D01*
X139487049Y-84176158D01*
X139511401Y-84251107D01*
X139514704Y-84256829D01*
X139514705Y-84256830D01*
X139543898Y-84307393D01*
X139601633Y-84407393D01*
X139606051Y-84412300D01*
X139606052Y-84412301D01*
X139635843Y-84445387D01*
X139722387Y-84541504D01*
X139727729Y-84545385D01*
X139727731Y-84545387D01*
X139831776Y-84620980D01*
X139868385Y-84647578D01*
X139874413Y-84650262D01*
X139874415Y-84650263D01*
X139892916Y-84658500D01*
X140033248Y-84720980D01*
X140121508Y-84739740D01*
X140203311Y-84757128D01*
X140203315Y-84757128D01*
X140209768Y-84758500D01*
X140390232Y-84758500D01*
X140396685Y-84757128D01*
X140396689Y-84757128D01*
X140478492Y-84739740D01*
X140566752Y-84720980D01*
X140707084Y-84658500D01*
X140725585Y-84650263D01*
X140725587Y-84650262D01*
X140731615Y-84647578D01*
X140768224Y-84620980D01*
X140872269Y-84545387D01*
X140872271Y-84545385D01*
X140877613Y-84541504D01*
X140964157Y-84445387D01*
X140993948Y-84412301D01*
X140993949Y-84412300D01*
X140998367Y-84407393D01*
X141056102Y-84307393D01*
X141085295Y-84256830D01*
X141085296Y-84256829D01*
X141088599Y-84251107D01*
X141112951Y-84176158D01*
X141142325Y-84085754D01*
X141142325Y-84085753D01*
X141144365Y-84079475D01*
X141163229Y-83900000D01*
X141149318Y-83767651D01*
X141145055Y-83727089D01*
X141145055Y-83727088D01*
X141144365Y-83720525D01*
X141088599Y-83548893D01*
X140998367Y-83392607D01*
X140969551Y-83360603D01*
X140882035Y-83263407D01*
X140882034Y-83263406D01*
X140877613Y-83258496D01*
X140858793Y-83244822D01*
X140736957Y-83156303D01*
X140736956Y-83156302D01*
X140731615Y-83152422D01*
X140725587Y-83149738D01*
X140725585Y-83149737D01*
X140572783Y-83081705D01*
X140572781Y-83081705D01*
X140566752Y-83079020D01*
X140459876Y-83056303D01*
X140396689Y-83042872D01*
X140396685Y-83042872D01*
X140390232Y-83041500D01*
X140209768Y-83041500D01*
X140203315Y-83042872D01*
X140203311Y-83042872D01*
X140140124Y-83056303D01*
X140033248Y-83079020D01*
X140027219Y-83081704D01*
X140027217Y-83081705D01*
X139874416Y-83149737D01*
X139874414Y-83149738D01*
X139868386Y-83152422D01*
X139863045Y-83156302D01*
X139863044Y-83156303D01*
X139727731Y-83254613D01*
X139727729Y-83254615D01*
X139722387Y-83258496D01*
X139717966Y-83263406D01*
X139717965Y-83263407D01*
X139630450Y-83360603D01*
X139601633Y-83392607D01*
X139511401Y-83548893D01*
X139455635Y-83720525D01*
X139454945Y-83727088D01*
X139454945Y-83727089D01*
X139450682Y-83767651D01*
X139436771Y-83900000D01*
X134452718Y-83900000D01*
X134463229Y-83800000D01*
X134459558Y-83765075D01*
X134445055Y-83627089D01*
X134445055Y-83627088D01*
X134444365Y-83620525D01*
X134388599Y-83448893D01*
X134359404Y-83398325D01*
X134301668Y-83298325D01*
X134298367Y-83292607D01*
X134267654Y-83258496D01*
X134182035Y-83163407D01*
X134182034Y-83163406D01*
X134177613Y-83158496D01*
X134165558Y-83149737D01*
X134036957Y-83056303D01*
X134036956Y-83056302D01*
X134031615Y-83052422D01*
X134025587Y-83049738D01*
X134025585Y-83049737D01*
X133872783Y-82981705D01*
X133872781Y-82981705D01*
X133866752Y-82979020D01*
X133778492Y-82960260D01*
X133696689Y-82942872D01*
X133696685Y-82942872D01*
X133690232Y-82941500D01*
X133509768Y-82941500D01*
X133503315Y-82942872D01*
X133503311Y-82942872D01*
X133421508Y-82960260D01*
X133333248Y-82979020D01*
X133327219Y-82981704D01*
X133327217Y-82981705D01*
X133174416Y-83049737D01*
X133174414Y-83049738D01*
X133168386Y-83052422D01*
X133163045Y-83056302D01*
X133163044Y-83056303D01*
X133027731Y-83154613D01*
X133027729Y-83154615D01*
X133022387Y-83158496D01*
X133017966Y-83163406D01*
X133017965Y-83163407D01*
X132932347Y-83258496D01*
X132901633Y-83292607D01*
X132898332Y-83298325D01*
X132840597Y-83398325D01*
X132811401Y-83448893D01*
X132755635Y-83620525D01*
X132754945Y-83627088D01*
X132754945Y-83627089D01*
X132740442Y-83765075D01*
X132736771Y-83800000D01*
X127014050Y-83800000D01*
X127042332Y-83765075D01*
X127242620Y-83456657D01*
X127275256Y-83392607D01*
X127408075Y-83131934D01*
X127409573Y-83128994D01*
X127497475Y-82900000D01*
X127540175Y-82788764D01*
X127540176Y-82788762D01*
X127541361Y-82785674D01*
X127636541Y-82430459D01*
X127681003Y-82149737D01*
X127693555Y-82070489D01*
X127693556Y-82070481D01*
X127694069Y-82067241D01*
X127713315Y-81700000D01*
X127694069Y-81332759D01*
X127686678Y-81286089D01*
X127637057Y-80972802D01*
X127636541Y-80969541D01*
X127541361Y-80614326D01*
X127409573Y-80271006D01*
X127242620Y-79943343D01*
X127231317Y-79925937D01*
X127044134Y-79637700D01*
X127042332Y-79634925D01*
X126810902Y-79349133D01*
X126550867Y-79089098D01*
X126265075Y-78857668D01*
X126095551Y-78747578D01*
X125959427Y-78659178D01*
X125959424Y-78659176D01*
X125956658Y-78657380D01*
X125953724Y-78655885D01*
X125953717Y-78655881D01*
X125631934Y-78491925D01*
X125628994Y-78490427D01*
X125285674Y-78358639D01*
X124930459Y-78263459D01*
X124737442Y-78232888D01*
X124570489Y-78206445D01*
X124570481Y-78206444D01*
X124567241Y-78205931D01*
X124200000Y-78186685D01*
X123832759Y-78205931D01*
X123829519Y-78206444D01*
X123829511Y-78206445D01*
X123662558Y-78232888D01*
X123469541Y-78263459D01*
X123114326Y-78358639D01*
X122771006Y-78490427D01*
X122768066Y-78491925D01*
X122446284Y-78655881D01*
X122446277Y-78655885D01*
X122443343Y-78657380D01*
X122440577Y-78659176D01*
X122440574Y-78659178D01*
X122300911Y-78749876D01*
X122134925Y-78857668D01*
X121849133Y-79089098D01*
X121589098Y-79349133D01*
X121357668Y-79634925D01*
X121355866Y-79637700D01*
X121168684Y-79925937D01*
X121157380Y-79943343D01*
X120990427Y-80271006D01*
X120858639Y-80614326D01*
X120763459Y-80969541D01*
X120762943Y-80972802D01*
X120713323Y-81286089D01*
X120705931Y-81332759D01*
X120686685Y-81700000D01*
X120212366Y-81700000D01*
X120210584Y-81686374D01*
X120209654Y-81664216D01*
X120224760Y-81337482D01*
X120225834Y-81325893D01*
X120275167Y-80972236D01*
X120277306Y-80960796D01*
X120359059Y-80613204D01*
X120362244Y-80602011D01*
X120475717Y-80263451D01*
X120479921Y-80252598D01*
X120624157Y-79925937D01*
X120629337Y-79915532D01*
X120803105Y-79603559D01*
X120809221Y-79593682D01*
X121011023Y-79299088D01*
X121018037Y-79289800D01*
X121246160Y-79015081D01*
X121254001Y-79006481D01*
X121506481Y-78754001D01*
X121515081Y-78746160D01*
X121789800Y-78518037D01*
X121799088Y-78511023D01*
X122093682Y-78309221D01*
X122103559Y-78303105D01*
X122415532Y-78129337D01*
X122425937Y-78124157D01*
X122589268Y-78052039D01*
X122752602Y-77979919D01*
X122763447Y-77975719D01*
X123102013Y-77862243D01*
X123113201Y-77859060D01*
X123460796Y-77777306D01*
X123472236Y-77775167D01*
X123825893Y-77725834D01*
X123837481Y-77724760D01*
X123858611Y-77723783D01*
X124156816Y-77709997D01*
X124182015Y-77711362D01*
X124184858Y-77711805D01*
X124184860Y-77711805D01*
X124193730Y-77713186D01*
X124202632Y-77712022D01*
X124202635Y-77712022D01*
X124225251Y-77709064D01*
X124241589Y-77708000D01*
X135127524Y-77708000D01*
X135195645Y-77728002D01*
G37*
%TD.AperFunction*%
%TD*%
M02*
