M48
; DRILL file {KiCad (6.0.0)} date Mon Aug 29 11:56:58 2022
; FORMAT={-:-/ absolute / metric / decimal}
; #@! TF.CreationDate,2022-08-29T11:56:58+07:00
; #@! TF.GenerationSoftware,Kicad,Pcbnew,(6.0.0)
; #@! TF.FileFunction,Plated,1,4,PTH
FMAT,2
METRIC
; #@! TA.AperFunction,Plated,PTH,ComponentDrill
T1C0.200
; #@! TA.AperFunction,Plated,PTH,ViaDrill
T2C0.300
; #@! TA.AperFunction,Plated,PTH,ViaDrill
T3C0.400
; #@! TA.AperFunction,Plated,PTH,ComponentDrill
T4C0.600
; #@! TA.AperFunction,Plated,PTH,ComponentDrill
T5C1.000
; #@! TA.AperFunction,Plated,PTH,ComponentDrill
T6C3.000
%
G90
G05
T1
X131.1Y-106.4
X131.1Y-107.4
X131.1Y-108.4
X132.4Y-106.4
X132.4Y-107.4
X132.4Y-108.4
T2
X120.8Y-100.3
X121.5Y-92.3
X121.5Y-98.0
X122.8Y-98.9
X124.7Y-101.6
X130.027Y-97.327
X130.087Y-98.359
X130.7Y-92.1
X130.8Y-91.1
X133.5Y-81.6
X133.6Y-83.8
X134.074Y-88.496
X134.973Y-88.527
X135.6Y-103.0
X135.8Y-86.9
X136.1Y-78.0
X136.9Y-103.1
X138.0Y-102.8
X138.8Y-78.2
X138.9Y-79.2
X139.3Y-103.1
X139.9Y-101.7
X140.2Y-87.6
X140.3Y-83.9
X140.9Y-101.7
X144.3Y-78.2
X144.4Y-91.7
X144.4Y-92.7
X147.0Y-82.9
X148.8Y-82.9
X149.9Y-78.2
X153.5Y-96.8
X153.6Y-98.1
X154.2Y-85.5
X154.5Y-86.9
T3
X124.0Y-104.8
X124.0Y-105.7
X124.0Y-106.6
X124.4Y-99.8
X124.4Y-102.7
X124.4Y-104.0
X125.4Y-104.0
X126.3Y-93.6
X126.4Y-104.0
X127.4Y-104.0
X127.7Y-108.0
X128.4Y-104.0
X131.4Y-109.6
X132.1Y-86.9
X132.2Y-113.5
X136.8Y-88.3
X137.9Y-107.6
X138.0Y-109.4
X138.947Y-88.334
X142.1Y-103.0
X142.1Y-103.9
X142.1Y-104.8
X142.1Y-105.7
X142.1Y-106.6
X142.1Y-107.5
X143.496Y-95.125
X144.954Y-93.946
X145.0Y-99.8
X147.2Y-96.001
X147.2Y-97.6
X148.6Y-103.1
X148.6Y-104.0
X149.3Y-94.8
X149.3Y-98.719
X150.7Y-94.0
X150.7Y-100.5
X153.3Y-103.4
X153.3Y-104.3
X153.5Y-108.7
X154.2Y-103.4
X154.2Y-104.3
X154.4Y-108.7
X155.1Y-103.4
X155.1Y-104.3
X155.3Y-108.7
T5
X121.0Y-86.857
X121.0Y-89.143
X121.0Y-105.2
X121.0Y-107.486
X134.068Y-115.7
X136.354Y-115.7
X138.64Y-115.7
X140.926Y-115.7
X143.258Y-115.7
X145.558Y-115.7
X158.2Y-85.628
X158.2Y-87.914
X158.2Y-90.2
X158.4Y-104.2
X158.4Y-106.486
X158.4Y-108.772
T6
X124.2Y-81.7
X124.2Y-112.7
X155.2Y-81.7
X155.2Y-112.7
T4
G00X152.945Y-92.88
M15
G01X151.845Y-92.88
M16
G05
G00X152.945Y-101.52
M15
G01X151.845Y-101.52
M16
G05
G00X156.965Y-92.88
M15
G01X156.165Y-92.88
M16
G05
G00X156.965Y-101.52
M15
G01X156.165Y-101.52
M16
G05
T0
M30
