%TF.GenerationSoftware,KiCad,Pcbnew,(6.0.0)*%
%TF.CreationDate,2022-08-29T11:56:51+07:00*%
%TF.ProjectId,FlightBit,466c6967-6874-4426-9974-2e6b69636164,rev?*%
%TF.SameCoordinates,Original*%
%TF.FileFunction,Copper,L3,Inr*%
%TF.FilePolarity,Positive*%
%FSLAX46Y46*%
G04 Gerber Fmt 4.6, Leading zero omitted, Abs format (unit mm)*
G04 Created by KiCad (PCBNEW (6.0.0)) date 2022-08-29 11:56:51*
%MOMM*%
%LPD*%
G01*
G04 APERTURE LIST*
G04 Aperture macros list*
%AMRoundRect*
0 Rectangle with rounded corners*
0 $1 Rounding radius*
0 $2 $3 $4 $5 $6 $7 $8 $9 X,Y pos of 4 corners*
0 Add a 4 corners polygon primitive as box body*
4,1,4,$2,$3,$4,$5,$6,$7,$8,$9,$2,$3,0*
0 Add four circle primitives for the rounded corners*
1,1,$1+$1,$2,$3*
1,1,$1+$1,$4,$5*
1,1,$1+$1,$6,$7*
1,1,$1+$1,$8,$9*
0 Add four rect primitives between the rounded corners*
20,1,$1+$1,$2,$3,$4,$5,0*
20,1,$1+$1,$4,$5,$6,$7,0*
20,1,$1+$1,$6,$7,$8,$9,0*
20,1,$1+$1,$8,$9,$2,$3,0*%
G04 Aperture macros list end*
%TA.AperFunction,ComponentPad*%
%ADD10RoundRect,0.500000X-0.500000X-0.500000X0.500000X-0.500000X0.500000X0.500000X-0.500000X0.500000X0*%
%TD*%
%TA.AperFunction,ComponentPad*%
%ADD11RoundRect,0.500000X-0.500000X0.500000X-0.500000X-0.500000X0.500000X-0.500000X0.500000X0.500000X0*%
%TD*%
%TA.AperFunction,ComponentPad*%
%ADD12O,2.000000X0.900000*%
%TD*%
%TA.AperFunction,ComponentPad*%
%ADD13O,1.700000X0.900000*%
%TD*%
%TA.AperFunction,ComponentPad*%
%ADD14C,6.000000*%
%TD*%
%TA.AperFunction,ComponentPad*%
%ADD15RoundRect,0.500000X0.500000X0.500000X-0.500000X0.500000X-0.500000X-0.500000X0.500000X-0.500000X0*%
%TD*%
%TA.AperFunction,ComponentPad*%
%ADD16C,0.500000*%
%TD*%
%TA.AperFunction,ViaPad*%
%ADD17C,0.700000*%
%TD*%
%TA.AperFunction,ViaPad*%
%ADD18C,0.800000*%
%TD*%
%TA.AperFunction,Conductor*%
%ADD19C,0.250000*%
%TD*%
G04 APERTURE END LIST*
D10*
%TO.N,GND*%
%TO.C,J3*%
X158400000Y-108772000D03*
%TO.N,+5V*%
X158400000Y-106486000D03*
%TO.N,/PPM*%
X158400000Y-104200000D03*
%TD*%
D11*
%TO.N,GNDPWR*%
%TO.C,J4*%
X134068000Y-115700000D03*
%TO.N,/VBAT*%
X136354000Y-115700000D03*
%TO.N,/TIM3_S1*%
X138640000Y-115700000D03*
%TO.N,/TIM3_S2*%
X140926000Y-115700000D03*
%TO.N,/TIM3_S3*%
X143258000Y-115700000D03*
%TO.N,/TIM3_S4*%
X145558000Y-115700000D03*
%TD*%
D12*
%TO.N,GND*%
%TO.C,J2*%
X152395000Y-92880000D03*
X152395000Y-101520000D03*
D13*
X156565000Y-92880000D03*
X156565000Y-101520000D03*
%TD*%
D14*
%TO.N,N/C*%
%TO.C,H2*%
X124200000Y-81700000D03*
%TD*%
%TO.N,N/C*%
%TO.C,H4*%
X124200000Y-112700000D03*
%TD*%
%TO.N,N/C*%
%TO.C,H3*%
X155200000Y-81700000D03*
%TD*%
D15*
%TO.N,GND*%
%TO.C,J1*%
X158200000Y-85628000D03*
%TO.N,+5V*%
X158200000Y-87914000D03*
%TO.N,/SBUS*%
X158200000Y-90200000D03*
%TD*%
D10*
%TO.N,GND*%
%TO.C,J5*%
X121000000Y-89143000D03*
%TO.N,+5V*%
X121000000Y-86857000D03*
%TD*%
D16*
%TO.N,N/C*%
%TO.C,U3*%
X132400000Y-106400000D03*
X132400000Y-107400000D03*
X131100000Y-107400000D03*
X131100000Y-106400000D03*
X132400000Y-108400000D03*
X131100000Y-108400000D03*
%TD*%
D14*
%TO.N,N/C*%
%TO.C,H1*%
X155200000Y-112700000D03*
%TD*%
D15*
%TO.N,GND*%
%TO.C,J6*%
X121000000Y-105200000D03*
%TO.N,+3V3*%
X121000000Y-107486000D03*
%TD*%
D17*
%TO.N,+3V3*%
X122800000Y-98900000D03*
X140900000Y-101700000D03*
X154200000Y-85500000D03*
X134074099Y-88495612D03*
X140200000Y-87600000D03*
X120800000Y-100300000D03*
X130086620Y-98359491D03*
X121500000Y-98000000D03*
X130700000Y-92100000D03*
D18*
X155300000Y-108700000D03*
D17*
X133500000Y-81600000D03*
D18*
X153500000Y-108700000D03*
D17*
X138900000Y-79200000D03*
X147000000Y-82900000D03*
D18*
X154400000Y-108700000D03*
D17*
X144400000Y-91700000D03*
%TO.N,GND*%
X154500000Y-86900000D03*
X124700000Y-101600000D03*
D18*
X154200000Y-103400000D03*
D17*
X138800000Y-78200000D03*
X136100000Y-78000000D03*
D18*
X153300000Y-103400000D03*
D17*
X144300000Y-78200000D03*
D18*
X124400000Y-99800000D03*
D17*
X140300000Y-83900000D03*
X139900000Y-101700000D03*
X121500000Y-92300000D03*
D18*
X150700000Y-100500000D03*
D17*
X149900000Y-78200000D03*
X135800000Y-86900000D03*
D18*
X155100000Y-104300000D03*
X126300000Y-93600000D03*
X154200000Y-104300000D03*
X155100000Y-103400000D03*
D17*
X144400000Y-92700000D03*
D18*
X153300000Y-104300000D03*
D17*
X130026944Y-97326944D03*
D18*
X150700000Y-94000000D03*
D17*
X134973056Y-88526944D03*
X130800000Y-91100000D03*
X133600000Y-83800000D03*
D18*
%TO.N,/VIN*%
X127700000Y-108000000D03*
X137900000Y-107600000D03*
%TO.N,GNDPWR*%
X127400000Y-104000000D03*
X142100000Y-106600000D03*
X124000000Y-105700000D03*
X142100000Y-105700000D03*
X142100000Y-103900000D03*
X142100000Y-104800000D03*
X142100000Y-107500000D03*
X126400000Y-104000000D03*
X128400000Y-104000000D03*
X124000000Y-106600000D03*
X124000000Y-104800000D03*
X142100000Y-103000000D03*
X124400000Y-104000000D03*
X125400000Y-104000000D03*
%TO.N,/BST*%
X131400000Y-109600000D03*
X138000000Y-109400000D03*
%TO.N,+5V*%
X148600000Y-104000000D03*
D17*
X148800000Y-82900000D03*
D18*
X132100000Y-86900000D03*
X148600000Y-103100000D03*
X145000000Y-99800000D03*
%TO.N,/VBAT*%
X124400000Y-102700000D03*
X132200000Y-113500000D03*
D17*
%TO.N,/D-*%
X153500000Y-96800000D03*
X153600000Y-98100000D03*
D18*
%TO.N,VBUS*%
X149300000Y-94800000D03*
X149300000Y-98719500D03*
D17*
%TO.N,/TIM3_S1*%
X135600000Y-103000000D03*
%TO.N,/TIM3_S2*%
X136900000Y-103100000D03*
%TO.N,/TIM3_S3*%
X138000000Y-102800000D03*
%TO.N,/TIM3_S4*%
X139300000Y-103100000D03*
D18*
%TO.N,/UART1_RX*%
X144953722Y-93946278D03*
X143496278Y-95124501D03*
%TO.N,/IMU_SDA*%
X138947408Y-88334260D03*
X136800000Y-88300000D03*
%TO.N,/USB_DP*%
X147200000Y-96000500D03*
X147200000Y-97600000D03*
%TD*%
D19*
%TO.N,/VBAT*%
X132200000Y-113500000D02*
X129692893Y-116007107D01*
X124100000Y-102700000D02*
X124400000Y-102700000D01*
X121600000Y-109200000D02*
X122100000Y-109200000D01*
X120600000Y-113792893D02*
X120600000Y-110200000D01*
X123100000Y-108200000D02*
X123100000Y-103700000D01*
X128985786Y-116300000D02*
X123107107Y-116300000D01*
X122753553Y-116153553D02*
X120746446Y-114146446D01*
X122753553Y-116153553D02*
G75*
G03*
X123107107Y-116300000I353553J353550D01*
G01*
X123100000Y-108200000D02*
G75*
G02*
X122100000Y-109200000I-999999J-1D01*
G01*
X121600000Y-109200000D02*
G75*
G03*
X120600000Y-110200000I-1J-999999D01*
G01*
X120600001Y-113792893D02*
G75*
G03*
X120746446Y-114146446I500001J0D01*
G01*
X124100000Y-102700000D02*
G75*
G03*
X123100000Y-103700000I-1J-999999D01*
G01*
X129692893Y-116007107D02*
G75*
G02*
X128985786Y-116300000I-707106J707106D01*
G01*
%TO.N,/TIM3_S1*%
X138900000Y-115440000D02*
X138640000Y-115700000D01*
X138900000Y-106200000D02*
X138900000Y-115440000D01*
X135700000Y-103000000D02*
X138900000Y-106200000D01*
X135600000Y-103000000D02*
X135700000Y-103000000D01*
%TO.N,/TIM3_S2*%
X140926000Y-113426000D02*
X140926000Y-115700000D01*
X136900000Y-103100000D02*
X137153888Y-103100000D01*
X139700000Y-105646112D02*
X139700000Y-112200000D01*
X139700000Y-112200000D02*
X140926000Y-113426000D01*
X137153888Y-103100000D02*
X139700000Y-105646112D01*
%TO.N,/TIM3_S3*%
X138000000Y-102800000D02*
X140500000Y-105300000D01*
X140500000Y-105300000D02*
X140500000Y-111800000D01*
X143258000Y-114558000D02*
X143258000Y-115700000D01*
X140500000Y-111800000D02*
X143258000Y-114558000D01*
%TO.N,/TIM3_S4*%
X141300000Y-111442000D02*
X145558000Y-115700000D01*
X139300000Y-103100000D02*
X141300000Y-105100000D01*
X141300000Y-105100000D02*
X141300000Y-111442000D01*
%TD*%
%TA.AperFunction,Conductor*%
%TO.N,GND*%
G36*
X155170057Y-77709500D02*
G01*
X155184858Y-77711805D01*
X155184861Y-77711805D01*
X155193730Y-77713186D01*
X155213626Y-77710584D01*
X155235784Y-77709654D01*
X155562518Y-77724760D01*
X155574107Y-77725834D01*
X155927764Y-77775167D01*
X155939204Y-77777306D01*
X156286799Y-77859060D01*
X156297987Y-77862243D01*
X156636553Y-77975719D01*
X156647398Y-77979919D01*
X156810732Y-78052039D01*
X156974063Y-78124157D01*
X156984468Y-78129337D01*
X157296441Y-78303105D01*
X157306318Y-78309221D01*
X157600912Y-78511023D01*
X157610200Y-78518037D01*
X157884919Y-78746160D01*
X157893519Y-78754001D01*
X158145999Y-79006481D01*
X158153840Y-79015081D01*
X158381963Y-79289800D01*
X158388977Y-79299088D01*
X158590779Y-79593682D01*
X158596895Y-79603559D01*
X158770663Y-79915532D01*
X158775843Y-79925937D01*
X158920079Y-80252598D01*
X158924283Y-80263451D01*
X159037756Y-80602011D01*
X159040941Y-80613204D01*
X159122694Y-80960796D01*
X159124833Y-80972236D01*
X159174166Y-81325893D01*
X159175240Y-81337482D01*
X159190003Y-81656816D01*
X159188638Y-81682015D01*
X159186814Y-81693730D01*
X159187978Y-81702632D01*
X159187978Y-81702635D01*
X159190936Y-81725251D01*
X159192000Y-81741589D01*
X159192000Y-86337440D01*
X159171998Y-86405561D01*
X159118342Y-86452054D01*
X159048068Y-86462158D01*
X159017578Y-86453764D01*
X159013470Y-86452054D01*
X158996284Y-86444900D01*
X158990248Y-86443683D01*
X158990245Y-86443682D01*
X158806996Y-86406733D01*
X158806995Y-86406733D01*
X158802408Y-86405808D01*
X158796328Y-86405500D01*
X157603672Y-86405500D01*
X157597592Y-86405808D01*
X157593005Y-86406733D01*
X157593004Y-86406733D01*
X157409755Y-86443682D01*
X157409752Y-86443683D01*
X157403716Y-86444900D01*
X157221127Y-86520905D01*
X157216008Y-86524332D01*
X157216004Y-86524334D01*
X157061901Y-86627496D01*
X157061896Y-86627500D01*
X157056777Y-86630927D01*
X156916927Y-86770777D01*
X156913500Y-86775896D01*
X156913496Y-86775901D01*
X156810334Y-86930004D01*
X156810332Y-86930008D01*
X156806905Y-86935127D01*
X156730900Y-87117716D01*
X156729683Y-87123752D01*
X156729682Y-87123755D01*
X156698727Y-87277279D01*
X156691808Y-87311592D01*
X156691500Y-87317672D01*
X156691500Y-88510328D01*
X156691808Y-88516408D01*
X156692733Y-88520995D01*
X156692733Y-88520996D01*
X156722480Y-88668523D01*
X156730900Y-88710284D01*
X156806905Y-88892873D01*
X156810332Y-88897992D01*
X156810334Y-88897996D01*
X156869855Y-88986907D01*
X156891129Y-89054641D01*
X156869855Y-89127093D01*
X156810334Y-89216004D01*
X156810332Y-89216008D01*
X156806905Y-89221127D01*
X156804536Y-89226818D01*
X156798471Y-89241388D01*
X156730900Y-89403716D01*
X156691808Y-89597592D01*
X156691500Y-89603672D01*
X156691500Y-90796328D01*
X156691808Y-90802408D01*
X156692733Y-90806995D01*
X156692733Y-90806996D01*
X156721515Y-90949737D01*
X156730900Y-90996284D01*
X156806905Y-91178873D01*
X156810332Y-91183992D01*
X156810334Y-91183996D01*
X156913496Y-91338099D01*
X156913500Y-91338104D01*
X156916927Y-91343223D01*
X157056777Y-91483073D01*
X157061896Y-91486500D01*
X157061901Y-91486504D01*
X157216004Y-91589666D01*
X157216008Y-91589668D01*
X157221127Y-91593095D01*
X157403716Y-91669100D01*
X157409752Y-91670317D01*
X157409755Y-91670318D01*
X157593004Y-91707267D01*
X157597592Y-91708192D01*
X157603672Y-91708500D01*
X158796328Y-91708500D01*
X158802408Y-91708192D01*
X158806996Y-91707267D01*
X158990245Y-91670318D01*
X158990248Y-91670317D01*
X158996284Y-91669100D01*
X159017578Y-91660236D01*
X159088154Y-91652523D01*
X159151697Y-91684191D01*
X159188031Y-91745186D01*
X159192000Y-91776560D01*
X159192000Y-102576095D01*
X159171998Y-102644216D01*
X159118342Y-102690709D01*
X159041096Y-102699609D01*
X159002408Y-102691808D01*
X158996328Y-102691500D01*
X157803672Y-102691500D01*
X157797592Y-102691808D01*
X157793005Y-102692733D01*
X157793004Y-102692733D01*
X157609755Y-102729682D01*
X157609752Y-102729683D01*
X157603716Y-102730900D01*
X157421127Y-102806905D01*
X157416008Y-102810332D01*
X157416004Y-102810334D01*
X157261901Y-102913496D01*
X157261896Y-102913500D01*
X157256777Y-102916927D01*
X157116927Y-103056777D01*
X157113500Y-103061896D01*
X157113496Y-103061901D01*
X157010334Y-103216004D01*
X157010332Y-103216008D01*
X157006905Y-103221127D01*
X156930900Y-103403716D01*
X156929683Y-103409752D01*
X156929682Y-103409755D01*
X156901404Y-103550000D01*
X156891808Y-103597592D01*
X156891500Y-103603672D01*
X156891500Y-104796328D01*
X156891808Y-104802408D01*
X156892733Y-104806995D01*
X156892733Y-104806996D01*
X156908599Y-104885681D01*
X156930900Y-104996284D01*
X157006905Y-105178873D01*
X157010332Y-105183992D01*
X157010334Y-105183996D01*
X157069855Y-105272907D01*
X157091129Y-105340641D01*
X157069855Y-105413093D01*
X157010334Y-105502004D01*
X157010332Y-105502008D01*
X157006905Y-105507127D01*
X156930900Y-105689716D01*
X156929683Y-105695752D01*
X156929682Y-105695755D01*
X156892733Y-105879004D01*
X156891808Y-105883592D01*
X156891500Y-105889672D01*
X156891500Y-107082328D01*
X156891808Y-107088408D01*
X156892733Y-107092995D01*
X156892733Y-107092996D01*
X156929221Y-107273955D01*
X156930900Y-107282284D01*
X157006905Y-107464873D01*
X157010332Y-107469992D01*
X157010334Y-107469996D01*
X157113496Y-107624099D01*
X157113500Y-107624104D01*
X157116927Y-107629223D01*
X157256777Y-107769073D01*
X157261896Y-107772500D01*
X157261901Y-107772504D01*
X157416004Y-107875666D01*
X157416008Y-107875668D01*
X157421127Y-107879095D01*
X157603716Y-107955100D01*
X157609752Y-107956317D01*
X157609755Y-107956318D01*
X157789364Y-107992533D01*
X157797592Y-107994192D01*
X157803672Y-107994500D01*
X158996328Y-107994500D01*
X159002408Y-107994192D01*
X159041096Y-107986391D01*
X159111825Y-107992533D01*
X159168006Y-108035940D01*
X159192000Y-108109905D01*
X159192000Y-112650672D01*
X159190500Y-112670056D01*
X159186814Y-112693730D01*
X159188796Y-112708882D01*
X159189416Y-112713626D01*
X159190346Y-112735784D01*
X159175240Y-113062518D01*
X159174166Y-113074107D01*
X159124833Y-113427764D01*
X159122694Y-113439204D01*
X159096349Y-113551218D01*
X159040941Y-113786796D01*
X159037757Y-113797987D01*
X158928623Y-114123601D01*
X158924283Y-114136549D01*
X158920081Y-114147398D01*
X158865343Y-114271367D01*
X158775843Y-114474063D01*
X158770663Y-114484468D01*
X158596895Y-114796441D01*
X158590779Y-114806318D01*
X158388977Y-115100912D01*
X158381963Y-115110200D01*
X158153840Y-115384919D01*
X158145999Y-115393519D01*
X157893519Y-115645999D01*
X157884919Y-115653840D01*
X157610200Y-115881963D01*
X157600912Y-115888977D01*
X157306318Y-116090779D01*
X157296441Y-116096895D01*
X156984468Y-116270663D01*
X156974063Y-116275843D01*
X156903509Y-116306996D01*
X156647398Y-116420081D01*
X156636553Y-116424281D01*
X156358192Y-116517578D01*
X156297989Y-116537756D01*
X156286799Y-116540940D01*
X156086059Y-116588154D01*
X155939204Y-116622694D01*
X155927764Y-116624833D01*
X155574107Y-116674166D01*
X155562519Y-116675240D01*
X155541389Y-116676217D01*
X155243184Y-116690003D01*
X155217985Y-116688638D01*
X155215142Y-116688195D01*
X155215140Y-116688195D01*
X155206270Y-116686814D01*
X155197368Y-116687978D01*
X155197365Y-116687978D01*
X155174749Y-116690936D01*
X155158411Y-116692000D01*
X147134560Y-116692000D01*
X147066439Y-116671998D01*
X147019946Y-116618342D01*
X147009842Y-116548068D01*
X147018236Y-116517578D01*
X147024732Y-116501972D01*
X147027100Y-116496284D01*
X147034168Y-116461233D01*
X147065267Y-116306996D01*
X147065267Y-116306995D01*
X147066192Y-116302408D01*
X147066500Y-116296328D01*
X147066500Y-115103672D01*
X147066192Y-115097592D01*
X147056771Y-115050867D01*
X147028318Y-114909755D01*
X147028317Y-114909752D01*
X147027100Y-114903716D01*
X146951095Y-114721127D01*
X146947668Y-114716008D01*
X146947666Y-114716004D01*
X146844504Y-114561901D01*
X146844500Y-114561896D01*
X146841073Y-114556777D01*
X146701223Y-114416927D01*
X146696104Y-114413500D01*
X146696099Y-114413496D01*
X146541996Y-114310334D01*
X146541992Y-114310332D01*
X146536873Y-114306905D01*
X146531180Y-114304535D01*
X146451499Y-114271367D01*
X146354284Y-114230900D01*
X146348248Y-114229683D01*
X146348245Y-114229682D01*
X146164996Y-114192733D01*
X146164995Y-114192733D01*
X146160408Y-114191808D01*
X146154328Y-114191500D01*
X144997595Y-114191500D01*
X144929474Y-114171498D01*
X144908500Y-114154595D01*
X143453905Y-112700000D01*
X151686685Y-112700000D01*
X151705931Y-113067241D01*
X151706444Y-113070481D01*
X151706445Y-113070489D01*
X151732279Y-113233595D01*
X151763459Y-113430459D01*
X151858639Y-113785674D01*
X151990427Y-114128994D01*
X151991925Y-114131934D01*
X152151647Y-114445405D01*
X152157380Y-114456657D01*
X152159176Y-114459423D01*
X152159178Y-114459426D01*
X152175449Y-114484481D01*
X152357668Y-114765075D01*
X152589098Y-115050867D01*
X152849133Y-115310902D01*
X153134925Y-115542332D01*
X153175987Y-115568998D01*
X153320598Y-115662909D01*
X153443342Y-115742620D01*
X153446276Y-115744115D01*
X153446283Y-115744119D01*
X153513972Y-115778608D01*
X153771006Y-115909573D01*
X154114326Y-116041361D01*
X154469541Y-116136541D01*
X154662558Y-116167112D01*
X154829511Y-116193555D01*
X154829519Y-116193556D01*
X154832759Y-116194069D01*
X155200000Y-116213315D01*
X155567241Y-116194069D01*
X155570481Y-116193556D01*
X155570489Y-116193555D01*
X155737442Y-116167112D01*
X155930459Y-116136541D01*
X156285674Y-116041361D01*
X156628994Y-115909573D01*
X156886028Y-115778608D01*
X156953717Y-115744119D01*
X156953724Y-115744115D01*
X156956658Y-115742620D01*
X157079403Y-115662909D01*
X157224013Y-115568998D01*
X157265075Y-115542332D01*
X157550867Y-115310902D01*
X157810902Y-115050867D01*
X158042332Y-114765075D01*
X158224551Y-114484481D01*
X158240822Y-114459426D01*
X158240824Y-114459423D01*
X158242620Y-114456657D01*
X158248354Y-114445405D01*
X158408075Y-114131934D01*
X158409573Y-114128994D01*
X158541361Y-113785674D01*
X158636541Y-113430459D01*
X158667721Y-113233595D01*
X158693555Y-113070489D01*
X158693556Y-113070481D01*
X158694069Y-113067241D01*
X158713315Y-112700000D01*
X158694069Y-112332759D01*
X158636541Y-111969541D01*
X158541361Y-111614326D01*
X158409573Y-111271006D01*
X158350051Y-111154188D01*
X158244119Y-110946284D01*
X158244115Y-110946277D01*
X158242620Y-110943343D01*
X158042332Y-110634925D01*
X157810902Y-110349133D01*
X157550867Y-110089098D01*
X157265075Y-109857668D01*
X157084687Y-109740523D01*
X156959427Y-109659178D01*
X156959424Y-109659176D01*
X156956658Y-109657380D01*
X156953724Y-109655885D01*
X156953717Y-109655881D01*
X156631934Y-109491925D01*
X156628994Y-109490427D01*
X156285674Y-109358639D01*
X156211060Y-109338646D01*
X156169847Y-109327603D01*
X156109224Y-109290651D01*
X156078203Y-109226790D01*
X156086631Y-109156296D01*
X156093339Y-109142896D01*
X156131223Y-109077279D01*
X156131224Y-109077278D01*
X156134527Y-109071556D01*
X156193542Y-108889928D01*
X156194553Y-108880314D01*
X156212814Y-108706565D01*
X156213504Y-108700000D01*
X156196882Y-108541852D01*
X156194232Y-108516635D01*
X156194232Y-108516633D01*
X156193542Y-108510072D01*
X156134527Y-108328444D01*
X156039040Y-108163056D01*
X155950042Y-108064213D01*
X155915675Y-108026045D01*
X155915674Y-108026044D01*
X155911253Y-108021134D01*
X155756752Y-107908882D01*
X155750724Y-107906198D01*
X155750722Y-107906197D01*
X155588319Y-107833891D01*
X155588318Y-107833891D01*
X155582288Y-107831206D01*
X155482861Y-107810072D01*
X155401944Y-107792872D01*
X155401939Y-107792872D01*
X155395487Y-107791500D01*
X155204513Y-107791500D01*
X155198061Y-107792872D01*
X155198056Y-107792872D01*
X155117139Y-107810072D01*
X155017712Y-107831206D01*
X155011682Y-107833891D01*
X155011681Y-107833891D01*
X154982507Y-107846880D01*
X154901248Y-107883059D01*
X154830882Y-107892493D01*
X154798754Y-107883060D01*
X154717493Y-107846880D01*
X154688319Y-107833891D01*
X154688318Y-107833891D01*
X154682288Y-107831206D01*
X154582861Y-107810072D01*
X154501944Y-107792872D01*
X154501939Y-107792872D01*
X154495487Y-107791500D01*
X154304513Y-107791500D01*
X154298061Y-107792872D01*
X154298056Y-107792872D01*
X154217139Y-107810072D01*
X154117712Y-107831206D01*
X154111682Y-107833891D01*
X154111681Y-107833891D01*
X154082507Y-107846880D01*
X154001248Y-107883059D01*
X153930882Y-107892493D01*
X153898754Y-107883060D01*
X153817493Y-107846880D01*
X153788319Y-107833891D01*
X153788318Y-107833891D01*
X153782288Y-107831206D01*
X153682861Y-107810072D01*
X153601944Y-107792872D01*
X153601939Y-107792872D01*
X153595487Y-107791500D01*
X153404513Y-107791500D01*
X153398061Y-107792872D01*
X153398056Y-107792872D01*
X153317139Y-107810072D01*
X153217712Y-107831206D01*
X153211682Y-107833891D01*
X153211681Y-107833891D01*
X153049278Y-107906197D01*
X153049276Y-107906198D01*
X153043248Y-107908882D01*
X152888747Y-108021134D01*
X152884326Y-108026044D01*
X152884325Y-108026045D01*
X152849959Y-108064213D01*
X152760960Y-108163056D01*
X152665473Y-108328444D01*
X152606458Y-108510072D01*
X152605768Y-108516633D01*
X152605768Y-108516635D01*
X152603118Y-108541852D01*
X152586496Y-108700000D01*
X152587186Y-108706565D01*
X152605448Y-108880314D01*
X152606458Y-108889928D01*
X152665473Y-109071556D01*
X152760960Y-109236944D01*
X152765378Y-109241851D01*
X152765379Y-109241852D01*
X152871602Y-109359825D01*
X152888747Y-109378866D01*
X153043248Y-109491118D01*
X153049276Y-109493802D01*
X153049278Y-109493803D01*
X153217712Y-109568794D01*
X153216835Y-109570763D01*
X153267141Y-109605168D01*
X153294772Y-109670567D01*
X153282659Y-109740523D01*
X153238217Y-109790590D01*
X153134925Y-109857668D01*
X152849133Y-110089098D01*
X152589098Y-110349133D01*
X152357668Y-110634925D01*
X152157380Y-110943343D01*
X152155885Y-110946277D01*
X152155881Y-110946284D01*
X152049949Y-111154188D01*
X151990427Y-111271006D01*
X151858639Y-111614326D01*
X151763459Y-111969541D01*
X151705931Y-112332759D01*
X151686685Y-112700000D01*
X143453905Y-112700000D01*
X141970405Y-111216500D01*
X141936379Y-111154188D01*
X141933500Y-111127405D01*
X141933500Y-108534500D01*
X141953502Y-108466379D01*
X142007158Y-108419886D01*
X142059500Y-108408500D01*
X142195487Y-108408500D01*
X142201939Y-108407128D01*
X142201944Y-108407128D01*
X142295521Y-108387237D01*
X142382288Y-108368794D01*
X142458800Y-108334729D01*
X142550722Y-108293803D01*
X142550724Y-108293802D01*
X142556752Y-108291118D01*
X142573616Y-108278866D01*
X142638583Y-108231664D01*
X142711253Y-108178866D01*
X142839040Y-108036944D01*
X142922439Y-107892493D01*
X142931223Y-107877279D01*
X142931224Y-107877278D01*
X142934527Y-107871556D01*
X142993542Y-107689928D01*
X143013504Y-107500000D01*
X143010368Y-107470166D01*
X142994232Y-107316635D01*
X142994232Y-107316633D01*
X142993542Y-107310072D01*
X142934527Y-107128444D01*
X142925611Y-107113001D01*
X142908872Y-107044007D01*
X142925611Y-106986998D01*
X142931224Y-106977277D01*
X142934527Y-106971556D01*
X142993542Y-106789928D01*
X142998547Y-106742314D01*
X143012814Y-106606565D01*
X143013504Y-106600000D01*
X143009163Y-106558699D01*
X142994232Y-106416635D01*
X142994232Y-106416633D01*
X142993542Y-106410072D01*
X142934527Y-106228444D01*
X142925611Y-106213001D01*
X142908872Y-106144007D01*
X142925611Y-106086998D01*
X142931224Y-106077277D01*
X142934527Y-106071556D01*
X142993542Y-105889928D01*
X142996468Y-105862095D01*
X143012814Y-105706565D01*
X143013504Y-105700000D01*
X143006941Y-105637554D01*
X142994232Y-105516635D01*
X142994232Y-105516633D01*
X142993542Y-105510072D01*
X142934527Y-105328444D01*
X142925611Y-105313001D01*
X142908872Y-105244007D01*
X142925611Y-105186998D01*
X142927345Y-105183996D01*
X142934527Y-105171556D01*
X142993542Y-104989928D01*
X143013504Y-104800000D01*
X143001181Y-104682749D01*
X142994232Y-104616635D01*
X142994232Y-104616633D01*
X142993542Y-104610072D01*
X142934527Y-104428444D01*
X142925611Y-104413001D01*
X142908872Y-104344007D01*
X142925611Y-104286998D01*
X142931224Y-104277277D01*
X142934527Y-104271556D01*
X142993542Y-104089928D01*
X143002994Y-104000000D01*
X147686496Y-104000000D01*
X147687186Y-104006565D01*
X147696608Y-104096206D01*
X147706458Y-104189928D01*
X147765473Y-104371556D01*
X147860960Y-104536944D01*
X147988747Y-104678866D01*
X148087843Y-104750864D01*
X148100000Y-104759696D01*
X148143248Y-104791118D01*
X148149276Y-104793802D01*
X148149278Y-104793803D01*
X148311681Y-104866109D01*
X148317712Y-104868794D01*
X148397159Y-104885681D01*
X148498056Y-104907128D01*
X148498061Y-104907128D01*
X148504513Y-104908500D01*
X148695487Y-104908500D01*
X148701939Y-104907128D01*
X148701944Y-104907128D01*
X148802841Y-104885681D01*
X148882288Y-104868794D01*
X148888319Y-104866109D01*
X149050722Y-104793803D01*
X149050724Y-104793802D01*
X149056752Y-104791118D01*
X149100001Y-104759696D01*
X149112157Y-104750864D01*
X149211253Y-104678866D01*
X149339040Y-104536944D01*
X149434527Y-104371556D01*
X149493542Y-104189928D01*
X149503393Y-104096206D01*
X149512814Y-104006565D01*
X149513504Y-104000000D01*
X149494833Y-103822352D01*
X149494232Y-103816635D01*
X149494232Y-103816633D01*
X149493542Y-103810072D01*
X149434527Y-103628444D01*
X149425611Y-103613001D01*
X149408872Y-103544007D01*
X149425611Y-103486998D01*
X149431224Y-103477277D01*
X149434527Y-103471556D01*
X149493542Y-103289928D01*
X149503393Y-103196206D01*
X149512814Y-103106565D01*
X149513504Y-103100000D01*
X149506433Y-103032725D01*
X149494232Y-102916635D01*
X149494232Y-102916633D01*
X149493542Y-102910072D01*
X149434527Y-102728444D01*
X149339040Y-102563056D01*
X149333703Y-102557128D01*
X149215675Y-102426045D01*
X149215674Y-102426044D01*
X149211253Y-102421134D01*
X149075222Y-102322301D01*
X149062094Y-102312763D01*
X149062093Y-102312762D01*
X149056752Y-102308882D01*
X149050724Y-102306198D01*
X149050722Y-102306197D01*
X148888319Y-102233891D01*
X148888318Y-102233891D01*
X148882288Y-102231206D01*
X148784028Y-102210320D01*
X148701944Y-102192872D01*
X148701939Y-102192872D01*
X148695487Y-102191500D01*
X148504513Y-102191500D01*
X148498061Y-102192872D01*
X148498056Y-102192872D01*
X148415972Y-102210320D01*
X148317712Y-102231206D01*
X148311682Y-102233891D01*
X148311681Y-102233891D01*
X148149278Y-102306197D01*
X148149276Y-102306198D01*
X148143248Y-102308882D01*
X148137907Y-102312762D01*
X148137906Y-102312763D01*
X148124778Y-102322301D01*
X147988747Y-102421134D01*
X147984326Y-102426044D01*
X147984325Y-102426045D01*
X147866298Y-102557128D01*
X147860960Y-102563056D01*
X147765473Y-102728444D01*
X147706458Y-102910072D01*
X147705768Y-102916633D01*
X147705768Y-102916635D01*
X147693567Y-103032725D01*
X147686496Y-103100000D01*
X147687186Y-103106565D01*
X147696608Y-103196206D01*
X147706458Y-103289928D01*
X147765473Y-103471556D01*
X147768776Y-103477277D01*
X147774389Y-103486998D01*
X147791128Y-103555993D01*
X147774390Y-103613000D01*
X147765473Y-103628444D01*
X147706458Y-103810072D01*
X147705768Y-103816633D01*
X147705768Y-103816635D01*
X147705167Y-103822352D01*
X147686496Y-104000000D01*
X143002994Y-104000000D01*
X143013504Y-103900000D01*
X143011998Y-103885673D01*
X142994232Y-103716635D01*
X142994232Y-103716633D01*
X142993542Y-103710072D01*
X142934527Y-103528444D01*
X142925611Y-103513001D01*
X142908872Y-103444007D01*
X142925611Y-103386998D01*
X142931224Y-103377277D01*
X142934527Y-103371556D01*
X142993542Y-103189928D01*
X143013504Y-103000000D01*
X143004052Y-102910072D01*
X142994232Y-102816635D01*
X142994232Y-102816633D01*
X142993542Y-102810072D01*
X142934527Y-102628444D01*
X142913837Y-102592607D01*
X142894145Y-102558500D01*
X142839040Y-102463056D01*
X142796538Y-102415852D01*
X142715675Y-102326045D01*
X142715674Y-102326044D01*
X142711253Y-102321134D01*
X142556752Y-102208882D01*
X142550724Y-102206198D01*
X142550722Y-102206197D01*
X142388319Y-102133891D01*
X142388318Y-102133891D01*
X142382288Y-102131206D01*
X142288887Y-102111353D01*
X142201944Y-102092872D01*
X142201939Y-102092872D01*
X142195487Y-102091500D01*
X142004513Y-102091500D01*
X141998061Y-102092872D01*
X141998056Y-102092872D01*
X141898613Y-102114010D01*
X141864532Y-102121254D01*
X141793742Y-102115852D01*
X141737110Y-102073035D01*
X141712616Y-102006398D01*
X141718503Y-101959071D01*
X141742325Y-101885754D01*
X141742325Y-101885753D01*
X141744365Y-101879475D01*
X141763229Y-101700000D01*
X141744365Y-101520525D01*
X141688599Y-101348893D01*
X141598367Y-101192607D01*
X141578186Y-101170193D01*
X141482035Y-101063407D01*
X141482034Y-101063406D01*
X141477613Y-101058496D01*
X141466282Y-101050263D01*
X141336957Y-100956303D01*
X141336956Y-100956302D01*
X141331615Y-100952422D01*
X141325587Y-100949738D01*
X141325585Y-100949737D01*
X141172783Y-100881705D01*
X141172781Y-100881705D01*
X141166752Y-100879020D01*
X141078492Y-100860260D01*
X140996689Y-100842872D01*
X140996685Y-100842872D01*
X140990232Y-100841500D01*
X140809768Y-100841500D01*
X140803315Y-100842872D01*
X140803311Y-100842872D01*
X140721508Y-100860260D01*
X140633248Y-100879020D01*
X140627219Y-100881704D01*
X140627217Y-100881705D01*
X140474416Y-100949737D01*
X140474414Y-100949738D01*
X140468386Y-100952422D01*
X140463045Y-100956302D01*
X140463044Y-100956303D01*
X140327731Y-101054613D01*
X140327729Y-101054615D01*
X140322387Y-101058496D01*
X140317966Y-101063406D01*
X140317965Y-101063407D01*
X140221815Y-101170193D01*
X140201633Y-101192607D01*
X140111401Y-101348893D01*
X140055635Y-101520525D01*
X140036771Y-101700000D01*
X140055635Y-101879475D01*
X140111401Y-102051107D01*
X140201633Y-102207393D01*
X140206051Y-102212300D01*
X140206052Y-102212301D01*
X140308468Y-102326045D01*
X140322387Y-102341504D01*
X140327729Y-102345385D01*
X140327731Y-102345387D01*
X140463043Y-102443697D01*
X140468385Y-102447578D01*
X140474413Y-102450262D01*
X140474415Y-102450263D01*
X140608748Y-102510072D01*
X140633248Y-102520980D01*
X140721508Y-102539740D01*
X140803311Y-102557128D01*
X140803315Y-102557128D01*
X140809768Y-102558500D01*
X140990232Y-102558500D01*
X140996685Y-102557128D01*
X140996689Y-102557128D01*
X141075395Y-102540398D01*
X141096835Y-102535841D01*
X141167626Y-102541243D01*
X141224259Y-102584060D01*
X141248752Y-102650698D01*
X141242865Y-102698023D01*
X141206458Y-102810072D01*
X141205768Y-102816633D01*
X141205768Y-102816635D01*
X141195948Y-102910072D01*
X141186496Y-103000000D01*
X141206458Y-103189928D01*
X141265473Y-103371556D01*
X141268776Y-103377277D01*
X141274389Y-103386998D01*
X141291128Y-103455993D01*
X141274390Y-103513000D01*
X141265473Y-103528444D01*
X141206458Y-103710072D01*
X141205768Y-103716633D01*
X141205768Y-103716635D01*
X141195982Y-103809748D01*
X141168969Y-103875405D01*
X141110748Y-103916035D01*
X141039802Y-103918738D01*
X140981579Y-103885675D01*
X140190940Y-103095035D01*
X140156916Y-103032725D01*
X140154727Y-103019113D01*
X140154594Y-103017842D01*
X140144365Y-102920525D01*
X140088599Y-102748893D01*
X140080422Y-102734729D01*
X140030864Y-102648893D01*
X139998367Y-102592607D01*
X139918400Y-102503794D01*
X139882035Y-102463407D01*
X139882034Y-102463406D01*
X139877613Y-102458496D01*
X139866282Y-102450263D01*
X139736957Y-102356303D01*
X139736956Y-102356302D01*
X139731615Y-102352422D01*
X139725587Y-102349738D01*
X139725585Y-102349737D01*
X139572783Y-102281705D01*
X139572781Y-102281705D01*
X139566752Y-102279020D01*
X139459876Y-102256303D01*
X139396689Y-102242872D01*
X139396685Y-102242872D01*
X139390232Y-102241500D01*
X139209768Y-102241500D01*
X139203315Y-102242872D01*
X139203311Y-102242872D01*
X139140124Y-102256303D01*
X139033248Y-102279020D01*
X139027219Y-102281704D01*
X139027217Y-102281705D01*
X138940887Y-102320142D01*
X138868386Y-102352422D01*
X138867649Y-102350768D01*
X138807250Y-102365425D01*
X138740156Y-102342208D01*
X138704118Y-102302567D01*
X138701671Y-102298328D01*
X138701666Y-102298322D01*
X138698367Y-102292607D01*
X138577613Y-102158496D01*
X138556109Y-102142872D01*
X138436957Y-102056303D01*
X138436956Y-102056302D01*
X138431615Y-102052422D01*
X138425587Y-102049738D01*
X138425585Y-102049737D01*
X138272783Y-101981705D01*
X138272781Y-101981705D01*
X138266752Y-101979020D01*
X138172898Y-101959071D01*
X138096689Y-101942872D01*
X138096685Y-101942872D01*
X138090232Y-101941500D01*
X137909768Y-101941500D01*
X137903315Y-101942872D01*
X137903311Y-101942872D01*
X137827102Y-101959071D01*
X137733248Y-101979020D01*
X137727219Y-101981704D01*
X137727217Y-101981705D01*
X137574416Y-102049737D01*
X137574414Y-102049738D01*
X137568386Y-102052422D01*
X137563045Y-102056302D01*
X137563044Y-102056303D01*
X137427731Y-102154613D01*
X137427729Y-102154615D01*
X137422387Y-102158496D01*
X137417966Y-102163406D01*
X137417965Y-102163407D01*
X137392670Y-102191500D01*
X137375725Y-102210320D01*
X137333023Y-102257745D01*
X137272577Y-102294985D01*
X137201594Y-102293633D01*
X137188137Y-102288541D01*
X137172787Y-102281706D01*
X137172779Y-102281703D01*
X137166752Y-102279020D01*
X137059876Y-102256303D01*
X136996689Y-102242872D01*
X136996685Y-102242872D01*
X136990232Y-102241500D01*
X136809768Y-102241500D01*
X136803315Y-102242872D01*
X136803311Y-102242872D01*
X136740124Y-102256303D01*
X136633248Y-102279020D01*
X136627219Y-102281704D01*
X136627217Y-102281705D01*
X136474416Y-102349737D01*
X136474414Y-102349738D01*
X136468386Y-102352422D01*
X136450489Y-102365425D01*
X136381081Y-102415852D01*
X136314213Y-102439710D01*
X136245062Y-102423629D01*
X136213385Y-102398225D01*
X136182035Y-102363407D01*
X136182034Y-102363406D01*
X136177613Y-102358496D01*
X136166977Y-102350768D01*
X136036957Y-102256303D01*
X136036956Y-102256302D01*
X136031615Y-102252422D01*
X136025587Y-102249738D01*
X136025585Y-102249737D01*
X135872783Y-102181705D01*
X135872781Y-102181705D01*
X135866752Y-102179020D01*
X135751925Y-102154613D01*
X135696689Y-102142872D01*
X135696685Y-102142872D01*
X135690232Y-102141500D01*
X135509768Y-102141500D01*
X135503315Y-102142872D01*
X135503311Y-102142872D01*
X135448075Y-102154613D01*
X135333248Y-102179020D01*
X135327219Y-102181704D01*
X135327217Y-102181705D01*
X135174416Y-102249737D01*
X135174414Y-102249738D01*
X135168386Y-102252422D01*
X135163045Y-102256302D01*
X135163044Y-102256303D01*
X135027731Y-102354613D01*
X135027729Y-102354615D01*
X135022387Y-102358496D01*
X135017966Y-102363406D01*
X135017965Y-102363407D01*
X134926028Y-102465514D01*
X134901633Y-102492607D01*
X134886802Y-102518295D01*
X134819579Y-102634729D01*
X134811401Y-102648893D01*
X134809359Y-102655178D01*
X134783512Y-102734729D01*
X134755635Y-102820525D01*
X134754945Y-102827088D01*
X134754945Y-102827089D01*
X134745124Y-102920525D01*
X134736771Y-103000000D01*
X134755635Y-103179475D01*
X134757675Y-103185753D01*
X134757675Y-103185754D01*
X134773483Y-103234406D01*
X134811401Y-103351107D01*
X134814704Y-103356829D01*
X134814705Y-103356830D01*
X134823207Y-103371556D01*
X134901633Y-103507393D01*
X134906051Y-103512300D01*
X134906052Y-103512301D01*
X135010628Y-103628444D01*
X135022387Y-103641504D01*
X135027729Y-103645385D01*
X135027731Y-103645387D01*
X135155823Y-103738451D01*
X135168385Y-103747578D01*
X135174413Y-103750262D01*
X135174415Y-103750263D01*
X135308748Y-103810072D01*
X135333248Y-103820980D01*
X135421508Y-103839740D01*
X135503311Y-103857128D01*
X135503315Y-103857128D01*
X135509768Y-103858500D01*
X135610406Y-103858500D01*
X135678527Y-103878502D01*
X135699501Y-103895405D01*
X138229595Y-106425499D01*
X138263621Y-106487811D01*
X138266500Y-106514594D01*
X138266500Y-106593508D01*
X138246498Y-106661629D01*
X138192842Y-106708122D01*
X138122568Y-106718226D01*
X138114303Y-106716755D01*
X138001944Y-106692872D01*
X138001939Y-106692872D01*
X137995487Y-106691500D01*
X137804513Y-106691500D01*
X137798061Y-106692872D01*
X137798056Y-106692872D01*
X137726313Y-106708122D01*
X137617712Y-106731206D01*
X137611682Y-106733891D01*
X137611681Y-106733891D01*
X137449278Y-106806197D01*
X137449276Y-106806198D01*
X137443248Y-106808882D01*
X137288747Y-106921134D01*
X137284326Y-106926044D01*
X137284325Y-106926045D01*
X137172716Y-107050000D01*
X137160960Y-107063056D01*
X137065473Y-107228444D01*
X137006458Y-107410072D01*
X137005768Y-107416633D01*
X137005768Y-107416635D01*
X136990837Y-107558699D01*
X136986496Y-107600000D01*
X136987186Y-107606565D01*
X137004627Y-107772504D01*
X137006458Y-107789928D01*
X137065473Y-107971556D01*
X137160960Y-108136944D01*
X137165378Y-108141851D01*
X137165379Y-108141852D01*
X137226056Y-108209241D01*
X137288747Y-108278866D01*
X137309306Y-108293803D01*
X137431179Y-108382349D01*
X137443248Y-108391118D01*
X137449274Y-108393801D01*
X137449281Y-108393805D01*
X137491722Y-108412700D01*
X137545818Y-108458679D01*
X137566468Y-108526607D01*
X137547116Y-108594915D01*
X137514535Y-108629743D01*
X137388747Y-108721134D01*
X137384326Y-108726044D01*
X137384325Y-108726045D01*
X137323316Y-108793803D01*
X137260960Y-108863056D01*
X137245035Y-108890639D01*
X137180085Y-109003136D01*
X137165473Y-109028444D01*
X137106458Y-109210072D01*
X137105768Y-109216633D01*
X137105768Y-109216635D01*
X137089233Y-109373955D01*
X137086496Y-109400000D01*
X137087186Y-109406565D01*
X137096158Y-109491925D01*
X137106458Y-109589928D01*
X137165473Y-109771556D01*
X137260960Y-109936944D01*
X137265378Y-109941851D01*
X137265379Y-109941852D01*
X137369437Y-110057420D01*
X137388747Y-110078866D01*
X137543248Y-110191118D01*
X137549276Y-110193802D01*
X137549278Y-110193803D01*
X137578205Y-110206682D01*
X137717712Y-110268794D01*
X137783365Y-110282749D01*
X137898056Y-110307128D01*
X137898061Y-110307128D01*
X137904513Y-110308500D01*
X138095487Y-110308500D01*
X138101942Y-110307128D01*
X138101951Y-110307127D01*
X138114306Y-110304501D01*
X138185097Y-110309904D01*
X138241728Y-110352722D01*
X138266221Y-110419361D01*
X138266500Y-110427748D01*
X138266500Y-114065500D01*
X138246498Y-114133621D01*
X138192842Y-114180114D01*
X138140500Y-114191500D01*
X138043672Y-114191500D01*
X138037592Y-114191808D01*
X138033005Y-114192733D01*
X138033004Y-114192733D01*
X137849755Y-114229682D01*
X137849752Y-114229683D01*
X137843716Y-114230900D01*
X137746501Y-114271367D01*
X137666821Y-114304535D01*
X137661127Y-114306905D01*
X137656008Y-114310332D01*
X137656004Y-114310334D01*
X137567093Y-114369855D01*
X137499359Y-114391129D01*
X137426907Y-114369855D01*
X137337996Y-114310334D01*
X137337992Y-114310332D01*
X137332873Y-114306905D01*
X137327180Y-114304535D01*
X137247499Y-114271367D01*
X137150284Y-114230900D01*
X137144248Y-114229683D01*
X137144245Y-114229682D01*
X136960996Y-114192733D01*
X136960995Y-114192733D01*
X136956408Y-114191808D01*
X136950328Y-114191500D01*
X135757672Y-114191500D01*
X135751592Y-114191808D01*
X135747005Y-114192733D01*
X135747004Y-114192733D01*
X135563755Y-114229682D01*
X135563752Y-114229683D01*
X135557716Y-114230900D01*
X135460501Y-114271367D01*
X135380821Y-114304535D01*
X135375127Y-114306905D01*
X135370008Y-114310332D01*
X135370004Y-114310334D01*
X135281093Y-114369855D01*
X135213359Y-114391129D01*
X135140907Y-114369855D01*
X135051996Y-114310334D01*
X135051992Y-114310332D01*
X135046873Y-114306905D01*
X135041180Y-114304535D01*
X134961499Y-114271367D01*
X134864284Y-114230900D01*
X134858248Y-114229683D01*
X134858245Y-114229682D01*
X134674996Y-114192733D01*
X134674995Y-114192733D01*
X134670408Y-114191808D01*
X134664328Y-114191500D01*
X133471672Y-114191500D01*
X133465592Y-114191808D01*
X133461005Y-114192733D01*
X133461004Y-114192733D01*
X133277755Y-114229682D01*
X133277752Y-114229683D01*
X133271716Y-114230900D01*
X133174501Y-114271367D01*
X133094821Y-114304535D01*
X133089127Y-114306905D01*
X133084008Y-114310332D01*
X133084004Y-114310334D01*
X132929901Y-114413496D01*
X132929896Y-114413500D01*
X132924777Y-114416927D01*
X132784927Y-114556777D01*
X132781500Y-114561896D01*
X132781496Y-114561901D01*
X132678334Y-114716004D01*
X132678332Y-114716008D01*
X132674905Y-114721127D01*
X132598900Y-114903716D01*
X132597683Y-114909752D01*
X132597682Y-114909755D01*
X132569229Y-115050867D01*
X132559808Y-115097592D01*
X132559500Y-115103672D01*
X132559500Y-116296328D01*
X132559808Y-116302408D01*
X132560733Y-116306995D01*
X132560733Y-116306996D01*
X132591833Y-116461233D01*
X132598900Y-116496284D01*
X132601268Y-116501972D01*
X132607764Y-116517578D01*
X132615477Y-116588154D01*
X132583809Y-116651697D01*
X132522814Y-116688031D01*
X132491440Y-116692000D01*
X130213106Y-116692000D01*
X130144985Y-116671998D01*
X130098492Y-116618342D01*
X130088388Y-116548068D01*
X130117882Y-116483488D01*
X130131017Y-116470410D01*
X130131291Y-116470175D01*
X130134587Y-116467700D01*
X130144135Y-116458349D01*
X130163347Y-116433847D01*
X130173406Y-116422498D01*
X132150500Y-114445405D01*
X132212812Y-114411379D01*
X132239595Y-114408500D01*
X132295487Y-114408500D01*
X132301939Y-114407128D01*
X132301944Y-114407128D01*
X132388887Y-114388647D01*
X132482288Y-114368794D01*
X132575070Y-114327485D01*
X132650722Y-114293803D01*
X132650724Y-114293802D01*
X132656752Y-114291118D01*
X132811253Y-114178866D01*
X132939040Y-114036944D01*
X133034527Y-113871556D01*
X133093542Y-113689928D01*
X133113504Y-113500000D01*
X133093542Y-113310072D01*
X133034527Y-113128444D01*
X133026137Y-113113911D01*
X132942341Y-112968774D01*
X132939040Y-112963056D01*
X132811253Y-112821134D01*
X132678478Y-112724667D01*
X132662094Y-112712763D01*
X132662093Y-112712762D01*
X132656752Y-112708882D01*
X132650724Y-112706198D01*
X132650722Y-112706197D01*
X132488319Y-112633891D01*
X132488318Y-112633891D01*
X132482288Y-112631206D01*
X132388887Y-112611353D01*
X132301944Y-112592872D01*
X132301939Y-112592872D01*
X132295487Y-112591500D01*
X132104513Y-112591500D01*
X132098061Y-112592872D01*
X132098056Y-112592872D01*
X132011113Y-112611353D01*
X131917712Y-112631206D01*
X131911682Y-112633891D01*
X131911681Y-112633891D01*
X131749278Y-112706197D01*
X131749276Y-112706198D01*
X131743248Y-112708882D01*
X131737907Y-112712762D01*
X131737906Y-112712763D01*
X131721522Y-112724667D01*
X131588747Y-112821134D01*
X131460960Y-112963056D01*
X131457659Y-112968774D01*
X131373864Y-113113911D01*
X131365473Y-113128444D01*
X131306458Y-113310072D01*
X131293483Y-113433528D01*
X131289093Y-113475293D01*
X131262080Y-113540950D01*
X131252878Y-113551218D01*
X129280311Y-115523784D01*
X129267920Y-115534652D01*
X129252424Y-115546542D01*
X129252422Y-115546544D01*
X129246401Y-115551164D01*
X129241650Y-115557094D01*
X129241649Y-115557095D01*
X129241642Y-115557103D01*
X129220019Y-115578278D01*
X129182195Y-115607302D01*
X129153712Y-115623746D01*
X129095969Y-115647664D01*
X129064196Y-115656177D01*
X129021194Y-115661838D01*
X129003431Y-115662909D01*
X128999998Y-115662873D01*
X128992470Y-115661882D01*
X128984925Y-115662715D01*
X128984921Y-115662715D01*
X128957534Y-115665739D01*
X128943707Y-115666500D01*
X126467552Y-115666500D01*
X126399431Y-115646498D01*
X126352938Y-115592842D01*
X126342834Y-115522568D01*
X126372328Y-115457988D01*
X126388258Y-115442580D01*
X126389643Y-115441459D01*
X126550867Y-115310902D01*
X126810902Y-115050867D01*
X127042332Y-114765075D01*
X127224551Y-114484481D01*
X127240822Y-114459426D01*
X127240824Y-114459423D01*
X127242620Y-114456657D01*
X127248354Y-114445405D01*
X127408075Y-114131934D01*
X127409573Y-114128994D01*
X127541361Y-113785674D01*
X127636541Y-113430459D01*
X127667721Y-113233595D01*
X127693555Y-113070489D01*
X127693556Y-113070481D01*
X127694069Y-113067241D01*
X127713315Y-112700000D01*
X127694069Y-112332759D01*
X127636541Y-111969541D01*
X127541361Y-111614326D01*
X127409573Y-111271006D01*
X127350051Y-111154188D01*
X127244119Y-110946284D01*
X127244115Y-110946277D01*
X127242620Y-110943343D01*
X127042332Y-110634925D01*
X126810902Y-110349133D01*
X126550867Y-110089098D01*
X126265075Y-109857668D01*
X126084687Y-109740523D01*
X125959427Y-109659178D01*
X125959424Y-109659176D01*
X125956658Y-109657380D01*
X125953724Y-109655885D01*
X125953717Y-109655881D01*
X125631934Y-109491925D01*
X125628994Y-109490427D01*
X125285674Y-109358639D01*
X124930459Y-109263459D01*
X124698940Y-109226790D01*
X124570489Y-109206445D01*
X124570481Y-109206444D01*
X124567241Y-109205931D01*
X124200000Y-109186685D01*
X123832759Y-109205931D01*
X123829519Y-109206444D01*
X123829511Y-109206445D01*
X123701060Y-109226790D01*
X123625150Y-109238813D01*
X123554740Y-109229713D01*
X123500426Y-109183991D01*
X123479453Y-109116163D01*
X123494852Y-109053979D01*
X123587525Y-108884261D01*
X123587526Y-108884259D01*
X123589680Y-108880314D01*
X123597369Y-108859700D01*
X123669767Y-108665594D01*
X123669769Y-108665588D01*
X123671336Y-108661386D01*
X123678220Y-108629743D01*
X123697339Y-108541852D01*
X123721004Y-108433065D01*
X123721845Y-108421313D01*
X123725793Y-108366109D01*
X123730988Y-108293463D01*
X123731575Y-108287526D01*
X123733500Y-108280030D01*
X123733500Y-108262843D01*
X123733821Y-108253855D01*
X123735093Y-108236069D01*
X123736029Y-108227301D01*
X123737433Y-108217440D01*
X123737433Y-108217435D01*
X123738013Y-108213363D01*
X123738153Y-108199999D01*
X123734413Y-108169092D01*
X123733500Y-108153957D01*
X123733500Y-108000000D01*
X126786496Y-108000000D01*
X126787186Y-108006565D01*
X126804235Y-108168774D01*
X126806458Y-108189928D01*
X126865473Y-108371556D01*
X126868776Y-108377278D01*
X126868777Y-108377279D01*
X126891921Y-108417366D01*
X126960960Y-108536944D01*
X126965378Y-108541851D01*
X126965379Y-108541852D01*
X127069056Y-108656997D01*
X127088747Y-108678866D01*
X127243248Y-108791118D01*
X127249276Y-108793802D01*
X127249278Y-108793803D01*
X127397286Y-108859700D01*
X127417712Y-108868794D01*
X127511113Y-108888647D01*
X127598056Y-108907128D01*
X127598061Y-108907128D01*
X127604513Y-108908500D01*
X127795487Y-108908500D01*
X127801939Y-108907128D01*
X127801944Y-108907128D01*
X127888887Y-108888647D01*
X127982288Y-108868794D01*
X128002714Y-108859700D01*
X128150722Y-108793803D01*
X128150724Y-108793802D01*
X128156752Y-108791118D01*
X128311253Y-108678866D01*
X128330944Y-108656997D01*
X128434621Y-108541852D01*
X128434622Y-108541851D01*
X128439040Y-108536944D01*
X128508079Y-108417366D01*
X128524258Y-108389343D01*
X130336775Y-108389343D01*
X130353381Y-108558699D01*
X130407094Y-108720167D01*
X130410741Y-108726189D01*
X130410742Y-108726191D01*
X130451690Y-108793803D01*
X130495246Y-108865723D01*
X130579427Y-108952895D01*
X130604301Y-108978653D01*
X130637233Y-109041550D01*
X130630933Y-109112266D01*
X130622783Y-109129180D01*
X130589483Y-109186858D01*
X130565473Y-109228444D01*
X130506458Y-109410072D01*
X130486496Y-109600000D01*
X130487186Y-109606565D01*
X130505129Y-109777279D01*
X130506458Y-109789928D01*
X130565473Y-109971556D01*
X130568776Y-109977278D01*
X130568777Y-109977279D01*
X130583967Y-110003589D01*
X130660960Y-110136944D01*
X130665378Y-110141851D01*
X130665379Y-110141852D01*
X130779678Y-110268794D01*
X130788747Y-110278866D01*
X130943248Y-110391118D01*
X130949276Y-110393802D01*
X130949278Y-110393803D01*
X131036077Y-110432448D01*
X131117712Y-110468794D01*
X131211113Y-110488647D01*
X131298056Y-110507128D01*
X131298061Y-110507128D01*
X131304513Y-110508500D01*
X131495487Y-110508500D01*
X131501939Y-110507128D01*
X131501944Y-110507128D01*
X131588888Y-110488647D01*
X131682288Y-110468794D01*
X131763923Y-110432448D01*
X131850722Y-110393803D01*
X131850724Y-110393802D01*
X131856752Y-110391118D01*
X132011253Y-110278866D01*
X132020322Y-110268794D01*
X132134621Y-110141852D01*
X132134622Y-110141851D01*
X132139040Y-110136944D01*
X132216033Y-110003589D01*
X132231223Y-109977279D01*
X132231224Y-109977278D01*
X132234527Y-109971556D01*
X132293542Y-109789928D01*
X132294872Y-109777279D01*
X132312814Y-109606565D01*
X132313504Y-109600000D01*
X132293542Y-109410072D01*
X132276830Y-109358639D01*
X132266668Y-109327362D01*
X132264641Y-109256394D01*
X132301303Y-109195597D01*
X132365015Y-109164271D01*
X132382616Y-109162945D01*
X132384015Y-109163132D01*
X132391026Y-109162494D01*
X132391030Y-109162494D01*
X132546462Y-109148348D01*
X132553483Y-109147709D01*
X132560185Y-109145531D01*
X132560187Y-109145531D01*
X132708623Y-109097301D01*
X132708626Y-109097300D01*
X132715322Y-109095124D01*
X132861490Y-109007990D01*
X132866584Y-109003139D01*
X132866588Y-109003136D01*
X132965965Y-108908500D01*
X132984721Y-108890639D01*
X132994380Y-108876102D01*
X133074990Y-108754773D01*
X133078891Y-108748902D01*
X133139319Y-108589825D01*
X133163001Y-108421313D01*
X133163180Y-108408500D01*
X133163244Y-108403961D01*
X133163244Y-108403955D01*
X133163299Y-108400000D01*
X133144331Y-108230892D01*
X133139647Y-108217440D01*
X133090686Y-108076846D01*
X133088368Y-108070189D01*
X133082383Y-108060610D01*
X133023346Y-107966133D01*
X133004210Y-107897764D01*
X133025252Y-107829636D01*
X133065489Y-107769073D01*
X133078891Y-107748902D01*
X133139319Y-107589825D01*
X133163001Y-107421313D01*
X133163299Y-107400000D01*
X133144331Y-107230892D01*
X133088368Y-107070189D01*
X133082383Y-107060610D01*
X133023346Y-106966133D01*
X133004210Y-106897764D01*
X133025252Y-106829636D01*
X133074990Y-106754773D01*
X133078891Y-106748902D01*
X133139319Y-106589825D01*
X133163001Y-106421313D01*
X133163299Y-106400000D01*
X133144331Y-106230892D01*
X133141240Y-106222014D01*
X133097473Y-106096334D01*
X133088368Y-106070189D01*
X133082383Y-106060610D01*
X133030497Y-105977577D01*
X132998192Y-105925879D01*
X132951644Y-105879004D01*
X132883248Y-105810129D01*
X132878286Y-105805132D01*
X132862039Y-105794821D01*
X132823406Y-105770304D01*
X132734608Y-105713951D01*
X132574300Y-105656868D01*
X132405329Y-105636720D01*
X132398326Y-105637456D01*
X132398325Y-105637456D01*
X132243101Y-105653770D01*
X132243097Y-105653771D01*
X132236093Y-105654507D01*
X132229422Y-105656778D01*
X132081673Y-105707075D01*
X132081670Y-105707076D01*
X132075003Y-105709346D01*
X132069005Y-105713036D01*
X132069003Y-105713037D01*
X131936065Y-105794821D01*
X131936063Y-105794823D01*
X131930066Y-105798512D01*
X131925033Y-105803441D01*
X131837785Y-105888881D01*
X131775120Y-105922252D01*
X131704361Y-105916446D01*
X131660221Y-105887641D01*
X131583253Y-105810133D01*
X131583248Y-105810129D01*
X131578286Y-105805132D01*
X131562039Y-105794821D01*
X131523406Y-105770304D01*
X131434608Y-105713951D01*
X131274300Y-105656868D01*
X131105329Y-105636720D01*
X131098326Y-105637456D01*
X131098325Y-105637456D01*
X130943101Y-105653770D01*
X130943097Y-105653771D01*
X130936093Y-105654507D01*
X130929422Y-105656778D01*
X130781673Y-105707075D01*
X130781670Y-105707076D01*
X130775003Y-105709346D01*
X130769005Y-105713036D01*
X130769003Y-105713037D01*
X130636065Y-105794821D01*
X130636063Y-105794823D01*
X130630066Y-105798512D01*
X130625033Y-105803441D01*
X130535347Y-105891269D01*
X130508486Y-105917573D01*
X130504675Y-105923487D01*
X130504673Y-105923489D01*
X130464639Y-105985609D01*
X130416304Y-106060610D01*
X130358103Y-106220516D01*
X130336775Y-106389343D01*
X130353381Y-106558699D01*
X130407094Y-106720167D01*
X130477064Y-106835700D01*
X130495242Y-106904328D01*
X130475198Y-106969225D01*
X130416304Y-107060610D01*
X130358103Y-107220516D01*
X130336775Y-107389343D01*
X130353381Y-107558699D01*
X130407094Y-107720167D01*
X130477064Y-107835700D01*
X130495242Y-107904328D01*
X130475198Y-107969225D01*
X130416304Y-108060610D01*
X130380803Y-108158148D01*
X130365571Y-108199999D01*
X130358103Y-108220516D01*
X130336775Y-108389343D01*
X128524258Y-108389343D01*
X128531223Y-108377279D01*
X128531224Y-108377278D01*
X128534527Y-108371556D01*
X128593542Y-108189928D01*
X128595766Y-108168774D01*
X128612814Y-108006565D01*
X128613504Y-108000000D01*
X128610270Y-107969226D01*
X128594232Y-107816635D01*
X128594232Y-107816633D01*
X128593542Y-107810072D01*
X128534527Y-107628444D01*
X128516035Y-107596414D01*
X128490213Y-107551690D01*
X128439040Y-107463056D01*
X128401455Y-107421313D01*
X128315675Y-107326045D01*
X128315674Y-107326044D01*
X128311253Y-107321134D01*
X128156752Y-107208882D01*
X128150724Y-107206198D01*
X128150722Y-107206197D01*
X127988319Y-107133891D01*
X127988318Y-107133891D01*
X127982288Y-107131206D01*
X127888888Y-107111353D01*
X127801944Y-107092872D01*
X127801939Y-107092872D01*
X127795487Y-107091500D01*
X127604513Y-107091500D01*
X127598061Y-107092872D01*
X127598056Y-107092872D01*
X127511112Y-107111353D01*
X127417712Y-107131206D01*
X127411682Y-107133891D01*
X127411681Y-107133891D01*
X127249278Y-107206197D01*
X127249276Y-107206198D01*
X127243248Y-107208882D01*
X127088747Y-107321134D01*
X127084326Y-107326044D01*
X127084325Y-107326045D01*
X126998546Y-107421313D01*
X126960960Y-107463056D01*
X126909787Y-107551690D01*
X126883966Y-107596414D01*
X126865473Y-107628444D01*
X126806458Y-107810072D01*
X126805768Y-107816633D01*
X126805768Y-107816635D01*
X126789730Y-107969226D01*
X126786496Y-108000000D01*
X123733500Y-108000000D01*
X123733500Y-107627748D01*
X123753502Y-107559627D01*
X123807158Y-107513134D01*
X123877432Y-107503030D01*
X123885694Y-107504501D01*
X123898049Y-107507127D01*
X123898058Y-107507128D01*
X123904513Y-107508500D01*
X124095487Y-107508500D01*
X124101939Y-107507128D01*
X124101944Y-107507128D01*
X124188887Y-107488647D01*
X124282288Y-107468794D01*
X124303877Y-107459182D01*
X124450722Y-107393803D01*
X124450724Y-107393802D01*
X124456752Y-107391118D01*
X124468822Y-107382349D01*
X124558421Y-107317251D01*
X124611253Y-107278866D01*
X124674267Y-107208882D01*
X124734621Y-107141852D01*
X124734622Y-107141851D01*
X124739040Y-107136944D01*
X124834527Y-106971556D01*
X124893542Y-106789928D01*
X124898547Y-106742314D01*
X124912814Y-106606565D01*
X124913504Y-106600000D01*
X124909163Y-106558699D01*
X124894232Y-106416635D01*
X124894232Y-106416633D01*
X124893542Y-106410072D01*
X124834527Y-106228444D01*
X124825611Y-106213001D01*
X124808872Y-106144007D01*
X124825611Y-106086998D01*
X124831224Y-106077277D01*
X124834527Y-106071556D01*
X124893542Y-105889928D01*
X124896468Y-105862095D01*
X124912814Y-105706565D01*
X124913504Y-105700000D01*
X124906941Y-105637554D01*
X124894232Y-105516635D01*
X124894232Y-105516633D01*
X124893542Y-105510072D01*
X124834527Y-105328444D01*
X124825611Y-105313001D01*
X124808872Y-105244007D01*
X124825611Y-105186998D01*
X124827345Y-105183996D01*
X124834527Y-105171556D01*
X124893542Y-104989928D01*
X124897598Y-104951338D01*
X124924612Y-104885681D01*
X124982833Y-104845052D01*
X125053778Y-104842349D01*
X125074155Y-104849401D01*
X125117712Y-104868794D01*
X125197159Y-104885681D01*
X125298056Y-104907128D01*
X125298061Y-104907128D01*
X125304513Y-104908500D01*
X125495487Y-104908500D01*
X125501939Y-104907128D01*
X125501944Y-104907128D01*
X125602841Y-104885681D01*
X125682288Y-104868794D01*
X125848752Y-104794680D01*
X125919118Y-104785246D01*
X125951247Y-104794680D01*
X126117712Y-104868794D01*
X126197159Y-104885681D01*
X126298056Y-104907128D01*
X126298061Y-104907128D01*
X126304513Y-104908500D01*
X126495487Y-104908500D01*
X126501939Y-104907128D01*
X126501944Y-104907128D01*
X126602841Y-104885681D01*
X126682288Y-104868794D01*
X126848752Y-104794680D01*
X126919118Y-104785246D01*
X126951247Y-104794680D01*
X127117712Y-104868794D01*
X127197159Y-104885681D01*
X127298056Y-104907128D01*
X127298061Y-104907128D01*
X127304513Y-104908500D01*
X127495487Y-104908500D01*
X127501939Y-104907128D01*
X127501944Y-104907128D01*
X127602841Y-104885681D01*
X127682288Y-104868794D01*
X127848752Y-104794680D01*
X127919118Y-104785246D01*
X127951247Y-104794680D01*
X128117712Y-104868794D01*
X128197159Y-104885681D01*
X128298056Y-104907128D01*
X128298061Y-104907128D01*
X128304513Y-104908500D01*
X128495487Y-104908500D01*
X128501939Y-104907128D01*
X128501944Y-104907128D01*
X128602841Y-104885681D01*
X128682288Y-104868794D01*
X128688319Y-104866109D01*
X128850722Y-104793803D01*
X128850724Y-104793802D01*
X128856752Y-104791118D01*
X128900001Y-104759696D01*
X128912157Y-104750864D01*
X129011253Y-104678866D01*
X129139040Y-104536944D01*
X129234527Y-104371556D01*
X129293542Y-104189928D01*
X129303393Y-104096206D01*
X129312814Y-104006565D01*
X129313504Y-104000000D01*
X129294833Y-103822352D01*
X129294232Y-103816635D01*
X129294232Y-103816633D01*
X129293542Y-103810072D01*
X129234527Y-103628444D01*
X129139040Y-103463056D01*
X129132681Y-103455993D01*
X129015675Y-103326045D01*
X129015674Y-103326044D01*
X129011253Y-103321134D01*
X128903715Y-103243003D01*
X128862094Y-103212763D01*
X128862093Y-103212762D01*
X128856752Y-103208882D01*
X128850724Y-103206198D01*
X128850722Y-103206197D01*
X128688319Y-103133891D01*
X128688318Y-103133891D01*
X128682288Y-103131206D01*
X128566362Y-103106565D01*
X128501944Y-103092872D01*
X128501939Y-103092872D01*
X128495487Y-103091500D01*
X128304513Y-103091500D01*
X128298061Y-103092872D01*
X128298056Y-103092872D01*
X128233638Y-103106565D01*
X128117712Y-103131206D01*
X127951248Y-103205320D01*
X127880882Y-103214754D01*
X127848753Y-103205320D01*
X127682288Y-103131206D01*
X127566362Y-103106565D01*
X127501944Y-103092872D01*
X127501939Y-103092872D01*
X127495487Y-103091500D01*
X127304513Y-103091500D01*
X127298061Y-103092872D01*
X127298056Y-103092872D01*
X127233638Y-103106565D01*
X127117712Y-103131206D01*
X126951248Y-103205320D01*
X126880882Y-103214754D01*
X126848753Y-103205320D01*
X126682288Y-103131206D01*
X126566362Y-103106565D01*
X126501944Y-103092872D01*
X126501939Y-103092872D01*
X126495487Y-103091500D01*
X126304513Y-103091500D01*
X126298061Y-103092872D01*
X126298056Y-103092872D01*
X126233638Y-103106565D01*
X126117712Y-103131206D01*
X125951248Y-103205320D01*
X125880882Y-103214754D01*
X125848753Y-103205320D01*
X125682288Y-103131206D01*
X125566362Y-103106565D01*
X125501944Y-103092872D01*
X125501939Y-103092872D01*
X125495487Y-103091500D01*
X125401471Y-103091500D01*
X125333350Y-103071498D01*
X125286857Y-103017842D01*
X125276753Y-102947568D01*
X125281638Y-102926563D01*
X125285641Y-102914246D01*
X125293542Y-102889928D01*
X125300837Y-102820525D01*
X125312814Y-102706565D01*
X125313504Y-102700000D01*
X125305983Y-102628444D01*
X125294232Y-102516635D01*
X125294232Y-102516633D01*
X125293542Y-102510072D01*
X125234527Y-102328444D01*
X125230981Y-102322301D01*
X125179937Y-102233891D01*
X125139040Y-102163056D01*
X125108074Y-102128664D01*
X125015675Y-102026045D01*
X125015672Y-102026042D01*
X125011253Y-102021134D01*
X124856752Y-101908882D01*
X124850724Y-101906198D01*
X124850722Y-101906197D01*
X124688319Y-101833891D01*
X124688318Y-101833891D01*
X124682288Y-101831206D01*
X124588888Y-101811353D01*
X124501944Y-101792872D01*
X124501939Y-101792872D01*
X124495487Y-101791500D01*
X124304513Y-101791500D01*
X124298061Y-101792872D01*
X124298056Y-101792872D01*
X124211112Y-101811353D01*
X124117712Y-101831206D01*
X124111682Y-101833891D01*
X124111681Y-101833891D01*
X123949278Y-101906197D01*
X123949276Y-101906198D01*
X123943248Y-101908882D01*
X123937907Y-101912762D01*
X123937906Y-101912763D01*
X123846712Y-101979020D01*
X123788747Y-102021134D01*
X123742016Y-102073035D01*
X123732086Y-102084063D01*
X123665231Y-102122874D01*
X123638614Y-102128664D01*
X123419686Y-102210320D01*
X123415746Y-102212471D01*
X123415738Y-102212475D01*
X123250747Y-102302567D01*
X123214607Y-102322301D01*
X123027552Y-102462329D01*
X122862329Y-102627552D01*
X122722301Y-102814607D01*
X122720142Y-102818561D01*
X122612475Y-103015738D01*
X122612471Y-103015746D01*
X122610320Y-103019686D01*
X122608749Y-103023898D01*
X122530233Y-103234406D01*
X122530231Y-103234412D01*
X122528664Y-103238614D01*
X122478996Y-103466935D01*
X122478675Y-103471421D01*
X122478675Y-103471422D01*
X122478256Y-103477277D01*
X122474148Y-103534729D01*
X122469013Y-103606525D01*
X122468425Y-103612474D01*
X122466500Y-103619970D01*
X122466500Y-103637157D01*
X122466179Y-103646145D01*
X122464907Y-103663931D01*
X122463971Y-103672698D01*
X122461987Y-103686637D01*
X122461847Y-103700001D01*
X122462342Y-103704091D01*
X122462342Y-103704092D01*
X122465587Y-103730905D01*
X122466500Y-103746043D01*
X122466500Y-106222014D01*
X122446498Y-106290135D01*
X122392842Y-106336628D01*
X122322568Y-106346732D01*
X122257988Y-106317238D01*
X122251405Y-106311109D01*
X122143223Y-106202927D01*
X122138104Y-106199500D01*
X122138099Y-106199496D01*
X121983996Y-106096334D01*
X121983992Y-106096332D01*
X121978873Y-106092905D01*
X121964683Y-106086998D01*
X121901290Y-106060610D01*
X121796284Y-106016900D01*
X121790248Y-106015683D01*
X121790245Y-106015682D01*
X121606996Y-105978733D01*
X121606995Y-105978733D01*
X121602408Y-105977808D01*
X121596328Y-105977500D01*
X120403672Y-105977500D01*
X120397592Y-105977808D01*
X120358904Y-105985609D01*
X120288175Y-105979467D01*
X120231994Y-105936060D01*
X120208000Y-105862095D01*
X120208000Y-101170193D01*
X120228002Y-101102072D01*
X120281658Y-101055579D01*
X120351932Y-101045475D01*
X120385247Y-101055085D01*
X120533248Y-101120980D01*
X120621508Y-101139740D01*
X120703311Y-101157128D01*
X120703315Y-101157128D01*
X120709768Y-101158500D01*
X120890232Y-101158500D01*
X120896685Y-101157128D01*
X120896689Y-101157128D01*
X120978492Y-101139740D01*
X121066752Y-101120980D01*
X121214752Y-101055086D01*
X121225585Y-101050263D01*
X121225587Y-101050262D01*
X121231615Y-101047578D01*
X121362586Y-100952422D01*
X121372269Y-100945387D01*
X121372271Y-100945385D01*
X121377613Y-100941504D01*
X121416688Y-100898107D01*
X121493948Y-100812301D01*
X121493949Y-100812300D01*
X121498367Y-100807393D01*
X121577595Y-100670166D01*
X121585295Y-100656830D01*
X121585296Y-100656829D01*
X121588599Y-100651107D01*
X121644365Y-100479475D01*
X121647814Y-100446666D01*
X121662539Y-100306565D01*
X121663229Y-100300000D01*
X121644365Y-100120525D01*
X121636293Y-100095680D01*
X121601932Y-99989928D01*
X121588599Y-99948893D01*
X121566838Y-99911201D01*
X121553311Y-99887773D01*
X121502635Y-99800000D01*
X144086496Y-99800000D01*
X144087186Y-99806565D01*
X144102806Y-99955178D01*
X144106458Y-99989928D01*
X144165473Y-100171556D01*
X144260960Y-100336944D01*
X144265378Y-100341851D01*
X144265379Y-100341852D01*
X144355935Y-100442425D01*
X144388747Y-100478866D01*
X144487843Y-100550864D01*
X144534697Y-100584905D01*
X144543248Y-100591118D01*
X144549276Y-100593802D01*
X144549278Y-100593803D01*
X144677986Y-100651107D01*
X144717712Y-100668794D01*
X144811112Y-100688647D01*
X144898056Y-100707128D01*
X144898061Y-100707128D01*
X144904513Y-100708500D01*
X145095487Y-100708500D01*
X145101939Y-100707128D01*
X145101944Y-100707128D01*
X145188887Y-100688647D01*
X145282288Y-100668794D01*
X145322014Y-100651107D01*
X145450722Y-100593803D01*
X145450724Y-100593802D01*
X145456752Y-100591118D01*
X145465304Y-100584905D01*
X145512157Y-100550864D01*
X145611253Y-100478866D01*
X145644065Y-100442425D01*
X145734621Y-100341852D01*
X145734622Y-100341851D01*
X145739040Y-100336944D01*
X145834527Y-100171556D01*
X145862872Y-100084320D01*
X152061404Y-100084320D01*
X152080364Y-100264712D01*
X152138818Y-100436421D01*
X152233862Y-100590912D01*
X152238793Y-100595947D01*
X152238795Y-100595950D01*
X152311473Y-100670166D01*
X152360771Y-100720507D01*
X152513238Y-100818765D01*
X152519858Y-100821174D01*
X152519861Y-100821176D01*
X152677066Y-100878394D01*
X152683685Y-100880803D01*
X152823769Y-100898500D01*
X152920610Y-100898500D01*
X153055255Y-100883397D01*
X153062704Y-100880803D01*
X153219894Y-100826064D01*
X153219897Y-100826062D01*
X153226552Y-100823745D01*
X153234522Y-100818765D01*
X153374402Y-100731359D01*
X153380376Y-100727626D01*
X153401018Y-100707128D01*
X153504085Y-100604778D01*
X153504088Y-100604774D01*
X153509082Y-100599815D01*
X153512898Y-100593803D01*
X153602494Y-100452620D01*
X153606273Y-100446666D01*
X153616672Y-100417463D01*
X153664757Y-100282425D01*
X153664758Y-100282420D01*
X153667119Y-100275790D01*
X153688596Y-100095680D01*
X153669636Y-99915288D01*
X153611182Y-99743579D01*
X153558838Y-99658496D01*
X153519834Y-99595095D01*
X153519832Y-99595092D01*
X153516138Y-99589088D01*
X153511207Y-99584053D01*
X153511205Y-99584050D01*
X153394157Y-99464525D01*
X153394156Y-99464524D01*
X153389229Y-99459493D01*
X153236762Y-99361235D01*
X153230142Y-99358826D01*
X153230139Y-99358824D01*
X153072934Y-99301606D01*
X153072933Y-99301606D01*
X153066315Y-99299197D01*
X152926231Y-99281500D01*
X152829390Y-99281500D01*
X152694745Y-99296603D01*
X152688092Y-99298920D01*
X152688091Y-99298920D01*
X152530106Y-99353936D01*
X152530103Y-99353938D01*
X152523448Y-99356255D01*
X152517469Y-99359991D01*
X152384831Y-99442872D01*
X152369624Y-99452374D01*
X152364628Y-99457335D01*
X152364627Y-99457336D01*
X152245915Y-99575222D01*
X152245912Y-99575226D01*
X152240918Y-99580185D01*
X152143727Y-99733334D01*
X152141362Y-99739976D01*
X152085243Y-99897575D01*
X152085242Y-99897580D01*
X152082881Y-99904210D01*
X152061404Y-100084320D01*
X145862872Y-100084320D01*
X145893542Y-99989928D01*
X145897195Y-99955178D01*
X145912814Y-99806565D01*
X145913504Y-99800000D01*
X145898632Y-99658496D01*
X145894232Y-99616635D01*
X145894232Y-99616633D01*
X145893542Y-99610072D01*
X145834527Y-99428444D01*
X145817162Y-99398366D01*
X145757955Y-99295818D01*
X145739040Y-99263056D01*
X145611253Y-99121134D01*
X145456752Y-99008882D01*
X145450724Y-99006198D01*
X145450722Y-99006197D01*
X145288319Y-98933891D01*
X145288318Y-98933891D01*
X145282288Y-98931206D01*
X145166362Y-98906565D01*
X145101944Y-98892872D01*
X145101939Y-98892872D01*
X145095487Y-98891500D01*
X144904513Y-98891500D01*
X144898061Y-98892872D01*
X144898056Y-98892872D01*
X144833638Y-98906565D01*
X144717712Y-98931206D01*
X144711682Y-98933891D01*
X144711681Y-98933891D01*
X144549278Y-99006197D01*
X144549276Y-99006198D01*
X144543248Y-99008882D01*
X144388747Y-99121134D01*
X144260960Y-99263056D01*
X144242045Y-99295818D01*
X144182839Y-99398366D01*
X144165473Y-99428444D01*
X144106458Y-99610072D01*
X144105768Y-99616633D01*
X144105768Y-99616635D01*
X144101368Y-99658496D01*
X144086496Y-99800000D01*
X121502635Y-99800000D01*
X121498367Y-99792607D01*
X121444998Y-99733334D01*
X121382035Y-99663407D01*
X121382034Y-99663406D01*
X121377613Y-99658496D01*
X121366282Y-99650263D01*
X121236957Y-99556303D01*
X121236956Y-99556302D01*
X121231615Y-99552422D01*
X121225587Y-99549738D01*
X121225585Y-99549737D01*
X121072783Y-99481705D01*
X121072781Y-99481705D01*
X121066752Y-99479020D01*
X120974884Y-99459493D01*
X120896689Y-99442872D01*
X120896685Y-99442872D01*
X120890232Y-99441500D01*
X120709768Y-99441500D01*
X120703315Y-99442872D01*
X120703311Y-99442872D01*
X120625116Y-99459493D01*
X120533248Y-99479020D01*
X120527219Y-99481704D01*
X120527217Y-99481705D01*
X120385249Y-99544914D01*
X120314882Y-99554348D01*
X120250585Y-99524242D01*
X120212772Y-99464153D01*
X120208000Y-99429807D01*
X120208000Y-98000000D01*
X120636771Y-98000000D01*
X120637461Y-98006565D01*
X120652792Y-98152422D01*
X120655635Y-98179475D01*
X120657675Y-98185753D01*
X120657675Y-98185754D01*
X120658494Y-98188274D01*
X120711401Y-98351107D01*
X120714704Y-98356829D01*
X120714705Y-98356830D01*
X120720032Y-98366056D01*
X120801633Y-98507393D01*
X120806051Y-98512300D01*
X120806052Y-98512301D01*
X120917965Y-98636593D01*
X120922387Y-98641504D01*
X120927729Y-98645385D01*
X120927731Y-98645387D01*
X121029739Y-98719500D01*
X121068385Y-98747578D01*
X121074413Y-98750262D01*
X121074415Y-98750263D01*
X121227217Y-98818295D01*
X121233248Y-98820980D01*
X121321508Y-98839740D01*
X121403311Y-98857128D01*
X121403315Y-98857128D01*
X121409768Y-98858500D01*
X121590232Y-98858500D01*
X121596685Y-98857128D01*
X121596689Y-98857128D01*
X121678492Y-98839740D01*
X121766752Y-98820980D01*
X121772784Y-98818294D01*
X121775069Y-98817552D01*
X121846037Y-98815524D01*
X121906835Y-98852186D01*
X121938160Y-98915898D01*
X121939316Y-98924214D01*
X121942776Y-98957128D01*
X121955635Y-99079475D01*
X122011401Y-99251107D01*
X122101633Y-99407393D01*
X122106051Y-99412300D01*
X122106052Y-99412301D01*
X122126246Y-99434729D01*
X122222387Y-99541504D01*
X122227729Y-99545385D01*
X122227731Y-99545387D01*
X122339550Y-99626628D01*
X122368385Y-99647578D01*
X122374413Y-99650262D01*
X122374415Y-99650263D01*
X122392907Y-99658496D01*
X122533248Y-99720980D01*
X122621508Y-99739740D01*
X122703311Y-99757128D01*
X122703315Y-99757128D01*
X122709768Y-99758500D01*
X122890232Y-99758500D01*
X122896685Y-99757128D01*
X122896689Y-99757128D01*
X122978492Y-99739740D01*
X123066752Y-99720980D01*
X123207093Y-99658496D01*
X123225585Y-99650263D01*
X123225587Y-99650262D01*
X123231615Y-99647578D01*
X123260450Y-99626628D01*
X123372269Y-99545387D01*
X123372271Y-99545385D01*
X123377613Y-99541504D01*
X123473754Y-99434729D01*
X123493948Y-99412301D01*
X123493949Y-99412300D01*
X123498367Y-99407393D01*
X123588599Y-99251107D01*
X123644365Y-99079475D01*
X123657225Y-98957128D01*
X123662539Y-98906565D01*
X123663229Y-98900000D01*
X123655068Y-98822352D01*
X123645055Y-98727089D01*
X123645055Y-98727088D01*
X123644365Y-98720525D01*
X123639098Y-98704313D01*
X123590641Y-98555178D01*
X123588599Y-98548893D01*
X123498367Y-98392607D01*
X123474461Y-98366056D01*
X123468550Y-98359491D01*
X129223391Y-98359491D01*
X129242255Y-98538966D01*
X129244295Y-98545244D01*
X129244295Y-98545245D01*
X129262630Y-98601675D01*
X129298021Y-98710598D01*
X129301324Y-98716320D01*
X129301325Y-98716321D01*
X129303752Y-98720525D01*
X129388253Y-98866884D01*
X129392671Y-98871791D01*
X129392672Y-98871792D01*
X129439873Y-98924214D01*
X129509007Y-99000995D01*
X129514349Y-99004876D01*
X129514351Y-99004878D01*
X129625667Y-99085754D01*
X129655005Y-99107069D01*
X129661033Y-99109753D01*
X129661035Y-99109754D01*
X129813837Y-99177786D01*
X129819868Y-99180471D01*
X129908128Y-99199231D01*
X129989931Y-99216619D01*
X129989935Y-99216619D01*
X129996388Y-99217991D01*
X130176852Y-99217991D01*
X130183305Y-99216619D01*
X130183309Y-99216619D01*
X130265112Y-99199231D01*
X130353372Y-99180471D01*
X130359403Y-99177786D01*
X130512205Y-99109754D01*
X130512207Y-99109753D01*
X130518235Y-99107069D01*
X130547573Y-99085754D01*
X130658889Y-99004878D01*
X130658891Y-99004876D01*
X130664233Y-99000995D01*
X130733367Y-98924214D01*
X130780568Y-98871792D01*
X130780569Y-98871791D01*
X130784987Y-98866884D01*
X130869488Y-98720525D01*
X130870080Y-98719500D01*
X148386496Y-98719500D01*
X148387186Y-98726065D01*
X148401386Y-98861166D01*
X148406458Y-98909428D01*
X148465473Y-99091056D01*
X148468776Y-99096778D01*
X148468777Y-99096779D01*
X148485674Y-99126045D01*
X148560960Y-99256444D01*
X148565378Y-99261351D01*
X148565379Y-99261352D01*
X148599455Y-99299197D01*
X148688747Y-99398366D01*
X148843248Y-99510618D01*
X148849276Y-99513302D01*
X148849278Y-99513303D01*
X149011681Y-99585609D01*
X149017712Y-99588294D01*
X149111113Y-99608147D01*
X149198056Y-99626628D01*
X149198061Y-99626628D01*
X149204513Y-99628000D01*
X149395487Y-99628000D01*
X149401939Y-99626628D01*
X149401944Y-99626628D01*
X149488887Y-99608147D01*
X149582288Y-99588294D01*
X149588319Y-99585609D01*
X149750722Y-99513303D01*
X149750724Y-99513302D01*
X149756752Y-99510618D01*
X149911253Y-99398366D01*
X150000545Y-99299197D01*
X150034621Y-99261352D01*
X150034622Y-99261351D01*
X150039040Y-99256444D01*
X150114326Y-99126045D01*
X150131223Y-99096779D01*
X150131224Y-99096778D01*
X150134527Y-99091056D01*
X150193542Y-98909428D01*
X150198615Y-98861166D01*
X150212814Y-98726065D01*
X150213504Y-98719500D01*
X150194971Y-98543170D01*
X150194232Y-98536135D01*
X150194232Y-98536133D01*
X150193542Y-98529572D01*
X150134527Y-98347944D01*
X150039040Y-98182556D01*
X150031100Y-98173737D01*
X149915675Y-98045545D01*
X149915674Y-98045544D01*
X149911253Y-98040634D01*
X149756752Y-97928382D01*
X149750724Y-97925698D01*
X149750722Y-97925697D01*
X149588319Y-97853391D01*
X149588318Y-97853391D01*
X149582288Y-97850706D01*
X149488887Y-97830853D01*
X149401944Y-97812372D01*
X149401939Y-97812372D01*
X149395487Y-97811000D01*
X149204513Y-97811000D01*
X149198061Y-97812372D01*
X149198056Y-97812372D01*
X149111113Y-97830853D01*
X149017712Y-97850706D01*
X149011682Y-97853391D01*
X149011681Y-97853391D01*
X148849278Y-97925697D01*
X148849276Y-97925698D01*
X148843248Y-97928382D01*
X148688747Y-98040634D01*
X148684326Y-98045544D01*
X148684325Y-98045545D01*
X148568901Y-98173737D01*
X148560960Y-98182556D01*
X148465473Y-98347944D01*
X148406458Y-98529572D01*
X148405768Y-98536133D01*
X148405768Y-98536135D01*
X148405029Y-98543170D01*
X148386496Y-98719500D01*
X130870080Y-98719500D01*
X130871915Y-98716321D01*
X130871916Y-98716320D01*
X130875219Y-98710598D01*
X130910610Y-98601675D01*
X130928945Y-98545245D01*
X130928945Y-98545244D01*
X130930985Y-98538966D01*
X130949849Y-98359491D01*
X130930985Y-98180016D01*
X130928677Y-98172911D01*
X130885979Y-98041500D01*
X130875219Y-98008384D01*
X130870379Y-98000000D01*
X130828283Y-97927089D01*
X130784987Y-97852098D01*
X130664233Y-97717987D01*
X130569134Y-97648893D01*
X130523577Y-97615794D01*
X130523576Y-97615793D01*
X130518235Y-97611913D01*
X130512207Y-97609229D01*
X130512205Y-97609228D01*
X130491479Y-97600000D01*
X146286496Y-97600000D01*
X146287186Y-97606565D01*
X146302806Y-97755178D01*
X146306458Y-97789928D01*
X146365473Y-97971556D01*
X146368776Y-97977278D01*
X146368777Y-97977279D01*
X146385685Y-98006565D01*
X146460960Y-98136944D01*
X146465378Y-98141851D01*
X146465379Y-98141852D01*
X146570406Y-98258496D01*
X146588747Y-98278866D01*
X146743248Y-98391118D01*
X146749276Y-98393802D01*
X146749278Y-98393803D01*
X146877986Y-98451107D01*
X146917712Y-98468794D01*
X147011113Y-98488647D01*
X147098056Y-98507128D01*
X147098061Y-98507128D01*
X147104513Y-98508500D01*
X147295487Y-98508500D01*
X147301939Y-98507128D01*
X147301944Y-98507128D01*
X147388887Y-98488647D01*
X147482288Y-98468794D01*
X147522014Y-98451107D01*
X147650722Y-98393803D01*
X147650724Y-98393802D01*
X147656752Y-98391118D01*
X147811253Y-98278866D01*
X147829594Y-98258496D01*
X147934621Y-98141852D01*
X147934622Y-98141851D01*
X147939040Y-98136944D01*
X148014315Y-98006565D01*
X148031223Y-97977279D01*
X148031224Y-97977278D01*
X148034527Y-97971556D01*
X148093542Y-97789928D01*
X148097195Y-97755178D01*
X148112814Y-97606565D01*
X148113504Y-97600000D01*
X148093542Y-97410072D01*
X148034527Y-97228444D01*
X147939040Y-97063056D01*
X147863784Y-96979475D01*
X147815675Y-96926045D01*
X147815674Y-96926044D01*
X147811253Y-96921134D01*
X147785173Y-96902186D01*
X147741819Y-96845964D01*
X147737871Y-96800000D01*
X152636771Y-96800000D01*
X152637461Y-96806565D01*
X152647512Y-96902187D01*
X152655635Y-96979475D01*
X152711401Y-97151107D01*
X152801633Y-97307393D01*
X152806051Y-97312300D01*
X152806052Y-97312301D01*
X152904124Y-97421221D01*
X152934842Y-97485228D01*
X152926077Y-97555682D01*
X152909249Y-97581863D01*
X152909932Y-97582359D01*
X152906053Y-97587698D01*
X152901633Y-97592607D01*
X152811401Y-97748893D01*
X152755635Y-97920525D01*
X152754945Y-97927088D01*
X152754945Y-97927089D01*
X152742495Y-98045545D01*
X152736771Y-98100000D01*
X152755635Y-98279475D01*
X152811401Y-98451107D01*
X152814704Y-98456829D01*
X152814705Y-98456830D01*
X152843745Y-98507128D01*
X152901633Y-98607393D01*
X152906051Y-98612300D01*
X152906052Y-98612301D01*
X153003497Y-98720525D01*
X153022387Y-98741504D01*
X153027729Y-98745385D01*
X153027731Y-98745387D01*
X153131776Y-98820980D01*
X153168385Y-98847578D01*
X153174413Y-98850262D01*
X153174415Y-98850263D01*
X153327217Y-98918295D01*
X153333248Y-98920980D01*
X153421508Y-98939740D01*
X153503311Y-98957128D01*
X153503315Y-98957128D01*
X153509768Y-98958500D01*
X153690232Y-98958500D01*
X153696685Y-98957128D01*
X153696689Y-98957128D01*
X153778492Y-98939740D01*
X153866752Y-98920980D01*
X153872783Y-98918295D01*
X154025585Y-98850263D01*
X154025587Y-98850262D01*
X154031615Y-98847578D01*
X154068224Y-98820980D01*
X154172269Y-98745387D01*
X154172271Y-98745385D01*
X154177613Y-98741504D01*
X154196503Y-98720525D01*
X154293948Y-98612301D01*
X154293949Y-98612300D01*
X154298367Y-98607393D01*
X154356255Y-98507128D01*
X154385295Y-98456830D01*
X154385296Y-98456829D01*
X154388599Y-98451107D01*
X154444365Y-98279475D01*
X154463229Y-98100000D01*
X154457505Y-98045545D01*
X154445055Y-97927089D01*
X154445055Y-97927088D01*
X154444365Y-97920525D01*
X154388599Y-97748893D01*
X154298367Y-97592607D01*
X154252077Y-97541196D01*
X154195876Y-97478779D01*
X154165158Y-97414772D01*
X154173923Y-97344318D01*
X154190751Y-97318137D01*
X154190068Y-97317641D01*
X154193948Y-97312301D01*
X154198367Y-97307393D01*
X154288599Y-97151107D01*
X154344365Y-96979475D01*
X154352489Y-96902187D01*
X154362539Y-96806565D01*
X154363229Y-96800000D01*
X154358450Y-96754536D01*
X154345055Y-96627089D01*
X154345055Y-96627088D01*
X154344365Y-96620525D01*
X154288599Y-96448893D01*
X154198367Y-96292607D01*
X154112018Y-96196706D01*
X154082035Y-96163407D01*
X154082034Y-96163406D01*
X154077613Y-96158496D01*
X153931615Y-96052422D01*
X153925587Y-96049738D01*
X153925585Y-96049737D01*
X153772783Y-95981705D01*
X153772781Y-95981705D01*
X153766752Y-95979020D01*
X153678492Y-95960260D01*
X153596689Y-95942872D01*
X153596685Y-95942872D01*
X153590232Y-95941500D01*
X153409768Y-95941500D01*
X153403315Y-95942872D01*
X153403311Y-95942872D01*
X153321508Y-95960260D01*
X153233248Y-95979020D01*
X153227219Y-95981704D01*
X153227217Y-95981705D01*
X153074416Y-96049737D01*
X153074414Y-96049738D01*
X153068386Y-96052422D01*
X153063045Y-96056302D01*
X153063044Y-96056303D01*
X152927731Y-96154613D01*
X152927729Y-96154615D01*
X152922387Y-96158496D01*
X152917966Y-96163406D01*
X152917965Y-96163407D01*
X152887983Y-96196706D01*
X152801633Y-96292607D01*
X152711401Y-96448893D01*
X152655635Y-96620525D01*
X152654945Y-96627088D01*
X152654945Y-96627089D01*
X152641550Y-96754536D01*
X152636771Y-96800000D01*
X147737871Y-96800000D01*
X147735743Y-96775228D01*
X147768875Y-96712436D01*
X147785170Y-96698317D01*
X147811253Y-96679366D01*
X147815675Y-96674455D01*
X147934621Y-96542352D01*
X147934622Y-96542351D01*
X147939040Y-96537444D01*
X148034527Y-96372056D01*
X148093542Y-96190428D01*
X148113504Y-96000500D01*
X148093542Y-95810572D01*
X148034527Y-95628944D01*
X147939040Y-95463556D01*
X147811253Y-95321634D01*
X147656752Y-95209382D01*
X147650724Y-95206698D01*
X147650722Y-95206697D01*
X147488319Y-95134391D01*
X147488318Y-95134391D01*
X147482288Y-95131706D01*
X147388887Y-95111853D01*
X147301944Y-95093372D01*
X147301939Y-95093372D01*
X147295487Y-95092000D01*
X147104513Y-95092000D01*
X147098061Y-95093372D01*
X147098056Y-95093372D01*
X147011113Y-95111853D01*
X146917712Y-95131706D01*
X146911682Y-95134391D01*
X146911681Y-95134391D01*
X146749278Y-95206697D01*
X146749276Y-95206698D01*
X146743248Y-95209382D01*
X146588747Y-95321634D01*
X146460960Y-95463556D01*
X146365473Y-95628944D01*
X146306458Y-95810572D01*
X146286496Y-96000500D01*
X146306458Y-96190428D01*
X146365473Y-96372056D01*
X146460960Y-96537444D01*
X146465378Y-96542351D01*
X146465379Y-96542352D01*
X146584325Y-96674455D01*
X146588747Y-96679366D01*
X146614827Y-96698314D01*
X146658181Y-96754536D01*
X146664257Y-96825272D01*
X146631125Y-96888064D01*
X146614830Y-96902183D01*
X146588747Y-96921134D01*
X146584326Y-96926044D01*
X146584325Y-96926045D01*
X146536217Y-96979475D01*
X146460960Y-97063056D01*
X146365473Y-97228444D01*
X146306458Y-97410072D01*
X146286496Y-97600000D01*
X130491479Y-97600000D01*
X130359403Y-97541196D01*
X130359401Y-97541196D01*
X130353372Y-97538511D01*
X130265112Y-97519751D01*
X130183309Y-97502363D01*
X130183305Y-97502363D01*
X130176852Y-97500991D01*
X129996388Y-97500991D01*
X129989935Y-97502363D01*
X129989931Y-97502363D01*
X129908128Y-97519751D01*
X129819868Y-97538511D01*
X129813839Y-97541195D01*
X129813837Y-97541196D01*
X129661036Y-97609228D01*
X129661034Y-97609229D01*
X129655006Y-97611913D01*
X129649665Y-97615793D01*
X129649664Y-97615794D01*
X129514351Y-97714104D01*
X129514349Y-97714106D01*
X129509007Y-97717987D01*
X129388253Y-97852098D01*
X129344957Y-97927089D01*
X129302862Y-98000000D01*
X129298021Y-98008384D01*
X129287261Y-98041500D01*
X129244564Y-98172911D01*
X129242255Y-98180016D01*
X129223391Y-98359491D01*
X123468550Y-98359491D01*
X123382035Y-98263407D01*
X123382034Y-98263406D01*
X123377613Y-98258496D01*
X123278630Y-98186580D01*
X123236957Y-98156303D01*
X123236956Y-98156302D01*
X123231615Y-98152422D01*
X123225587Y-98149738D01*
X123225585Y-98149737D01*
X123072783Y-98081705D01*
X123072781Y-98081705D01*
X123066752Y-98079020D01*
X122978492Y-98060260D01*
X122896689Y-98042872D01*
X122896685Y-98042872D01*
X122890232Y-98041500D01*
X122709768Y-98041500D01*
X122703315Y-98042872D01*
X122703311Y-98042872D01*
X122621508Y-98060260D01*
X122533248Y-98079020D01*
X122527216Y-98081706D01*
X122524931Y-98082448D01*
X122453963Y-98084476D01*
X122393165Y-98047814D01*
X122361840Y-97984102D01*
X122360684Y-97975786D01*
X122345055Y-97827089D01*
X122345055Y-97827088D01*
X122344365Y-97820525D01*
X122288599Y-97648893D01*
X122259404Y-97598325D01*
X122224870Y-97538511D01*
X122198367Y-97492607D01*
X122167654Y-97458496D01*
X122082035Y-97363407D01*
X122082034Y-97363406D01*
X122077613Y-97358496D01*
X122014032Y-97312301D01*
X121936957Y-97256303D01*
X121936956Y-97256302D01*
X121931615Y-97252422D01*
X121925587Y-97249738D01*
X121925585Y-97249737D01*
X121772783Y-97181705D01*
X121772781Y-97181705D01*
X121766752Y-97179020D01*
X121662355Y-97156830D01*
X121596689Y-97142872D01*
X121596685Y-97142872D01*
X121590232Y-97141500D01*
X121409768Y-97141500D01*
X121403315Y-97142872D01*
X121403311Y-97142872D01*
X121337645Y-97156830D01*
X121233248Y-97179020D01*
X121227219Y-97181704D01*
X121227217Y-97181705D01*
X121074416Y-97249737D01*
X121074414Y-97249738D01*
X121068386Y-97252422D01*
X121063045Y-97256302D01*
X121063044Y-97256303D01*
X120927731Y-97354613D01*
X120927729Y-97354615D01*
X120922387Y-97358496D01*
X120917966Y-97363406D01*
X120917965Y-97363407D01*
X120832347Y-97458496D01*
X120801633Y-97492607D01*
X120775130Y-97538511D01*
X120740597Y-97598325D01*
X120711401Y-97648893D01*
X120655635Y-97820525D01*
X120654945Y-97827088D01*
X120654945Y-97827089D01*
X120643891Y-97932263D01*
X120636771Y-98000000D01*
X120208000Y-98000000D01*
X120208000Y-95124501D01*
X142582774Y-95124501D01*
X142602736Y-95314429D01*
X142661751Y-95496057D01*
X142757238Y-95661445D01*
X142885025Y-95803367D01*
X143039526Y-95915619D01*
X143045554Y-95918303D01*
X143045556Y-95918304D01*
X143187958Y-95981705D01*
X143213990Y-95993295D01*
X143307390Y-96013148D01*
X143394334Y-96031629D01*
X143394339Y-96031629D01*
X143400791Y-96033001D01*
X143591765Y-96033001D01*
X143598217Y-96031629D01*
X143598222Y-96031629D01*
X143685165Y-96013148D01*
X143778566Y-95993295D01*
X143804598Y-95981705D01*
X143947000Y-95918304D01*
X143947002Y-95918303D01*
X143953030Y-95915619D01*
X144107531Y-95803367D01*
X144235318Y-95661445D01*
X144330805Y-95496057D01*
X144389820Y-95314429D01*
X144409782Y-95124501D01*
X144390845Y-94944323D01*
X144390510Y-94941136D01*
X144390510Y-94941134D01*
X144389820Y-94934573D01*
X144384247Y-94917421D01*
X144382219Y-94846456D01*
X144418880Y-94785658D01*
X144482592Y-94754332D01*
X144555329Y-94763379D01*
X144637582Y-94800000D01*
X144671434Y-94815072D01*
X144764834Y-94834925D01*
X144851778Y-94853406D01*
X144851783Y-94853406D01*
X144858235Y-94854778D01*
X145049209Y-94854778D01*
X145055661Y-94853406D01*
X145055666Y-94853406D01*
X145142610Y-94834925D01*
X145236010Y-94815072D01*
X145245354Y-94810912D01*
X145269863Y-94800000D01*
X148386496Y-94800000D01*
X148387186Y-94806565D01*
X148398838Y-94917424D01*
X148406458Y-94989928D01*
X148465473Y-95171556D01*
X148560960Y-95336944D01*
X148688747Y-95478866D01*
X148843248Y-95591118D01*
X148849276Y-95593802D01*
X148849278Y-95593803D01*
X149011681Y-95666109D01*
X149017712Y-95668794D01*
X149111112Y-95688647D01*
X149198056Y-95707128D01*
X149198061Y-95707128D01*
X149204513Y-95708500D01*
X149395487Y-95708500D01*
X149401939Y-95707128D01*
X149401944Y-95707128D01*
X149488888Y-95688647D01*
X149582288Y-95668794D01*
X149588319Y-95666109D01*
X149750722Y-95593803D01*
X149750724Y-95593802D01*
X149756752Y-95591118D01*
X149911253Y-95478866D01*
X150039040Y-95336944D01*
X150134527Y-95171556D01*
X150193542Y-94989928D01*
X150201163Y-94917424D01*
X150212814Y-94806565D01*
X150213504Y-94800000D01*
X150199490Y-94666666D01*
X150194232Y-94616635D01*
X150194232Y-94616633D01*
X150193542Y-94610072D01*
X150134527Y-94428444D01*
X150062864Y-94304320D01*
X152061404Y-94304320D01*
X152062140Y-94311323D01*
X152062140Y-94311324D01*
X152075849Y-94441752D01*
X152080364Y-94484712D01*
X152138818Y-94656421D01*
X152142512Y-94662425D01*
X152227149Y-94800000D01*
X152233862Y-94810912D01*
X152238793Y-94815947D01*
X152238795Y-94815950D01*
X152338166Y-94917424D01*
X152360771Y-94940507D01*
X152513238Y-95038765D01*
X152519858Y-95041174D01*
X152519861Y-95041176D01*
X152677066Y-95098394D01*
X152683685Y-95100803D01*
X152823769Y-95118500D01*
X152920610Y-95118500D01*
X153055255Y-95103397D01*
X153087983Y-95092000D01*
X153219894Y-95046064D01*
X153219897Y-95046062D01*
X153226552Y-95043745D01*
X153234522Y-95038765D01*
X153374402Y-94951359D01*
X153380376Y-94947626D01*
X153385373Y-94942664D01*
X153504085Y-94824778D01*
X153504088Y-94824774D01*
X153509082Y-94819815D01*
X153606273Y-94666666D01*
X153632406Y-94593275D01*
X153664757Y-94502425D01*
X153664758Y-94502420D01*
X153667119Y-94495790D01*
X153668033Y-94488130D01*
X153687762Y-94322673D01*
X153688596Y-94315680D01*
X153682293Y-94255707D01*
X153670372Y-94142288D01*
X153670371Y-94142286D01*
X153669636Y-94135288D01*
X153611182Y-93963579D01*
X153567683Y-93892872D01*
X153519834Y-93815095D01*
X153519832Y-93815092D01*
X153516138Y-93809088D01*
X153511207Y-93804053D01*
X153511205Y-93804050D01*
X153394157Y-93684525D01*
X153394156Y-93684524D01*
X153389229Y-93679493D01*
X153236762Y-93581235D01*
X153230142Y-93578826D01*
X153230139Y-93578824D01*
X153072934Y-93521606D01*
X153072933Y-93521606D01*
X153066315Y-93519197D01*
X152926231Y-93501500D01*
X152829390Y-93501500D01*
X152694745Y-93516603D01*
X152688092Y-93518920D01*
X152688091Y-93518920D01*
X152530106Y-93573936D01*
X152530103Y-93573938D01*
X152523448Y-93576255D01*
X152517469Y-93579991D01*
X152509367Y-93585054D01*
X152369624Y-93672374D01*
X152364628Y-93677335D01*
X152364627Y-93677336D01*
X152245915Y-93795222D01*
X152245912Y-93795226D01*
X152240918Y-93800185D01*
X152143727Y-93953334D01*
X152141362Y-93959976D01*
X152085243Y-94117575D01*
X152085242Y-94117580D01*
X152082881Y-94124210D01*
X152082048Y-94131198D01*
X152082047Y-94131201D01*
X152071935Y-94216001D01*
X152061404Y-94304320D01*
X150062864Y-94304320D01*
X150039040Y-94263056D01*
X149911253Y-94121134D01*
X149756752Y-94008882D01*
X149750724Y-94006198D01*
X149750722Y-94006197D01*
X149588319Y-93933891D01*
X149588318Y-93933891D01*
X149582288Y-93931206D01*
X149488888Y-93911353D01*
X149401944Y-93892872D01*
X149401939Y-93892872D01*
X149395487Y-93891500D01*
X149204513Y-93891500D01*
X149198061Y-93892872D01*
X149198056Y-93892872D01*
X149111113Y-93911353D01*
X149017712Y-93931206D01*
X149011682Y-93933891D01*
X149011681Y-93933891D01*
X148849278Y-94006197D01*
X148849276Y-94006198D01*
X148843248Y-94008882D01*
X148688747Y-94121134D01*
X148560960Y-94263056D01*
X148465473Y-94428444D01*
X148406458Y-94610072D01*
X148405768Y-94616633D01*
X148405768Y-94616635D01*
X148400510Y-94666666D01*
X148386496Y-94800000D01*
X145269863Y-94800000D01*
X145404444Y-94740081D01*
X145404446Y-94740080D01*
X145410474Y-94737396D01*
X145564975Y-94625144D01*
X145593670Y-94593275D01*
X145688343Y-94488130D01*
X145688344Y-94488129D01*
X145692762Y-94483222D01*
X145788249Y-94317834D01*
X145847264Y-94136206D01*
X145867226Y-93946278D01*
X145852807Y-93809088D01*
X145847954Y-93762913D01*
X145847954Y-93762911D01*
X145847264Y-93756350D01*
X145788249Y-93574722D01*
X145692762Y-93409334D01*
X145564975Y-93267412D01*
X145410474Y-93155160D01*
X145404446Y-93152476D01*
X145404444Y-93152475D01*
X145242041Y-93080169D01*
X145242040Y-93080169D01*
X145236010Y-93077484D01*
X145142609Y-93057631D01*
X145055666Y-93039150D01*
X145055661Y-93039150D01*
X145049209Y-93037778D01*
X144858235Y-93037778D01*
X144851783Y-93039150D01*
X144851778Y-93039150D01*
X144764835Y-93057631D01*
X144671434Y-93077484D01*
X144665404Y-93080169D01*
X144665403Y-93080169D01*
X144503000Y-93152475D01*
X144502998Y-93152476D01*
X144496970Y-93155160D01*
X144342469Y-93267412D01*
X144214682Y-93409334D01*
X144119195Y-93574722D01*
X144060180Y-93756350D01*
X144059490Y-93762911D01*
X144059490Y-93762913D01*
X144054637Y-93809088D01*
X144040218Y-93946278D01*
X144060180Y-94136206D01*
X144065753Y-94153358D01*
X144067781Y-94224323D01*
X144031120Y-94285121D01*
X143967408Y-94316447D01*
X143894671Y-94307400D01*
X143784597Y-94258392D01*
X143784596Y-94258392D01*
X143778566Y-94255707D01*
X143685166Y-94235854D01*
X143598222Y-94217373D01*
X143598217Y-94217373D01*
X143591765Y-94216001D01*
X143400791Y-94216001D01*
X143394339Y-94217373D01*
X143394334Y-94217373D01*
X143307390Y-94235854D01*
X143213990Y-94255707D01*
X143207960Y-94258392D01*
X143207959Y-94258392D01*
X143045556Y-94330698D01*
X143045554Y-94330699D01*
X143039526Y-94333383D01*
X142885025Y-94445635D01*
X142880604Y-94450545D01*
X142880603Y-94450546D01*
X142851182Y-94483222D01*
X142757238Y-94587557D01*
X142661751Y-94752945D01*
X142602736Y-94934573D01*
X142602046Y-94941134D01*
X142602046Y-94941136D01*
X142601711Y-94944323D01*
X142582774Y-95124501D01*
X120208000Y-95124501D01*
X120208000Y-92100000D01*
X129836771Y-92100000D01*
X129855635Y-92279475D01*
X129857675Y-92285753D01*
X129857675Y-92285754D01*
X129875789Y-92341504D01*
X129911401Y-92451107D01*
X130001633Y-92607393D01*
X130122387Y-92741504D01*
X130268385Y-92847578D01*
X130274413Y-92850262D01*
X130274415Y-92850263D01*
X130427217Y-92918295D01*
X130433248Y-92920980D01*
X130521508Y-92939740D01*
X130603311Y-92957128D01*
X130603315Y-92957128D01*
X130609768Y-92958500D01*
X130790232Y-92958500D01*
X130796685Y-92957128D01*
X130796689Y-92957128D01*
X130878492Y-92939740D01*
X130966752Y-92920980D01*
X130972783Y-92918295D01*
X131125585Y-92850263D01*
X131125587Y-92850262D01*
X131131615Y-92847578D01*
X131277613Y-92741504D01*
X131398367Y-92607393D01*
X131488599Y-92451107D01*
X131524211Y-92341504D01*
X131542325Y-92285754D01*
X131542325Y-92285753D01*
X131544365Y-92279475D01*
X131563229Y-92100000D01*
X131544365Y-91920525D01*
X131528895Y-91872911D01*
X131490641Y-91755178D01*
X131488599Y-91748893D01*
X131460371Y-91700000D01*
X143536771Y-91700000D01*
X143555635Y-91879475D01*
X143557675Y-91885753D01*
X143557675Y-91885754D01*
X143588825Y-91981625D01*
X143611401Y-92051107D01*
X143701633Y-92207393D01*
X143706051Y-92212300D01*
X143706052Y-92212301D01*
X143817965Y-92336593D01*
X143822387Y-92341504D01*
X143968385Y-92447578D01*
X143974413Y-92450262D01*
X143974415Y-92450263D01*
X143976311Y-92451107D01*
X144133248Y-92520980D01*
X144221508Y-92539740D01*
X144303311Y-92557128D01*
X144303315Y-92557128D01*
X144309768Y-92558500D01*
X144490232Y-92558500D01*
X144496685Y-92557128D01*
X144496689Y-92557128D01*
X144578492Y-92539740D01*
X144666752Y-92520980D01*
X144823689Y-92451107D01*
X144825585Y-92450263D01*
X144825587Y-92450262D01*
X144831615Y-92447578D01*
X144977613Y-92341504D01*
X144982035Y-92336593D01*
X145093948Y-92212301D01*
X145093949Y-92212300D01*
X145098367Y-92207393D01*
X145188599Y-92051107D01*
X145211175Y-91981625D01*
X145242325Y-91885754D01*
X145242325Y-91885753D01*
X145244365Y-91879475D01*
X145263229Y-91700000D01*
X145244365Y-91520525D01*
X145225807Y-91463407D01*
X145190641Y-91355178D01*
X145188599Y-91348893D01*
X145098367Y-91192607D01*
X144977613Y-91058496D01*
X144831615Y-90952422D01*
X144825587Y-90949738D01*
X144825585Y-90949737D01*
X144672783Y-90881705D01*
X144672781Y-90881705D01*
X144666752Y-90879020D01*
X144578492Y-90860260D01*
X144496689Y-90842872D01*
X144496685Y-90842872D01*
X144490232Y-90841500D01*
X144309768Y-90841500D01*
X144303315Y-90842872D01*
X144303311Y-90842872D01*
X144221508Y-90860260D01*
X144133248Y-90879020D01*
X144127219Y-90881704D01*
X144127217Y-90881705D01*
X143974416Y-90949737D01*
X143974414Y-90949738D01*
X143968386Y-90952422D01*
X143963045Y-90956302D01*
X143963044Y-90956303D01*
X143827731Y-91054613D01*
X143827729Y-91054615D01*
X143822387Y-91058496D01*
X143701633Y-91192607D01*
X143611401Y-91348893D01*
X143609359Y-91355178D01*
X143574194Y-91463407D01*
X143555635Y-91520525D01*
X143536771Y-91700000D01*
X131460371Y-91700000D01*
X131398367Y-91592607D01*
X131339375Y-91527089D01*
X131282035Y-91463407D01*
X131282034Y-91463406D01*
X131277613Y-91458496D01*
X131131615Y-91352422D01*
X131125587Y-91349738D01*
X131125585Y-91349737D01*
X130972783Y-91281705D01*
X130972781Y-91281705D01*
X130966752Y-91279020D01*
X130878492Y-91260260D01*
X130796689Y-91242872D01*
X130796685Y-91242872D01*
X130790232Y-91241500D01*
X130609768Y-91241500D01*
X130603315Y-91242872D01*
X130603311Y-91242872D01*
X130521508Y-91260260D01*
X130433248Y-91279020D01*
X130427219Y-91281704D01*
X130427217Y-91281705D01*
X130274416Y-91349737D01*
X130274414Y-91349738D01*
X130268386Y-91352422D01*
X130263045Y-91356302D01*
X130263044Y-91356303D01*
X130127731Y-91454613D01*
X130127729Y-91454615D01*
X130122387Y-91458496D01*
X130117966Y-91463406D01*
X130117965Y-91463407D01*
X130060626Y-91527089D01*
X130001633Y-91592607D01*
X129911401Y-91748893D01*
X129909359Y-91755178D01*
X129871106Y-91872911D01*
X129855635Y-91920525D01*
X129836771Y-92100000D01*
X120208000Y-92100000D01*
X120208000Y-88495612D01*
X133210870Y-88495612D01*
X133211560Y-88502177D01*
X133213874Y-88524188D01*
X133229734Y-88675087D01*
X133285500Y-88846719D01*
X133375732Y-89003005D01*
X133380150Y-89007912D01*
X133380151Y-89007913D01*
X133485917Y-89125378D01*
X133496486Y-89137116D01*
X133501828Y-89140997D01*
X133501830Y-89140999D01*
X133612117Y-89221127D01*
X133642484Y-89243190D01*
X133648512Y-89245874D01*
X133648514Y-89245875D01*
X133801316Y-89313907D01*
X133807347Y-89316592D01*
X133895607Y-89335352D01*
X133977410Y-89352740D01*
X133977414Y-89352740D01*
X133983867Y-89354112D01*
X134164331Y-89354112D01*
X134170784Y-89352740D01*
X134170788Y-89352740D01*
X134252591Y-89335352D01*
X134340851Y-89316592D01*
X134346882Y-89313907D01*
X134499684Y-89245875D01*
X134499686Y-89245874D01*
X134505714Y-89243190D01*
X134536081Y-89221127D01*
X134646368Y-89140999D01*
X134646370Y-89140997D01*
X134651712Y-89137116D01*
X134662281Y-89125378D01*
X134768047Y-89007913D01*
X134768048Y-89007912D01*
X134772466Y-89003005D01*
X134862698Y-88846719D01*
X134918464Y-88675087D01*
X134934325Y-88524188D01*
X134936638Y-88502177D01*
X134937328Y-88495612D01*
X134929484Y-88420980D01*
X134919154Y-88322701D01*
X134919154Y-88322700D01*
X134918464Y-88316137D01*
X134913221Y-88300000D01*
X135886496Y-88300000D01*
X135887186Y-88306565D01*
X135905510Y-88480905D01*
X135906458Y-88489928D01*
X135965473Y-88671556D01*
X136060960Y-88836944D01*
X136065378Y-88841851D01*
X136065379Y-88841852D01*
X136115931Y-88897996D01*
X136188747Y-88978866D01*
X136343248Y-89091118D01*
X136349276Y-89093802D01*
X136349278Y-89093803D01*
X136455283Y-89140999D01*
X136517712Y-89168794D01*
X136611113Y-89188647D01*
X136698056Y-89207128D01*
X136698061Y-89207128D01*
X136704513Y-89208500D01*
X136895487Y-89208500D01*
X136901939Y-89207128D01*
X136901944Y-89207128D01*
X136988887Y-89188647D01*
X137082288Y-89168794D01*
X137144717Y-89140999D01*
X137250722Y-89093803D01*
X137250724Y-89093802D01*
X137256752Y-89091118D01*
X137411253Y-88978866D01*
X137484069Y-88897996D01*
X137534621Y-88841852D01*
X137534622Y-88841851D01*
X137539040Y-88836944D01*
X137634527Y-88671556D01*
X137693542Y-88489928D01*
X137694491Y-88480905D01*
X137709903Y-88334260D01*
X138033904Y-88334260D01*
X138034594Y-88340825D01*
X138051553Y-88502177D01*
X138053866Y-88524188D01*
X138112881Y-88705816D01*
X138116184Y-88711538D01*
X138116185Y-88711539D01*
X138150094Y-88770270D01*
X138208368Y-88871204D01*
X138212786Y-88876111D01*
X138212787Y-88876112D01*
X138327042Y-89003005D01*
X138336155Y-89013126D01*
X138490656Y-89125378D01*
X138496684Y-89128062D01*
X138496686Y-89128063D01*
X138588170Y-89168794D01*
X138665120Y-89203054D01*
X138758521Y-89222907D01*
X138845464Y-89241388D01*
X138845469Y-89241388D01*
X138851921Y-89242760D01*
X139042895Y-89242760D01*
X139049347Y-89241388D01*
X139049352Y-89241388D01*
X139136296Y-89222907D01*
X139229696Y-89203054D01*
X139306646Y-89168794D01*
X139398130Y-89128063D01*
X139398132Y-89128062D01*
X139404160Y-89125378D01*
X139558661Y-89013126D01*
X139567774Y-89003005D01*
X139682029Y-88876112D01*
X139682030Y-88876111D01*
X139686448Y-88871204D01*
X139744722Y-88770270D01*
X139778631Y-88711539D01*
X139778632Y-88711538D01*
X139781935Y-88705816D01*
X139795570Y-88663851D01*
X139838910Y-88530468D01*
X139838911Y-88530463D01*
X139840950Y-88524188D01*
X139841903Y-88524498D01*
X139872792Y-88467294D01*
X139934945Y-88432977D01*
X139988500Y-88432724D01*
X140027444Y-88441002D01*
X140103311Y-88457128D01*
X140103315Y-88457128D01*
X140109768Y-88458500D01*
X140290232Y-88458500D01*
X140296685Y-88457128D01*
X140296689Y-88457128D01*
X140378492Y-88439740D01*
X140466752Y-88420980D01*
X140472783Y-88418295D01*
X140625585Y-88350263D01*
X140625587Y-88350262D01*
X140631615Y-88347578D01*
X140658982Y-88327695D01*
X140772269Y-88245387D01*
X140772271Y-88245385D01*
X140777613Y-88241504D01*
X140870760Y-88138054D01*
X140893948Y-88112301D01*
X140893949Y-88112300D01*
X140898367Y-88107393D01*
X140978275Y-87968989D01*
X140985295Y-87956830D01*
X140985296Y-87956829D01*
X140988599Y-87951107D01*
X141026040Y-87835873D01*
X141042325Y-87785754D01*
X141042325Y-87785753D01*
X141044365Y-87779475D01*
X141045344Y-87770166D01*
X141062539Y-87606565D01*
X141063229Y-87600000D01*
X141061008Y-87578866D01*
X141045055Y-87427089D01*
X141045055Y-87427088D01*
X141044365Y-87420525D01*
X140988599Y-87248893D01*
X140898367Y-87092607D01*
X140890046Y-87083365D01*
X140782035Y-86963407D01*
X140782034Y-86963406D01*
X140777613Y-86958496D01*
X140753282Y-86940818D01*
X140636957Y-86856303D01*
X140636956Y-86856302D01*
X140631615Y-86852422D01*
X140625587Y-86849738D01*
X140625585Y-86849737D01*
X140472783Y-86781705D01*
X140472781Y-86781705D01*
X140466752Y-86779020D01*
X140378492Y-86760260D01*
X140296689Y-86742872D01*
X140296685Y-86742872D01*
X140290232Y-86741500D01*
X140109768Y-86741500D01*
X140103315Y-86742872D01*
X140103311Y-86742872D01*
X140021508Y-86760260D01*
X139933248Y-86779020D01*
X139927219Y-86781704D01*
X139927217Y-86781705D01*
X139774416Y-86849737D01*
X139774414Y-86849738D01*
X139768386Y-86852422D01*
X139763045Y-86856302D01*
X139763044Y-86856303D01*
X139627731Y-86954613D01*
X139627729Y-86954615D01*
X139622387Y-86958496D01*
X139617966Y-86963406D01*
X139617965Y-86963407D01*
X139509955Y-87083365D01*
X139501633Y-87092607D01*
X139411401Y-87248893D01*
X139409359Y-87255178D01*
X139368898Y-87379704D01*
X139328825Y-87438310D01*
X139263428Y-87465947D01*
X139222870Y-87464015D01*
X139150862Y-87448709D01*
X139049352Y-87427132D01*
X139049347Y-87427132D01*
X139042895Y-87425760D01*
X138851921Y-87425760D01*
X138845469Y-87427132D01*
X138845464Y-87427132D01*
X138758521Y-87445613D01*
X138665120Y-87465466D01*
X138659090Y-87468151D01*
X138659089Y-87468151D01*
X138496686Y-87540457D01*
X138496684Y-87540458D01*
X138490656Y-87543142D01*
X138336155Y-87655394D01*
X138208368Y-87797316D01*
X138205067Y-87803034D01*
X138119577Y-87951107D01*
X138112881Y-87962704D01*
X138053866Y-88144332D01*
X138033904Y-88334260D01*
X137709903Y-88334260D01*
X137712814Y-88306565D01*
X137713504Y-88300000D01*
X137693542Y-88110072D01*
X137634527Y-87928444D01*
X137539040Y-87763056D01*
X137476685Y-87693803D01*
X137415675Y-87626045D01*
X137415674Y-87626044D01*
X137411253Y-87621134D01*
X137256752Y-87508882D01*
X137250724Y-87506198D01*
X137250722Y-87506197D01*
X137088319Y-87433891D01*
X137088318Y-87433891D01*
X137082288Y-87431206D01*
X136988887Y-87411353D01*
X136901944Y-87392872D01*
X136901939Y-87392872D01*
X136895487Y-87391500D01*
X136704513Y-87391500D01*
X136698061Y-87392872D01*
X136698056Y-87392872D01*
X136611112Y-87411353D01*
X136517712Y-87431206D01*
X136511682Y-87433891D01*
X136511681Y-87433891D01*
X136349278Y-87506197D01*
X136349276Y-87506198D01*
X136343248Y-87508882D01*
X136188747Y-87621134D01*
X136184326Y-87626044D01*
X136184325Y-87626045D01*
X136123316Y-87693803D01*
X136060960Y-87763056D01*
X135965473Y-87928444D01*
X135906458Y-88110072D01*
X135886496Y-88300000D01*
X134913221Y-88300000D01*
X134862698Y-88144505D01*
X134772466Y-87988219D01*
X134724304Y-87934729D01*
X134656134Y-87859019D01*
X134656133Y-87859018D01*
X134651712Y-87854108D01*
X134588939Y-87808500D01*
X134511056Y-87751915D01*
X134511055Y-87751914D01*
X134505714Y-87748034D01*
X134499686Y-87745350D01*
X134499684Y-87745349D01*
X134346882Y-87677317D01*
X134346880Y-87677317D01*
X134340851Y-87674632D01*
X134250342Y-87655394D01*
X134170788Y-87638484D01*
X134170784Y-87638484D01*
X134164331Y-87637112D01*
X133983867Y-87637112D01*
X133977414Y-87638484D01*
X133977410Y-87638484D01*
X133897856Y-87655394D01*
X133807347Y-87674632D01*
X133801318Y-87677316D01*
X133801316Y-87677317D01*
X133648515Y-87745349D01*
X133648513Y-87745350D01*
X133642485Y-87748034D01*
X133637144Y-87751914D01*
X133637143Y-87751915D01*
X133501830Y-87850225D01*
X133501828Y-87850227D01*
X133496486Y-87854108D01*
X133492065Y-87859018D01*
X133492064Y-87859019D01*
X133423895Y-87934729D01*
X133375732Y-87988219D01*
X133285500Y-88144505D01*
X133229734Y-88316137D01*
X133229044Y-88322700D01*
X133229044Y-88322701D01*
X133218714Y-88420980D01*
X133210870Y-88495612D01*
X120208000Y-88495612D01*
X120208000Y-88480905D01*
X120228002Y-88412784D01*
X120281658Y-88366291D01*
X120358904Y-88357391D01*
X120397592Y-88365192D01*
X120403672Y-88365500D01*
X121596328Y-88365500D01*
X121602408Y-88365192D01*
X121606996Y-88364267D01*
X121790245Y-88327318D01*
X121790248Y-88327317D01*
X121796284Y-88326100D01*
X121978873Y-88250095D01*
X121983992Y-88246668D01*
X121983996Y-88246666D01*
X122138099Y-88143504D01*
X122138104Y-88143500D01*
X122143223Y-88140073D01*
X122283073Y-88000223D01*
X122286500Y-87995104D01*
X122286504Y-87995099D01*
X122389666Y-87840996D01*
X122389668Y-87840992D01*
X122393095Y-87835873D01*
X122469100Y-87653284D01*
X122472085Y-87638484D01*
X122507267Y-87463996D01*
X122507267Y-87463995D01*
X122508192Y-87459408D01*
X122508500Y-87453328D01*
X122508500Y-86900000D01*
X131186496Y-86900000D01*
X131187186Y-86906565D01*
X131189650Y-86930004D01*
X131206458Y-87089928D01*
X131265473Y-87271556D01*
X131360960Y-87436944D01*
X131365378Y-87441851D01*
X131365379Y-87441852D01*
X131425733Y-87508882D01*
X131488747Y-87578866D01*
X131570804Y-87638484D01*
X131624253Y-87677317D01*
X131643248Y-87691118D01*
X131649276Y-87693802D01*
X131649278Y-87693803D01*
X131804824Y-87763056D01*
X131817712Y-87768794D01*
X131897502Y-87785754D01*
X131998056Y-87807128D01*
X131998061Y-87807128D01*
X132004513Y-87808500D01*
X132195487Y-87808500D01*
X132201939Y-87807128D01*
X132201944Y-87807128D01*
X132302498Y-87785754D01*
X132382288Y-87768794D01*
X132395176Y-87763056D01*
X132550722Y-87693803D01*
X132550724Y-87693802D01*
X132556752Y-87691118D01*
X132575748Y-87677317D01*
X132629196Y-87638484D01*
X132711253Y-87578866D01*
X132774267Y-87508882D01*
X132834621Y-87441852D01*
X132834622Y-87441851D01*
X132839040Y-87436944D01*
X132934527Y-87271556D01*
X132993542Y-87089928D01*
X133010351Y-86930004D01*
X133012814Y-86906565D01*
X133013504Y-86900000D01*
X133000789Y-86779020D01*
X132994232Y-86716635D01*
X132994232Y-86716633D01*
X132993542Y-86710072D01*
X132934527Y-86528444D01*
X132930175Y-86520905D01*
X132886293Y-86444900D01*
X132839040Y-86363056D01*
X132833703Y-86357128D01*
X132715675Y-86226045D01*
X132715674Y-86226044D01*
X132711253Y-86221134D01*
X132556752Y-86108882D01*
X132550724Y-86106198D01*
X132550722Y-86106197D01*
X132388319Y-86033891D01*
X132388318Y-86033891D01*
X132382288Y-86031206D01*
X132288887Y-86011353D01*
X132201944Y-85992872D01*
X132201939Y-85992872D01*
X132195487Y-85991500D01*
X132004513Y-85991500D01*
X131998061Y-85992872D01*
X131998056Y-85992872D01*
X131911113Y-86011353D01*
X131817712Y-86031206D01*
X131811682Y-86033891D01*
X131811681Y-86033891D01*
X131649278Y-86106197D01*
X131649276Y-86106198D01*
X131643248Y-86108882D01*
X131488747Y-86221134D01*
X131484326Y-86226044D01*
X131484325Y-86226045D01*
X131366298Y-86357128D01*
X131360960Y-86363056D01*
X131313707Y-86444900D01*
X131269826Y-86520905D01*
X131265473Y-86528444D01*
X131206458Y-86710072D01*
X131205768Y-86716633D01*
X131205768Y-86716635D01*
X131199211Y-86779020D01*
X131186496Y-86900000D01*
X122508500Y-86900000D01*
X122508500Y-86260672D01*
X122508192Y-86254592D01*
X122485390Y-86141504D01*
X122470318Y-86066755D01*
X122470317Y-86066752D01*
X122469100Y-86060716D01*
X122393095Y-85878127D01*
X122389668Y-85873008D01*
X122389666Y-85873004D01*
X122286504Y-85718901D01*
X122286500Y-85718896D01*
X122283073Y-85713777D01*
X122143223Y-85573927D01*
X122138104Y-85570500D01*
X122138099Y-85570496D01*
X121983996Y-85467334D01*
X121983992Y-85467332D01*
X121978873Y-85463905D01*
X121796284Y-85387900D01*
X121790248Y-85386683D01*
X121790245Y-85386682D01*
X121606996Y-85349733D01*
X121606995Y-85349733D01*
X121602408Y-85348808D01*
X121596328Y-85348500D01*
X120403672Y-85348500D01*
X120397592Y-85348808D01*
X120358904Y-85356609D01*
X120288175Y-85350467D01*
X120231994Y-85307060D01*
X120208000Y-85233095D01*
X120208000Y-81749328D01*
X120209500Y-81729943D01*
X120211805Y-81715142D01*
X120211805Y-81715139D01*
X120213186Y-81706270D01*
X120212366Y-81700000D01*
X120686685Y-81700000D01*
X120705931Y-82067241D01*
X120706444Y-82070481D01*
X120706445Y-82070489D01*
X120718997Y-82149737D01*
X120763459Y-82430459D01*
X120858639Y-82785674D01*
X120859824Y-82788762D01*
X120859825Y-82788764D01*
X120902525Y-82900000D01*
X120990427Y-83128994D01*
X120991925Y-83131934D01*
X121132279Y-83407393D01*
X121157380Y-83456657D01*
X121357668Y-83765075D01*
X121589098Y-84050867D01*
X121849133Y-84310902D01*
X122134925Y-84542332D01*
X122443342Y-84742620D01*
X122446276Y-84744115D01*
X122446283Y-84744119D01*
X122722221Y-84884716D01*
X122771006Y-84909573D01*
X123114326Y-85041361D01*
X123469541Y-85136541D01*
X123662558Y-85167112D01*
X123829511Y-85193555D01*
X123829519Y-85193556D01*
X123832759Y-85194069D01*
X124200000Y-85213315D01*
X124567241Y-85194069D01*
X124570481Y-85193556D01*
X124570489Y-85193555D01*
X124737442Y-85167112D01*
X124930459Y-85136541D01*
X125285674Y-85041361D01*
X125628994Y-84909573D01*
X125677779Y-84884716D01*
X125953717Y-84744119D01*
X125953724Y-84744115D01*
X125956658Y-84742620D01*
X126265075Y-84542332D01*
X126550867Y-84310902D01*
X126810902Y-84050867D01*
X127042332Y-83765075D01*
X127242620Y-83456657D01*
X127267722Y-83407393D01*
X127408075Y-83131934D01*
X127409573Y-83128994D01*
X127497475Y-82900000D01*
X146136771Y-82900000D01*
X146155635Y-83079475D01*
X146157675Y-83085753D01*
X146157675Y-83085754D01*
X146172680Y-83131934D01*
X146211401Y-83251107D01*
X146301633Y-83407393D01*
X146422387Y-83541504D01*
X146568385Y-83647578D01*
X146574413Y-83650262D01*
X146574415Y-83650263D01*
X146727217Y-83718295D01*
X146733248Y-83720980D01*
X146821508Y-83739740D01*
X146903311Y-83757128D01*
X146903315Y-83757128D01*
X146909768Y-83758500D01*
X147090232Y-83758500D01*
X147096685Y-83757128D01*
X147096689Y-83757128D01*
X147178492Y-83739740D01*
X147266752Y-83720980D01*
X147272783Y-83718295D01*
X147425585Y-83650263D01*
X147425587Y-83650262D01*
X147431615Y-83647578D01*
X147577613Y-83541504D01*
X147698367Y-83407393D01*
X147788599Y-83251107D01*
X147789890Y-83251853D01*
X147830877Y-83203635D01*
X147898805Y-83182988D01*
X147967112Y-83202343D01*
X148010045Y-83251890D01*
X148011401Y-83251107D01*
X148101633Y-83407393D01*
X148222387Y-83541504D01*
X148368385Y-83647578D01*
X148374413Y-83650262D01*
X148374415Y-83650263D01*
X148527217Y-83718295D01*
X148533248Y-83720980D01*
X148621508Y-83739740D01*
X148703311Y-83757128D01*
X148703315Y-83757128D01*
X148709768Y-83758500D01*
X148890232Y-83758500D01*
X148896685Y-83757128D01*
X148896689Y-83757128D01*
X148978492Y-83739740D01*
X149066752Y-83720980D01*
X149072783Y-83718295D01*
X149225585Y-83650263D01*
X149225587Y-83650262D01*
X149231615Y-83647578D01*
X149377613Y-83541504D01*
X149498367Y-83407393D01*
X149588599Y-83251107D01*
X149627320Y-83131934D01*
X149642325Y-83085754D01*
X149642325Y-83085753D01*
X149644365Y-83079475D01*
X149663229Y-82900000D01*
X149644365Y-82720525D01*
X149588599Y-82548893D01*
X149498367Y-82392607D01*
X149377613Y-82258496D01*
X149359571Y-82245387D01*
X149236957Y-82156303D01*
X149236956Y-82156302D01*
X149231615Y-82152422D01*
X149225587Y-82149738D01*
X149225585Y-82149737D01*
X149072783Y-82081705D01*
X149072781Y-82081705D01*
X149066752Y-82079020D01*
X148978492Y-82060260D01*
X148896689Y-82042872D01*
X148896685Y-82042872D01*
X148890232Y-82041500D01*
X148709768Y-82041500D01*
X148703315Y-82042872D01*
X148703311Y-82042872D01*
X148621508Y-82060260D01*
X148533248Y-82079020D01*
X148527219Y-82081704D01*
X148527217Y-82081705D01*
X148374416Y-82149737D01*
X148374414Y-82149738D01*
X148368386Y-82152422D01*
X148363045Y-82156302D01*
X148363044Y-82156303D01*
X148227731Y-82254613D01*
X148227729Y-82254615D01*
X148222387Y-82258496D01*
X148101633Y-82392607D01*
X148011401Y-82548893D01*
X148010110Y-82548147D01*
X147969123Y-82596365D01*
X147901195Y-82617012D01*
X147832888Y-82597657D01*
X147789955Y-82548110D01*
X147788599Y-82548893D01*
X147701668Y-82398325D01*
X147698367Y-82392607D01*
X147577613Y-82258496D01*
X147559571Y-82245387D01*
X147436957Y-82156303D01*
X147436956Y-82156302D01*
X147431615Y-82152422D01*
X147425587Y-82149738D01*
X147425585Y-82149737D01*
X147272783Y-82081705D01*
X147272781Y-82081705D01*
X147266752Y-82079020D01*
X147178492Y-82060260D01*
X147096689Y-82042872D01*
X147096685Y-82042872D01*
X147090232Y-82041500D01*
X146909768Y-82041500D01*
X146903315Y-82042872D01*
X146903311Y-82042872D01*
X146821508Y-82060260D01*
X146733248Y-82079020D01*
X146727219Y-82081704D01*
X146727217Y-82081705D01*
X146574416Y-82149737D01*
X146574414Y-82149738D01*
X146568386Y-82152422D01*
X146563045Y-82156302D01*
X146563044Y-82156303D01*
X146427731Y-82254613D01*
X146427729Y-82254615D01*
X146422387Y-82258496D01*
X146301633Y-82392607D01*
X146211401Y-82548893D01*
X146155635Y-82720525D01*
X146136771Y-82900000D01*
X127497475Y-82900000D01*
X127540175Y-82788764D01*
X127540176Y-82788762D01*
X127541361Y-82785674D01*
X127636541Y-82430459D01*
X127681003Y-82149737D01*
X127693555Y-82070489D01*
X127693556Y-82070481D01*
X127694069Y-82067241D01*
X127713315Y-81700000D01*
X127708074Y-81600000D01*
X132636771Y-81600000D01*
X132637461Y-81606565D01*
X132646310Y-81690751D01*
X132655635Y-81779475D01*
X132711401Y-81951107D01*
X132801633Y-82107393D01*
X132922387Y-82241504D01*
X132927729Y-82245385D01*
X132927731Y-82245387D01*
X133063043Y-82343697D01*
X133068385Y-82347578D01*
X133074413Y-82350262D01*
X133074415Y-82350263D01*
X133169521Y-82392607D01*
X133233248Y-82420980D01*
X133321508Y-82439740D01*
X133403311Y-82457128D01*
X133403315Y-82457128D01*
X133409768Y-82458500D01*
X133590232Y-82458500D01*
X133596685Y-82457128D01*
X133596689Y-82457128D01*
X133678492Y-82439740D01*
X133766752Y-82420980D01*
X133830479Y-82392607D01*
X133925585Y-82350263D01*
X133925587Y-82350262D01*
X133931615Y-82347578D01*
X133936957Y-82343697D01*
X134072269Y-82245387D01*
X134072271Y-82245385D01*
X134077613Y-82241504D01*
X134198367Y-82107393D01*
X134288599Y-81951107D01*
X134344365Y-81779475D01*
X134352719Y-81700000D01*
X151686685Y-81700000D01*
X151705931Y-82067241D01*
X151706444Y-82070481D01*
X151706445Y-82070489D01*
X151718997Y-82149737D01*
X151763459Y-82430459D01*
X151858639Y-82785674D01*
X151859824Y-82788762D01*
X151859825Y-82788764D01*
X151902525Y-82900000D01*
X151990427Y-83128994D01*
X151991925Y-83131934D01*
X152132279Y-83407393D01*
X152157380Y-83456657D01*
X152357668Y-83765075D01*
X152589098Y-84050867D01*
X152849133Y-84310902D01*
X153134925Y-84542332D01*
X153443342Y-84742620D01*
X153446284Y-84744119D01*
X153491292Y-84767052D01*
X153542907Y-84815801D01*
X153559973Y-84884716D01*
X153537072Y-84951917D01*
X153527733Y-84963620D01*
X153501633Y-84992607D01*
X153498332Y-84998325D01*
X153418235Y-85137057D01*
X153411401Y-85148893D01*
X153355635Y-85320525D01*
X153354945Y-85327088D01*
X153354945Y-85327089D01*
X153340814Y-85461536D01*
X153336771Y-85500000D01*
X153355635Y-85679475D01*
X153411401Y-85851107D01*
X153501633Y-86007393D01*
X153506051Y-86012300D01*
X153506052Y-86012301D01*
X153617965Y-86136593D01*
X153622387Y-86141504D01*
X153627729Y-86145385D01*
X153627731Y-86145387D01*
X153731988Y-86221134D01*
X153768385Y-86247578D01*
X153774413Y-86250262D01*
X153774415Y-86250263D01*
X153801381Y-86262269D01*
X153933248Y-86320980D01*
X154010687Y-86337440D01*
X154103311Y-86357128D01*
X154103315Y-86357128D01*
X154109768Y-86358500D01*
X154290232Y-86358500D01*
X154296685Y-86357128D01*
X154296689Y-86357128D01*
X154389313Y-86337440D01*
X154466752Y-86320980D01*
X154598619Y-86262269D01*
X154625585Y-86250263D01*
X154625587Y-86250262D01*
X154631615Y-86247578D01*
X154668012Y-86221134D01*
X154772269Y-86145387D01*
X154772271Y-86145385D01*
X154777613Y-86141504D01*
X154782035Y-86136593D01*
X154893948Y-86012301D01*
X154893949Y-86012300D01*
X154898367Y-86007393D01*
X154988599Y-85851107D01*
X155044365Y-85679475D01*
X155063229Y-85500000D01*
X155047593Y-85351238D01*
X155060365Y-85281400D01*
X155108867Y-85229553D01*
X155179498Y-85212241D01*
X155200000Y-85213315D01*
X155567241Y-85194069D01*
X155570481Y-85193556D01*
X155570489Y-85193555D01*
X155737442Y-85167112D01*
X155930459Y-85136541D01*
X156285674Y-85041361D01*
X156628994Y-84909573D01*
X156677779Y-84884716D01*
X156953717Y-84744119D01*
X156953724Y-84744115D01*
X156956658Y-84742620D01*
X157265075Y-84542332D01*
X157550867Y-84310902D01*
X157810902Y-84050867D01*
X158042332Y-83765075D01*
X158242620Y-83456657D01*
X158267722Y-83407393D01*
X158408075Y-83131934D01*
X158409573Y-83128994D01*
X158497475Y-82900000D01*
X158540175Y-82788764D01*
X158540176Y-82788762D01*
X158541361Y-82785674D01*
X158636541Y-82430459D01*
X158681003Y-82149737D01*
X158693555Y-82070489D01*
X158693556Y-82070481D01*
X158694069Y-82067241D01*
X158713315Y-81700000D01*
X158694069Y-81332759D01*
X158686678Y-81286089D01*
X158637057Y-80972802D01*
X158636541Y-80969541D01*
X158541361Y-80614326D01*
X158409573Y-80271006D01*
X158301296Y-80058500D01*
X158244119Y-79946284D01*
X158244115Y-79946277D01*
X158242620Y-79943343D01*
X158231317Y-79925937D01*
X158044134Y-79637700D01*
X158042332Y-79634925D01*
X157810902Y-79349133D01*
X157550867Y-79089098D01*
X157265075Y-78857668D01*
X157099090Y-78749876D01*
X156959427Y-78659178D01*
X156959424Y-78659176D01*
X156956658Y-78657380D01*
X156953724Y-78655885D01*
X156953717Y-78655881D01*
X156631934Y-78491925D01*
X156628994Y-78490427D01*
X156345763Y-78381705D01*
X156288764Y-78359825D01*
X156288762Y-78359824D01*
X156285674Y-78358639D01*
X155930459Y-78263459D01*
X155737442Y-78232888D01*
X155570489Y-78206445D01*
X155570481Y-78206444D01*
X155567241Y-78205931D01*
X155200000Y-78186685D01*
X154832759Y-78205931D01*
X154829519Y-78206444D01*
X154829511Y-78206445D01*
X154662558Y-78232888D01*
X154469541Y-78263459D01*
X154114326Y-78358639D01*
X154111238Y-78359824D01*
X154111236Y-78359825D01*
X154054237Y-78381705D01*
X153771006Y-78490427D01*
X153768066Y-78491925D01*
X153446284Y-78655881D01*
X153446277Y-78655885D01*
X153443343Y-78657380D01*
X153440577Y-78659176D01*
X153440574Y-78659178D01*
X153389098Y-78692607D01*
X153134925Y-78857668D01*
X152849133Y-79089098D01*
X152589098Y-79349133D01*
X152357668Y-79634925D01*
X152355866Y-79637700D01*
X152168684Y-79925937D01*
X152157380Y-79943343D01*
X152155885Y-79946277D01*
X152155881Y-79946284D01*
X152098704Y-80058500D01*
X151990427Y-80271006D01*
X151858639Y-80614326D01*
X151763459Y-80969541D01*
X151762943Y-80972802D01*
X151713323Y-81286089D01*
X151705931Y-81332759D01*
X151686685Y-81700000D01*
X134352719Y-81700000D01*
X134353691Y-81690751D01*
X134362539Y-81606565D01*
X134363229Y-81600000D01*
X134344365Y-81420525D01*
X134288599Y-81248893D01*
X134198367Y-81092607D01*
X134077613Y-80958496D01*
X133931615Y-80852422D01*
X133925587Y-80849738D01*
X133925585Y-80849737D01*
X133772783Y-80781705D01*
X133772781Y-80781705D01*
X133766752Y-80779020D01*
X133678492Y-80760260D01*
X133596689Y-80742872D01*
X133596685Y-80742872D01*
X133590232Y-80741500D01*
X133409768Y-80741500D01*
X133403315Y-80742872D01*
X133403311Y-80742872D01*
X133321508Y-80760260D01*
X133233248Y-80779020D01*
X133227219Y-80781704D01*
X133227217Y-80781705D01*
X133074416Y-80849737D01*
X133074414Y-80849738D01*
X133068386Y-80852422D01*
X133063045Y-80856302D01*
X133063044Y-80856303D01*
X132927731Y-80954613D01*
X132927729Y-80954615D01*
X132922387Y-80958496D01*
X132801633Y-81092607D01*
X132711401Y-81248893D01*
X132655635Y-81420525D01*
X132636771Y-81600000D01*
X127708074Y-81600000D01*
X127694069Y-81332759D01*
X127686678Y-81286089D01*
X127637057Y-80972802D01*
X127636541Y-80969541D01*
X127541361Y-80614326D01*
X127409573Y-80271006D01*
X127301296Y-80058500D01*
X127244119Y-79946284D01*
X127244115Y-79946277D01*
X127242620Y-79943343D01*
X127231317Y-79925937D01*
X127044134Y-79637700D01*
X127042332Y-79634925D01*
X126810902Y-79349133D01*
X126661769Y-79200000D01*
X138036771Y-79200000D01*
X138037461Y-79206565D01*
X138052717Y-79351708D01*
X138055635Y-79379475D01*
X138111401Y-79551107D01*
X138201633Y-79707393D01*
X138322387Y-79841504D01*
X138327729Y-79845385D01*
X138327731Y-79845387D01*
X138458745Y-79940574D01*
X138468385Y-79947578D01*
X138474413Y-79950262D01*
X138474415Y-79950263D01*
X138627217Y-80018295D01*
X138633248Y-80020980D01*
X138721508Y-80039740D01*
X138803311Y-80057128D01*
X138803315Y-80057128D01*
X138809768Y-80058500D01*
X138990232Y-80058500D01*
X138996685Y-80057128D01*
X138996689Y-80057128D01*
X139078492Y-80039740D01*
X139166752Y-80020980D01*
X139172783Y-80018295D01*
X139325585Y-79950263D01*
X139325587Y-79950262D01*
X139331615Y-79947578D01*
X139341255Y-79940574D01*
X139472269Y-79845387D01*
X139472271Y-79845385D01*
X139477613Y-79841504D01*
X139598367Y-79707393D01*
X139688599Y-79551107D01*
X139744365Y-79379475D01*
X139747284Y-79351708D01*
X139762539Y-79206565D01*
X139763229Y-79200000D01*
X139751819Y-79091442D01*
X139745055Y-79027089D01*
X139745055Y-79027088D01*
X139744365Y-79020525D01*
X139688599Y-78848893D01*
X139598367Y-78692607D01*
X139568268Y-78659178D01*
X139482035Y-78563407D01*
X139482034Y-78563406D01*
X139477613Y-78558496D01*
X139416804Y-78514315D01*
X139336957Y-78456303D01*
X139336956Y-78456302D01*
X139331615Y-78452422D01*
X139325587Y-78449738D01*
X139325585Y-78449737D01*
X139172783Y-78381705D01*
X139172781Y-78381705D01*
X139166752Y-78379020D01*
X139078492Y-78360260D01*
X138996689Y-78342872D01*
X138996685Y-78342872D01*
X138990232Y-78341500D01*
X138809768Y-78341500D01*
X138803315Y-78342872D01*
X138803311Y-78342872D01*
X138721508Y-78360260D01*
X138633248Y-78379020D01*
X138627219Y-78381704D01*
X138627217Y-78381705D01*
X138474416Y-78449737D01*
X138474414Y-78449738D01*
X138468386Y-78452422D01*
X138463045Y-78456302D01*
X138463044Y-78456303D01*
X138327731Y-78554613D01*
X138327729Y-78554615D01*
X138322387Y-78558496D01*
X138317966Y-78563406D01*
X138317965Y-78563407D01*
X138231733Y-78659178D01*
X138201633Y-78692607D01*
X138111401Y-78848893D01*
X138055635Y-79020525D01*
X138054945Y-79027088D01*
X138054945Y-79027089D01*
X138048181Y-79091442D01*
X138036771Y-79200000D01*
X126661769Y-79200000D01*
X126550867Y-79089098D01*
X126265075Y-78857668D01*
X126099090Y-78749876D01*
X125959427Y-78659178D01*
X125959424Y-78659176D01*
X125956658Y-78657380D01*
X125953724Y-78655885D01*
X125953717Y-78655881D01*
X125631934Y-78491925D01*
X125628994Y-78490427D01*
X125345763Y-78381705D01*
X125288764Y-78359825D01*
X125288762Y-78359824D01*
X125285674Y-78358639D01*
X124930459Y-78263459D01*
X124737442Y-78232888D01*
X124570489Y-78206445D01*
X124570481Y-78206444D01*
X124567241Y-78205931D01*
X124200000Y-78186685D01*
X123832759Y-78205931D01*
X123829519Y-78206444D01*
X123829511Y-78206445D01*
X123662558Y-78232888D01*
X123469541Y-78263459D01*
X123114326Y-78358639D01*
X123111238Y-78359824D01*
X123111236Y-78359825D01*
X123054237Y-78381705D01*
X122771006Y-78490427D01*
X122768066Y-78491925D01*
X122446284Y-78655881D01*
X122446277Y-78655885D01*
X122443343Y-78657380D01*
X122440577Y-78659176D01*
X122440574Y-78659178D01*
X122389098Y-78692607D01*
X122134925Y-78857668D01*
X121849133Y-79089098D01*
X121589098Y-79349133D01*
X121357668Y-79634925D01*
X121355866Y-79637700D01*
X121168684Y-79925937D01*
X121157380Y-79943343D01*
X121155885Y-79946277D01*
X121155881Y-79946284D01*
X121098704Y-80058500D01*
X120990427Y-80271006D01*
X120858639Y-80614326D01*
X120763459Y-80969541D01*
X120762943Y-80972802D01*
X120713323Y-81286089D01*
X120705931Y-81332759D01*
X120686685Y-81700000D01*
X120212366Y-81700000D01*
X120210584Y-81686374D01*
X120209654Y-81664216D01*
X120224760Y-81337482D01*
X120225834Y-81325893D01*
X120275167Y-80972236D01*
X120277306Y-80960796D01*
X120359059Y-80613204D01*
X120362244Y-80602011D01*
X120475717Y-80263451D01*
X120479921Y-80252598D01*
X120624157Y-79925937D01*
X120629337Y-79915532D01*
X120803105Y-79603559D01*
X120809221Y-79593682D01*
X121011023Y-79299088D01*
X121018037Y-79289800D01*
X121246160Y-79015081D01*
X121254001Y-79006481D01*
X121506481Y-78754001D01*
X121515081Y-78746160D01*
X121789800Y-78518037D01*
X121799088Y-78511023D01*
X122093682Y-78309221D01*
X122103559Y-78303105D01*
X122415532Y-78129337D01*
X122425937Y-78124157D01*
X122589268Y-78052039D01*
X122752602Y-77979919D01*
X122763447Y-77975719D01*
X123102013Y-77862243D01*
X123113201Y-77859060D01*
X123460796Y-77777306D01*
X123472236Y-77775167D01*
X123825893Y-77725834D01*
X123837481Y-77724760D01*
X123858611Y-77723783D01*
X124156816Y-77709997D01*
X124182015Y-77711362D01*
X124184858Y-77711805D01*
X124184860Y-77711805D01*
X124193730Y-77713186D01*
X124202632Y-77712022D01*
X124202635Y-77712022D01*
X124225251Y-77709064D01*
X124241589Y-77708000D01*
X155150672Y-77708000D01*
X155170057Y-77709500D01*
G37*
%TD.AperFunction*%
%TD*%
M02*
